<svg width="20" height="20" viewBox="0 0 20 20" fill="none" xmlns="http://www.w3.org/2000/svg">
<g clip-path="url(#clip0_1365_4)">
<path d="M11.9138 10.0019L19.6797 17.8185L19.8553 18.3844L19.7187 19.0634L19.1138 19.6566L18.5089 19.8322H18.0172L17.3031 19.239L15.8007 17.7366L12.9324 14.8644L0.319676 2.22048L0.16748 1.32682L0.585041 0.558037L1.33821 0.144379L2.18114 0.230232L3.27772 1.3034L11.9138 10.0019Z" fill="white"/>
<path d="M17.5257 19.6644L15.7891 17.9278C15.7687 17.8992 15.7591 17.8644 15.7621 17.8294C15.765 17.7945 15.7802 17.7617 15.805 17.7369C15.8298 17.7121 15.8626 17.6969 15.8975 17.6939C15.9325 17.691 15.9673 17.7006 15.9959 17.721L17.7325 19.4576C17.97 19.6334 18.2628 19.7181 18.5575 19.6962C18.8522 19.6744 19.1293 19.5474 19.3383 19.3384C19.5472 19.1295 19.6742 18.8524 19.6961 18.5577C19.7179 18.263 19.6332 17.9702 19.4574 17.7327L2.28664 0.561947C2.05746 0.368029 1.76121 0.272022 1.46186 0.294657C1.1625 0.317291 0.884056 0.45675 0.686642 0.682922C0.460469 0.880337 0.32101 1.15878 0.298376 1.45814C0.275742 1.7575 0.371748 2.05374 0.565666 2.28292L12.9481 14.6732C12.9685 14.7017 12.978 14.7366 12.9751 14.7715C12.9722 14.8065 12.957 14.8393 12.9322 14.8641C12.9074 14.8889 12.8746 14.9041 12.8397 14.907C12.8047 14.9099 12.7698 14.9004 12.7413 14.88L0.335422 2.47804C0.095631 2.19268 -0.0223909 1.8245 0.0068106 1.45292C0.0360121 1.08133 0.210097 0.736104 0.49152 0.491703C0.735921 0.21028 1.08114 0.0361952 1.45273 0.00699371C1.82432 -0.0222078 2.1925 0.0958141 2.47786 0.335605L19.6486 17.5259C19.8651 17.8205 19.9689 18.183 19.9411 18.5476C19.9134 18.9121 19.756 19.2547 19.4975 19.5133C19.2389 19.7718 18.8963 19.9292 18.5318 19.9569C18.1672 19.9847 17.8047 19.8809 17.5101 19.6644H17.5257Z" fill="#9541BA"/>
<path d="M10.0016 8.08584L17.8182 0.319988L18.384 0.144379L19.0631 0.280964L19.6562 0.885842L19.8318 1.49072V1.98243L19.2387 2.70048L17.7362 4.19901L14.864 7.06731L2.22014 19.68L1.32648 19.8322L0.557701 19.4185L0.144043 18.6615L0.229897 17.8185L1.30307 16.7219L10.0016 8.08584Z" fill="white"/>
<path d="M19.6644 2.47804L17.9278 4.21463C17.9018 4.23876 17.8676 4.25218 17.8322 4.25218C17.7967 4.25218 17.7625 4.23876 17.7365 4.21463C17.7237 4.20225 17.7134 4.1874 17.7065 4.17097C17.6995 4.15454 17.6959 4.13687 17.6959 4.11902C17.6959 4.10116 17.6995 4.08349 17.7065 4.06706C17.7134 4.05063 17.7237 4.03579 17.7365 4.02341L19.4731 2.28292C19.6666 2.05325 19.7619 1.7567 19.7386 1.45733C19.7152 1.15796 19.575 0.87979 19.3483 0.682918C19.1508 0.456746 18.8724 0.317287 18.573 0.294652C18.2737 0.272018 17.9774 0.368024 17.7483 0.561942L0.577522 17.7327C0.383604 17.9619 0.287597 18.2581 0.310232 18.5575C0.332866 18.8568 0.472325 19.1353 0.698497 19.3327C0.895369 19.5594 1.17353 19.6996 1.47291 19.723C1.77228 19.7463 2.06883 19.651 2.2985 19.4576L14.6731 7.0517C14.7018 7.02843 14.7381 7.01669 14.775 7.01877C14.8118 7.02085 14.8466 7.0366 14.8724 7.06295C14.8983 7.0893 14.9134 7.12434 14.9148 7.16123C14.9162 7.19813 14.9038 7.23421 14.88 7.26243L2.47801 19.6644C2.19314 19.9046 1.82526 20.0233 1.45369 19.9949C1.08211 19.9664 0.736612 19.793 0.491668 19.5122C0.210499 19.2685 0.0365124 18.9239 0.00730398 18.553C-0.0219044 18.182 0.0960111 17.8145 0.33557 17.5297L17.5258 0.335601C17.8105 0.0960416 18.1781 -0.0218739 18.549 0.0073345C18.92 0.0365429 19.2645 0.21053 19.5083 0.491698C19.7897 0.7361 19.9638 1.08132 19.993 1.45291C20.0222 1.8245 19.9041 2.19268 19.6644 2.47804Z" fill="#9541BA"/>
</g>
<defs>
<clipPath id="clip0_1365_4">
<rect width="20" height="20" fill="white"/>
</clipPath>
</defs>
</svg>
