<svg width="27" height="22" viewBox="0 0 27 22" fill="none" xmlns="http://www.w3.org/2000/svg">
<path d="M25.5556 3.4828H23.1978C23.1693 3.47813 23.1434 3.46348 23.1247 3.44148C23.106 3.41947 23.0957 3.39154 23.0957 3.36266C23.0957 3.33379 23.106 3.30585 23.1247 3.28385C23.1434 3.26184 23.1693 3.2472 23.1978 3.24253H25.5556C25.8113 3.22805 26.0518 3.11627 26.2277 2.93012C26.4037 2.74396 26.5017 2.49754 26.5017 2.24141C26.5017 1.98527 26.4037 1.73885 26.2277 1.55269C26.0518 1.36654 25.8113 1.25476 25.5556 1.24028H2.24309C2.10685 1.23257 1.97048 1.25275 1.84232 1.29958C1.71415 1.34641 1.5969 1.4189 1.49772 1.51262C1.39855 1.60634 1.31955 1.71931 1.26555 1.84463C1.21156 1.96994 1.18371 2.10495 1.18371 2.24141C1.18371 2.37786 1.21156 2.51287 1.26555 2.63818C1.31955 2.7635 1.39855 2.87647 1.49772 2.97019C1.5969 3.06391 1.71415 3.1364 1.84232 3.18323C1.97048 3.23006 2.10685 3.25024 2.24309 3.24253H19.0651C19.0825 3.23967 19.1004 3.24064 19.1174 3.24536C19.1344 3.25009 19.1502 3.25845 19.1636 3.26988C19.1771 3.28131 19.1879 3.29553 19.1953 3.31155C19.2027 3.32757 19.2065 3.34501 19.2065 3.36266C19.2065 3.38031 19.2027 3.39775 19.1953 3.41377C19.1879 3.42979 19.1771 3.44401 19.1636 3.45544C19.1502 3.46687 19.1344 3.47523 19.1174 3.47996C19.1004 3.48468 19.0825 3.48565 19.0651 3.4828H2.24309C2.07476 3.49135 1.90645 3.46558 1.7484 3.40706C1.59034 3.34853 1.44583 3.25848 1.32367 3.14236C1.2015 3.02625 1.10423 2.8865 1.03776 2.73162C0.971289 2.57673 0.937012 2.40995 0.937012 2.24141C0.937012 2.07286 0.971289 1.90608 1.03776 1.75119C1.10423 1.59631 1.2015 1.45656 1.32367 1.34045C1.44583 1.22433 1.59034 1.13428 1.7484 1.07575C1.90645 1.01723 2.07476 0.991461 2.24309 1.00001H25.5556C25.8739 1.01619 26.1739 1.15404 26.3935 1.38507C26.6131 1.6161 26.7355 1.92266 26.7355 2.24141C26.7355 2.56015 26.6131 2.86671 26.3935 3.09774C26.1739 3.32877 25.8739 3.46662 25.5556 3.4828Z" fill="#9541BA" stroke="#9541BA" stroke-width="0.5"/>
<path d="M18.2994 12.2414H16.6495C16.6015 12.2414 16.5662 12.187 16.5662 12.1229C16.5662 12.0588 16.6015 12.0011 16.6495 12.0011H18.2994C18.6902 12.0011 19.0074 11.5526 19.0074 11.0016C19.0074 10.4506 18.687 9.99891 18.2994 9.99891H1.87458C1.48695 9.99891 1.16979 10.4474 1.16979 11.0016C1.16979 11.5558 1.49015 12.0011 1.87458 12.0011H13.7279C13.7759 12.0011 13.8144 12.0556 13.8144 12.1229C13.8144 12.1902 13.7759 12.2414 13.7279 12.2414H1.87458C1.39404 12.2414 1 11.684 1 11.0016C1 10.3193 1.39404 9.75864 1.87458 9.75864H18.2994C18.7831 9.75864 19.1772 10.3161 19.1772 11.0016C19.1772 11.6872 18.7927 12.2414 18.2994 12.2414Z" fill="#9541BA" stroke="#9541BA" stroke-width="0.5"/>
<path d="M22.0156 21H20.0005C19.972 20.9954 19.9461 20.9807 19.9274 20.9587C19.9087 20.9367 19.8985 20.9088 19.8985 20.8799C19.8985 20.851 19.9087 20.8231 19.9274 20.8011C19.9461 20.7791 19.972 20.7644 20.0005 20.7598H22.0156C22.2553 20.7238 22.4742 20.6029 22.6324 20.4192C22.7906 20.2355 22.8777 20.0011 22.8777 19.7586C22.8777 19.5162 22.7906 19.2818 22.6324 19.0981C22.4742 18.9143 22.2553 18.7935 22.0156 18.7575H2.06363C1.82386 18.7935 1.60497 18.9143 1.44677 19.0981C1.28856 19.2818 1.20155 19.5162 1.20155 19.7586C1.20155 20.0011 1.28856 20.2355 1.44677 20.4192C1.60497 20.6029 1.82386 20.7238 2.06363 20.7598H16.4606C16.489 20.7644 16.515 20.7791 16.5336 20.8011C16.5523 20.8231 16.5626 20.851 16.5626 20.8799C16.5626 20.9088 16.5523 20.9367 16.5336 20.9587C16.515 20.9807 16.489 20.9954 16.4606 21H2.06363C1.76689 20.9547 1.49622 20.8045 1.30065 20.5768C1.10508 20.3491 0.997559 20.0588 0.997559 19.7586C0.997559 19.4585 1.10508 19.1682 1.30065 18.9405C1.49622 18.7127 1.76689 18.5626 2.06363 18.5172H22.0156C22.3123 18.5626 22.583 18.7127 22.7786 18.9405C22.9741 19.1682 23.0816 19.4585 23.0816 19.7586C23.0816 20.0588 22.9741 20.3491 22.7786 20.5768C22.583 20.8045 22.3123 20.9547 22.0156 21Z" fill="#9541BA" stroke="#9541BA" stroke-width="0.5"/>
</svg>
