<svg width="60" height="55" viewBox="0 0 60 55" fill="none" xmlns="http://www.w3.org/2000/svg">
<path d="M11.99 0C5.36783 0 0 4.92462 0 11V44C0 50.0754 5.36783 55 11.99 55H47.96C54.5812 55 59.95 50.0754 59.95 44V11C59.95 4.92462 54.5822 0 47.96 0H11.99ZM11.99 1.69231H47.96C53.563 1.69231 58.1054 5.85962 58.1054 11V44C58.1054 49.1404 53.563 53.3077 47.96 53.3077H11.99C6.38698 53.3077 1.84462 49.1404 1.84462 44V11C1.84462 5.85962 6.38606 1.69231 11.99 1.69231ZM14.6074 4.23077C9.0874 4.23077 4.61154 8.33541 4.61154 13.3996V41.5987C4.61154 46.6629 9.0874 50.7692 14.6074 50.7692H45.3426C50.8626 50.7692 55.3385 46.6638 55.3385 41.5987V25.8077C55.3385 25.5742 55.1319 25.3846 54.8773 25.3846C54.6227 25.3846 54.4162 25.5742 54.4162 25.8077V41.5987C54.4162 46.1959 50.3535 49.9231 45.3426 49.9231H14.6074C9.59651 49.9231 5.53385 46.1959 5.53385 41.5987V13.3996C5.53385 8.80249 9.59651 5.07692 14.6074 5.07692H45.6542C45.9088 5.07692 46.1154 4.88738 46.1154 4.65385C46.1154 4.42031 45.9088 4.23077 45.6542 4.23077H14.6074ZM17.0969 10.177C16.8437 10.1812 16.5875 10.2233 16.3403 10.3075C15.1319 10.7199 13.8059 11.2405 12.779 12.2825C11.7521 13.3244 11.0677 14.8731 11.0677 17.2024C11.0677 19.8307 12.5542 22.7303 14.7353 25.654C16.9164 28.5777 19.8121 31.525 22.7154 34.1899L22.7208 34.1965L22.728 34.2015C25.6358 36.8678 28.9229 39.5191 32.1673 41.5144C35.4116 43.5098 38.6087 44.8676 41.412 44.8676C43.7891 44.8676 45.4324 44.2409 46.5639 43.3075C47.6954 42.3741 48.3056 41.1674 48.758 40.0502C49.1263 39.1429 48.7748 38.1146 47.8915 37.5762C46.4934 36.7234 43.603 35.1141 41.7038 34.066C40.447 33.3722 38.8778 33.376 37.6237 34.0742L37.1103 34.3601C36.0077 34.9741 34.6234 34.8845 33.6228 34.1337C31.9933 32.9111 29.6437 31.0872 27.8764 29.4666C26.1427 27.8761 24.2997 25.8144 23.0595 24.3649C22.2656 23.4368 22.1771 22.1527 22.8343 21.1357L23.1117 20.706V20.7043C23.8879 19.5026 23.8639 17.9982 23.0469 16.819C21.8189 15.0482 19.9548 12.3689 19.037 11.1025C18.7435 10.6978 18.3162 10.4159 17.8391 10.2761C17.6005 10.2063 17.3502 10.1727 17.0969 10.177ZM17.1167 11.0198C17.2682 11.0165 17.4167 11.0364 17.5581 11.0777C17.8409 11.1603 18.0936 11.3292 18.2696 11.5718C19.1743 12.8201 21.0415 15.5039 22.2687 17.2734C22.8997 18.1842 22.9191 19.3441 22.3191 20.273L22.0399 20.7043C21.1901 22.0193 21.3049 23.6847 22.3335 24.8872C23.5854 26.3502 25.4403 28.4282 27.2243 30.0649C29.0355 31.7257 31.3981 33.5585 33.0392 34.7898C34.3369 35.7635 36.1575 35.8814 37.5894 35.084L38.1028 34.7981C39.0678 34.2609 40.2641 34.2583 41.23 34.7915C43.1266 35.8382 46.0274 37.4541 47.3818 38.2802C47.9115 38.6031 48.1172 39.2029 47.8933 39.7544V39.756C47.4604 40.8252 46.905 41.8885 45.9461 42.6795C44.9871 43.4706 43.6168 44.0215 41.412 44.0215C38.9415 44.0215 35.8503 42.7615 32.6807 40.812C29.5111 38.8626 26.258 36.2422 23.3801 33.6032L23.3729 33.5983L23.3675 33.5916C20.488 30.9486 17.6266 28.0306 15.4973 25.1764C13.368 22.3221 11.99 19.5317 11.99 17.2024C11.99 15.0216 12.6002 13.727 13.4635 12.851C14.3269 11.9749 15.4862 11.5016 16.661 11.1008C16.8109 11.0497 16.9653 11.0232 17.1167 11.0198ZM54.8773 15.72C54.6227 15.72 54.4162 15.9095 54.4162 16.143V17.8353C54.4162 18.0689 54.6227 18.2584 54.8773 18.2584C55.1319 18.2584 55.3385 18.0697 55.3385 17.8353V16.143C55.3385 15.9095 55.1319 15.72 54.8773 15.72ZM54.8773 19.1046C54.6227 19.1046 54.4162 19.2941 54.4162 19.5276V22.9123C54.4162 23.1458 54.6227 23.3353 54.8773 23.3353C55.1319 23.3353 55.3385 23.1466 55.3385 22.9123V19.5276C55.3385 19.2941 55.1319 19.1046 54.8773 19.1046Z" fill="#9541BA"/>
</svg>
