<svg width="57" height="50" viewBox="0 0 57 50" fill="none" xmlns="http://www.w3.org/2000/svg">
<path d="M41.4885 0C38.8196 0.0415124 36.209 0.78653 33.9201 2.15982C31.6313 3.5331 29.7454 5.48603 28.4528 7.82138C27.1603 5.48603 25.2744 3.5331 22.9856 2.15982C20.6967 0.78653 18.0861 0.0415124 15.4172 0C11.1627 0.184847 7.1543 2.04601 4.26768 5.17688C1.38107 8.30775 -0.149103 12.4538 0.011474 16.7093C0.011474 27.4862 11.3548 39.2562 20.8685 47.2364C22.9926 49.0214 25.6783 50 28.4528 50C31.2274 50 33.9131 49.0214 36.0372 47.2364C45.5509 39.2562 56.8942 27.4862 56.8942 16.7093C57.0548 12.4538 55.5246 8.30775 52.638 5.17688C49.7514 2.04601 45.743 0.184847 41.4885 0ZM32.9916 43.6101C31.7212 44.6799 30.1137 45.2666 28.4528 45.2666C26.792 45.2666 25.1845 44.6799 23.9141 43.6101C11.7364 33.3925 4.7517 23.5898 4.7517 16.7093C4.58968 13.7104 5.62003 10.7692 7.61803 8.52696C9.61603 6.28476 12.4196 4.92356 15.4172 4.74023C18.4149 4.92356 21.2184 6.28476 23.2164 8.52696C25.2144 10.7692 26.2448 13.7104 26.0827 16.7093C26.0827 17.3379 26.3324 17.9408 26.7769 18.3852C27.2214 18.8297 27.8243 19.0794 28.4528 19.0794C29.0814 19.0794 29.6843 18.8297 30.1288 18.3852C30.5733 17.9408 30.823 17.3379 30.823 16.7093C30.6609 13.7104 31.6913 10.7692 33.6893 8.52696C35.6873 6.28476 38.4908 4.92356 41.4885 4.74023C44.4861 4.92356 47.2897 6.28476 49.2877 8.52696C51.2857 10.7692 52.316 13.7104 52.154 16.7093C52.154 23.5898 45.1693 33.3925 32.9916 43.6006V43.6101Z" fill="#9541BA"/>
</svg>
