<svg width="50" height="50" viewBox="0 0 50 50" fill="none" xmlns="http://www.w3.org/2000/svg">
<path d="M40.6269 50C40.2105 50.0003 39.8036 49.8758 39.4586 49.6426C39.1136 49.4094 38.8464 49.0782 38.6915 48.6917L36.9332 44.2896L32.5248 42.4333C32.1467 42.2663 31.8263 41.9913 31.6039 41.6428C31.3815 41.2944 31.267 40.888 31.2748 40.4747C31.2826 40.0614 31.4123 39.6596 31.6477 39.3197C31.8831 38.9799 32.2136 38.7172 32.5977 38.5645L36.9478 36.9166L38.6915 32.5583C38.8519 32.1774 39.1211 31.8523 39.4653 31.6237C39.8096 31.3951 40.2137 31.2732 40.6269 31.2732C41.0402 31.2732 41.4443 31.3951 41.7885 31.6237C42.1328 31.8523 42.402 32.1774 42.5624 32.5583L44.3145 36.9333L48.6895 38.6854C49.0711 38.845 49.397 39.1139 49.6263 39.4583C49.8555 39.8027 49.9778 40.2071 49.9778 40.6208C49.9778 41.0345 49.8555 41.4389 49.6263 41.7833C49.397 42.1277 49.0711 42.3966 48.6895 42.5562L44.3145 44.3083L42.5624 48.6833C42.4088 49.0714 42.1421 49.4044 41.7971 49.6392C41.452 49.874 41.0443 49.9997 40.6269 50ZM20.8352 43.75C19.9351 43.7608 19.0558 43.4799 18.3287 42.9492C17.6016 42.4185 17.066 41.6667 16.8018 40.8062L13.4393 30.2916L2.89135 26.7624C2.04002 26.4778 1.30117 25.9301 0.781525 25.1981C0.261876 24.4662 -0.0116748 23.5881 0.00038211 22.6905C0.012439 21.793 0.30948 20.9225 0.848602 20.2048C1.38772 19.4871 2.14102 18.9594 2.99969 18.6978L13.4643 15.5019L16.9893 4.97272C17.2514 4.10787 17.7936 3.35466 18.5305 2.83158C19.2674 2.3085 20.1573 2.04521 21.0602 2.08312C21.9604 2.08434 22.836 2.37707 23.5559 2.9175C24.2759 3.45793 24.8014 4.21698 25.0539 5.08105L28.2456 15.529L38.7248 18.8832C39.5701 19.1667 40.3049 19.7086 40.8255 20.4323C41.3461 21.156 41.6262 22.025 41.6262 22.9165C41.6262 23.8081 41.3461 24.6771 40.8255 25.4008C40.3049 26.1245 39.5701 26.6664 38.7248 26.9499L28.2269 30.3083L24.8685 40.8062C24.6044 41.6667 24.0687 42.4185 23.3417 42.9492C22.6146 43.4799 21.7352 43.7608 20.8352 43.75ZM21.0685 6.29773L17.0852 17.8415C16.9801 18.1566 16.8013 18.442 16.5636 18.674C16.3258 18.9059 16.0361 19.0777 15.7185 19.1749L4.21636 22.6832L15.7602 26.677C16.0707 26.7805 16.3525 26.9557 16.5828 27.1884C16.813 27.4212 16.9851 27.7049 17.0852 28.0166L20.7727 39.5375L24.5852 28.0166C24.6863 27.7002 24.8616 27.4127 25.0965 27.1778C25.3313 26.943 25.6189 26.7677 25.9352 26.6666L37.4561 22.9811C37.4709 22.977 37.4849 22.9707 37.4978 22.9624L25.9352 19.1665C25.6143 19.0639 25.3231 18.885 25.0865 18.6452C24.8499 18.4053 24.6751 18.1117 24.5769 17.7894L21.0685 6.29773ZM42.7103 14.5832C42.2458 14.5832 41.7947 14.428 41.4286 14.1422C41.0625 13.8565 40.8023 13.4566 40.6894 13.0061L39.9457 10.0269L36.9603 9.22482C36.5115 9.10426 36.116 8.83717 35.8365 8.466C35.557 8.09483 35.4097 7.64088 35.4178 7.17633C35.4259 6.71177 35.5891 6.26327 35.8815 5.90212C36.1738 5.54097 36.5784 5.2879 37.0311 5.18314L39.9478 4.50605L40.6894 1.57687C40.8023 1.1264 41.0625 0.726559 41.4286 0.440864C41.7948 0.15517 42.2459 0 42.7103 0C43.1747 0 43.6258 0.15517 43.9919 0.440864C44.358 0.726559 44.6182 1.1264 44.7311 1.57687L45.4686 4.53105L48.4228 5.27064C48.8733 5.38354 49.2731 5.64372 49.5588 6.00985C49.8445 6.37598 49.9997 6.82707 49.9997 7.29148C49.9997 7.75589 49.8445 8.20698 49.5588 8.57311C49.2731 8.93925 48.8733 9.19942 48.4228 9.31232L45.4686 10.0519L44.7311 13.0061C44.6183 13.4566 44.3581 13.8565 43.992 14.1422C43.6258 14.428 43.1747 14.5832 42.7103 14.5832Z" fill="#9541BA"/>
</svg>
