<svg width="61" height="56" viewBox="0 0 61 56" fill="none" xmlns="http://www.w3.org/2000/svg">
<path d="M12.7534 0.68808C6.1368 0.68808 0.753418 5.62696 0.753418 11.6973V44.7248C0.753418 50.7951 6.1368 55.734 12.7534 55.734H48.7534C55.37 55.734 60.7534 50.7951 60.7534 44.7248V11.6973C60.7534 5.62612 55.37 0.68808 48.7534 0.68808H12.7534ZM12.7534 2.3818H48.7534C54.3519 2.3818 58.9073 6.56105 58.9073 11.6973V44.7248C58.9073 49.861 54.3519 54.0402 48.7534 54.0402H12.7534C7.15496 54.0402 2.59957 49.861 2.59957 44.7248V11.6973C2.59957 6.56105 7.15496 2.3818 12.7534 2.3818ZM15.373 4.92072C9.8567 4.92072 5.3688 9.03806 5.3688 14.0989V42.3215C5.3688 47.3823 9.8567 51.498 15.373 51.498H46.1338C51.6501 51.498 56.138 47.3823 56.138 42.3215V26.5173C56.138 26.2827 55.9313 26.0939 55.6765 26.0939C55.4217 26.0939 55.215 26.2836 55.215 26.5173V42.3215C55.215 46.9148 51.1406 50.6528 46.1338 50.6528H15.373C10.3662 50.6528 6.29188 46.9148 6.29188 42.3215V14.0989C6.29188 9.50553 10.3662 5.76758 15.373 5.76758H46.4457C46.7005 5.76758 46.9073 5.57789 46.9073 5.34415C46.9073 5.11042 46.7005 4.92072 46.4457 4.92072H15.373ZM30.3279 15.1194C26.655 15.1194 26.2069 15.1286 24.7678 15.1955C23.4211 15.2489 22.3693 15.4319 21.3622 15.791C20.3607 16.1449 19.5805 16.6102 18.8291 17.2961C18.0768 17.9821 17.5663 18.6947 17.1777 19.6068C16.7845 20.5248 16.5823 21.482 16.5232 22.7345C16.4614 24.0269 16.4403 24.4621 16.4403 27.781C16.4403 31.1303 16.4521 31.5396 16.5251 32.8505C16.5832 34.0793 16.7845 35.038 17.1777 35.9568C17.5663 36.8697 18.0768 37.5815 18.8291 38.2675C19.5805 38.9534 20.3607 39.4178 21.3622 39.7726C22.3683 40.1309 23.4204 40.3147 24.7967 40.3697C26.2136 40.4256 26.6901 40.4442 30.3279 40.4442C34.0009 40.4442 34.4499 40.435 35.888 40.3681C37.2348 40.3147 38.2848 40.1317 39.2919 39.7726C40.2925 39.4186 41.0744 38.9534 41.8267 38.2675C42.579 37.5815 43.0878 36.8689 43.4764 35.9568C43.8696 35.0388 44.0717 34.0806 44.1308 32.8324C44.1927 31.54 44.2156 31.1049 44.2156 27.7826C44.2156 24.4324 44.2047 24.0231 44.1308 22.713C44.0727 21.4834 43.8696 20.5256 43.4764 19.6068C43.0878 18.6939 42.579 17.9804 41.8267 17.2945C41.0744 16.6085 40.2943 16.1458 39.2937 15.791C38.2875 15.4327 37.2355 15.2489 35.8592 15.1939C34.4423 15.138 33.9658 15.1194 30.3279 15.1194ZM30.3297 15.9663C33.9473 15.9663 34.4203 15.984 35.8502 16.0407C37.0936 16.0907 38.0527 16.2581 38.962 16.5816C39.838 16.8915 40.5214 17.2961 41.1777 17.8949C41.8349 18.4945 42.2803 19.1167 42.62 19.9144V19.9161C42.9745 20.7443 43.156 21.6163 43.2095 22.7511C43.2825 24.0451 43.2943 24.452 43.2943 27.781C43.2934 31.0863 43.2714 31.5168 43.2095 32.8142C43.1551 33.9464 42.9736 34.8209 42.6182 35.6492C42.2785 36.446 41.834 37.0691 41.1759 37.6687C40.5196 38.2674 39.8353 38.6721 38.9583 38.982C38.0482 39.3055 37.09 39.4738 35.8448 39.5229C34.4241 39.5889 33.9787 39.5973 30.3279 39.5973C26.7095 39.5973 26.2364 39.5796 24.8075 39.5229C23.5641 39.4729 22.605 39.3055 21.6957 38.982C20.8188 38.6712 20.1363 38.2674 19.48 37.6687C18.8228 37.0691 18.3783 36.4461 18.0377 35.6475C17.6832 34.8184 17.5017 33.9456 17.4481 32.8109C17.3761 31.516 17.3652 31.11 17.3652 27.781C17.3652 24.4799 17.3863 24.0502 17.4481 22.7494C17.5026 21.6172 17.6841 20.7418 18.0395 19.9144C18.3792 19.1167 18.8228 18.4936 19.48 17.8949C20.1363 17.2961 20.8206 16.8915 21.6975 16.5816C22.6077 16.2581 23.5677 16.0898 24.8129 16.0407C26.2345 15.9747 26.679 15.9663 30.3297 15.9663ZM55.6765 17.6253C55.4217 17.6253 55.215 17.8141 55.215 18.0487V19.7424C55.215 19.9762 55.4217 20.1658 55.6765 20.1658C55.9313 20.1658 56.138 19.9762 56.138 19.7424V18.0487C56.138 17.815 55.9313 17.6253 55.6765 17.6253ZM37.7396 18.9303C36.5987 18.9303 35.6699 19.7776 35.6699 20.8192C35.6699 21.8608 36.5987 22.7081 37.7396 22.7081C38.8805 22.7081 39.8093 21.8608 39.8093 20.8192C39.8102 19.7776 38.8814 18.9303 37.7396 18.9303ZM37.7396 19.7772C38.3719 19.7772 38.8862 20.2442 38.8862 20.8192C38.8872 21.3942 38.3728 21.8612 37.7396 21.8612C37.1073 21.8612 36.593 21.3942 36.593 20.8192C36.593 20.2442 37.1073 19.7772 37.7396 19.7772ZM55.6765 21.0127C55.4217 21.0127 55.215 21.2024 55.215 21.4361V24.8236C55.215 25.0573 55.4217 25.247 55.6765 25.247C55.9313 25.247 56.138 25.0573 56.138 24.8236V21.4361C56.138 21.2016 55.9313 21.0127 55.6765 21.0127ZM30.3171 21.0689C26.2584 21.0689 22.9559 24.0793 22.9559 27.781C22.9559 31.4826 26.2584 34.4946 30.3171 34.4946C34.3759 34.4946 37.6783 31.4826 37.6783 27.781C37.6783 24.0802 34.3759 21.0689 30.3171 21.0689ZM30.3171 21.9158C33.8673 21.9158 36.7552 24.546 36.7552 27.781C36.7552 31.016 33.8673 33.6478 30.3171 33.6478C26.767 33.6478 23.879 31.016 23.879 27.781C23.879 24.5468 26.767 21.9158 30.3171 21.9158Z" fill="#9541BA"/>
</svg>
