<svg width="27" height="4" viewBox="0 0 27 4" fill="none" xmlns="http://www.w3.org/2000/svg">
<path d="M25.5556 3.4828H23.1978C23.1693 3.47813 23.1434 3.46348 23.1247 3.44148C23.106 3.41947 23.0957 3.39154 23.0957 3.36266C23.0957 3.33379 23.106 3.30585 23.1247 3.28385C23.1434 3.26184 23.1693 3.2472 23.1978 3.24253H25.5556C25.8113 3.22805 26.0518 3.11627 26.2277 2.93012C26.4037 2.74396 26.5017 2.49754 26.5017 2.24141C26.5017 1.98527 26.4037 1.73885 26.2277 1.55269C26.0518 1.36654 25.8113 1.25476 25.5556 1.24028H2.24309C2.10685 1.23257 1.97048 1.25275 1.84232 1.29958C1.71415 1.34641 1.5969 1.4189 1.49772 1.51262C1.39855 1.60634 1.31955 1.71931 1.26555 1.84463C1.21156 1.96994 1.18371 2.10495 1.18371 2.24141C1.18371 2.37786 1.21156 2.51287 1.26555 2.63818C1.31955 2.7635 1.39855 2.87647 1.49772 2.97019C1.5969 3.06391 1.71415 3.1364 1.84232 3.18323C1.97048 3.23006 2.10685 3.25024 2.24309 3.24253H19.0651C19.0825 3.23967 19.1004 3.24064 19.1174 3.24536C19.1344 3.25009 19.1502 3.25845 19.1636 3.26988C19.1771 3.28131 19.1879 3.29553 19.1953 3.31155C19.2027 3.32757 19.2065 3.34501 19.2065 3.36266C19.2065 3.38031 19.2027 3.39775 19.1953 3.41377C19.1879 3.42979 19.1771 3.44401 19.1636 3.45544C19.1502 3.46687 19.1344 3.47523 19.1174 3.47996C19.1004 3.48468 19.0825 3.48565 19.0651 3.4828H2.24309C2.07476 3.49135 1.90645 3.46558 1.7484 3.40706C1.59034 3.34853 1.44583 3.25848 1.32367 3.14236C1.2015 3.02625 1.10423 2.8865 1.03776 2.73162C0.971289 2.57673 0.937012 2.40995 0.937012 2.24141C0.937012 2.07286 0.971289 1.90608 1.03776 1.75119C1.10423 1.59631 1.2015 1.45656 1.32367 1.34045C1.44583 1.22433 1.59034 1.13428 1.7484 1.07575C1.90645 1.01723 2.07476 0.991461 2.24309 1.00001H25.5556C25.8739 1.01619 26.1739 1.15404 26.3935 1.38507C26.6131 1.6161 26.7355 1.92266 26.7355 2.24141C26.7355 2.56015 26.6131 2.86671 26.3935 3.09774C26.1739 3.32877 25.8739 3.46662 25.5556 3.4828Z" fill="#9541BA" stroke="#9541BA" stroke-width="0.5"/>
</svg>
