<svg width="59" height="50" viewBox="0 0 59 50" fill="none" xmlns="http://www.w3.org/2000/svg">
<path d="M55.3451 17.7281C54.2056 16.4148 52.7971 15.3617 51.2151 14.64C49.633 13.9184 47.9145 13.5452 46.1756 13.5455H36.4812L37.2978 8.58531C37.5867 6.83857 37.2381 5.04616 36.3156 3.53501C35.3931 2.02386 33.9581 0.894671 32.2724 0.353393C30.5867 -0.187885 28.7626 -0.105182 27.1327 0.586418C25.5029 1.27802 24.176 2.53243 23.394 4.12086L18.7424 13.5455H12.1515C8.92989 13.5494 5.84136 14.8309 3.56335 17.1089C1.28534 19.3869 0.00385897 22.4754 0 25.697L0 37.8485C0.00385897 41.0701 1.28534 44.1586 3.56335 46.4367C5.84136 48.7147 8.92989 49.9961 12.1515 50H44.4744C47.3992 49.988 50.2225 48.9266 52.4307 47.0087C54.639 45.0908 56.0854 42.444 56.5068 39.5497L58.2202 27.3982C58.4615 25.6745 58.3297 23.9191 57.8336 22.2507C57.3376 20.5823 56.489 19.04 55.3451 17.7281ZM4.86059 37.8485V25.697C4.86059 23.7634 5.62874 21.9089 6.99605 20.5416C8.36335 19.1743 10.2178 18.4061 12.1515 18.4061H17.0121V45.1394H12.1515C10.2178 45.1394 8.36335 44.3713 6.99605 43.004C5.62874 41.6366 4.86059 39.7822 4.86059 37.8485ZM53.396 26.7153L51.6803 38.8668C51.4294 40.602 50.5641 42.1895 49.2417 43.3407C47.9193 44.4918 46.2276 45.1301 44.4744 45.1394H21.8727V17.7597C22.1017 17.5601 22.2913 17.3194 22.4316 17.05L27.7516 6.27167C27.9511 5.91181 28.2331 5.60444 28.5745 5.3748C28.9159 5.14516 29.307 4.99981 29.7155 4.9507C30.124 4.9016 30.5383 4.95013 30.9245 5.09231C31.3106 5.2345 31.6574 5.46628 31.9365 5.7686C32.1753 6.04625 32.3499 6.37318 32.4477 6.72606C32.5456 7.07894 32.5644 7.44907 32.5028 7.81005L31.2196 15.587C31.1633 15.9345 31.1831 16.2901 31.2777 16.6291C31.3724 16.9682 31.5395 17.2826 31.7676 17.5507C31.9957 17.8189 32.2794 18.0342 32.5989 18.1819C32.9185 18.3296 33.2663 18.4061 33.6183 18.4061H46.1756C47.2192 18.406 48.2507 18.6299 49.2003 19.0627C50.1499 19.4955 50.9955 20.1271 51.68 20.9148C52.3645 21.7025 52.8719 22.628 53.168 23.6287C53.464 24.6294 53.5418 25.682 53.396 26.7153Z" fill="#9541BA"/>
</svg>
