<svg width="52" height="50" viewBox="0 0 52 50" fill="none" xmlns="http://www.w3.org/2000/svg">
<path d="M51.2829 18.5181C50.8427 17.1168 49.9631 15.8943 48.7744 15.0315C47.5856 14.1687 46.1507 13.7114 44.6819 13.7272H35.2787L32.4226 4.82541C31.9735 3.42419 31.0909 2.20183 29.9022 1.33457C28.7135 0.467321 27.2801 0 25.8087 0C24.3373 0 22.9038 0.467321 21.7152 1.33457C20.5265 2.20183 19.6439 3.42419 19.1948 4.82541L16.3387 13.7272H6.93547C5.47138 13.7293 4.04539 14.194 2.86119 15.0549C1.67699 15.9159 0.795143 17.129 0.341619 18.5211C-0.111905 19.9132 -0.113913 21.413 0.335884 22.8063C0.78568 24.1996 1.66427 25.4151 2.84617 26.2792L10.4996 31.8751L7.58976 40.8866C7.11952 42.2843 7.11356 43.7965 7.57278 45.1978C8.032 46.5991 8.9318 47.8145 10.138 48.6628C11.3236 49.5383 12.7603 50.0073 14.2341 49.9999C15.7079 49.9925 17.1399 49.5092 18.3167 48.6219L25.8087 43.1078L33.3029 48.6154C34.4863 49.4859 35.9153 49.9587 37.3844 49.9659C38.8535 49.973 40.287 49.5142 41.4788 48.6553C42.6707 47.7963 43.5595 46.5816 44.0175 45.1857C44.4755 43.7898 44.479 42.2847 44.0276 40.8866L41.1178 31.8751L48.7798 26.2792C49.9752 25.4259 50.8641 24.2104 51.315 22.8126C51.7658 21.4148 51.7545 19.909 51.2829 18.5181ZM46.2402 22.8033L37.3212 29.3225C36.9548 29.5897 36.6823 29.9659 36.5423 30.3972C36.4024 30.8285 36.4023 31.293 36.542 31.7244L39.9319 42.206C40.1034 42.7376 40.1019 43.3099 39.9277 43.8406C39.7534 44.3714 39.4154 44.8332 38.9621 45.1597C38.5089 45.4862 37.9637 45.6605 37.4051 45.6577C36.8465 45.6548 36.3032 45.4749 35.8533 45.1438L27.0828 38.687C26.7134 38.4157 26.267 38.2693 25.8087 38.2693C25.3503 38.2693 24.904 38.4157 24.5346 38.687L15.7641 45.1438C15.3144 45.4794 14.7696 45.663 14.2085 45.6681C13.6475 45.6732 13.0994 45.4995 12.6438 45.1721C12.1881 44.8448 11.8486 44.3808 11.6743 43.8475C11.5001 43.3141 11.5002 42.7392 11.6748 42.206L15.0753 31.7244C15.2151 31.293 15.215 30.8285 15.075 30.3972C14.9351 29.9659 14.6626 29.5897 14.2962 29.3225L5.37723 22.8033C4.92806 22.4744 4.59431 22.012 4.42365 21.4821C4.25299 20.9522 4.25415 20.3819 4.42697 19.8527C4.59979 19.3235 4.93542 18.8625 5.38593 18.5355C5.83644 18.2084 6.37877 18.0321 6.93547 18.0317H17.912C18.3677 18.0317 18.8116 17.8871 19.1798 17.6186C19.548 17.3502 19.8216 16.9719 19.961 16.538L23.297 6.14044C23.4682 5.60837 23.8039 5.14436 24.2556 4.81518C24.7074 4.48601 25.2519 4.30866 25.8109 4.30866C26.3698 4.30866 26.9143 4.48601 27.3661 4.81518C27.8178 5.14436 28.1535 5.60837 28.3247 6.14044L31.6607 16.538C31.8001 16.9719 32.0737 17.3502 32.4419 17.6186C32.8101 17.8871 33.254 18.0317 33.7097 18.0317H44.6862C45.2429 18.0321 45.7853 18.2084 46.2358 18.5355C46.6863 18.8625 47.0219 19.3235 47.1947 19.8527C47.3675 20.3819 47.3687 20.9522 47.198 21.4821C47.0274 22.012 46.6936 22.4744 46.2445 22.8033H46.2402Z" fill="#9541BA"/>
</svg>
