<svg width="61" height="56" viewBox="0 0 61 56" fill="none" xmlns="http://www.w3.org/2000/svg">
<path d="M55.6763 26.0113C55.5539 26.0113 55.4365 26.0559 55.35 26.1353C55.2634 26.2147 55.2148 26.3224 55.2148 26.4347V42.2392C55.2148 44.4488 54.2581 46.5678 52.5551 48.1301C50.8521 49.6925 48.5424 50.5702 46.134 50.5702H15.3725C12.9641 50.5702 10.6544 49.6925 8.95143 48.1301C7.24845 46.5678 6.29173 44.4488 6.29173 42.2392V14.0155C6.29173 12.9216 6.52663 11.8384 6.98301 10.8277C7.43939 9.81709 8.10831 8.89883 8.95157 8.12539C9.79482 7.35196 10.7959 6.7385 11.8976 6.32006C12.9993 5.90162 14.1801 5.68639 15.3725 5.68667H46.4456C46.568 5.68667 46.6854 5.64206 46.7719 5.56265C46.8585 5.48324 46.9071 5.37554 46.9071 5.26324C46.9071 5.15094 46.8585 5.04324 46.7719 4.96383C46.6854 4.88442 46.568 4.83981 46.4456 4.83981H15.3725C14.0589 4.83954 12.7581 5.07667 11.5444 5.53767C10.3307 5.99866 9.22782 6.6745 8.29885 7.52657C7.36988 8.37864 6.63296 9.39026 6.1302 10.5037C5.62743 11.617 5.36865 12.8104 5.36865 14.0155V42.2392C5.36865 44.6734 6.42263 47.0078 8.29871 48.729C10.1748 50.4501 12.7193 51.4171 15.3725 51.4171H46.134C48.7872 51.4171 51.3317 50.4501 53.2078 48.729C55.0839 47.0078 56.1379 44.6734 56.1379 42.2392V26.4347C56.1379 26.3224 56.0893 26.2147 56.0027 26.1353C55.9161 26.0559 55.7988 26.0113 55.6763 26.0113Z" fill="#9541BA"/>
<path d="M55.6766 19.7255C55.5542 19.7255 55.4368 19.7701 55.3503 19.8495C55.2637 19.9289 55.2151 20.0366 55.2151 20.1489V23.5363C55.2151 23.6486 55.2637 23.7563 55.3503 23.8358C55.4368 23.9152 55.5542 23.9598 55.6766 23.9598C55.799 23.9598 55.9164 23.9152 56.003 23.8358C56.0895 23.7563 56.1382 23.6486 56.1382 23.5363V20.1489C56.1382 20.0366 56.0895 19.9289 56.003 19.8495C55.9164 19.7701 55.799 19.7255 55.6766 19.7255Z" fill="#9541BA"/>
<path d="M48.7534 0.605499H12.7534C9.57082 0.605499 6.51857 1.76539 4.26814 3.83001C2.0177 5.89463 0.753418 8.69486 0.753418 11.6147L0.753418 44.6422C0.753418 47.562 2.0177 50.3622 4.26814 52.4269C6.51857 54.4915 9.57082 55.6514 12.7534 55.6514H48.7534C51.936 55.6514 54.9883 54.4915 57.2387 52.4269C59.4891 50.3622 60.7534 47.562 60.7534 44.6422V11.6147C60.7534 8.69486 59.4891 5.89463 57.2387 3.83001C54.9883 1.76539 51.936 0.605499 48.7534 0.605499ZM58.9073 44.6422C58.9073 47.1128 57.8375 49.4822 55.9333 51.2292C54.0291 52.9762 51.4464 53.9577 48.7534 53.9577H12.7534C10.0605 53.9577 7.47778 52.9762 5.57356 51.2292C3.66935 49.4822 2.59957 47.1128 2.59957 44.6422V11.6147C2.59957 9.14406 3.66935 6.77464 5.57356 5.02765C7.47778 3.28067 10.0605 2.29922 12.7534 2.29922H48.7534C51.4464 2.29922 54.0291 3.28067 55.9333 5.02765C57.8375 6.77464 58.9073 9.14406 58.9073 11.6147V44.6422Z" fill="#9541BA"/>
<path d="M55.2151 16.7615V18.4552C55.2151 18.5675 55.2637 18.6752 55.3503 18.7546C55.4368 18.834 55.5542 18.8786 55.6766 18.8786C55.799 18.8786 55.9164 18.834 56.003 18.7546C56.0895 18.6752 56.1382 18.5675 56.1382 18.4552V16.7615C56.1382 16.6492 56.0895 16.5415 56.003 16.4621C55.9164 16.3827 55.799 16.338 55.6766 16.338C55.5542 16.338 55.4368 16.3827 55.3503 16.4621C55.2637 16.5415 55.2151 16.6492 55.2151 16.7615Z" fill="#9541BA"/>
<path d="M47.3688 13.6451C47.0774 13.427 46.7109 13.3114 46.335 13.319C45.7695 13.3382 45.2133 13.4568 44.6965 13.6683L14.3688 24.9316C14.1051 25.0157 13.8546 25.131 13.6234 25.2746C13.2288 25.5138 12.7534 25.9288 12.7534 26.5448C12.7609 26.8212 12.8407 27.0918 12.9861 27.3339C13.1314 27.576 13.3382 27.7824 13.5888 27.9358C13.8268 28.095 14.0898 28.2199 14.3688 28.3063L21.3842 30.053C21.458 30.2393 22.2496 32.2738 23.1219 34.5117L24.3865 37.7467L24.8134 38.8391L24.9403 39.1588C24.9703 39.2372 24.9773 39.2562 25.0003 39.307C25.1157 39.6061 25.2901 39.8832 25.515 40.1242C25.5856 40.1931 25.6673 40.2517 25.7573 40.2978L25.8126 40.319L25.8519 40.3338H25.8957C26.0455 40.3905 26.2071 40.4158 26.3688 40.4079C26.6425 40.3954 26.9066 40.3117 27.1303 40.1666L27.158 40.1433L31.7296 36.2668L38.6526 41.6316C38.7757 41.734 38.913 41.8209 39.0611 41.8899C39.415 42.039 39.8002 42.1149 40.1896 42.1122C40.5355 42.1245 40.8799 42.0639 41.1963 41.9351C41.5127 41.8063 41.7928 41.6127 42.015 41.3691C42.2079 41.1432 42.3435 40.8807 42.4119 40.6006C42.4119 40.6006 43.7457 34.2491 45.0865 27.8765C45.758 24.6881 46.4296 21.4933 46.9326 19.0798C47.1865 17.873 47.3942 16.861 47.5465 16.1454C47.6226 15.7876 47.6803 15.5103 47.7219 15.2986L47.7703 15.0657C47.7703 15.0106 47.7842 15.0149 47.7934 14.9535C47.8119 14.8292 47.8219 14.7041 47.8234 14.5787C47.8245 14.4024 47.7844 14.2278 47.706 14.0668C47.6276 13.9058 47.5127 13.762 47.3688 13.6451ZM25.7757 38.7608L25.6926 38.5491C25.5865 38.2802 25.4388 37.9139 25.2657 37.4587C24.9173 36.5653 24.4603 35.3924 24.0034 34.2237L22.3119 29.8878L40.928 19.3211L40.9673 19.2957C41.0113 19.2639 41.0658 19.2467 41.1219 19.247C41.1595 19.2467 41.1966 19.2549 41.23 19.2708C41.2633 19.2866 41.292 19.3097 41.3134 19.3381C41.3484 19.3816 41.367 19.4343 41.3665 19.4884C41.367 19.5255 41.3581 19.5623 41.3405 19.5957C41.3229 19.6292 41.297 19.6584 41.265 19.681L41.2303 19.7086L27.0842 32.0558C27.0116 32.1198 26.9638 32.2038 26.948 32.295L25.7757 38.7608ZM26.5834 39.4743L27.7234 33.1652L31.0119 35.7206L26.5834 39.4743ZM46.8911 14.8476V14.8349C46.8911 14.8349 46.8911 14.8836 46.875 14.9217L46.8265 15.1525C46.7873 15.3515 46.7273 15.6352 46.6534 15.9993C46.5034 16.7149 46.2911 17.7248 46.0396 18.9316C45.5342 21.3451 44.8626 24.5399 44.1934 27.7283C42.8526 34.1052 41.5165 40.4524 41.5165 40.4524C41.4791 40.5961 41.4065 40.73 41.3042 40.8441C41.1265 41.0558 40.8426 41.2675 40.2034 41.2675C39.9505 41.2717 39.6998 41.224 39.4696 41.1278C39.3985 41.1012 39.3324 41.0648 39.2734 41.0198L39.2573 41.005L28.1042 32.3458L41.8765 20.3268L41.8419 20.3543C41.9857 20.2523 42.1021 20.1214 42.1821 19.9716C42.2621 19.8219 42.3036 19.6573 42.3034 19.4905C42.3046 19.2554 42.2237 19.0262 42.0726 18.8363C41.9643 18.7057 41.8248 18.5996 41.6647 18.5262C41.5047 18.4528 41.3285 18.414 41.1496 18.4129C40.8878 18.411 40.633 18.4909 40.4273 18.6394L40.4457 18.6013L21.7534 29.2146L21.9842 29.3352C21.95 29.3182 21.9136 29.3054 21.8757 29.2971L14.625 27.4933C14.4487 27.4385 14.2823 27.36 14.1311 27.2604C13.9943 27.1895 13.8799 27.0873 13.7991 26.9637C13.7182 26.8402 13.6736 26.6995 13.6696 26.5554C13.6696 26.3437 13.8565 26.1489 14.1311 25.9817C14.3036 25.8788 14.4887 25.795 14.6826 25.7319H14.7126L45.0611 14.4496H45.075C45.4794 14.2982 45.9066 14.2039 46.3419 14.1701C46.499 14.1642 46.6536 14.2075 46.7803 14.2929C46.8287 14.3286 46.8666 14.3748 46.8908 14.4273C46.9149 14.4797 46.9246 14.5368 46.9188 14.5935C46.9181 14.6757 46.9111 14.7578 46.898 14.8391C46.898 14.8391 46.8865 14.8349 46.8865 14.8476H46.8911Z" fill="#9541BA"/>
<path d="M45.1397 14.8349C45.1386 14.839 45.1386 14.8434 45.1397 14.8476V14.8349Z" fill="#9541BA"/>
</svg>
