<svg width="50" height="50" viewBox="0 0 50 50" fill="none" xmlns="http://www.w3.org/2000/svg">
<g clip-path="url(#clip0_1416_392)">
<path d="M25 0C20.0555 0 15.222 1.46622 11.1108 4.21326C6.99953 6.9603 3.79521 10.8648 1.90302 15.4329C0.0108322 20.0011 -0.484251 25.0277 0.480379 29.8773C1.44501 34.7268 3.82603 39.1814 7.32234 42.6777C10.8187 46.174 15.2732 48.555 20.1228 49.5196C24.9723 50.4843 29.9989 49.9892 34.5671 48.097C39.1353 46.2048 43.0397 43.0005 45.7867 38.8893C48.5338 34.778 50 29.9445 50 25C49.9928 18.3718 47.3566 12.0171 42.6698 7.33025C37.9829 2.64339 31.6282 0.00716892 25 0ZM25 45.8333C20.8796 45.8333 16.8517 44.6115 13.4256 42.3223C9.99961 40.0331 7.32935 36.7794 5.75252 32.9726C4.1757 29.1658 3.76313 24.9769 4.56698 20.9356C5.37084 16.8944 7.35503 13.1822 10.2686 10.2686C13.1822 7.35502 16.8944 5.37083 20.9356 4.56697C24.9769 3.76311 29.1658 4.17568 32.9726 5.75251C36.7794 7.32934 40.0331 9.9996 42.3223 13.4256C44.6115 16.8516 45.8333 20.8796 45.8333 25C45.8273 30.5235 43.6304 35.819 39.7247 39.7247C35.819 43.6304 30.5235 45.8273 25 45.8333Z" fill="#9541BA"/>
<path d="M25 12.5C24.4474 12.5 23.9175 12.7195 23.5268 13.1102C23.1361 13.5009 22.9166 14.0308 22.9166 14.5833V23.5938L15.8937 27.9938C15.4241 28.2871 15.0902 28.7551 14.9656 29.2947C14.8409 29.8342 14.9357 30.4012 15.2291 30.8708C15.5225 31.3405 15.9905 31.6744 16.53 31.799C17.0696 31.9236 17.6366 31.8288 18.1062 31.5354L26.1062 26.5354C26.4085 26.346 26.6571 26.0822 26.8281 25.7692C26.9992 25.4563 27.0871 25.1046 27.0833 24.7479V14.5833C27.0833 14.0308 26.8638 13.5009 26.4731 13.1102C26.0824 12.7195 25.5525 12.5 25 12.5Z" fill="#9541BA"/>
</g>
<defs>
<clipPath id="clip0_1416_392">
<rect width="50" height="50" fill="white"/>
</clipPath>
</defs>
</svg>
