<svg width="61" height="56" viewBox="0 0 61 56" fill="none" xmlns="http://www.w3.org/2000/svg">
<path d="M13.4807 0.605499C6.46215 0.605499 0.753418 5.84287 0.753418 12.2819V43.975C0.753418 50.414 6.46215 55.6514 13.4807 55.6514H48.0261C55.0447 55.6514 60.7534 50.414 60.7534 43.975V12.2819C60.7534 5.84287 55.0447 0.605499 48.0261 0.605499H13.4807ZM13.4807 2.27356H48.0261C54.0622 2.27356 58.9352 6.74427 58.9352 12.2819V43.975C58.9352 49.5126 54.0622 53.9833 48.0261 53.9833H13.4807C7.44468 53.9833 2.5716 49.5126 2.5716 43.975V12.2819C2.5716 6.74427 7.44468 2.27356 13.4807 2.27356ZM15.7534 4.77564C9.98502 4.77564 5.29887 9.07486 5.29887 14.367V41.8899C5.29887 47.182 9.98502 51.4812 15.7534 51.4812H45.7534C51.5218 51.4812 56.208 47.182 56.208 41.8899V27.7114C56.2088 27.6562 56.1977 27.6013 56.1752 27.55C56.1528 27.4987 56.1194 27.4521 56.0771 27.4127C56.0348 27.3734 55.9844 27.3421 55.9289 27.3208C55.8733 27.2995 55.8137 27.2885 55.7534 27.2885C55.6932 27.2885 55.6335 27.2995 55.578 27.3208C55.5224 27.3421 55.472 27.3734 55.4297 27.4127C55.3874 27.4521 55.3541 27.4987 55.3316 27.55C55.3092 27.6013 55.298 27.6562 55.2989 27.7114V41.8899C55.2989 46.7312 51.0305 50.6472 45.7534 50.6472H15.7534C10.4764 50.6472 6.20796 46.7312 6.20796 41.8899V14.367C6.20796 9.52563 10.4764 5.60967 15.7534 5.60967H45.7534C46.0419 5.60967 46.33 5.62606 46.6217 5.65039C46.6811 5.65532 46.7411 5.64945 46.7981 5.63313C46.8551 5.6168 46.908 5.59034 46.9538 5.55525C46.9997 5.52015 47.0375 5.47712 47.0652 5.4286C47.093 5.38008 47.11 5.32703 47.1153 5.27248C47.1207 5.21793 47.1143 5.16294 47.0965 5.11065C47.0787 5.05837 47.0498 5.00982 47.0116 4.96776C46.9733 4.92571 46.9264 4.89098 46.8735 4.86556C46.8206 4.84015 46.7628 4.82454 46.7034 4.81962C46.395 4.79391 46.0795 4.77564 45.7534 4.77564H15.7534ZM55.7463 17.2796C55.6866 17.2804 55.6277 17.292 55.5729 17.3138C55.5181 17.3355 55.4685 17.367 55.427 17.4063C55.3854 17.4456 55.3527 17.4921 55.3307 17.543C55.3088 17.5939 55.2979 17.6483 55.2989 17.7031V19.3711C55.298 19.4264 55.3092 19.4813 55.3316 19.5325C55.3541 19.5838 55.3874 19.6305 55.4297 19.6698C55.472 19.7092 55.5224 19.7404 55.578 19.7618C55.6335 19.7831 55.6932 19.7941 55.7534 19.7941C55.8137 19.7941 55.8733 19.7831 55.9289 19.7618C55.9844 19.7404 56.0348 19.7092 56.0771 19.6698C56.1194 19.6305 56.1528 19.5838 56.1752 19.5325C56.1977 19.4813 56.2088 19.4264 56.208 19.3711V17.7031C56.2089 17.6472 56.1976 17.5918 56.1748 17.54C56.1519 17.4882 56.1179 17.4412 56.0749 17.4017C56.0318 17.3621 55.9805 17.331 55.9241 17.31C55.8677 17.289 55.8072 17.2787 55.7463 17.2796ZM15.1835 18.9525C14.5756 18.9525 14.1081 19.0993 13.8198 19.3956C13.5315 19.6919 13.4807 20.0598 13.4807 20.3599C13.4807 20.9383 13.7021 22.3997 14.4999 24.5138C15.2976 26.6279 16.6757 29.3449 18.9992 32.2465C22.3908 36.4816 26.8753 38.9692 30.9612 38.9692C31.6138 38.9692 32.2348 38.8251 32.7119 38.474C33.189 38.1228 33.4825 37.5586 33.4825 36.8841V33.0756V33.074C33.4821 32.7866 33.5792 32.6212 33.7293 32.4989C33.8793 32.3767 34.1066 32.2986 34.3898 32.2986C34.7357 32.2986 35.0585 32.3931 35.6096 32.7889C36.1606 33.1847 36.8988 33.8788 37.9427 34.9896H37.9409C39.1387 36.2652 39.8392 37.2066 40.4533 37.8729C41.0675 38.5392 41.6957 38.9708 42.5396 38.9708H46.208C46.6976 38.9708 47.1347 38.8816 47.4757 38.645C47.8168 38.4084 48.0102 38.0202 48.0244 37.6074C48.0316 37.3941 47.9963 37.1793 47.9356 36.9509L47.9303 36.933L47.9249 36.9151C47.6046 36.0558 46.506 34.2872 44.9189 32.5331C44.0598 31.584 43.1995 30.6288 42.8397 30.1565L42.8379 30.1549L42.8362 30.1516C42.6013 29.8524 42.5667 29.7207 42.5716 29.6206C42.5761 29.5226 42.6597 29.35 42.8592 29.039L42.8681 29.0244C42.8689 29.0231 42.8742 29.0138 42.877 29.0097L42.8948 28.9853C42.9239 28.9437 42.9723 28.8778 43.0332 28.7931C43.1552 28.6236 43.3333 28.3765 43.5499 28.0747C43.9831 27.471 44.5692 26.6446 45.1728 25.7518C45.7764 24.859 46.3975 23.8998 46.9004 23.0282C47.399 22.164 47.7788 21.4079 47.9196 20.8046C47.9937 20.582 48.0314 20.3628 48.0244 20.1563V20.1547V20.1514C48.0091 19.8274 47.8575 19.4904 47.5574 19.2701C47.2573 19.0499 46.8544 18.9541 46.3766 18.9541H42.7083C42.1547 18.9541 41.6963 19.1183 41.366 19.3679C41.0356 19.6175 40.8335 19.9341 40.6913 20.2247V20.2215C40.6913 20.2215 38.6663 24.2641 36.2666 27.0354C36.1411 27.1802 35.2984 28.1284 33.9352 28.1284C33.8974 28.1284 33.7636 28.1118 33.676 28.0486C33.5884 27.9855 33.4807 27.8794 33.4807 27.5029V20.6694C33.4807 20.1903 33.4324 19.7879 33.1842 19.4526C32.9359 19.1173 32.4794 18.9541 32.0016 18.9541H25.7534C24.9379 18.9541 24.3898 19.5839 24.3898 20.2052C24.3898 20.5544 24.6001 20.8392 24.8088 21.0294C25.0175 21.2196 25.2382 21.3645 25.4391 21.5409C25.8411 21.8937 26.2057 22.3242 26.2044 23.4142V28.0502C26.2044 28.5881 26.1314 28.8759 26.0943 28.9397C26.0758 28.9715 26.0889 28.9519 26.0908 28.9511C26.0927 28.9502 26.0608 28.9608 25.9807 28.9608C25.9101 28.9608 25.5664 28.8269 25.1622 28.4445C24.7579 28.062 24.2822 27.4747 23.7932 26.7275C22.8152 25.2331 21.7737 23.0985 20.9629 20.614L20.9612 20.6091L20.9594 20.6026C20.7729 20.0836 20.5789 19.6784 20.235 19.3793C19.891 19.0802 19.4156 18.9525 18.8837 18.9525H15.1835ZM15.1835 19.7865H18.8837C19.2828 19.7865 19.4524 19.8482 19.6082 19.9836C19.764 20.1191 19.9258 20.3948 20.0947 20.8649C20.9251 23.4061 21.9877 25.5898 23.0137 27.1576C23.5276 27.9427 24.0305 28.5736 24.5087 29.026C24.987 29.4784 25.4299 29.7949 25.9807 29.7949C26.1333 29.7949 26.3032 29.7812 26.4761 29.7069C26.649 29.6326 26.8021 29.492 26.8951 29.3322C27.0812 29.0127 27.1135 28.6366 27.1135 28.0502V23.4142C27.115 22.129 26.5742 21.3827 26.0677 20.9382C25.8145 20.7159 25.5802 20.5569 25.448 20.4365C25.3159 20.316 25.2989 20.2829 25.2989 20.2052C25.2989 20.0074 25.4307 19.7882 25.7534 19.7882H32.0016C32.3066 19.7882 32.3634 19.83 32.4313 19.9217C32.4992 20.0134 32.5716 20.2594 32.5716 20.6694V27.5029C32.5716 28.0647 32.8048 28.4799 33.1149 28.7035C33.425 28.927 33.7458 28.9625 33.9352 28.9625C35.7539 28.9625 36.835 27.7172 36.9768 27.5534C39.488 24.6534 41.5187 20.5684 41.5187 20.5684V20.5668H41.5205C41.6301 20.3428 41.7659 20.1468 41.9431 20.0129C42.1202 19.8791 42.3365 19.7882 42.7083 19.7882H46.3766C46.7198 19.7882 46.9032 19.8586 46.9892 19.9217C47.0748 19.9845 47.1102 20.0482 47.1171 20.1872C47.1201 20.2936 47.1006 20.4267 47.0496 20.5749L47.0425 20.5945L47.0389 20.614C46.9439 21.0324 46.5833 21.7945 46.0961 22.6388C45.6089 23.4831 44.9974 24.4288 44.4004 25.312C43.8034 26.1951 43.2208 27.0166 42.79 27.6169C42.5746 27.9171 42.3966 28.1608 42.2733 28.3321C42.2116 28.4177 42.1635 28.4855 42.1295 28.534C42.1125 28.5583 42.0997 28.5762 42.0869 28.5959C42.0836 28.601 42.08 28.6111 42.0762 28.6171C42.0726 28.623 42.0697 28.626 42.0638 28.6367C42.0579 28.6475 42.0339 28.7011 42.0336 28.7018C42.0336 28.7019 42.0309 28.7187 42.0301 28.7246C41.8533 29.0002 41.6801 29.2529 41.6643 29.5831C41.6474 29.9312 41.8096 30.2695 42.0993 30.6387V30.6403C42.5167 31.1876 43.3619 32.1185 44.2193 33.0658C45.7354 34.7414 46.8239 36.5567 47.0567 37.1724C47.0996 37.3409 47.1205 37.4799 47.1171 37.5813C47.1094 37.8031 47.0485 37.8961 46.9271 37.9804C46.8056 38.0646 46.572 38.1368 46.208 38.1368H42.5396C41.9936 38.1368 41.7064 37.9416 41.1476 37.3353C40.5888 36.7291 39.8575 35.7529 38.6298 34.4455C37.571 33.3187 36.8149 32.5951 36.1707 32.1324C35.5265 31.6698 34.953 31.4645 34.3898 31.4645C33.923 31.4645 33.4696 31.5947 33.1256 31.875C32.7816 32.1554 32.5728 32.5865 32.5734 33.0756V36.8841C32.5734 37.3564 32.4102 37.6278 32.1437 37.824C31.8772 38.0202 31.4649 38.1351 30.9612 38.1351C27.2834 38.1351 22.9972 35.8297 19.7325 31.7529C17.4678 28.9247 16.1299 26.2824 15.3592 24.2401C14.5886 22.1978 14.3898 20.7057 14.3898 20.3599C14.3898 20.1504 14.4291 20.0219 14.4981 19.951C14.5671 19.8802 14.724 19.7865 15.1835 19.7865ZM55.7463 21.4497C55.6866 21.4505 55.6277 21.4622 55.5729 21.4839C55.5181 21.5057 55.4685 21.5371 55.427 21.5764C55.3854 21.6158 55.3527 21.6622 55.3307 21.7131C55.3088 21.7641 55.2979 21.8185 55.2989 21.8732V25.2093C55.298 25.2646 55.3092 25.3195 55.3316 25.3707C55.3541 25.422 55.3874 25.4687 55.4297 25.508C55.472 25.5474 55.5224 25.5786 55.578 25.6C55.6335 25.6213 55.6932 25.6323 55.7534 25.6323C55.8137 25.6323 55.8733 25.6213 55.9289 25.6C55.9844 25.5786 56.0348 25.5474 56.0771 25.508C56.1194 25.4687 56.1528 25.422 56.1752 25.3707C56.1977 25.3195 56.2088 25.2646 56.208 25.2093V21.8732C56.2089 21.8174 56.1976 21.7619 56.1748 21.7101C56.1519 21.6583 56.1179 21.6113 56.0749 21.5718C56.0318 21.5323 55.9805 21.5011 55.9241 21.4802C55.8677 21.4592 55.8072 21.4488 55.7463 21.4497Z" fill="#9541BA"/>
</svg>
