<svg width="61" height="56" viewBox="0 0 61 56" fill="none" xmlns="http://www.w3.org/2000/svg">
<path d="M12.7534 0.605499C6.12573 0.605499 0.753418 5.53422 0.753418 11.6147V44.6422C0.753418 50.7226 6.12573 55.6514 12.7534 55.6514H48.7534C55.3802 55.6514 60.7534 50.7226 60.7534 44.6422V11.6147C60.7534 5.53422 55.3811 0.605499 48.7534 0.605499H12.7534ZM12.7534 2.29922H48.7534C54.3611 2.29922 58.9073 6.47 58.9073 11.6147V44.6422C58.9073 49.7869 54.3611 53.9577 48.7534 53.9577H12.7534C7.14573 53.9577 2.59957 49.7869 2.59957 44.6422V11.6147C2.59957 6.47 7.1448 2.29922 12.7534 2.29922ZM15.373 4.8398C9.84839 4.8398 5.3688 8.94786 5.3688 14.0163V42.2389C5.3688 47.3074 9.84839 51.4171 15.373 51.4171H46.1338C51.6584 51.4171 56.138 47.3082 56.138 42.2389V26.4347C56.138 26.201 55.9313 26.0113 55.6765 26.0113C55.4217 26.0113 55.215 26.201 55.215 26.4347V42.2389C55.215 46.8399 51.1489 50.5702 46.1338 50.5702H15.373C10.3579 50.5702 6.29188 46.8399 6.29188 42.2389V14.0163C6.29188 9.41533 10.3579 5.68666 15.373 5.68666H46.4457C46.7005 5.68666 46.9073 5.49696 46.9073 5.26323C46.9073 5.02949 46.7005 4.8398 46.4457 4.8398H15.373ZM31.215 12.4715C21.7986 12.4715 14.138 19.4995 14.138 28.1384C14.138 29.462 14.3198 30.7806 14.6789 32.0551C14.8432 32.6403 15.0482 33.226 15.2901 33.7968C15.5984 34.5268 15.9696 35.2404 16.3989 35.9255L14.1561 43.2677C14.1118 43.4117 14.1543 43.5687 14.2678 43.6762C14.3555 43.7592 14.4759 43.8053 14.5996 43.8053C14.6365 43.8053 14.6726 43.8005 14.7095 43.792L17.0172 43.2677C17.2646 43.2118 17.4153 42.9827 17.3544 42.7566C17.2935 42.5305 17.0447 42.3906 16.7973 42.4473L15.2576 42.7963L17.34 35.9817C17.3741 35.8708 17.3568 35.7517 17.2931 35.6526C16.8482 34.9599 16.4648 34.2318 16.1501 33.4891C15.9221 32.9497 15.7282 32.3964 15.5731 31.8434C15.2344 30.6374 15.0611 29.3909 15.0611 28.1384C15.0611 19.967 22.3082 13.3183 31.215 13.3183C40.1217 13.3183 47.3688 19.967 47.3688 28.1384C47.3688 36.3097 40.1217 42.9584 31.215 42.9584C28.4605 42.9584 25.7363 42.3074 23.34 41.0778C23.2375 41.0253 23.1209 41.011 23.0046 41.0364L21.4127 41.397C21.1662 41.4529 21.0146 41.6819 21.0755 41.9098C21.1365 42.135 21.3815 42.2716 21.6326 42.2191L23.0497 41.8965C25.5448 43.1456 28.3645 43.8053 31.215 43.8053C40.6313 43.8053 48.2919 36.7772 48.2919 28.1384C48.2919 19.4995 40.6313 12.4715 31.215 12.4715ZM55.6765 16.3386C55.4217 16.3386 55.215 16.5283 55.215 16.762V18.4557C55.215 18.6894 55.4217 18.8791 55.6765 18.8791C55.9313 18.8791 56.138 18.6903 56.138 18.4557V16.762C56.138 16.5283 55.9313 16.3386 55.6765 16.3386ZM55.6765 19.726C55.4217 19.726 55.215 19.9157 55.215 20.1494V23.5369C55.215 23.7706 55.4217 23.9603 55.6765 23.9603C55.9313 23.9603 56.138 23.7714 56.138 23.5369V20.1494C56.138 19.9157 55.9313 19.726 55.6765 19.726ZM25.2474 20.0932C24.9797 20.0932 24.2913 20.1572 23.6987 20.7432L23.614 20.8243C23.1257 21.2951 21.9842 22.3968 21.9842 24.4631C21.9842 26.3982 23.3405 28.2571 23.9331 28.9769L24.0052 29.0696C25.3132 30.7658 28.0753 33.8347 31.8784 35.3234C32.9335 35.735 33.7666 35.99 34.5106 36.2034C35.2048 36.4041 35.8506 36.468 36.4091 36.468C36.8614 36.468 37.2579 36.426 37.5791 36.3837C38.5308 36.2541 40.5558 35.3084 41.0118 34.1507C41.3801 33.2141 41.48 32.1942 41.2372 31.8318C41.0738 31.5854 40.7842 31.4584 40.4187 31.2992L40.1753 31.1917C39.9168 31.0731 37.5048 29.9904 37.0238 29.8337C36.6592 29.7126 35.985 29.4912 35.4626 30.2026C35.193 30.5684 34.4014 31.4183 34.0599 31.7722C33.9593 31.8756 33.9263 31.9111 33.6272 31.7756C33.5469 31.7391 33.4375 31.6957 33.3027 31.6432C32.6621 31.3909 31.4694 30.922 30.0755 29.7957C28.822 28.7828 27.9546 27.537 27.6398 27.0484C27.5549 26.9162 27.5547 26.9156 27.766 26.7242C27.911 26.5946 28.0768 26.4125 28.242 26.2296L28.471 25.9799C28.7054 25.7326 28.8098 25.541 28.9307 25.3166L28.9902 25.2041C29.2745 24.6867 29.0308 24.2465 28.9523 24.1042C28.8859 23.9806 28.4186 22.9516 28.0779 22.2004L27.5659 21.074C27.1736 20.2212 26.6715 20.1275 26.1398 20.1097C25.8685 20.097 25.5576 20.0932 25.2474 20.0932ZM25.2474 20.9401C25.5428 20.9401 25.8363 20.9431 26.093 20.9533L26.221 20.9549C26.3871 20.9575 26.5064 20.9527 26.7132 21.4015L27.2252 22.5246C27.7209 23.6162 28.05 24.3415 28.1266 24.483C28.2217 24.6549 28.2125 24.734 28.1645 24.822L28.1014 24.9395C27.9943 25.1376 27.9301 25.2582 27.7751 25.4225L27.5317 25.6854C27.3877 25.8455 27.2425 26.0045 27.117 26.1188C26.901 26.3153 26.3943 26.7739 26.8448 27.4768C27.1817 28.001 28.112 29.3359 29.4644 30.4292C30.969 31.6461 32.2997 32.1691 32.9385 32.4206C33.0539 32.4664 33.1497 32.5018 33.218 32.5331C33.6204 32.7152 34.2123 32.8894 34.7504 32.3313C35.032 32.0383 35.9076 31.1075 36.2252 30.6756C36.3424 30.5156 36.3455 30.5099 36.7101 30.631C37.0692 30.7478 39.166 31.6773 39.766 31.9509L40.0202 32.0634C40.191 32.1387 40.4065 32.2329 40.4259 32.2337C40.4739 32.3785 40.4613 33.0516 40.141 33.8629C39.8493 34.6031 38.2517 35.4342 37.4403 35.5434C36.8145 35.629 35.8591 35.7045 34.7847 35.3946C34.0637 35.1879 33.2562 34.9424 32.239 34.5444C28.6455 33.1378 26.0105 30.2051 24.7588 28.5816L24.6597 28.4543C24.1335 27.8132 22.9073 26.1416 22.9073 24.4631C22.9073 22.7347 23.837 21.8392 24.2829 21.4081L24.3748 21.3188C24.7311 20.9665 25.1329 20.9401 25.2474 20.9401ZM19.7504 41.8089C19.6912 41.8003 19.6291 41.8025 19.5665 41.8171L18.6434 42.0272C18.3961 42.0822 18.2454 42.3113 18.3063 42.5383C18.3571 42.7322 18.5448 42.8608 18.7534 42.8608C18.7894 42.8608 18.8265 42.8561 18.8634 42.8476L19.7865 42.6392C20.0339 42.5833 20.1845 42.3534 20.1236 42.1264C20.0772 41.9568 19.9282 41.8346 19.7504 41.8089Z" fill="#9541BA"/>
</svg>
