<svg width="72" height="57" viewBox="0 0 72 57" fill="none" xmlns="http://www.w3.org/2000/svg">
<path d="M30.1782 48.7418L69.0711 13.2362C69.7157 12.6514 70.196 11.9317 70.4706 11.1391C70.7453 10.3464 70.8061 9.5044 70.6478 8.68542C70.2592 6.47688 68.9547 4.4918 67.0071 3.14559C65.2042 1.9032 63.1127 1.06001 60.8958 0.681877C60.0697 0.544726 59.2196 0.592793 58.418 0.821986C57.6165 1.05118 56.8871 1.45471 56.2922 1.9982L17.9018 37.0181C17.9018 37.0181 9.76878 54.7357 9.88004 55.5558C9.99129 56.3758 30.1782 48.7418 30.1782 48.7418Z" stroke="#9541BA" stroke-miterlimit="10"/>
<path d="M17.9023 37.0251L30.1787 48.7419" stroke="#9541BA" stroke-miterlimit="10"/>
<path d="M48.7158 8.89307L61.1916 20.4268" stroke="#9541BA" stroke-miterlimit="10"/>
<path d="M51.7461 6.13019L64.2679 17.6181" stroke="#9541BA" stroke-miterlimit="10"/>
<path d="M63.4433 12.6837L53.979 4.09235" stroke="#9541BA" stroke-miterlimit="10"/>
<path d="M65.1235 13.9543L66.6504 15.443" stroke="#9541BA" stroke-miterlimit="10"/>
<path d="M20.231 39.246L51.056 11.0576" stroke="#9541BA" stroke-miterlimit="10"/>
<path d="M53.6224 13.4298L22.8472 41.7449" stroke="#9541BA" stroke-miterlimit="10"/>
<path d="M53.6226 18.952L56.5804 16.1645" stroke="#9541BA" stroke-miterlimit="10"/>
<path d="M51.7461 20.4268L25.5669 44.3424" stroke="#9541BA" stroke-miterlimit="10"/>
<path d="M32.357 42.8853L30.6729 44.3424" stroke="#9541BA" stroke-miterlimit="10"/>
<path d="M33.7422 41.7449L58.9969 18.3995" stroke="#9541BA" stroke-miterlimit="10"/>
<path d="M12.6348 48.7419L17.5645 53.3384" stroke="#9541BA" stroke-miterlimit="10" stroke-linecap="round"/>
<path d="M9.88022 55.5558C9.88022 55.5558 2.75228 56.8263 0.872469 50.1039C-1.00734 43.3815 20.0811 27.5398 14.3381 25.1536C8.59504 22.7673 2.25739 23.6437 7.40577 16.1645C12.5542 8.68542 17.5644 8.06949 17.5644 8.06949" stroke="#9541BA" stroke-miterlimit="10" stroke-linecap="round"/>
</svg>
