<svg width="1919" height="4117" viewBox="0 0 1919 4117" fill="none" xmlns="http://www.w3.org/2000/svg">
<g clip-path="url(#clip0_1371_953)">
<path opacity="0.15" d="M1820.22 1998.19C1785.26 2006.67 1725.23 1991.39 1695.17 2019.83C1674.5 2039.37 1663.13 2064.04 1642.24 2084.06C1607.46 2117.44 1547.33 2108.06 1504.01 2107.32C1503.47 2107.28 1502.93 2107.46 1502.51 2107.82C1502.1 2108.18 1501.84 2108.7 1501.8 2109.25C1501.75 2109.81 1501.93 2110.36 1502.28 2110.78C1502.64 2111.21 1503.14 2111.47 1503.69 2111.51C1548.85 2118.29 1612.56 2128.74 1651.3 2094.93C1679.59 2070.28 1695.87 2033.45 1735.85 2023.16C1770.8 2014.16 1805.85 2020.75 1841.29 2009.91C1857.85 2004.85 1873.71 1996.23 1889.13 1987.46V1971.33C1867.02 1982.05 1844.59 1992.3 1820.22 1998.19Z" fill="#9541BA"/>
<path opacity="0.15" d="M1891.93 1821.84C1891.02 1821.62 1890.11 1821.38 1889.2 1821.12V1827.7C1889.7 1827.7 1890.18 1827.7 1890.69 1827.7C1893.79 1827.67 1895.41 1822.69 1891.93 1821.84Z" fill="#9541BA"/>
<path opacity="0.15" d="M1809.41 1917.8C1806.47 1917.5 1806.08 1922.19 1809.05 1922.51C1831.27 1924.91 1859.11 1927.02 1889.2 1927.4V1920.86C1862.57 1921.5 1835.92 1920.48 1809.41 1917.8Z" fill="#9541BA"/>
<path opacity="0.15" d="M1691.79 2125.36C1635.59 2151.77 1580.72 2146.29 1523.44 2128.2C1511.68 2124.48 1456.63 2099.35 1478.21 2075.11C1483.11 2069.6 1486.56 2066.33 1487.16 2058.67C1488.05 2047.3 1470.21 2035.08 1463.21 2028.84C1464.72 2030.2 1553.58 1967.96 1564.43 1956.42C1567.89 1952.75 1564.2 1945.16 1559.25 1948.34C1544.08 1958.06 1526.12 1966.34 1508.74 1975.6C1503.97 1969.78 1497.46 1966.79 1489.86 1960.75C1465.29 1941.25 1478.68 1933.96 1466.45 1919.33C1446.59 1895.57 1349.23 1875.26 1398.54 1829.51C1402.16 1826.16 1401.71 1820.81 1397.98 1817.79C1300.08 1738.61 1465.62 1705.03 1514.64 1691.62C1517.72 1690.78 1517.65 1686.19 1514.33 1685.83C1476.86 1681.9 1439.11 1689.85 1406.24 1708.61C1385.51 1703.95 1365.98 1698.02 1347.64 1686.28C1319.21 1668.12 1348.29 1666.41 1352.72 1656.5C1361.41 1637.11 1380.38 1615.25 1362.25 1592.63C1338.95 1563.57 1357.06 1548.76 1372.89 1527.05C1387.68 1506.74 1378.15 1476.79 1417.01 1478.44C1467.14 1480.58 1508.08 1525.88 1553.36 1546.04C1556.12 1564.04 1564.14 1578.4 1576.89 1590.77C1556.41 1589.77 1537.68 1598.77 1528.06 1620.77C1522.83 1632.7 1514.97 1650.14 1517.58 1664.07C1520.83 1681.49 1550.81 1719.94 1522.09 1728.9C1517.74 1730.25 1515.65 1734.14 1517.32 1738.58C1526.38 1762.72 1539.63 1777.76 1558.15 1794.7C1580.26 1814.9 1563.39 1822.92 1553.44 1843.24C1539.26 1872.16 1597.14 1903.66 1613.5 1915.68C1612.52 1915.8 1611.54 1915.93 1610.49 1916.05C1605.92 1916.5 1603.93 1921.39 1604.26 1925.42C1608.36 1975.05 1651.31 2008.63 1698.87 2010.15C1702.51 2010.26 1704.1 2004.59 1700.28 2003.5C1675.17 1996.41 1654.21 1986.5 1635.09 1967.56C1594.53 1927.41 1629.15 1929.91 1649.37 1928.75C1654.28 1928.48 1656.57 1922.75 1656.13 1918.6C1653.81 1896.69 1644.96 1876.6 1673.39 1876.36C1679.18 1876.36 1694.21 1876.36 1699.56 1873.01C1712.7 1864.65 1715.9 1855.14 1715.42 1841.56C1760.89 1876.56 1827.56 1891.56 1889.17 1891.73V1878.79C1827.87 1877.03 1767.83 1870.6 1714.78 1833.02C1712.1 1810.34 1686.17 1759.96 1744.19 1761.59C1769.68 1762.29 1796.25 1783.09 1817.13 1796.07C1838.76 1809.51 1862.92 1827.32 1889.13 1827.71V1821.13C1859.25 1812.89 1830.49 1789.38 1800.9 1771.72C1795.24 1756 1786.49 1742.46 1778.54 1727.86C1747.37 1670.72 1792.42 1681.86 1810.23 1666.33C1828.72 1650.25 1826.27 1628.24 1817.57 1608.25C1815.71 1603.85 1814.98 1599.03 1815.45 1594.25C1836.6 1601.25 1857.86 1606.9 1878.48 1615.77C1882.18 1617.36 1885.72 1619.08 1889.16 1620.88V1611.51C1866.07 1600.46 1841.44 1593.11 1816.15 1589.71C1822.04 1561.08 1861.34 1529.03 1889.16 1510.31V1493.67C1860.4 1509.81 1833.15 1537.93 1815.29 1559.97C1807.56 1569.53 1792.09 1586.48 1796.58 1601.24C1801.15 1616.24 1811.83 1642.57 1792.73 1654.4C1785.19 1659.07 1776.76 1657.61 1769.8 1663.65C1736.82 1692.34 1767.5 1734.71 1787.01 1764.1C1767.17 1753.96 1746.82 1747.75 1725.38 1751.77C1706.94 1755.24 1698.48 1773.21 1695.32 1789.64C1692.57 1803.96 1699.84 1822.12 1702.6 1835.8C1709.09 1867.91 1655.26 1859.55 1640.36 1861.9C1635.51 1862.66 1633.13 1867.48 1633.61 1872.05C1636.7 1900.69 1642.43 1910.86 1618.35 1915.05C1618.43 1914.77 1618.46 1914.47 1618.43 1914.18C1618.39 1913.89 1618.3 1913.6 1618.15 1913.35C1608.42 1896.2 1589.83 1884.73 1575.89 1871.67C1556.28 1853.27 1588.63 1826.35 1595.92 1809.5C1596.5 1807.89 1596.54 1806.14 1596.04 1804.51C1595.54 1802.88 1594.51 1801.47 1593.13 1800.5C1584.56 1794.86 1521.06 1743.5 1538.7 1737.7C1543.39 1736.14 1548.5 1731.64 1550.18 1726.87C1551.59 1722.87 1552.14 1717.72 1550.68 1713.66C1537.63 1676.98 1496.93 1593.44 1587.22 1599.66C1593.62 1604.43 1600.36 1608.7 1607.39 1612.44C1609.8 1620.76 1611.73 1626.66 1611.95 1626.44C1578.92 1665.71 1644.96 1723.62 1668.8 1744.91C1672.72 1748.46 1678.03 1742.03 1674.82 1738.14C1651.99 1710.31 1599.24 1666.03 1636.26 1624.14C1638.59 1621.5 1638.28 1615.89 1635.75 1613.47C1601.77 1581.14 1624.54 1555.11 1613.77 1517.24C1597.1 1458.82 1636.89 1465.1 1640.24 1422.45C1641.86 1401.69 1642.09 1406.73 1640.53 1388.9C1636.73 1345.55 1657.77 1354.28 1677.56 1337.08C1680.5 1334.51 1680.5 1326.5 1680.79 1324.4C1687.78 1279.8 1735.69 1247.62 1780.61 1251.24C1787.01 1251.76 1787.78 1241.74 1781.4 1241.12C1760.97 1239.12 1735.2 1245.58 1713.58 1258.2C1707.28 1253.23 1699.93 1249.83 1692.12 1248.26C1732.63 1232.1 1772.03 1206.35 1813.67 1199.47C1816.26 1201.59 1818.89 1203.64 1821.6 1205.59C1823.56 1206.98 1826.7 1204.59 1825.29 1202.37C1824.48 1201.06 1823.54 1199.72 1822.66 1198.37C1837.01 1196.9 1851.5 1198.23 1865.37 1202.28C1864.86 1202.73 1864.32 1203.12 1863.81 1203.55C1843.22 1221.27 1829.39 1246 1818.25 1270.55C1816.4 1274.66 1819.99 1278.29 1823.6 1279.02C1846.85 1283.72 1867.8 1276.53 1889.08 1269.29V1253.23C1884.28 1255.01 1879.43 1257.06 1874.53 1259.4C1815.36 1287.67 1860.26 1224.58 1880.41 1208.27C1883.44 1205.83 1886.3 1203.75 1889.05 1201.87V1183.48C1884.45 1187.07 1879.87 1190.64 1875.33 1194.25C1855.11 1183.25 1833.36 1180.47 1811.42 1183.13C1789.26 1155.98 1756.11 1129.2 1722.11 1118.78C1718.03 1089.63 1753.26 1104.42 1760.29 1084.65C1764.35 1073.18 1761.69 1068.6 1758.24 1057.59C1755.62 1049.28 1800.92 1023.46 1810.39 1016.59C1811.36 1015.76 1812.09 1014.68 1812.51 1013.46C1812.93 1012.24 1813.02 1010.93 1812.77 1009.67C1806.89 981.72 1850.7 954.821 1889.09 937.671V923.362C1885.61 925.132 1882.16 926.952 1878.77 928.772C1858.72 939.551 1822.2 954.071 1808.95 974.7C1793.49 998.779 1804.05 1005.49 1775.51 1022.56C1767.56 1027.33 1743.25 1038.56 1744.74 1050.64C1749.57 1089.64 1708.6 1085.64 1714.77 1116.63C1700.75 1113.36 1686.73 1112.99 1673.42 1116.83C1670.06 1117.83 1668.14 1121.11 1669.62 1124.52C1677.17 1142.02 1635.61 1140.25 1623.12 1143.07C1619.98 1143.78 1618.82 1146.87 1619.83 1149.77C1620.69 1152.22 1621.1 1153.55 1621.05 1154.44C1597.22 1156.13 1573.98 1162.79 1552.77 1174.01C1532.12 1184.8 1483.08 1206.14 1477.72 1231.47C1475.48 1242.02 1476.57 1254.85 1475.76 1265.69C1476.44 1257.26 1457.96 1301.53 1458.52 1299.85C1451.91 1320.01 1490.26 1334.29 1470.94 1350.9C1438.59 1378.63 1481.64 1432.21 1494.04 1454.9C1496 1458.52 1501.44 1455.9 1499.75 1452.1C1483.86 1416.1 1461.04 1382.65 1494.52 1350.49C1497.46 1347.71 1497.84 1344.31 1496.56 1340.63C1488.67 1317.82 1476.69 1302.86 1488.45 1276.93C1497.64 1256.71 1474.23 1233.93 1498.79 1216.31C1565.98 1168.01 1630.6 1143.39 1710.26 1186.31C1710.76 1186.67 1711.38 1186.81 1711.99 1186.7C1712.59 1186.59 1713.12 1186.24 1713.47 1185.73C1713.82 1185.21 1713.96 1184.58 1713.85 1183.97C1713.74 1183.35 1713.4 1182.81 1712.9 1182.45C1690.41 1164.15 1664.1 1155.45 1637.16 1154.2C1649.56 1144.75 1665.97 1145.92 1683.79 1144.43C1687.1 1144.16 1688.95 1139.73 1687.48 1136.94C1669.83 1103.28 1748.05 1143.78 1757.08 1149.71C1772.27 1159.71 1784.9 1172.77 1798.02 1185.22C1755.3 1194.41 1713.14 1221.54 1682.09 1245.66C1681.58 1246.05 1681.23 1246.62 1681.11 1247.26C1625.29 1249.21 1563.4 1339.34 1547.78 1378.77C1544.08 1388.07 1539.25 1404.77 1542.88 1414.39C1548.25 1428.77 1546.27 1424.97 1556.03 1437.16C1578.97 1465.8 1558.13 1482.55 1554.07 1507.99C1552.57 1517.33 1552.08 1526.81 1552.61 1536.26C1512.86 1505.45 1453.19 1461.86 1405.76 1465.67C1390.08 1466.92 1380.38 1472.13 1373.08 1486.94C1360.34 1512.8 1336.19 1535.29 1328.34 1562.54C1323.02 1580.99 1363.85 1614.81 1351.6 1626.29C1345.15 1632.36 1329.51 1652.65 1327.91 1660.02C1320.58 1693.67 1365.16 1709.73 1396.03 1714.85C1380.3 1725.32 1366.51 1738.55 1355.3 1753.92C1326.58 1793.54 1392.3 1809.76 1370.66 1837.15C1346.08 1868.29 1396.54 1896.8 1416.21 1907.56C1441.76 1921.56 1443.14 1921.93 1453.55 1947.91C1461.97 1968.91 1482.73 1970.4 1499.56 1980.56C1477.69 1992.99 1457.78 2007.72 1447 2029.94C1445.21 2033.64 1447.45 2037.71 1450.14 2040.05C1459.08 2047.82 1476.11 2054.4 1462.67 2067.1C1460.71 2069 1459.08 2072.19 1459.95 2075.1C1479.03 2138.49 1524.28 2148.95 1585.06 2157.51C1669.13 2169.35 1745.78 2112.62 1814.13 2072.04C1826.67 2064.59 1839.27 2057.39 1852.01 2050.62C1824.3 2077.18 1804.55 2109.41 1782.62 2141.48C1780.24 2144.96 1781.45 2148.98 1784.38 2151.54C1792.17 2168.75 1799.95 2185.96 1807.73 2203.17C1807.61 2207.65 1810.67 2212.36 1815.5 2212.46C1822.98 2212.6 1826.7 2212.64 1830.11 2212.13C1822.91 2243.42 1823.55 2274.4 1832.25 2302.69C1831.99 2302.39 1831.65 2302.18 1831.28 2302.08C1830.91 2301.97 1830.52 2301.97 1830.14 2302.08C1784.24 2318.34 1769.77 2286.09 1747.25 2256.81C1748.91 2248.27 1751.32 2239.9 1754.46 2231.81C1758.91 2220.07 1765.67 2209.02 1767.9 2196.59C1768.46 2193.5 1764.38 2192.79 1762.79 2194.73C1751.29 2208.67 1742.95 2229.4 1740.98 2249.07C1738.81 2246.51 1736.54 2243.99 1734.12 2241.6C1725.97 2233.49 1713 2231.41 1702.5 2228.52C1663.19 2217.79 1692.37 2175.11 1693.75 2151.07C1693.78 2150.55 1693.66 2150.03 1693.41 2149.58C1693.16 2149.12 1692.78 2148.76 1692.33 2148.52C1691.87 2148.28 1691.36 2148.18 1690.85 2148.23C1690.34 2148.29 1689.86 2148.49 1689.46 2148.82C1671.36 2162 1662.92 2195.5 1668.87 2216.71C1675.26 2239.38 1695.15 2242.89 1714.55 2247.44C1724.36 2249.75 1732.98 2256.96 1741.02 2265.76C1741.09 2266.33 1741.02 2266.95 1741.15 2267.51C1741.2 2267.82 1741.31 2268.13 1741.49 2268.39C1741.67 2268.66 1741.9 2268.88 1742.17 2269.04C1742.44 2269.2 1742.75 2269.29 1743.06 2269.31C1743.38 2269.34 1743.69 2269.29 1743.98 2269.17C1755.12 2282.17 1765.25 2297.57 1775.92 2306.59C1793.45 2321.35 1814.9 2317.36 1832.19 2305.28C1832.49 2305.06 1832.7 2304.73 1832.79 2304.36C1842.3 2334.02 1860.68 2360.67 1888.49 2381.36C1888.73 2381.54 1888.96 2381.69 1889.2 2381.86V2365.53C1881.41 2359.97 1874.27 2353.53 1867.91 2346.32C1833.88 2308.32 1836.42 2247.76 1850.35 2202.33C1852.75 2194.52 1845.6 2189.03 1838.58 2191.53C1824.74 2196.45 1813.16 2158.41 1807.21 2150.65C1785.65 2122.4 1846.96 2062.42 1865.86 2045.1C1866.15 2044.84 1866.38 2044.53 1866.52 2044.16C1866.67 2043.8 1866.72 2043.41 1866.69 2043.03C1874.11 2039.35 1881.6 2035.86 1889.16 2032.58V2012.77C1819.53 2040.51 1759.11 2093.7 1691.79 2125.36ZM1705.59 1263.26C1684.56 1277.88 1669.26 1298.73 1670.44 1323.47C1670.44 1323.92 1635.49 1355.99 1631.31 1365.4C1627.76 1373.4 1629.4 1382.63 1630.19 1390.86C1636.07 1453.44 1611.5 1436.31 1597.76 1473.86C1586.83 1503.75 1603.78 1529.52 1597.19 1561.37C1596.13 1566.51 1599.33 1581.72 1603.01 1596.15C1564.67 1559.05 1569.16 1525.25 1582.49 1470.67C1586.77 1453.04 1578.19 1439.67 1567.09 1427.67C1516.65 1373.11 1639.96 1239.48 1705.59 1263.26Z" fill="#9541BA"/>
<path opacity="0.15" d="M1853.94 1163.25C1855.57 1163.11 1875.68 1162.19 1889.23 1164.44V1144.73C1885.22 1144.7 1881.21 1144.9 1877.23 1145.31C1881.19 1142.25 1885.19 1139.31 1889.23 1136.5V1124.95C1876.3 1132.95 1863.47 1141.95 1849.7 1150.12C1842.75 1154.21 1846.19 1163.95 1853.94 1163.25Z" fill="#9541BA"/>
<path opacity="0.15" d="M1915.87 1169.56C1920.14 1150.12 1905.79 1144.92 1889.2 1144.73V1164.44C1899.83 1166.22 1906.39 1169.95 1896.69 1177.57C1894.2 1179.53 1891.7 1181.48 1889.2 1183.42V1201.81C1902.35 1192.71 1911.8 1188.17 1915.87 1169.56Z" fill="#9541BA"/>
<path opacity="0.15" d="M1860.71 1583.93C1870.45 1587.86 1879.94 1592.24 1889.2 1597.06V1591.13C1880.38 1587 1871.43 1583.23 1862.14 1579.88C1859.57 1578.93 1858.18 1582.93 1860.71 1583.93Z" fill="#9541BA"/>
<path opacity="0.15" d="M1912.28 1302.28C1915.73 1302.51 1916.13 1297.21 1912.71 1296.86C1904.74 1296.03 1896.9 1295.21 1889.18 1294.52V1300.22C1897.59 1300.95 1905.44 1301.81 1912.28 1302.28Z" fill="#9541BA"/>
<path opacity="0.15" d="M1909.59 1319.66C1903.81 1329.91 1896.95 1338.39 1889.2 1344.58V1358.22C1900.33 1351.37 1910.11 1340.5 1918.25 1325.81C1921.58 1319.82 1912.99 1313.63 1909.59 1319.66Z" fill="#9541BA"/>
<path opacity="0.15" d="M1828.1 1346.43C1824.23 1344.09 1818.41 1346.01 1818.22 1351.19C1817.02 1385.92 1784.21 1382.86 1761.09 1371.44C1763.45 1350.3 1773.35 1335.1 1790.99 1325.94C1794.41 1323.5 1795 1320.27 1794.07 1317.31C1815.64 1294.95 1856.53 1297.21 1889.16 1300.22V1294.52C1850.4 1291.05 1814.66 1290.95 1778.11 1310.72C1776.5 1311.64 1775.23 1313.07 1774.47 1314.79C1760.37 1324.39 1751.31 1334.38 1741.84 1350.39C1737.84 1357.15 1740.68 1380.28 1738.17 1383.47C1715.39 1412.47 1710.19 1453.98 1705.08 1489.63C1700.84 1519.18 1680.22 1663.27 1731.91 1669.11C1737.6 1669.76 1739.31 1662.41 1735.42 1659.11C1710 1637.79 1704.7 1576.75 1711.83 1517.77C1713.61 1519.25 1716.27 1519.71 1718.14 1517.86C1723.69 1512.37 1726.7 1505.56 1730.09 1498.55C1734.18 1490.13 1745.22 1456.8 1753.71 1477.96C1756.44 1484.75 1766.23 1482.11 1766.9 1475.44C1770.5 1439.9 1850.66 1456.07 1862.77 1478.69C1865.25 1483.31 1871.74 1480.01 1869.93 1475.15C1859.99 1448.63 1813.48 1433.57 1782.17 1442.08C1793.93 1435.08 1807.18 1430.6 1820.4 1427.96C1828.24 1426.41 1836.69 1426.21 1844.3 1429.09C1849.81 1431.15 1849.86 1437.87 1855.36 1439.99C1855.94 1440.21 1856.57 1440.27 1857.19 1440.16C1857.8 1440.05 1858.38 1439.77 1858.85 1439.35C1859.24 1438.96 1859.46 1438.58 1859.83 1438.21C1864.17 1454.12 1876.92 1469.82 1882.38 1483.21C1883.65 1486.38 1888.63 1485.34 1888.77 1481.98C1889.75 1457.11 1860.97 1436.11 1881.25 1412.85C1883.21 1410.67 1882.67 1407.51 1881.86 1405.03C1876.89 1389.81 1882.97 1382.89 1885.21 1369.72C1885.6 1367.39 1883.53 1365.72 1881.57 1365.37C1856.25 1360.6 1868.12 1402.76 1862.16 1413.37C1861.77 1414.05 1861.52 1414.77 1861.18 1415.48C1858.6 1409.66 1856.4 1403.67 1854.57 1397.55C1852.48 1390.71 1851.89 1382.85 1846.08 1378.07C1843.01 1375.55 1837.26 1376.49 1835.3 1380.07C1834.73 1381.24 1834.33 1382.49 1834.1 1383.78C1833.92 1383.68 1833.74 1383.59 1833.55 1383.51C1833.44 1381.5 1833.62 1379.48 1834.08 1377.51C1835 1373.74 1838.17 1370.76 1839.35 1366.92C1839.49 1366.41 1839.51 1365.86 1839.4 1365.34C1839.28 1364.82 1839.04 1364.33 1838.7 1363.92C1857.5 1369.29 1874.54 1367.22 1889.21 1358.18V1344.54C1872.41 1357.94 1851.46 1360.54 1828.1 1346.43ZM1830.22 1360.87C1830.94 1361.15 1831.66 1361.46 1832.38 1361.73C1831.52 1361.78 1830.68 1361.96 1829.88 1362.26C1829.97 1361.78 1830.14 1361.36 1830.25 1360.87H1830.22ZM1834.31 1414.96C1832.84 1414.73 1831.35 1414.63 1829.86 1414.68C1809.72 1415.68 1785.83 1425 1773.3 1441.68C1773.08 1441.93 1772.92 1442.23 1772.83 1442.55C1772.75 1442.87 1772.73 1443.2 1772.79 1443.53C1772.85 1443.86 1772.98 1444.17 1773.17 1444.44C1773.37 1444.7 1773.61 1444.92 1773.9 1445.08C1767.32 1448.15 1761.85 1452.52 1758.16 1458.49C1741.13 1441.09 1723.07 1482.26 1713.65 1504.56C1721.22 1455.15 1737.27 1409.48 1757.22 1392.82C1759.67 1390.76 1761.48 1386.55 1760.48 1383.33C1760.48 1383.09 1760.48 1382.9 1760.48 1382.67C1780.14 1394.13 1806.19 1394.94 1820.43 1380.88C1820.35 1382.48 1820.42 1384.09 1820.63 1385.67C1820.96 1387.78 1821.48 1389.85 1822.2 1391.85C1822.3 1392.37 1822.43 1392.87 1822.61 1393.36H1822.52C1822.59 1393.58 1822.71 1393.73 1822.77 1393.95C1822.87 1394.49 1823.02 1395.01 1823.22 1395.52C1823.73 1396.52 1824.29 1397.6 1824.82 1398.62C1808.48 1400.74 1791.07 1409.91 1781.49 1418.28C1778.74 1420.67 1781.69 1425.48 1784.97 1423.72C1795.19 1418.18 1806.14 1414.14 1817.47 1411.72C1822.27 1410.62 1827.26 1410.59 1832.08 1411.64C1832.79 1412.81 1833.57 1413.87 1834.31 1414.94V1414.96Z" fill="#9541BA"/>
<path opacity="0.15" d="M42.1535 3741.08C29.9809 3733.43 17.4363 3726.42 4.56812 3720.08V3729.73C16.2339 3735.64 27.8801 3741.59 40.5359 3745.02C41.0191 3745.11 41.5203 3745.04 41.9548 3744.8C42.3894 3744.56 42.7307 3744.18 42.9209 3743.72C43.1111 3743.26 43.1386 3742.74 42.9988 3742.26C42.8589 3741.78 42.5603 3741.36 42.1535 3741.08Z" fill="#9541BA"/>
<path opacity="0.15" d="M53.2997 3514.08C54.1231 3514.36 54.8093 3514.64 55.5838 3514.93C37.9381 3532.21 23.0961 3553.11 4.53869 3569.04V3582.41C26.9977 3564.77 45.2218 3538.02 64.8772 3518.95C76.4057 3525.32 65.9163 3529.78 53.5055 3546.01C38.6047 3565.49 23.4196 3583.71 4.53869 3599.07V3614.07C36.9578 3593.48 61.0344 3555.96 85.8462 3525.36C88.4636 3522.17 88.2872 3517.57 84.5816 3515.25C80.6603 3512.82 76.5332 3510.76 72.4354 3508.64C71.9689 3507.5 71.1226 3506.56 70.0462 3506C68.9698 3505.44 67.7326 3505.28 66.5535 3505.56C62.9166 3503.86 59.1521 3502.4 55.3583 3500.92C55.4662 3500.86 55.5838 3500.92 55.672 3500.83C73.7197 3486.63 82.3857 3465.54 91.4732 3444.74C103.423 3417.37 117.942 3395.64 134.686 3371.27C134.952 3370.92 135.096 3370.49 135.096 3370.05C135.096 3369.6 134.952 3369.17 134.686 3368.82C170.84 3346.2 235.756 3311.68 187.917 3374.3C184.417 3378.89 188.799 3386.49 194.455 3382.94C239.374 3354.32 234.207 3358.81 226.228 3379.3C224.737 3383.09 228.463 3387.08 232.041 3387.08C232.727 3387.08 233.364 3387.08 234.001 3387.08C157.292 3459.28 142.038 3582.02 49.9764 3638.8C34.8599 3640.76 19.7303 3642.57 4.5877 3644.23V3654.55C26.109 3654.97 47.6353 3654.04 69.0435 3651.75C86.6893 3662.53 100.992 3677.41 116.344 3691.32C123.147 3697.49 131.48 3704.67 140.548 3709.73C134.166 3709.33 127.598 3709.67 121.775 3709.73C114.295 3709.73 114.481 3720.9 121.775 3721.43L175.094 3737.54C176.29 3738.2 177.667 3738.46 179.017 3738.26C180.367 3738.07 181.619 3737.43 182.583 3736.44C183.548 3735.46 184.173 3734.18 184.366 3732.81C184.559 3731.43 184.308 3730.03 183.652 3728.81L207.464 3745.57C212.454 3748.51 219.228 3742.4 215.709 3737.16C205.043 3721.39 271.381 3737.96 272.381 3738.28C289.85 3743.75 307.3 3748.16 325.034 3752.67C329.759 3753.88 335.435 3755.41 341.444 3756.95C341.37 3757.52 341.487 3758.11 341.778 3758.6C366.452 3791.75 388.96 3825.34 407.89 3862.06C405.929 3860.74 404.165 3859.26 402.145 3858.06C395.587 3853.52 387.98 3850.06 380.157 3847.06C380.72 3846.44 381.086 3845.66 381.208 3844.82C381.331 3843.98 381.203 3843.12 380.843 3842.36C344.277 3772.68 192.671 3775.36 139.087 3818.31C137.127 3819.83 139.754 3823.22 141.685 3821.74C196.465 3779.47 323.553 3790.74 370.599 3843.62C364.344 3841.5 358.07 3839.54 352.198 3837.62C345.189 3835.32 340.758 3844.62 345.336 3849.62C351.307 3856.38 357.852 3862.58 364.893 3868.16C376.185 3874.8 385.713 3884.15 392.646 3895.41C378.092 3884.57 364.346 3872.65 351.522 3859.74C346.689 3855.14 340.435 3860.91 342.875 3866.56C353.894 3892.17 370.217 3913.84 384.284 3937.84C394.33 3959.85 398.905 3984.05 397.607 4008.29C397.675 4013.02 394.166 4036.61 393.901 4051.65C362.639 3977.96 284.89 3928.89 217.64 3890.81C188.289 3861.7 154.145 3838.81 111.55 3828.41C110.965 3828.28 110.355 3828.39 109.843 3828.7C109.332 3829.02 108.958 3829.52 108.799 3830.11C108.64 3830.7 108.707 3831.33 108.987 3831.87C109.267 3832.41 109.739 3832.82 110.305 3833.01C122.106 3836.96 133.58 3841.85 144.616 3847.66C144.022 3848.02 143.586 3848.6 143.403 3849.27C143.22 3849.95 143.304 3850.67 143.636 3851.29C178.163 3917.35 213.856 4048.59 301.251 4060.65C303.8 4061 305.418 4057.86 303.045 4056.31C260.833 4028.49 231.815 4002.62 205.249 3957.91C184.525 3923.08 168.359 3885.53 148.939 3849.91C227.914 3893.22 269.685 3975.32 322.269 4049.65C325.553 4054.27 333.112 4049.97 329.896 4045.11C320.211 4030.5 310.564 4015.35 300.741 4000.16C337.17 4031.91 371.138 4064.89 384.284 4114.23C385.46 4118.58 391.421 4117.43 391.715 4113.23C395.411 4056.84 328.455 4013.07 288.037 3980.69C270.705 3954.37 252.343 3928.59 231.747 3905.69C304.378 3949.48 389.048 4010.57 395.832 4099.57C396.391 4106.88 407.743 4106.71 406.92 4099.57C405.889 4091.37 404.267 4083.26 402.067 4075.3C402.351 4075.24 402.645 4075.18 402.91 4075.11C405.528 4074.61 407.125 4071.89 407.214 4069.39C408.87 4021.49 414.988 3976.11 394.773 3931.67C385.862 3912.11 370.207 3894.84 359.208 3876.37C366.903 3889.26 384.245 3904.42 400.577 3916.44C404.684 3919.44 411.36 3915.44 410.998 3910.33C409.312 3889.69 398.028 3877.17 384.637 3865.56C397.921 3871.91 410.253 3880.15 421.262 3890.04C422.323 3891.06 423.705 3891.66 425.161 3891.73C426.617 3891.81 428.051 3891.35 429.206 3890.44C430.362 3889.54 431.164 3888.24 431.468 3886.79C431.773 3885.34 431.56 3883.82 430.869 3882.51C409.165 3837.51 382.706 3797.75 351.63 3759.37C375.795 3764.78 404.126 3767.88 419.674 3752.06C421.056 3750.62 422.337 3749.08 423.507 3747.46C426.585 3749.46 429.183 3751.03 430.271 3751.65C437.741 3756.05 444.387 3744.4 437.006 3739.9C434.682 3738.47 432.378 3737.03 430.045 3735.61C430.418 3734.87 430.888 3734.16 431.31 3733.48C433.878 3733.48 436.457 3733.48 439.025 3733.48C443.613 3733.48 443.927 3727.48 440.554 3725.83C442.31 3725.16 444.121 3724.65 445.966 3724.32C464.347 3721.07 473.414 3719.43 490.001 3710.38C522.636 3692.52 446.583 3641.05 526.273 3652.38C531.126 3653.08 534.675 3648.92 532.459 3644.16C517.646 3612.16 541.037 3584.02 535.89 3552.16C535.38 3549.01 531.655 3547.4 528.93 3548.16C495.923 3556.84 546.448 3506.64 556.026 3492.29C563.774 3481.02 569.158 3468.25 571.838 3454.77C579.298 3447.98 587.266 3441.79 595.67 3436.27C600.15 3433.4 600.189 3424.7 594.052 3423.68C558.526 3417.86 537.782 3435.76 553.036 3396.49C554.918 3391.62 549.311 3386.55 544.782 3388.04C528.93 3393.3 464.239 3408.33 416.919 3410.91C417.762 3410.25 418.478 3409.49 419.321 3408.86C423.085 3406.05 419.448 3399.58 415.635 3402.42C411.821 3405.26 408.723 3408.36 405.214 3411.28C376.108 3411.47 357.11 3405.36 367.55 3386.41C368.289 3385.12 368.587 3383.61 368.397 3382.12C368.207 3380.64 367.54 3379.26 366.501 3378.2C348.15 3361.12 242.677 3369.99 245.099 3364.78C246.844 3360.93 244.805 3355.56 240.021 3355.78C196.181 3357.78 204.612 3378.17 225.365 3331.35C227.051 3327.57 224.316 3322.86 219.905 3324.1C132.156 3348.77 50.8293 3404.31 7.17574 3487.15L4.50928 3486.65V3499.49C22.2138 3503.86 38.8008 3508.96 53.2997 3514.08ZM221.983 3712.2C212.229 3711.51 202.376 3709.99 196.73 3719.78C195.526 3721.65 194.848 3723.83 194.769 3726.08C191.975 3723.67 186.456 3720.17 175.928 3715.55C170.251 3713.05 164.507 3718.18 167.428 3724.23C165.79 3720.88 163.361 3718 160.36 3715.86C162.084 3715.95 163.811 3715.89 165.526 3715.7C168.271 3715.27 168.095 3711.47 166.213 3710.18C157.654 3704.26 147.39 3701.79 138.411 3696.26C128.539 3690.18 119.981 3681.87 111.491 3674.03C101.845 3665.15 92.0712 3656.25 80.6799 3650.46C82.4935 3650.26 84.2679 3649.97 86.0619 3649.75C131.578 3661.66 181.153 3665.75 231.149 3662.6C230.989 3662.74 230.872 3662.93 230.809 3663.14C230.746 3663.35 230.741 3663.57 230.794 3663.79C230.846 3664 230.954 3664.19 231.107 3664.35C231.259 3664.5 231.45 3664.61 231.659 3664.66C270.303 3675.18 300.722 3703.28 337.533 3718.54C359.766 3727.76 383.961 3731.43 408.116 3732.75C409.072 3734.5 410.244 3736.12 411.605 3737.58C381.167 3775.53 259.254 3714.85 221.983 3712.2ZM514.225 3611.54C505.657 3639.45 522.842 3640.22 475.669 3632.54C470.768 3631.74 466.905 3635.34 467.827 3640.54C472.15 3663.61 491.305 3703.43 453.838 3709.44C439.299 3711.78 425.526 3713.08 412.488 3720.37C410.9 3721.21 409.499 3722.39 408.37 3723.81C376.667 3721.66 346.375 3716.37 316.515 3701.48C288.487 3687.48 264.185 3669.87 233.482 3662.59C331.367 3656.02 430.183 3621.59 502.304 3564.7C502.726 3564.78 503.059 3565.05 503.5 3564.99C535.253 3560.62 520.254 3591.85 514.225 3611.54ZM498.697 3556.3C498.382 3556.9 498.208 3557.56 498.187 3558.23C375.01 3630.7 252 3661.3 114.344 3645.53C186.172 3633.53 257.47 3612.15 327.828 3598.53C382.97 3587.87 432.163 3569.96 480.081 3540.47C509.922 3522.07 532.224 3493.73 557.3 3468.48C542.36 3500.1 517.107 3527.63 498.697 3556.3ZM480.894 3419.8C489.188 3418.51 549.742 3391.74 520.293 3425.43C515.549 3430.83 520.293 3437.99 526.832 3436.9C555.33 3432.23 566.349 3433.22 567.878 3437.45C567.878 3437.54 567.741 3437.56 567.721 3437.65C567.388 3439.47 566.741 3441.19 566.28 3442.98C559.075 3453.21 532.871 3470.08 519.921 3483.75C471.826 3534.46 417.507 3562.35 350.796 3579.83C302.761 3592.44 254.059 3603.59 205.082 3613.33C248.765 3598.08 289.762 3572.93 327.024 3546.79C368.374 3517.79 420.35 3477.14 436.486 3425.61C450.789 3424.93 467.709 3421.86 480.894 3419.8ZM428.222 3425.8C401.832 3488.66 331.729 3546.72 259.607 3583.95C313.966 3537.5 348.14 3472.1 401.018 3424.41C409.704 3425.2 418.703 3425.7 428.222 3425.78V3425.8ZM336.16 3397.02C331.043 3400.4 332.416 3407.31 337.758 3409.43C354.939 3416.22 372.868 3420.84 391.146 3423.2C336.494 3475.2 301.732 3546.43 241.56 3592.79C208.768 3608.07 176.28 3618.9 148.194 3623.39C147.992 3623.42 147.8 3623.5 147.63 3623.61C147.46 3623.73 147.318 3623.88 147.214 3624.06C119.87 3628.79 92.4731 3633.02 65.0243 3636.75C102.737 3612.6 127.255 3575.46 149.224 3535.5C149.375 3535.87 149.61 3536.19 149.91 3536.44C150.21 3536.69 150.566 3536.87 150.946 3536.95C151.326 3537.03 151.72 3537.01 152.093 3536.9C152.465 3536.79 152.806 3536.59 153.086 3536.31C201.729 3490.23 265.274 3445.69 296.82 3384.43C321.24 3383.76 354.012 3385.24 336.16 3397V3397.02ZM247.236 3387.08C260.098 3387.08 272.93 3386.77 285.743 3385.9C265.019 3386.82 274.302 3385.35 290.713 3384.65C270.028 3408.78 251.598 3434.37 229.12 3457.2C204.239 3482.46 177.486 3505.79 151.988 3530.4C179.682 3479.17 204.219 3424.43 247.236 3387.06V3387.08ZM109.795 3385.66C84.9443 3416.61 78.8467 3468.6 52.9369 3497.27C52.656 3497.61 52.4842 3498.04 52.444 3498.49C52.4038 3498.94 52.497 3499.39 52.7115 3499.79C39.4603 3494.8 25.8524 3490.87 12.0087 3488.02C38.8498 3446.08 70.2395 3414.52 109.795 3385.66Z" fill="#9541BA"/>
<path opacity="0.15" d="M187.456 3777.07C190.338 3774.77 189.083 3769.97 186.329 3768.27C137.029 3737.79 69.426 3676.48 4.53882 3666.57V3682.19C23.0472 3683.88 41.9183 3689.72 62.9657 3700.32C100.551 3719.25 133.647 3747.45 168.752 3770.58C183.692 3780.44 108.884 3803.13 121.883 3799C89.2186 3809.35 53.6135 3805.15 21.1552 3797.31C15.4561 3795.92 9.89407 3793.99 4.53882 3791.56V3802.67C14.3575 3807.29 24.5907 3810.92 35.0953 3813.52C89.3068 3826.91 144.469 3811.4 187.456 3777.07Z" fill="#9541BA"/>
<path opacity="0.15" d="M25.3215 3365.02C22.3806 3366.02 16.0967 3391.32 13.5577 3396.15C11.0613 3400.78 8.03726 3405.09 4.54858 3408.99V3425.99C21.5277 3408.72 32.9778 3386.99 35.2423 3358.99C35.5266 3355.38 31.919 3353.75 29.0075 3354.14C26.841 3354.46 24.7137 3355.09 22.5864 3355.53C99.3158 3319.94 182.035 3274.44 215.827 3196.02C217.375 3192.39 212.297 3189.15 210.484 3192.84C170.742 3273.49 83.915 3316.93 4.54858 3353.6V3373.77C11.2603 3370.35 18.2022 3367.43 25.3215 3365.02Z" fill="#9541BA"/>
<path opacity="0.15" d="M20.2925 3208.28C14.8812 3213.59 9.70509 3218.72 4.53882 3223.65V3248.1C16.881 3237.98 27.0175 3226.24 32.2426 3213.18C33.8601 3215.24 33.6542 3217.89 31.1544 3221.18C23.2006 3231.46 14.287 3240.94 4.53882 3249.47V3268.07C25.4 3251.07 43.0947 3231.55 55.2996 3211.8C58.0053 3207.46 55.1232 3202.8 51.0157 3201.1C36.1318 3195.12 20.4764 3191.38 4.53882 3189.99V3206.87C9.81565 3206.97 15.0795 3207.44 20.2925 3208.28Z" fill="#9541BA"/>
<path opacity="0.15" d="M59.6228 4047.06C60.5137 4047.59 61.5238 4047.87 62.5525 4047.87C63.5812 4047.87 64.5924 4047.6 65.4853 4047.07C66.3781 4046.55 67.1213 4045.8 67.6408 4044.9C68.1603 4043.99 68.4378 4042.96 68.4457 4041.91C68.0438 3992.58 81.8172 4006.63 108.482 4030.69C112.874 4034.64 118.638 4032.69 120.677 4027.43C133.225 3994.7 147.146 4022.86 165.772 4041.53C182.437 4058.18 198.632 4069.21 220.209 4078.53C224.042 4080.15 230.208 4079.34 230.992 4074.06C231.678 4069.44 279.586 4088.82 286.458 4090.57C287.592 4090.87 288.778 4090.9 289.926 4090.67C291.074 4090.43 292.155 4089.94 293.087 4089.21C294.019 4088.49 294.779 4087.56 295.308 4086.5C295.838 4085.43 296.124 4084.26 296.144 4083.06C296.144 4079.86 347.12 4099.66 357.188 4100.95C359.806 4101.28 363.168 4098.69 363.501 4096.03C363.678 4094.97 363.835 4093.91 363.992 4092.87C364.903 4086.14 357.433 4082.76 353.375 4088.3C356.718 4083.67 297.497 4062.49 288.497 4061.51C284.331 4061.04 280.802 4065.41 280.831 4069.33C262.408 4066.06 245.068 4058.17 230.365 4046.38C226.708 4044.04 220.189 4046.07 219.522 4050.89C217.993 4062.16 136.999 3995.24 125.343 3986.35C120.53 3982.69 115.295 3987.86 114.717 3992.55C110.795 4024.75 81.0428 3986.03 71.3082 3978.55C70.4547 3977.94 69.4515 3977.59 68.412 3977.53C67.3726 3977.47 66.3383 3977.71 65.4263 3978.23C43.9182 3954.05 28.2233 3935.35 18.3123 3901.79C15.3656 3891.23 13.2383 3880.46 11.95 3869.56C30.2427 3906.1 51.4764 3942.62 81.8368 3970.17C84.4053 3972.52 89.1108 3969.39 86.8855 3966.17C62.4952 3931.41 33.1249 3900.56 13.4597 3862.41C13.2301 3861.95 12.8377 3861.61 12.3634 3861.44C11.8891 3861.27 11.3691 3861.29 10.9109 3861.5C8.97965 3844.72 7.84249 3827.84 5.37209 3810.96C5.34848 3810.69 5.26011 3810.43 5.11479 3810.21C4.96946 3809.98 4.77165 3809.79 4.53882 3809.66V3886.01C12.0775 3928.15 29.5761 3970.63 61.2404 3984.01C55.6329 4005.08 56.7603 3998.2 56.0741 4022.12C55.8094 4031.47 13.2832 3981.78 7.8719 3972.81C6.7478 3970.93 5.63677 3969.04 4.53882 3967.14V3989.32C18.626 4012.89 36.1638 4033.43 59.6228 4047.06Z" fill="#9541BA"/>
<path opacity="0.15" d="M1.42136 3811.52C-1.07845 3830.52 -0.43144 3858.2 4.53877 3886.01V3809.66C4.21468 3809.54 3.86892 3809.5 3.52591 3809.53C3.1829 3809.56 2.851 3809.67 2.55367 3809.85C2.25634 3810.03 2.00081 3810.27 1.80516 3810.56C1.6095 3810.85 1.47848 3811.18 1.42136 3811.52Z" fill="#9541BA"/>
<path opacity="0.15" d="M220.454 3806.09C259.049 3811.46 288.586 3830.33 316.368 3857.09C317.917 3858.59 321.171 3857.09 320.24 3854.78C305.388 3817.93 256.794 3802.51 221.228 3800.41C218.052 3800.21 217.277 3805.64 220.454 3806.09Z" fill="#9541BA"/>
<path opacity="0.15" d="M92.6595 3225.39C95.5416 3227.16 100.502 3224.49 98.9728 3220.67C98.5512 3219.67 98.3061 3218.6 97.8846 3217.57C158.792 3128.57 195.593 3025.72 171.301 2913.58C210.454 2986.28 221.846 3067.26 212.65 3150.57C212.023 3156.23 219.277 3157.88 222.689 3154.81C247.746 3132.28 232.492 3166.35 251.539 3177.99C319.691 3219.54 240.511 3281.38 208.837 3318.91C207.121 3320.91 209.229 3324.08 211.65 3322.67C252.755 3298.36 287.056 3260.68 296.938 3212.56C304.78 3174.3 250.814 3168.04 248.736 3128.63C248.706 3127.43 248.334 3126.26 247.666 3125.27C246.997 3124.28 246.061 3123.51 244.971 3123.05C243.881 3122.59 242.683 3122.46 241.524 3122.69C240.365 3122.91 239.295 3123.47 238.442 3124.3C217.209 3143.69 226.228 3122.54 226.875 3100.58C227.63 3074.74 223.855 3049.25 220.111 3023.84C212.533 2972.74 190.25 2927.77 161.84 2885.77C159.743 2882.68 154.772 2885.55 156.86 2888.77C157.841 2890.27 158.547 2891.77 159.498 2893.32C158.3 2893.83 157.33 2894.78 156.776 2895.98C156.222 2897.18 156.123 2898.54 156.498 2899.81C176.104 2975.05 160.625 3056.4 138.852 3129.49C129.745 3160.22 114.344 3187.27 96.0416 3212.49C71.2592 3146.31 71.965 3077.37 77.2881 3007.84C77.8076 3007.75 78.3193 3007.63 78.8174 3007.46C88.92 3002.86 97.7872 2995.84 104.668 2987.01C88.8167 3041 74.2786 3102.27 81.6309 3158.8C81.9643 3161.24 85.8855 3162.43 86.3365 3159.43C94.9339 3101.43 96.9337 3044.26 111.276 2986.87C111.942 2984.17 109.541 2982.74 107.551 2983.12C111.277 2977.64 114.662 2971.93 117.687 2966.02C134.264 2934.36 124.667 2931.36 132.186 2971.12C133.166 2976.12 140.675 2977.06 142.842 2972.55C159.301 2938.41 151.89 2902.25 154.4 2865.34C154.665 2861.65 149.145 2861.05 148.234 2864.48C144.018 2880.2 143.332 2893.91 143.156 2910.38C143.209 2924.56 142.394 2938.74 140.715 2952.82C138.961 2942.1 136.223 2931.57 132.539 2921.38C132.177 2920.18 131.449 2919.13 130.461 2918.39C129.473 2917.65 128.277 2917.25 127.049 2917.25C125.821 2917.25 124.625 2917.65 123.637 2918.39C122.649 2919.13 121.921 2920.18 121.559 2921.38C119.148 2930.28 116.364 2939.07 113.207 2947.75C110.207 2968.5 98.7963 2980.34 78.9743 2983.26C78.2194 2977.36 71.9258 2975.61 68.3771 2980.33C56.2015 2996.61 44.2122 3012.88 32.968 3029.87C32.419 3024.39 31.772 3018.88 31.6446 3013.4C31.6446 3010.53 28.1645 3007.97 25.5666 3009.86C17.6679 3015.86 10.5955 3022.93 4.53882 3030.85V3045.09C13.9793 3028.03 23.7628 3018.85 22.1061 3051.79C21.7924 3057.37 29.8212 3059.48 32.37 3054.63C42.1732 3035.87 53.1429 3019.54 65.7596 3002.64C71.1318 2995.43 68.0634 2988.2 70.573 3003.98C70.6845 3004.36 70.8567 3004.73 71.0827 3005.07C58.9954 3075.85 63.2402 3154.46 89.9244 3220.73C63.8676 3254.84 32.7131 3285.72 4.53882 3317.86V3329.19C36.056 3297.3 66.3772 3262.61 92.6595 3225.39Z" fill="#9541BA"/>
<path opacity="0.15" d="M71.9259 3287.14C147.822 3250.42 205.641 3153.07 205.249 3068.23C205.249 3064.51 199.642 3064.51 199.573 3068.23C197.779 3161.48 134.872 3227.59 68.8771 3283.1C66.5145 3285.07 69.5045 3288.32 71.9259 3287.14Z" fill="#9541BA"/>
<path opacity="0.15" d="M176.398 3266.26C191.544 3262.68 205.2 3251.78 217.327 3242.19C233.359 3229.56 247.984 3215.17 260.941 3199.29C261.499 3198.72 261.813 3197.96 261.816 3197.15C261.819 3196.35 261.509 3195.58 260.956 3195.01C260.681 3194.73 260.355 3194.51 259.996 3194.35C259.637 3194.2 259.252 3194.12 258.863 3194.12C258.077 3194.12 257.322 3194.43 256.765 3195C243.952 3205.72 231.629 3217 218.719 3227.65C204.288 3239.57 186.927 3248.06 173.163 3260.57C170.497 3262.96 173.34 3267 176.398 3266.26Z" fill="#9541BA"/>
<path opacity="0.15" d="M145.528 1488.15C148.391 1486.39 145.528 1482.67 142.862 1483.38C105.031 1493.46 74.8374 1501.92 35.4188 1496.38C25.0176 1494.93 14.7537 1492.96 4.53882 1490.85V1498.24C52.5547 1509.07 101.463 1515.23 145.528 1488.15Z" fill="#9541BA"/>
<path opacity="0.15" d="M124.981 1146.76C73.661 1173.76 37.2912 1222.47 4.53882 1272.68V1299.87C11.156 1295.8 17.9299 1291.87 24.9294 1288.17C107.727 1274.03 212.229 1289.05 269.254 1227.48C249.549 1258.85 223.042 1281.31 191.721 1296.18C132.607 1312.86 64.348 1288.01 4.53882 1301.08V1315.08C38.9283 1310.18 77.8567 1314.9 115.168 1317.18C76.5235 1321.78 40.3204 1320.05 4.53882 1323.76V1334.48C68.4163 1330.49 135.352 1340.39 192.387 1313.22C216.032 1307.22 236.119 1294.57 250.079 1270.39C297.781 1220.89 320.27 1152.61 331.896 1082.57C332.71 1077.7 326.671 1073.83 322.828 1077.15C245.677 1144.02 145.852 1101.48 68.2888 1155.03C44.8194 1171.39 23.4175 1190.63 4.56823 1212.33V1226.74C36.0952 1188.82 75.7589 1159.2 124.981 1146.76ZM284.292 1198C283.965 1198.09 283.661 1198.24 283.4 1198.46C218.346 1270.01 133.99 1261.75 51.3392 1275.09C78.4057 1262.74 107.717 1252.01 138.989 1241.67C203.445 1220.38 266.793 1190.67 304.555 1135.4C298.203 1157.48 289.38 1184.47 284.292 1198ZM310.025 1102.4C253.608 1191.13 167.83 1215.95 76.9254 1248.17C131.686 1192.89 182.535 1150.81 258.715 1124.27C276.761 1119.5 294.05 1112.14 310.064 1102.4H310.025ZM205.7 1134.01C150.469 1158.61 105.315 1205.81 65.8184 1252.11C50.1334 1257.77 34.3993 1263.72 18.6358 1270.36C15.7438 1271.57 12.9597 1272.98 10.1364 1274.3C27.4782 1250.3 44.8789 1226.24 64.2107 1203.88C91.2871 1172.57 124.196 1154.5 160.762 1139.77C176.016 1137.51 190.966 1135.88 205.739 1134.01H205.7Z" fill="#9541BA"/>
<path opacity="0.15" d="M262.313 1549.29C267.852 1544.79 262.774 1536.19 256.264 1538.48C209.278 1555.07 167.81 1527.35 123.657 1531.79C154.449 1513.07 180.182 1485.7 201.798 1455.07C210.112 1450.3 217.929 1444.69 225.13 1438.31C226.728 1436.87 225.335 1433.94 223.169 1434.86C219.431 1436.48 215.745 1438.09 212.111 1439.7C224.027 1421.08 234.922 1401.8 244.746 1381.94C245.903 1380.49 247.02 1378.94 248.167 1377.47C251.559 1376.13 255.029 1374.64 258.421 1372.97C261.813 1371.3 259.794 1366.04 256.215 1367.4C255.686 1367.6 255.157 1367.71 254.627 1367.9C254.6 1367.59 254.509 1367.29 254.361 1367.02C254.214 1366.75 254.012 1366.51 253.77 1366.32C253.527 1366.14 253.249 1366 252.953 1365.93C252.657 1365.86 252.349 1365.85 252.049 1365.9C251.941 1362.27 246.599 1359.67 244.275 1363.3C242.217 1366.52 240.197 1369.72 238.148 1372.94C160.782 1392.29 82.4641 1352.46 4.53869 1376.76V1390.08C28.3604 1382.15 55.2897 1378.31 86.3952 1379.08C138.872 1380.36 183.584 1395.64 231.904 1382.77C231.266 1383.77 230.668 1384.77 230.041 1385.77C172.585 1434.69 107.56 1455.18 34.2325 1464.42C31.2915 1463.88 28.429 1463.31 25.5469 1462.73C71.8571 1426.22 118.099 1401.25 178.065 1392.73C178.482 1392.62 178.852 1392.38 179.119 1392.03C179.386 1391.69 179.534 1391.26 179.541 1390.83C179.548 1390.39 179.413 1389.96 179.156 1389.6C178.9 1389.25 178.537 1388.99 178.123 1388.87C119.598 1379.86 61.9657 1424.39 18.7729 1461.94C18.4615 1462.09 18.1944 1462.32 17.9984 1462.61C16.3809 1464 14.8222 1465.36 13.2439 1466.76C10.3618 1467.04 7.46003 1467.31 4.53869 1467.57V1476.94C16.773 1475.45 29.1152 1474.19 41.4378 1472.94C82.3955 1482.82 130.333 1482.61 171.565 1468.67C137.783 1508.33 97.2179 1538.92 36.8009 1552.14C26.18 1554.3 15.2889 1554.72 4.53869 1553.38V1566.14C38.8498 1569.08 72.8472 1556.21 103.551 1542.5C104.315 1542.13 105.08 1541.71 105.874 1541.33C146.067 1542.88 183.133 1555.85 222.983 1558.7C223.365 1558.7 223.796 1558.7 224.198 1558.7C149.89 1595.06 78.8663 1583.61 4.50928 1568.58V1582.8C65.9359 1597.09 129.931 1606.55 185.525 1589.69C177.516 1594.96 169.644 1600.07 162.193 1604.31C111.599 1633.1 56.1916 1638.58 4.50928 1622.9V1637.27C14.6389 1640.41 24.9613 1642.87 35.4089 1644.62C120.138 1658.64 200.288 1599.56 262.313 1549.29ZM130.696 1468.42C110.109 1472.05 89.7969 1471.77 69.5239 1469.64C84.663 1467.83 99.6963 1465.19 114.56 1461.74C149.312 1453.34 182.368 1438.07 210.307 1416.13C202.171 1428.35 193.926 1440.13 185.329 1451.4C168.056 1458.65 150.626 1464.94 130.696 1468.42Z" fill="#9541BA"/>
<path opacity="0.15" d="M32.7915 292.828C37.3892 301.108 41.6144 309.697 45.7219 318.447C53.8585 366.575 27.988 410.793 4.54858 451.961V460.681C25.047 427.502 53.7115 388.344 58.2307 348.486C62.7794 360.485 66.9458 372.765 70.5337 385.214C67.9163 382.554 62.3775 384.304 63.1617 388.704C72.0826 439.162 55.1722 473.7 28.9683 515.579C19.9102 530.048 11.3912 544.398 4.54858 559.427V577.756C28.7624 521.139 83.9543 469.561 76.4156 407.583C82.895 434.251 87.2617 461.408 89.4734 488.79C89.5617 490.19 89.5323 491.55 89.6107 492.94C89.0623 493.067 88.5481 493.316 88.1043 493.668C87.6605 494.021 87.2979 494.469 87.0423 494.98C54.0546 557.877 21.5669 626.644 11.7637 698.191C11.2638 695.021 10.6462 691.881 9.95013 688.802C8.29666 677.062 6.50922 665.309 4.5878 653.543V951.291C5.95371 947.618 7.32615 943.951 8.70513 940.291C73.7884 848.045 147.371 773.088 238.835 726.74C294.222 711.361 358.433 744.319 411.066 763.119C459.671 780.478 502.236 781.428 552.81 771.828C645.441 754.229 734.571 683.832 759.755 589.836C761.657 590.676 763.628 591.356 765.539 592.236C771.029 594.725 776.068 586.326 770.902 582.856C768.235 581.046 765.422 579.456 762.667 577.776C763.735 572.546 764.755 567.297 765.431 561.937C766.02 557.247 759.432 555.267 757.589 559.687C755.913 563.777 753.962 567.687 752.168 571.686C675.438 530.378 573.162 531.598 490.354 540.688C382.52 552.477 295.458 622.444 231.884 708.231C145.577 753.259 71.7885 825.316 20.7434 908.763C74.0237 773.248 139.901 642.374 220.865 524.368C304.565 469.561 410.674 463.581 480.806 383.984C555.693 298.988 591.455 191.732 647.921 94.6361C651.538 88.4163 644.705 79.2067 638.373 84.8565C592.964 125.445 536.233 112.545 483.855 132.155C440.447 148.374 394.225 167.913 357.11 197.952C371.54 131.395 372.089 64.9173 418.733 9.61958C423.634 3.80982 415.713 -2.37993 410.233 0.899939C313.652 57.8976 220.934 118.895 176.79 227.891C126.235 352.795 219.65 499.489 143.46 613.995C143.111 614.509 142.94 615.126 142.972 615.75C143.004 616.374 143.237 616.97 143.636 617.445C126.569 648.443 110.56 680.122 95.2573 711.891C65.8478 773.008 38.1637 834.796 12.2049 897.253C16.1936 874.289 18.533 851.058 19.2043 827.746C52.6135 725.85 98.9041 623.074 105.678 515.179C109.09 460.921 96.071 409.563 78.69 358.925C60.0639 304.667 12.1362 248.5 4.5878 192.552C4.59249 192.455 4.59249 192.359 4.5878 192.262V238.65C12.4499 257.269 22.8511 274.989 32.7915 292.828ZM417.468 747.639C370.648 732.79 321.201 710.161 274.253 710.641C282.194 707.414 290.285 704.414 298.526 701.641C361.404 704.131 415.007 738 477.326 752.569C496.991 757.169 517.676 758.109 538.429 756.569C500.648 763.198 460.082 761.169 417.468 747.639ZM624.374 724.03C553.124 743.159 495.393 751.749 418.84 724.34C382.686 711.401 352.757 698.621 319.583 694.911C336.169 690.157 352.993 686.312 369.981 683.392C442.231 712.211 553.301 736.54 638.177 714.731C633.618 717.97 629.079 721.14 624.374 724.03ZM676.919 682.242C585.945 724.77 482.237 708.861 385.176 681.012C393.293 679.862 401.371 678.702 409.684 677.922C518.833 667.692 644.294 679.162 733.855 607.785C718.222 635.086 699.072 660.128 676.919 682.242ZM743.012 582.976C650.029 650.673 546.674 646.923 441.829 654.463C511.98 615.935 581.769 585.816 657.136 557.877C686.444 563.588 715.186 571.988 743.012 582.976ZM635.451 553.977C636.03 554.067 636.588 554.197 637.186 554.277C563.114 572.756 491.06 614.415 426.781 655.613C409.272 657.063 391.744 658.973 374.226 661.683C451.181 595.765 530.636 551.707 635.451 553.977ZM491.766 553.567C506.069 551.457 520.48 550.237 534.9 549.417C468.719 569.367 404.518 618.365 359.237 664.213C346.022 666.633 332.769 669.542 319.632 673.212C296.443 679.688 273.805 688.068 251.941 698.271C320.034 624.844 386.245 569.187 491.766 553.597V553.567ZM485.11 357.845C418.291 442.622 315.24 453.191 232.835 507.229C248.893 484.49 265.411 462.121 282.665 440.442C324.818 412.663 380.863 402.953 423.624 377.534C458.68 356.705 495.129 333.876 520.44 301.738C509.628 322.147 498.138 341.356 485.11 357.875V357.845ZM541.223 260.069C540.908 259.82 540.547 259.638 540.161 259.535C539.775 259.432 539.373 259.411 538.979 259.472C538.584 259.532 538.206 259.674 537.868 259.889C537.529 260.103 537.236 260.386 537.008 260.719C492.893 320.857 438.074 365.275 370.03 394.794C343.738 406.223 316.946 414.793 293.075 427.862C300.957 418.193 308.8 408.433 316.976 398.984C317.172 398.764 317.054 398.504 317.201 398.254C328.416 387.541 339.621 376.784 350.816 365.985C413.321 322.197 497.325 299.988 549.33 242.99C546.634 248.67 543.948 254.389 541.223 260.099V260.069ZM571.427 197.202C571.427 197.202 571.339 197.202 571.309 197.282C524.842 273.159 445.623 299.628 374.854 342.986C413.753 305.987 453.338 269.889 496.129 237.99C524.558 216.821 556.908 195.672 585.396 171.093C580.606 179.553 575.949 188.266 571.427 197.232V197.202ZM618.296 116.995C575.044 171.203 512.853 208.181 458.641 249.99C457.602 250.79 456.602 251.66 455.543 252.48C473.503 228.251 492.531 204.932 513.941 183.572C536.861 160.683 563.378 143.574 590.219 126.715C599.897 124.526 609.311 121.267 618.296 116.995ZM524.47 137.834C529.371 136.914 534.273 135.914 539.174 135.174C545.968 134.174 553.624 133.174 561.624 131.975C511.539 166.523 471.866 215.201 437.868 266.749C377.157 317.117 322.191 377.744 268.391 435.342C286.037 403.123 299.222 368.455 314.152 333.276C356.58 233.28 435.035 191.662 523.734 142.394C524.137 142.2 524.487 141.908 524.755 141.546C525.023 141.183 525.201 140.759 525.273 140.311C525.346 139.862 525.31 139.403 525.17 138.972C525.03 138.54 524.79 138.15 524.47 137.834ZM361.737 212.251C403.312 174.933 459.063 151.694 513.686 139.924C441.613 164.503 379.187 211.301 333.837 273.449C284.292 341.376 277.43 429.882 219.032 493.4C218.774 493.655 218.573 493.963 218.442 494.304C218.311 494.646 218.253 495.011 218.272 495.377C218.292 495.743 218.388 496.101 218.555 496.425C218.721 496.75 218.954 497.035 219.238 497.259C215.552 502.293 211.928 507.369 208.366 512.489C219.591 402.103 281.949 283.898 361.737 212.251ZM340.229 213.061C338.268 215.001 336.17 216.791 334.278 218.811C289.85 266.579 251.677 327.156 226.845 391.984C229.463 374.365 231.865 356.545 234.688 338.566C250.5 237.23 305.467 144.204 368.815 64.9173C352.002 111.525 351.355 167.573 340.248 213.061H340.229ZM394.548 18.9992C392.205 21.7191 390.068 24.579 387.98 27.4888C386.808 27.6087 385.705 28.1101 384.833 28.9188C388.267 25.8178 391.511 22.505 394.548 18.9992ZM205.612 197.552C225.473 151.994 262.833 116.895 300.163 86.4264C325.651 65.6573 359.57 51.6178 384.167 29.4288C319.23 98.9959 270.567 183.282 237.472 272.989C207.376 354.615 220.287 446.422 184.015 525.978C186.574 505.279 186.574 483.65 185.094 460.531C179.084 366.725 166.389 287.548 205.612 197.552ZM181.29 543.238C181.555 543.058 181.888 543.028 182.064 542.718C188.398 531.496 193.95 519.834 198.681 507.819C197.975 514.819 197.495 521.818 197.201 528.768C190.279 539.088 183.532 549.541 176.957 560.127C178.633 554.557 180.133 548.977 181.29 543.238ZM19.1455 789.107C18.4593 767.168 16.6849 745.109 14.2439 723.04C24.2432 645.373 64.3479 581.026 90.1891 508.659C90.8263 606.795 41.7908 695.391 19.1455 789.107Z" fill="#9541BA"/>
<path opacity="0.15" d="M132.196 1383.12C89.1598 1376.4 45.5847 1392.4 4.53882 1416.73V1434.67C42.5163 1411.42 82.7191 1392.92 132.127 1387.44C132.63 1387.37 133.089 1387.11 133.424 1386.72C133.759 1386.33 133.947 1385.83 133.956 1385.31C133.964 1384.79 133.791 1384.29 133.469 1383.89C133.147 1383.49 132.696 1383.22 132.196 1383.12Z" fill="#9541BA"/>
<path opacity="0.15" d="M102.257 1032.96C114.109 1034.43 126.167 1033.35 134.548 1030.66C134.637 1032.27 134.686 1033.9 134.656 1035.52C107.207 1055.52 91.2183 1090.92 87.1402 1124.38C86.552 1129.25 92.0418 1132.79 95.9631 1129.69C121.981 1109.21 142.587 1077.2 141.646 1043.5C142.469 1042.94 143.312 1042.5 144.155 1041.92C149.704 1068.39 163.615 1089.91 192.475 1093.32C195.671 1093.71 199.524 1090.8 198.73 1087.15C194.808 1069.48 188.799 1054.83 178.486 1041.73C197.583 1044.41 215.973 1050.67 235.619 1048.23C236.656 1048.08 237.639 1047.67 238.472 1047.02C239.304 1046.38 239.957 1045.52 240.368 1044.54C240.778 1043.55 240.931 1042.48 240.812 1041.42C240.692 1040.36 240.305 1039.35 239.687 1038.49C224.669 1016.69 194.72 1009.06 167.536 1010.78C167.849 1003.31 167.359 995.836 166.075 988.479C186.299 972.25 205.092 954.271 220.973 932.771C221.388 932.16 221.552 931.408 221.43 930.675C221.307 929.942 220.907 929.287 220.316 928.852C221.136 928.786 221.933 928.548 222.659 928.154C223.384 927.76 224.023 927.218 224.534 926.561C225.045 925.904 225.419 925.147 225.631 924.337C225.843 923.527 225.889 922.681 225.767 921.852C225.679 920.682 225.541 919.432 225.434 918.212L229.472 918.592C229.414 918.962 229.374 919.322 229.306 919.682C229.188 920.6 229.303 921.532 229.639 922.392C229.496 922.518 229.361 922.656 229.237 922.802C216.493 943.601 191.22 999.579 232.511 1007.4C257.019 1012.03 260.49 991.059 257.46 970.05C265.862 977.67 275.245 984.083 285.35 989.109C289.272 991.019 293.33 987.299 293.017 983.269C291.477 963.17 282.762 946.061 269.587 931.962C301.192 929.842 333.013 932.162 361.296 914.842C364.737 912.722 363.854 906.393 360.09 905.173C327.494 894.673 285.586 890.673 250.765 898.743C252.902 894.263 255.118 889.833 257.333 885.443C257.382 887.443 259.598 889.503 261.646 888.443C290.605 873.854 318.044 847.845 313.701 812.566C313.074 807.567 307.672 805.647 303.8 808.317C275.116 828.026 259.451 854.495 245.579 883.774C248.108 863.844 248.736 844.205 243.05 823.626C241.922 819.556 235.982 818.166 232.992 820.816C215.219 836.565 210.729 856.815 210.444 878.234C202.033 862.494 190.662 848.695 175.094 835.895C174.211 835.199 173.164 834.752 172.058 834.597C170.952 834.443 169.825 834.587 168.791 835.016C166.507 836.015 164.232 836.895 161.929 837.855C160.65 838.401 159.578 839.352 158.872 840.568C158.165 841.784 157.862 843.2 158.007 844.605C160.478 874.034 177.516 894.043 200.475 906.743C175.222 906.243 150.557 908.412 126.52 919.382C126.382 919.442 126.343 919.572 126.196 919.662C118.659 917.544 110.672 917.777 103.266 920.332C73.1903 930.092 89.7674 968.49 110.589 997.739C86.7285 984.959 60.7795 976.42 62.2303 1000.63C63.0636 1014.13 71.6316 1022.76 82.9346 1027.82C56.0936 1045.51 29.5074 1063.39 4.50928 1083.1V1097.68C35.2912 1073.79 69.1318 1053.84 102.257 1032.96ZM101.218 1109.95C106.531 1088.04 117.128 1065.73 133.284 1050.47C129.215 1072.85 117.079 1093.87 101.218 1109.95ZM301.516 825.966C298.438 851.145 274.743 865.674 258.578 883.044C269.636 861.554 282.429 841.795 301.516 825.966ZM236.717 925.292C237.898 924.786 238.855 923.853 239.403 922.672C241.364 918.612 243.256 914.572 245.157 910.532C277.714 913.622 309.358 906.083 341.836 912.122C315.142 922.532 284.772 918.752 256.608 922.012C251.706 922.592 250.343 928.812 253.922 931.852C267.185 943.181 276.547 956.76 280.312 973.26C266.509 964.11 253.235 950.601 247.187 935.691C243.481 928.782 232.805 932.691 235.786 940.391C236.938 943.302 238.304 946.12 239.874 948.821C247.304 965.76 257.264 997.309 234.198 996.089C204.327 994.499 229.953 938.271 236.305 927.092C236.613 926.528 236.756 925.886 236.717 925.242V925.292ZM233.56 839.835C237.678 862.404 234.541 885.003 231.159 907.643C228.767 906.773 226.502 905.813 224.208 904.863C221.934 882.264 220.306 858.155 233.56 839.785V839.835ZM140.362 1031.96C140.254 1031.34 140.175 1030.73 140.028 1030.1C140.518 1030.44 141.067 1030.92 141.499 1031.19H141.558L140.362 1031.96ZM185.584 1080.47C164.938 1074.18 156.36 1054.68 153.047 1032.81C152.889 1031.98 152.562 1031.2 152.087 1030.51C151.612 1029.82 151.001 1029.24 150.292 1028.81C150.764 1028.05 151.029 1027.19 151.061 1026.29C151.092 1025.4 150.887 1024.51 150.469 1023.73C152.233 1023.73 153.968 1023.82 155.782 1023.82C156.164 1026.9 156.458 1029.97 157.047 1033.02C157.167 1033.52 157.41 1033.97 157.753 1034.35C158.097 1034.72 158.528 1035 159.007 1035.16C159.061 1036.76 159.697 1038.28 160.791 1039.43C173.967 1051.34 180.917 1064.37 185.584 1080.48V1080.47ZM221.659 1036.58C202.269 1035.85 183.427 1029.13 163.821 1028.96C164.55 1027.26 165.179 1025.53 165.703 1023.76C185.76 1023.7 206.592 1024.14 221.659 1036.59V1036.58ZM179.398 872.814C164.242 843.382 166.781 840.562 187.015 864.354C195.495 873.194 201.229 884.064 205.464 895.553C195.556 889.561 186.738 881.868 179.398 872.814ZM179.29 916.472C189.936 915.652 200.857 916.222 211.738 917.112C212.238 919.212 212.719 921.332 213.16 923.432C213.371 924.649 213.914 925.781 214.728 926.697C215.541 927.613 216.591 928.277 217.758 928.612C217.552 928.712 217.346 928.612 217.15 928.842C200.132 944.841 181.76 959.36 162.899 973.2C161.233 966.76 159.38 960.65 157.625 955.311C155.393 948.38 152.137 941.839 147.969 935.911C168.556 940.531 190.701 937.851 210.768 930.842C215.856 929.062 212.729 921.282 207.66 922.982C185.005 930.622 160.919 931.502 138.058 923.802C146.067 926.492 168.281 917.332 179.29 916.472ZM104.707 934.701C126.186 913.782 144.195 955.201 148.469 969.7C152.596 983.699 153.253 998.079 154.449 1012.42C150.007 1013.2 145.622 1014.29 141.322 1015.67C121.824 997.459 87.5911 951.361 104.707 934.701ZM71.563 1004.09C65.9359 992.009 83.4836 996.969 88.4832 998.649C104.168 1003.88 118.353 1013.73 131.764 1023.83C110.776 1030.34 82.121 1026.76 71.563 1004.09Z" fill="#9541BA"/>
<path opacity="0.15" d="M42.6143 971.38C39.0753 974.51 43.1437 980.01 47.0257 977.28C48.0857 976.563 49.2041 975.941 50.3686 975.42C52.3292 975.8 54.2899 975.96 56.0838 976.35C56.793 976.442 57.5095 976.25 58.0821 975.813C58.6547 975.376 59.0384 974.73 59.1522 974.01C59.3 973.419 59.3 972.8 59.1522 972.21C60.1861 971.852 61.2006 971.438 62.1912 970.97C67.2889 968.46 69.3475 963.42 70.72 958.18C71.2494 956.18 69.7397 953.711 67.8673 953.031C60.7208 950.291 53.0253 949.791 45.4768 949.111C44.1958 948.948 42.9026 949.296 41.867 950.082C40.8314 950.869 40.1334 952.032 39.9184 953.331C38.3891 959.92 38.7813 966.1 43.0456 971.08C42.8986 971.19 42.7417 971.28 42.6143 971.38ZM48.8001 959.38C52.2921 959.65 55.7632 960.151 59.1915 960.88C57.2941 963.017 54.9757 964.721 52.3881 965.88C51.7315 965.535 51.0993 965.144 50.496 964.71C48.8785 963.45 48.6236 961.43 48.8001 959.36V959.38Z" fill="#9541BA"/>
<path opacity="0.15" d="M54.6133 1143.26C55.0426 1143.31 55.4772 1143.25 55.8756 1143.08C56.2741 1142.91 56.6231 1142.64 56.8895 1142.29C57.1559 1141.94 57.3307 1141.53 57.3973 1141.1C57.4639 1140.66 57.4201 1140.22 57.27 1139.8C56.025 1135.88 51.6332 1134.96 48.0158 1134.54C48.683 1134.32 49.2668 1133.89 49.6903 1133.31C50.1138 1132.74 50.3572 1132.05 50.3882 1131.33C50.3882 1133.23 51.4861 1131.93 53.1527 1131.13C54.5379 1130.48 55.8224 1129.62 56.9661 1128.58C58.1175 1127.51 58.9646 1126.14 59.4182 1124.62C59.8719 1123.1 59.9154 1121.48 59.5443 1119.93C59.2012 1118.02 57.7307 1115.81 55.574 1115.76C51.2901 1115.66 46.9865 1116.12 42.7025 1116.38C36.5755 1116.73 33.7424 1130.38 33.6836 1135.48C33.5463 1146.45 48.3099 1143.08 54.6133 1143.26ZM46.2218 1125.95C46.81 1125.95 47.4178 1125.87 48.0256 1125.85C45.9964 1127.74 43.7122 1130.01 44.6141 1132.85C44.8056 1133.46 45.2151 1133.98 45.7611 1134.29C44.3592 1134.13 42.8201 1133.99 43.0652 1134.21C42.5064 1133.6 44.6533 1129.05 46.2218 1125.95Z" fill="#9541BA"/>
</g>
<defs>
<clipPath id="clip0_1371_953">
<rect width="1919" height="4117" fill="white"/>
</clipPath>
</defs>
</svg>
