<svg width="316" height="1662" viewBox="0 0 316 1662" fill="none" xmlns="http://www.w3.org/2000/svg">
<path opacity="0.15" d="M23.9642 316.92C24.4356 316.546 23.9642 315.756 23.5252 315.907C17.2957 318.047 12.3237 319.843 5.83266 318.667C4.11991 318.359 2.42976 317.941 0.747681 317.493V319.062C8.65442 321.361 16.7081 322.668 23.9642 316.92Z" fill="#9541BA"/>
<path opacity="0.15" d="M20.5807 244.447C12.13 250.178 6.14099 260.519 0.747681 271.177V276.949C1.83732 276.085 2.95279 275.251 4.10538 274.466C17.7396 271.464 34.9478 274.652 44.3381 261.582C41.0934 268.241 36.7284 273.009 31.5707 276.166C21.8366 279.707 10.5964 274.432 0.747681 277.206V280.178C6.41057 279.138 12.8209 280.14 18.9648 280.624C12.6013 281.6 6.6398 281.233 0.747681 282.021V284.298C11.2663 283.449 22.2886 285.553 31.6805 279.783C35.5741 278.51 38.8818 275.824 41.1805 270.691C49.0356 260.183 52.7388 245.689 54.6533 230.818C54.7873 229.785 53.7929 228.963 53.1601 229.668C40.4557 243.865 24.0175 234.835 11.2453 246.202C7.38064 249.674 3.85642 253.76 0.752523 258.366V261.425C5.94405 253.375 12.4754 247.088 20.5807 244.447ZM46.8144 255.324C46.7606 255.342 46.7105 255.376 46.6675 255.422C35.9551 270.611 22.0642 268.857 8.45425 271.689C12.9113 269.067 17.738 266.789 22.8875 264.594C33.5014 260.075 43.9329 253.768 50.1511 242.035C49.105 246.722 47.6522 252.452 46.8144 255.324ZM51.0519 235.03C41.7617 253.866 27.6367 259.135 12.6675 265.974C21.6849 254.239 30.0581 245.307 42.6027 239.673C45.5742 238.659 48.4212 237.096 51.0583 235.03H51.0519ZM33.8727 241.74C24.7778 246.962 17.3425 256.982 10.8385 266.811C8.25569 268.012 5.66478 269.275 3.06901 270.685C2.5928 270.942 2.13435 271.241 1.66943 271.521C4.52509 266.426 7.39044 261.319 10.5738 256.572C15.0324 249.926 20.4516 246.09 26.4728 242.963C28.9847 242.483 31.4464 242.137 33.8791 241.74H33.8727Z" fill="#9541BA"/>
<path opacity="0.15" d="M43.1951 329.899C44.1072 328.943 43.271 327.118 42.1991 327.604C34.4619 331.126 27.6335 325.241 20.3627 326.184C25.4332 322.21 29.6707 316.4 33.2302 309.898C34.5992 308.886 35.8865 307.694 37.0721 306.34C37.3353 306.034 37.106 305.412 36.7493 305.607C36.1337 305.951 35.5267 306.294 34.9284 306.635C36.8906 302.681 38.6847 298.588 40.3023 294.373C40.4928 294.066 40.6768 293.737 40.8657 293.424C41.4242 293.14 41.9957 292.824 42.5542 292.469C43.1128 292.115 42.7802 290.998 42.191 291.287C42.1039 291.329 42.0167 291.353 41.9295 291.393C41.9249 291.327 41.91 291.264 41.8857 291.206C41.8614 291.148 41.8282 291.098 41.7883 291.058C41.7484 291.018 41.7026 290.989 41.6538 290.974C41.605 290.959 41.5543 290.957 41.505 290.968C41.4872 290.198 40.6074 289.646 40.2248 290.416C39.8858 291.1 39.5533 291.779 39.2159 292.463C26.476 296.571 13.5795 288.115 0.747641 293.274V296.101C4.67034 294.418 9.10476 293.603 14.2269 293.766C22.8681 294.038 30.2308 297.282 38.1876 294.55C38.0827 294.762 37.9842 294.974 37.8809 295.186C28.4196 305.571 17.7121 309.921 5.63729 311.882C5.15301 311.768 4.68164 311.647 4.20704 311.524C11.8329 303.773 19.4474 298.473 29.322 296.664C29.3907 296.641 29.4517 296.589 29.4957 296.516C29.5396 296.442 29.564 296.352 29.5651 296.259C29.5662 296.166 29.544 296.075 29.5018 296C29.4596 295.925 29.3998 295.87 29.3317 295.845C19.6944 293.932 10.2041 303.385 3.09157 311.356C3.0403 311.388 2.99632 311.437 2.96405 311.498C2.69769 311.793 2.44102 312.082 2.18112 312.379C1.70652 312.439 1.2287 312.496 0.747641 312.551V314.54C2.76226 314.224 4.79464 313.956 6.82379 313.691C13.5682 315.788 21.4621 315.744 28.2517 312.785C22.6889 321.204 16.009 327.697 6.06023 330.504C4.3113 330.963 2.51788 331.051 0.747641 330.767V333.476C6.39762 334.1 11.9959 331.368 17.0519 328.457C17.1778 328.379 17.3037 328.29 17.4344 328.209C24.053 328.538 30.1566 331.291 36.7186 331.896C36.7816 331.896 36.8526 331.896 36.9188 331.896C24.6826 339.617 12.9871 337.186 0.742798 333.994V337.014C10.8579 340.048 21.3959 342.056 30.5505 338.477C29.2316 339.596 27.9353 340.681 26.7085 341.581C18.3772 347.692 9.25328 348.855 0.742798 345.527V348.577C2.41084 349.245 4.11062 349.766 5.83101 350.138C19.7832 353.114 32.9816 340.572 43.1951 329.899ZM21.5218 312.732C18.1318 313.502 14.787 313.443 11.4487 312.99C13.9416 312.605 16.4172 312.046 18.8647 311.313C24.5873 309.53 30.0307 306.289 34.6314 301.631C33.2915 304.225 31.9339 306.726 30.5182 309.118C27.6738 310.658 24.8036 311.993 21.5218 312.732Z" fill="#9541BA"/>
<path opacity="0.15" d="M5.40001 63.1646C6.1571 64.9223 6.85286 66.7458 7.52924 68.6032C8.86909 78.8203 4.60901 88.2074 0.749268 96.9471V98.7982C4.12473 91.7547 8.84488 83.4417 9.58906 74.9802C10.3381 77.5275 11.0242 80.1344 11.615 82.7773C11.184 82.2126 10.2719 82.5841 10.401 83.5181C11.87 94.2299 9.08541 101.562 4.77044 110.452C3.27884 113.524 1.87603 116.57 0.749268 119.761V123.652C4.73654 111.633 13.8249 100.683 12.5835 87.526C13.6505 93.1874 14.3696 98.9525 14.7338 104.765C14.7483 105.063 14.7435 105.351 14.7564 105.646C14.6661 105.673 14.5814 105.726 14.5083 105.801C14.4352 105.876 14.3755 105.971 14.3334 106.079C8.90138 119.432 3.55166 134.031 1.93738 149.219C1.85505 148.546 1.75335 147.88 1.63874 147.226C1.36646 144.734 1.07212 142.239 0.755725 139.741V202.95C0.980648 202.17 1.20665 201.392 1.43372 200.615C12.1509 181.032 24.2677 165.119 39.3289 155.28C48.4496 152.015 59.0231 159.012 67.6902 163.003C75.6938 166.688 82.703 166.89 91.0311 164.852C106.284 161.116 120.961 146.171 125.108 126.216C125.422 126.395 125.746 126.539 126.061 126.726C126.965 127.255 127.795 125.471 126.944 124.735C126.505 124.351 126.042 124.013 125.588 123.656C125.764 122.546 125.932 121.432 126.043 120.294C126.14 119.298 125.055 118.878 124.752 119.816C124.476 120.684 124.154 121.514 123.859 122.364C111.224 113.594 94.3823 113.853 80.7465 115.783C62.9894 118.286 48.653 133.139 38.1844 151.351C23.9723 160.91 11.8216 176.207 3.41606 193.922C12.1897 165.153 23.0376 137.37 36.37 112.318C50.1527 100.683 67.6256 99.4138 79.1742 82.5162C91.5057 64.4722 97.3946 41.7029 106.693 21.0903C107.288 19.7699 106.163 17.8148 105.12 19.0142C97.6432 27.6307 88.3013 24.8923 79.6762 29.0551C72.5282 32.4983 64.9169 36.6463 58.8052 43.0233C61.1814 28.8938 61.2718 14.7813 68.9526 3.04213C69.7597 1.80877 68.4554 0.49475 67.553 1.19103C51.6491 13.2911 36.3813 26.2403 29.1122 49.379C20.7873 75.8951 36.1698 107.037 23.6236 131.345C23.5663 131.454 23.538 131.585 23.5433 131.718C23.5485 131.85 23.587 131.977 23.6527 132.078C20.8422 138.658 18.2061 145.383 15.6862 152.128C10.8434 165.102 6.28463 178.219 2.01002 191.478C2.66685 186.603 3.05207 181.671 3.16262 176.723C8.66408 155.091 16.2867 133.273 17.4022 110.368C17.9639 98.8491 15.8202 87.9463 12.9581 77.1964C9.89093 65.678 1.99872 53.7541 0.755725 41.877C0.756497 41.8564 0.756497 41.8359 0.755725 41.8154V51.6631C2.05038 55.6158 3.76313 59.3775 5.40001 63.1646ZM68.7443 159.717C61.0345 156.564 52.8921 151.76 45.1613 151.862C46.4689 151.177 47.8012 150.54 49.1583 149.952C59.5123 150.48 68.3391 157.67 78.6011 160.763C81.8394 161.74 85.2455 161.939 88.6629 161.612C82.4415 163.02 75.7616 162.589 68.7443 159.717ZM102.815 154.705C91.0827 158.766 81.5762 160.589 68.9703 154.771C63.0169 152.024 58.0885 149.311 52.6257 148.523C55.3569 147.514 58.1272 146.697 60.9248 146.078C72.822 152.196 91.1118 157.36 105.088 152.73C104.338 153.418 103.59 154.091 102.815 154.705ZM111.468 145.833C96.4873 154.862 79.4099 151.484 63.4269 145.572C64.7635 145.328 66.0937 145.082 67.4626 144.916C85.436 142.745 106.096 145.18 120.844 130.027C118.269 135.823 115.116 141.139 111.468 145.833ZM122.351 124.76C107.04 139.132 90.0205 138.336 72.7558 139.936C84.3076 131.757 95.7996 125.363 108.21 119.432C113.036 120.644 117.769 122.428 122.351 124.76ZM104.639 118.604C104.735 118.623 104.827 118.651 104.925 118.668C92.7277 122.591 80.8627 131.434 70.2779 140.18C67.3948 140.488 64.5085 140.894 61.6237 141.469C74.2958 127.475 87.3796 118.122 104.639 118.604ZM80.979 118.517C83.3342 118.069 85.7072 117.81 88.0818 117.636C77.1838 121.871 66.6119 132.273 59.1555 142.006C56.9795 142.52 54.7969 143.137 52.6338 143.917C48.8152 145.291 45.0875 147.07 41.4872 149.236C52.7 133.648 63.6028 121.833 80.979 118.523V118.517ZM79.8829 76.9671C68.8799 94.9644 51.9106 97.2082 38.341 108.68C40.9852 103.853 43.7052 99.1039 46.5464 94.5016C53.4878 88.6044 62.7166 86.5432 69.7581 81.1469C75.5308 76.7251 81.5326 71.8787 85.7007 65.056C83.9202 69.3887 82.0282 73.4666 79.8829 76.9735V76.9671ZM89.123 56.2102C89.0711 56.1572 89.0116 56.1186 88.9481 56.0968C88.8846 56.075 88.8183 56.0704 88.7534 56.0833C88.6885 56.0962 88.6262 56.1264 88.5704 56.1719C88.5146 56.2174 88.4665 56.2774 88.4288 56.3482C81.1646 69.1148 72.1375 78.5444 60.9328 84.8109C56.6033 87.2373 52.1915 89.0566 48.2607 91.8311C49.5586 89.7783 50.85 87.7065 52.1963 85.7004C52.2286 85.6537 52.2093 85.5985 52.2335 85.5454C54.0802 83.2712 55.9253 80.9877 57.7688 78.6951C68.0615 69.3993 81.8942 64.6845 90.458 52.5844C90.0141 53.7902 89.5718 55.0045 89.123 56.2166V56.2102ZM94.0966 42.8641C94.0966 42.8641 94.0821 42.8641 94.0772 42.881C86.4255 58.989 73.3805 64.6081 61.7271 73.8126C68.1325 65.9582 74.651 58.2948 81.6973 51.523C86.3787 47.029 91.7058 42.5393 96.3969 37.3214C95.6081 39.1173 94.8413 40.967 94.0966 42.8704V42.8641ZM101.814 25.8369C94.6923 37.3447 84.4513 45.1949 75.5243 54.0704C75.3532 54.2402 75.1885 54.4249 75.0142 54.599C77.9715 49.4554 81.1049 44.505 84.6304 39.9707C88.4046 35.1115 92.7713 31.4794 97.1912 27.9003C98.7847 27.4357 100.335 26.7438 101.814 25.8369ZM86.3642 30.2609C87.1713 30.0656 87.9785 29.8533 88.7856 29.6962C89.9043 29.4839 91.1651 29.2717 92.4823 29.0169C84.235 36.3513 77.702 46.6851 72.1036 57.6283C62.1064 68.3209 53.0551 81.1915 44.196 93.419C47.1017 86.5792 49.2729 79.2194 51.7314 71.7514C58.718 50.5232 71.6371 41.688 86.2431 31.2289C86.3094 31.1876 86.3671 31.1258 86.4112 31.0488C86.4554 30.9717 86.4846 30.8818 86.4965 30.7866C86.5084 30.6914 86.5026 30.5939 86.4796 30.5023C86.4565 30.4108 86.4169 30.3279 86.3642 30.2609ZM59.5671 46.0589C66.4133 38.1365 75.5937 33.2031 84.5885 30.7046C72.7203 35.9224 62.4406 45.8572 54.9729 59.0505C46.8143 73.4708 45.6843 92.2599 36.0681 105.744C36.0256 105.798 35.9924 105.864 35.9708 105.936C35.9493 106.009 35.9397 106.086 35.943 106.164C35.9462 106.242 35.962 106.317 35.9895 106.386C36.0169 106.455 36.0553 106.516 36.102 106.563C35.495 107.632 34.8983 108.71 34.3117 109.797C36.1601 86.3627 46.4285 61.2689 59.5671 46.0589ZM56.0254 46.2309C55.7026 46.6427 55.3571 47.0227 55.0455 47.4515C47.7296 57.5922 41.4436 70.4522 37.3547 84.2144C37.7857 80.474 38.1812 76.6912 38.6461 72.8743C41.2499 51.3617 50.3012 31.6131 60.7327 14.7813C57.9642 24.6758 57.8576 36.5742 56.0286 46.2309H56.0254ZM64.9701 5.03333C64.5843 5.61074 64.2324 6.21787 63.8886 6.83561C63.6955 6.86106 63.5139 6.96749 63.3704 7.13917C63.9358 6.48085 64.4701 5.77759 64.9701 5.03333ZM33.8581 42.9384C37.1287 33.2668 43.2807 25.8157 49.4279 19.3475C53.625 14.9384 59.2104 11.958 63.2606 7.24743C52.5676 22.0159 44.5544 39.9091 39.1045 58.9529C34.1487 76.2815 36.2747 95.771 30.3019 112.66C30.7232 108.266 30.7232 103.674 30.4794 98.7663C29.4899 78.8522 27.3994 62.0437 33.8581 42.9384ZM29.8531 116.324C29.8967 116.286 29.9516 116.28 29.9806 116.214C31.0235 113.832 31.9378 111.356 32.7168 108.805C32.6006 110.291 32.5215 111.777 32.4731 113.252C31.3334 115.443 30.2222 117.662 29.1396 119.91C29.4156 118.727 29.6626 117.543 29.8531 116.324ZM3.15293 168.52C3.03993 163.863 2.74775 159.18 2.34579 154.495C3.99235 138.007 10.5964 124.346 14.8516 108.983C14.9565 129.817 6.88192 148.625 3.15293 168.52Z" fill="#9541BA"/>
<path opacity="0.15" d="M21.7688 294.624C14.6821 293.197 7.50667 296.594 0.747681 301.759V305.567C7.0014 300.631 13.6216 296.704 21.7575 295.541C21.8403 295.525 21.916 295.47 21.9711 295.387C22.0263 295.305 22.0573 295.199 22.0586 295.089C22.06 294.979 22.0316 294.871 21.9785 294.786C21.9255 294.701 21.8512 294.644 21.7688 294.624Z" fill="#9541BA"/>
<path opacity="0.15" d="M16.8388 220.287C18.7904 220.599 20.776 220.37 22.1562 219.799C22.1707 220.141 22.1788 220.487 22.174 220.831C17.654 225.076 15.0211 232.591 14.3496 239.696C14.2527 240.73 15.1567 241.481 15.8024 240.823C20.0867 236.476 23.4799 229.678 23.3249 222.525C23.4605 222.406 23.5994 222.312 23.7382 222.189C24.6519 227.808 26.9425 232.379 31.695 233.102C32.2212 233.185 32.8557 232.568 32.7249 231.791C32.0792 228.04 31.0896 224.93 29.3914 222.149C32.536 222.718 35.5644 224.047 38.7994 223.529C38.9702 223.498 39.1321 223.41 39.2692 223.273C39.4062 223.136 39.5138 222.954 39.5814 222.745C39.6489 222.537 39.6741 222.309 39.6545 222.084C39.6348 221.858 39.5711 221.644 39.4694 221.461C36.9963 216.833 32.0647 215.214 27.5883 215.579C27.6397 213.994 27.5591 212.406 27.3477 210.845C30.678 207.399 33.7726 203.583 36.3877 199.019C36.4561 198.889 36.4831 198.729 36.4629 198.573C36.4426 198.418 36.3768 198.279 36.2795 198.186C36.4145 198.172 36.5458 198.122 36.6653 198.038C36.7848 197.955 36.8899 197.84 36.9741 197.7C37.0583 197.561 37.1197 197.4 37.1547 197.228C37.1896 197.056 37.1972 196.876 37.1771 196.7C37.1625 196.452 37.1399 196.187 37.1222 195.928L37.7873 196.008C37.7776 196.087 37.7711 196.163 37.7598 196.24C37.7405 196.435 37.7594 196.633 37.8147 196.815C37.7911 196.842 37.769 196.871 37.7485 196.902C35.65 201.318 31.4884 213.201 38.2877 214.861C42.3234 215.844 42.8949 211.392 42.396 206.932C43.7795 208.55 45.3247 209.911 46.9887 210.979C47.6344 211.384 48.3027 210.594 48.251 209.739C47.9976 205.472 46.5625 201.84 44.3929 198.847C49.5973 198.397 54.8373 198.889 59.4945 195.212C60.0611 194.762 59.9158 193.419 59.2959 193.16C53.9285 190.931 47.0274 190.081 41.2935 191.795C41.6454 190.844 42.0102 189.903 42.3751 188.971C42.3831 189.396 42.748 189.833 43.0853 189.608C47.8539 186.511 52.3723 180.989 51.6572 173.5C51.5538 172.439 50.6644 172.031 50.0267 172.598C45.3034 176.782 42.7237 182.401 40.4395 188.617C40.856 184.386 40.9593 180.217 40.023 175.848C39.8374 174.984 38.8592 174.689 38.3668 175.251C35.4401 178.595 34.7008 182.894 34.654 187.441C33.2689 184.099 31.3963 181.17 28.8329 178.453C28.6874 178.305 28.515 178.21 28.3328 178.177C28.1507 178.144 27.9652 178.175 27.7949 178.266C27.4188 178.478 27.0442 178.665 26.6649 178.869C26.4544 178.984 26.2778 179.186 26.1615 179.445C26.0452 179.703 25.9953 180.003 26.0192 180.302C26.426 186.549 29.2316 190.797 33.0122 193.493C28.8539 193.387 24.7923 193.847 20.8341 196.176C20.8115 196.189 20.8051 196.216 20.7808 196.236C19.5397 195.786 18.2246 195.835 17.005 196.378C12.0524 198.45 14.7822 206.601 18.2109 212.81C14.2818 210.098 10.0088 208.285 10.2477 213.424C10.3849 216.29 11.7958 218.122 13.657 219.196C9.23713 222.951 4.85921 226.747 0.742798 230.931V234.028C5.81163 228.955 11.3841 224.719 16.8388 220.287ZM16.6677 236.633C17.5426 231.98 19.2876 227.244 21.948 224.004C21.278 228.755 19.2796 233.219 16.6677 236.633ZM49.6506 176.345C49.1437 181.69 45.242 184.774 42.5801 188.462C44.401 183.9 46.5076 179.705 49.6506 176.345ZM38.9802 197.431C39.1748 197.323 39.3323 197.125 39.4225 196.875C39.7454 196.013 40.057 195.155 40.3701 194.297C45.7311 194.953 50.942 193.353 56.2901 194.635C51.8945 196.845 46.8934 196.042 42.2556 196.734C41.4485 196.858 41.2241 198.178 41.8133 198.823C43.9974 201.228 45.539 204.111 46.1589 207.614C43.886 205.671 41.7003 202.804 40.7043 199.638C40.0941 198.172 38.3361 199.002 38.8269 200.636C39.0166 201.254 39.2416 201.852 39.5 202.426C40.7236 206.022 42.3638 212.719 38.5654 212.46C33.6466 212.123 37.8664 200.186 38.9124 197.813C38.9631 197.693 38.9866 197.557 38.9802 197.42V197.431ZM38.4604 179.289C39.1384 184.08 38.6219 188.878 38.0649 193.684C37.671 193.499 37.2981 193.295 36.9204 193.094C36.5459 188.296 36.2779 183.178 38.4604 179.278V179.289ZM23.1135 220.075C23.0957 219.943 23.0828 219.814 23.0586 219.68C23.1393 219.752 23.2297 219.854 23.3007 219.911H23.3104L23.1135 220.075ZM30.5601 230.373C27.1605 229.037 25.748 224.898 25.2024 220.255C25.1763 220.08 25.1224 219.913 25.0443 219.767C24.9661 219.621 24.8654 219.498 24.7487 219.406C24.8265 219.246 24.8701 219.062 24.8753 218.872C24.8804 218.682 24.8467 218.494 24.7778 218.328C25.0684 218.328 25.3541 218.347 25.6527 218.347C25.7157 219.001 25.7641 219.652 25.861 220.3C25.8808 220.405 25.9209 220.503 25.9774 220.582C26.0339 220.662 26.105 220.721 26.1838 220.754C26.1927 221.094 26.2974 221.417 26.4776 221.661C28.6472 224.189 29.7917 226.955 30.5601 230.375V230.373ZM36.5007 221.056C33.3077 220.901 30.205 219.474 26.9764 219.438C27.0966 219.079 27.2001 218.71 27.2864 218.334C30.5892 218.321 34.0195 218.415 36.5007 221.058V221.056ZM29.5415 186.29C27.0459 180.042 27.464 179.443 30.7958 184.494C32.1922 186.371 33.1365 188.678 33.8339 191.117C32.2024 189.845 30.7502 188.212 29.5415 186.29ZM29.5238 195.558C31.2769 195.384 33.0752 195.505 34.867 195.694C34.9494 196.14 35.0285 196.59 35.1011 197.036C35.1359 197.294 35.2253 197.534 35.3593 197.729C35.4932 197.923 35.6661 198.064 35.8582 198.135C35.8243 198.157 35.7904 198.135 35.7581 198.184C32.9557 201.581 29.9306 204.663 26.8247 207.601C26.5503 206.234 26.2452 204.937 25.9562 203.803C25.5887 202.332 25.0525 200.943 24.3662 199.685C27.7561 200.666 31.4028 200.097 34.7072 198.609C35.545 198.231 35.0301 196.579 34.1955 196.94C30.4649 198.562 26.4986 198.749 22.7341 197.114C24.053 197.685 27.7109 195.741 29.5238 195.558ZM17.2423 199.428C20.7792 194.987 23.7447 203.78 24.4485 206.858C25.1281 209.83 25.2363 212.883 25.4332 215.927C24.7018 216.093 23.9797 216.324 23.2717 216.617C20.0609 212.751 14.4238 202.965 17.2423 199.428ZM11.7845 214.158C10.8579 211.594 13.7474 212.647 14.5707 213.004C17.1536 214.114 19.4894 216.205 21.6978 218.349C18.2416 219.731 13.523 218.971 11.7845 214.158Z" fill="#9541BA"/>
<path opacity="0.15" d="M7.01753 207.215C6.43477 207.879 7.1047 209.047 7.74395 208.467C7.9185 208.315 8.10266 208.183 8.29442 208.072C8.61728 208.153 8.94013 208.187 9.23554 208.27C9.35232 208.289 9.47031 208.248 9.5646 208.156C9.65888 208.063 9.72207 207.926 9.74081 207.773C9.76514 207.648 9.76514 207.516 9.74081 207.391C9.91107 207.315 10.0781 207.227 10.2412 207.128C11.0807 206.595 11.4197 205.525 11.6457 204.413C11.7328 203.988 11.4842 203.464 11.1759 203.319C9.9991 202.738 8.73189 202.632 7.48889 202.487C7.27795 202.453 7.065 202.527 6.89447 202.693C6.72394 202.86 6.60899 203.107 6.5736 203.383C6.32177 204.782 6.38634 206.094 7.08855 207.151C7.06434 207.174 7.03851 207.193 7.01753 207.215ZM8.03613 204.667C8.61116 204.725 9.18274 204.831 9.74727 204.986C9.43484 205.439 9.05307 205.801 8.62696 206.047C8.51885 205.974 8.41475 205.891 8.31541 205.799C8.04905 205.531 8.00708 205.103 8.03613 204.663V204.667Z" fill="#9541BA"/>
<path opacity="0.15" d="M8.99339 243.704C9.06408 243.714 9.13564 243.701 9.20125 243.665C9.26687 243.629 9.32435 243.571 9.36821 243.497C9.41208 243.424 9.44087 243.337 9.45183 243.244C9.4628 243.152 9.45558 243.057 9.43086 242.969C9.22585 242.137 8.50265 241.942 7.90699 241.853C8.01685 241.804 8.11299 241.713 8.18273 241.592C8.25247 241.47 8.29253 241.324 8.29764 241.171C8.29764 241.575 8.47844 241.299 8.75287 241.129C8.98097 240.989 9.19249 240.807 9.38082 240.588C9.57043 240.36 9.70991 240.069 9.78461 239.746C9.85931 239.423 9.86649 239.079 9.80538 238.751C9.74888 238.346 9.50674 237.877 9.15159 237.866C8.44615 237.845 7.73749 237.943 7.03205 237.998C6.02312 238.072 5.5566 240.97 5.54691 242.052C5.52431 244.381 7.95541 243.666 8.99339 243.704ZM7.61157 240.029C7.70843 240.029 7.80851 240.012 7.9086 240.008C7.57444 240.409 7.19832 240.891 7.34683 241.494C7.37836 241.623 7.44579 241.733 7.5357 241.8C7.30486 241.766 7.05142 241.736 7.09177 241.783C6.99976 241.653 7.35329 240.687 7.61157 240.029Z" fill="#9541BA"/>
<path opacity="0.15" d="M6.94159 1581.59C4.93714 1579.96 2.87144 1578.48 0.752441 1577.13V1579.18C2.67343 1580.43 4.5912 1581.7 6.67523 1582.42C6.75479 1582.44 6.83732 1582.43 6.90888 1582.38C6.98044 1582.33 7.03663 1582.25 7.06796 1582.15C7.09928 1582.05 7.10381 1581.94 7.08078 1581.84C7.05776 1581.74 7.00859 1581.65 6.94159 1581.59Z" fill="#9541BA"/>
<path opacity="0.15" d="M8.77706 1533.4C8.91266 1533.46 9.02566 1533.52 9.15319 1533.58C6.24749 1537.25 3.80347 1541.68 0.747641 1545.07V1547.9C4.44595 1544.16 7.4469 1538.48 10.6835 1534.43C12.5819 1535.79 10.8546 1536.73 8.81096 1540.18C6.35726 1544.31 3.85674 1548.18 0.747641 1551.44V1554.63C6.08606 1550.25 10.0507 1542.29 14.1365 1535.79C14.5675 1535.12 14.5384 1534.14 13.9282 1533.65C13.2825 1533.13 12.6029 1532.69 11.9281 1532.24C11.8513 1532 11.712 1531.8 11.5347 1531.68C11.3574 1531.56 11.1537 1531.53 10.9596 1531.59C10.3607 1531.23 9.74079 1530.92 9.11606 1530.6C9.13382 1530.59 9.15319 1530.6 9.16772 1530.58C12.1396 1527.57 13.5666 1523.09 15.0631 1518.68C17.0309 1512.87 19.4216 1508.25 22.1788 1503.08C22.2227 1503.01 22.2465 1502.92 22.2465 1502.82C22.2465 1502.73 22.2227 1502.64 22.1788 1502.56C28.1323 1497.76 38.822 1490.43 30.9443 1503.72C30.368 1504.7 31.0896 1506.31 32.0211 1505.56C39.4177 1499.48 38.567 1500.44 37.2529 1504.79C37.0076 1505.59 37.621 1506.44 38.2102 1506.44C38.3232 1506.44 38.4281 1506.44 38.5331 1506.44C25.9013 1521.76 23.3895 1547.82 8.22982 1559.88C5.74061 1560.29 3.24924 1560.68 0.755712 1561.03V1563.22C4.29961 1563.31 7.84432 1563.11 11.3696 1562.62C14.2753 1564.91 16.6305 1568.07 19.1585 1571.02C20.2788 1572.33 21.6509 1573.86 23.1441 1574.93C22.0933 1574.85 21.0117 1574.92 20.0528 1574.93C18.8211 1574.93 18.8518 1577.3 20.0528 1577.42L28.8329 1580.84C29.0298 1580.98 29.2565 1581.03 29.4788 1580.99C29.7012 1580.95 29.9072 1580.81 30.066 1580.6C30.2249 1580.4 30.3279 1580.12 30.3596 1579.83C30.3914 1579.54 30.3502 1579.24 30.2421 1578.98L34.1632 1582.54C34.9849 1583.16 36.1003 1581.87 35.5208 1580.76C33.7645 1577.41 44.6883 1580.93 44.853 1580.99C47.7296 1582.15 50.603 1583.09 53.5233 1584.05C54.3013 1584.3 55.236 1584.63 56.2256 1584.96C56.2133 1585.08 56.2326 1585.2 56.2805 1585.31C60.3436 1592.35 64.05 1599.48 67.1671 1607.27C66.8443 1606.99 66.5537 1606.68 66.2212 1606.42C65.1412 1605.46 63.8885 1604.72 62.6004 1604.09C62.693 1603.95 62.7533 1603.79 62.7735 1603.61C62.7936 1603.43 62.7727 1603.25 62.7134 1603.09C56.6921 1588.3 31.7273 1588.87 22.9036 1597.98C22.5808 1598.31 23.0134 1599.03 23.3314 1598.71C32.352 1589.74 53.2795 1592.13 61.0264 1603.36C59.9965 1602.91 58.9634 1602.49 57.9964 1602.08C56.8422 1601.6 56.1126 1603.57 56.8664 1604.63C57.8497 1606.06 58.9274 1607.38 60.0869 1608.57C61.9463 1609.98 63.5152 1611.96 64.6569 1614.35C62.2603 1612.05 59.9968 1609.52 57.885 1606.78C57.0892 1605.8 56.0593 1607.03 56.4613 1608.23C58.2757 1613.66 60.9635 1618.26 63.28 1623.36C64.9342 1628.03 65.6876 1633.17 65.4738 1638.32C65.4851 1639.32 64.9072 1644.33 64.8636 1647.52C59.7156 1631.87 46.9128 1621.46 35.8388 1613.37C31.0057 1607.2 25.3832 1602.34 18.3691 1600.13C18.2728 1600.1 18.1723 1600.12 18.088 1600.19C18.0038 1600.26 17.9423 1600.36 17.9161 1600.49C17.8899 1600.61 17.901 1600.75 17.9471 1600.86C17.9932 1600.98 18.0708 1601.06 18.1641 1601.1C20.1074 1601.94 21.9967 1602.98 23.8141 1604.21C23.7162 1604.29 23.6445 1604.41 23.6144 1604.56C23.5842 1604.7 23.598 1604.85 23.6526 1604.99C29.3381 1619.01 35.2157 1646.87 49.607 1649.43C50.0267 1649.5 50.2931 1648.84 49.9024 1648.51C42.9514 1642.6 38.1731 1637.11 33.7984 1627.62C30.3858 1620.22 27.7239 1612.25 24.526 1604.69C37.5306 1613.89 44.409 1631.31 53.068 1647.1C53.6088 1648.08 54.8534 1647.16 54.3239 1646.13C52.729 1643.03 51.1406 1639.81 49.5231 1636.59C55.5217 1643.33 61.1152 1650.33 63.28 1660.8C63.4737 1661.73 64.4552 1661.48 64.5036 1660.59C65.1122 1648.62 54.0866 1639.33 47.431 1632.45C44.5769 1626.87 41.5534 1621.39 38.1618 1616.53C50.122 1625.83 64.0645 1638.8 65.1816 1657.69C65.2736 1659.24 67.1429 1659.21 67.0073 1657.69C66.8376 1655.95 66.5705 1654.23 66.2083 1652.54C66.2551 1652.53 66.3035 1652.52 66.3471 1652.5C66.7781 1652.39 67.0412 1651.82 67.0558 1651.29C67.3286 1641.12 68.3359 1631.48 65.0072 1622.05C63.5399 1617.9 60.9619 1614.23 59.1506 1610.31C60.4179 1613.05 63.2735 1616.26 65.9629 1618.82C66.6393 1619.45 67.7386 1618.6 67.6789 1617.52C67.4012 1613.14 65.5432 1610.48 63.3381 1608.01C65.5256 1609.36 67.5562 1611.11 69.369 1613.21C69.5438 1613.43 69.7714 1613.55 70.0111 1613.57C70.2508 1613.59 70.4869 1613.49 70.6773 1613.3C70.8676 1613.1 70.9996 1612.83 71.0498 1612.52C71.0999 1612.21 71.0649 1611.89 70.951 1611.61C67.377 1602.06 63.0201 1593.62 57.9028 1585.47C61.882 1586.62 66.5473 1587.28 69.1075 1583.92C69.3352 1583.61 69.5461 1583.29 69.7387 1582.94C70.2456 1583.37 70.6734 1583.7 70.8525 1583.83C72.0826 1584.77 73.1771 1582.29 71.9616 1581.34C71.579 1581.03 71.1996 1580.73 70.8154 1580.43C70.8768 1580.27 70.9542 1580.12 71.0237 1579.97C71.4466 1579.97 71.8712 1579.97 72.2941 1579.97C73.0496 1579.97 73.1012 1578.7 72.5459 1578.35C72.8351 1578.21 73.1333 1578.1 73.437 1578.03C76.4638 1577.34 77.957 1576.99 80.6883 1575.07C86.0623 1571.28 73.5387 1560.35 86.6612 1562.76C87.4603 1562.91 88.0446 1562.02 87.6798 1561.01C85.2406 1554.22 89.0923 1548.25 88.2448 1541.48C88.1609 1540.81 87.5474 1540.47 87.0987 1540.63C81.6634 1542.48 89.9834 1531.82 91.5605 1528.77C92.8365 1526.38 93.7229 1523.67 94.1644 1520.81C95.3927 1519.37 96.7048 1518.05 98.0887 1516.88C98.8264 1516.27 98.8328 1514.42 97.8223 1514.21C91.9722 1512.97 88.5564 1516.77 91.0682 1508.44C91.3781 1507.4 90.4547 1506.33 89.7089 1506.64C87.0987 1507.76 76.446 1510.95 68.6539 1511.5C68.7927 1511.36 68.9106 1511.19 69.0494 1511.06C69.6693 1510.46 69.0704 1509.09 68.4424 1509.69C67.8145 1510.3 67.3044 1510.95 66.7265 1511.57C61.9337 1511.62 58.8052 1510.32 60.5244 1506.3C60.646 1506.02 60.6951 1505.7 60.6638 1505.39C60.6326 1505.07 60.5228 1504.78 60.3517 1504.55C57.3297 1500.93 39.9617 1502.81 40.3604 1501.7C40.6478 1500.89 40.312 1499.75 39.5242 1499.79C32.3052 1500.22 33.6935 1504.55 37.1109 1494.61C37.3885 1493.8 36.9382 1492.8 36.2117 1493.07C21.7623 1498.31 8.37027 1510.1 1.18188 1527.68L0.742798 1527.57V1530.3C3.65819 1531.23 6.38955 1532.31 8.77706 1533.4ZM36.554 1575.46C34.9478 1575.31 33.3254 1574.99 32.3956 1577.07C32.1973 1577.46 32.0857 1577.93 32.0727 1578.4C31.6127 1577.89 30.7038 1577.15 28.9701 1576.17C28.0354 1575.64 27.0894 1576.73 27.5705 1578.01C27.3007 1577.3 26.9007 1576.69 26.4066 1576.23C26.6904 1576.25 26.9749 1576.24 27.2573 1576.2C27.7093 1576.11 27.6803 1575.3 27.3703 1575.03C25.9611 1573.77 24.2709 1573.25 22.7922 1572.07C21.1667 1570.78 19.7574 1569.02 18.3594 1567.35C16.771 1565.47 15.1615 1563.58 13.2857 1562.35C13.5844 1562.31 13.8766 1562.25 14.172 1562.2C21.6671 1564.73 29.8305 1565.6 38.0633 1564.93C38.037 1564.96 38.0177 1565 38.0074 1565.04C37.9971 1565.09 37.9962 1565.13 38.0048 1565.18C38.0135 1565.22 38.0313 1565.27 38.0564 1565.3C38.0815 1565.33 38.1129 1565.35 38.1473 1565.36C44.5107 1567.6 49.5199 1573.56 55.5815 1576.8C59.2427 1578.76 63.2267 1579.54 67.2043 1579.82C67.3617 1580.19 67.5548 1580.54 67.779 1580.84C62.7666 1588.9 42.6915 1576.02 36.554 1575.46ZM84.6772 1554.09C83.2664 1560.01 86.0962 1560.18 78.3283 1558.55C77.5211 1558.38 76.8851 1559.14 77.0368 1560.24C77.7487 1565.14 80.9031 1573.6 74.7333 1574.87C72.3393 1575.37 70.0712 1575.64 67.9242 1577.19C67.6628 1577.37 67.4321 1577.62 67.2462 1577.92C62.0257 1577.46 57.0375 1576.34 52.1205 1573.18C47.5052 1570.21 43.5034 1566.47 38.4475 1564.93C54.5661 1563.53 70.838 1556.22 82.7143 1544.15C82.7837 1544.16 82.8386 1544.22 82.9112 1544.21C88.1399 1543.28 85.67 1549.91 84.6772 1554.09ZM82.1202 1542.36C82.0684 1542.49 82.0396 1542.63 82.0363 1542.77C61.7529 1558.16 41.4969 1564.65 18.8292 1561.3C30.657 1558.76 42.3977 1554.22 53.9833 1551.33C63.0637 1549.06 71.1641 1545.26 79.0547 1539C83.9686 1535.1 87.6411 1529.08 91.7704 1523.72C89.3102 1530.43 85.1518 1536.28 82.1202 1542.36ZM79.1887 1513.38C80.5544 1513.11 90.5258 1507.43 85.6765 1514.58C84.8952 1515.72 85.6765 1517.24 86.7532 1517.01C91.4459 1516.02 93.2604 1516.23 93.5122 1517.13C93.5122 1517.15 93.4896 1517.15 93.4864 1517.17C93.4315 1517.56 93.3249 1517.92 93.2491 1518.3C92.0626 1520.48 87.7476 1524.06 85.6151 1526.96C77.6955 1537.73 68.7508 1543.65 57.7656 1547.36C49.8556 1550.03 41.8359 1552.4 33.7709 1554.47C40.9642 1551.23 47.7151 1545.89 53.851 1540.34C60.66 1534.19 69.2189 1525.56 71.876 1514.62C74.2312 1514.47 77.0175 1513.82 79.1887 1513.38ZM70.5152 1514.66C66.1695 1528 54.6258 1540.33 42.7496 1548.23C51.7007 1538.37 57.3281 1524.49 66.0355 1514.36C67.4658 1514.53 68.9477 1514.64 70.5152 1514.65V1514.66ZM55.3555 1508.55C54.5128 1509.27 54.7388 1510.73 55.6186 1511.18C58.4478 1512.62 61.4001 1513.6 64.41 1514.11C55.4104 1525.14 49.6861 1540.27 39.7777 1550.11C34.3779 1553.35 29.0282 1555.65 24.4033 1556.6C24.37 1556.61 24.3383 1556.63 24.3104 1556.65C24.2824 1556.68 24.259 1556.71 24.2419 1556.75C19.7391 1557.75 15.2277 1558.65 10.7077 1559.44C16.9179 1554.31 20.9552 1546.43 24.5728 1537.95C24.5976 1538.02 24.6364 1538.09 24.6858 1538.15C24.7352 1538.2 24.7938 1538.24 24.8564 1538.25C24.919 1538.27 24.9838 1538.27 25.0452 1538.24C25.1066 1538.22 25.1628 1538.18 25.2088 1538.12C33.2189 1528.33 43.6826 1518.88 48.8774 1505.88C52.8985 1505.73 58.2951 1506.05 55.3555 1508.54V1508.55ZM40.7123 1506.44C42.8303 1506.44 44.9434 1506.37 47.0532 1506.19C43.6406 1506.38 45.1694 1506.07 47.8717 1505.92C44.4655 1511.04 41.4307 1516.48 37.7292 1521.32C33.6321 1526.69 29.2267 1531.64 25.028 1536.86C29.5883 1525.99 33.6289 1514.37 40.7123 1506.43V1506.44ZM18.0802 1506.14C13.988 1512.71 12.9839 1523.74 8.71734 1529.83C8.67107 1529.9 8.64279 1529.99 8.63617 1530.09C8.62954 1530.18 8.64489 1530.28 8.68021 1530.36C6.49815 1529.31 4.25736 1528.47 1.97772 1527.87C6.39762 1518.96 11.5665 1512.26 18.0802 1506.14Z" fill="#9541BA"/>
<path opacity="0.15" d="M30.8685 1589.23C31.3431 1588.74 31.1365 1587.72 30.6829 1587.36C22.5647 1580.89 11.4326 1567.87 0.747681 1565.77V1569.09C3.79544 1569.44 6.90293 1570.68 10.3688 1572.93C16.5579 1576.95 22.0077 1582.94 27.7885 1587.85C30.2486 1589.94 17.9301 1594.76 20.0706 1593.88C14.6918 1596.08 8.82876 1595.19 3.48388 1593.53C2.54541 1593.23 1.62953 1592.82 0.747681 1592.31V1594.66C2.36452 1595.64 4.0496 1596.41 5.77939 1596.97C14.7064 1599.81 23.7899 1596.52 30.8685 1589.23Z" fill="#9541BA"/>
<path opacity="0.15" d="M4.16993 1501.75C3.68564 1501.97 2.65089 1507.34 2.23279 1508.36C1.82171 1509.35 1.32374 1510.26 0.749268 1511.09V1514.7C3.5452 1511.03 5.43068 1506.42 5.80358 1500.47C5.85039 1499.71 5.25634 1499.36 4.77689 1499.45C4.42014 1499.51 4.06984 1499.65 3.71954 1499.74C16.3545 1492.19 29.9758 1482.53 35.5402 1465.88C35.7953 1465.11 34.9591 1464.42 34.6604 1465.2C28.1161 1482.32 13.8185 1491.55 0.749268 1499.33V1503.61C1.85447 1502.89 2.99759 1502.27 4.16993 1501.75Z" fill="#9541BA"/>
<path opacity="0.15" d="M3.34183 1468.48C2.45075 1469.61 1.59841 1470.7 0.747681 1471.74V1476.93C2.78006 1474.78 4.44922 1472.29 5.30963 1469.52C5.57599 1469.96 5.54209 1470.52 5.13045 1471.22C3.8207 1473.4 2.3529 1475.41 0.747681 1477.22V1481.17C4.18287 1477.56 7.09664 1473.42 9.10642 1469.23C9.55196 1468.31 9.07736 1467.32 8.40098 1466.96C5.95007 1465.69 3.37211 1464.89 0.747681 1464.6V1468.18C1.61661 1468.2 2.4834 1468.3 3.34183 1468.48Z" fill="#9541BA"/>
<path opacity="0.15" d="M9.81831 1646.55C9.96501 1646.66 10.1314 1646.72 10.3007 1646.72C10.4701 1646.72 10.6367 1646.66 10.7837 1646.55C10.9307 1646.44 11.0531 1646.28 11.1386 1646.09C11.2242 1645.89 11.2699 1645.68 11.2712 1645.45C11.205 1634.98 13.473 1637.96 17.8639 1643.07C18.5871 1643.91 19.5363 1643.5 19.872 1642.38C21.9383 1635.43 24.2306 1641.41 27.2977 1645.37C30.042 1648.91 32.7088 1651.25 36.2618 1653.23C36.893 1653.57 37.9084 1653.4 38.0375 1652.28C38.1505 1651.3 46.0395 1655.41 47.1711 1655.78C47.3578 1655.85 47.553 1655.85 47.7421 1655.8C47.9312 1655.75 48.1091 1655.65 48.2627 1655.49C48.4162 1655.34 48.5413 1655.14 48.6284 1654.92C48.7156 1654.69 48.7627 1654.44 48.766 1654.19C48.766 1653.51 57.1603 1657.71 58.8181 1657.99C59.2492 1658.06 59.8029 1657.51 59.8577 1656.94C59.8868 1656.72 59.9126 1656.49 59.9384 1656.27C60.0886 1654.84 58.8585 1654.12 58.1902 1655.3C58.7407 1654.32 48.9888 1649.82 47.5069 1649.61C46.8208 1649.51 46.2397 1650.44 46.2445 1651.27C43.2107 1650.58 40.3554 1648.9 37.9342 1646.4C37.3321 1645.9 36.2586 1646.34 36.1488 1647.36C35.897 1649.75 22.5598 1635.54 20.6404 1633.66C19.8478 1632.88 18.9858 1633.98 18.8906 1634.97C18.2449 1641.81 13.3455 1633.59 11.7425 1632C11.602 1631.87 11.4368 1631.8 11.2656 1631.78C11.0945 1631.77 10.9242 1631.82 10.774 1631.93C7.23224 1626.8 4.64778 1622.83 3.01574 1615.71C2.53052 1613.46 2.18021 1611.18 1.96808 1608.86C4.98032 1616.62 8.47685 1624.37 13.4763 1630.22C13.8992 1630.72 14.6741 1630.06 14.3076 1629.37C10.2913 1621.99 5.45492 1615.44 2.21667 1607.35C2.17887 1607.25 2.11424 1607.17 2.03614 1607.14C1.95804 1607.1 1.87242 1607.11 1.79696 1607.15C1.47895 1603.59 1.29169 1600.01 0.884894 1596.42C0.881007 1596.37 0.866455 1596.31 0.842525 1596.26C0.818595 1596.21 0.786021 1596.18 0.747681 1596.15V1612.36C1.98906 1621.3 4.87055 1630.32 10.0847 1633.16C9.1613 1637.63 9.34695 1636.17 9.23395 1641.25C9.19036 1643.24 2.18762 1632.69 1.29654 1630.78C1.11143 1630.38 0.92848 1629.98 0.747681 1629.58V1634.29C3.0674 1639.29 5.95535 1643.65 9.81831 1646.55Z" fill="#9541BA"/>
<path opacity="0.15" d="M36.3022 1595.39C42.6576 1596.53 47.5214 1600.54 52.0963 1606.22C52.3513 1606.53 52.8873 1606.22 52.7339 1605.73C50.2883 1597.9 42.2863 1594.63 36.4297 1594.18C35.9067 1594.14 35.7791 1595.29 36.3022 1595.39Z" fill="#9541BA"/>
<path opacity="0.15" d="M15.2584 1472.11C15.733 1472.49 16.5499 1471.92 16.298 1471.11C16.2286 1470.9 16.1883 1470.67 16.1188 1470.45C26.1484 1451.56 32.2084 1429.73 28.2082 1405.92C34.6556 1421.35 36.5314 1438.54 35.0172 1456.23C34.9139 1457.43 36.1085 1457.78 36.6702 1457.13C40.7963 1452.35 38.2845 1459.58 41.4211 1462.05C52.6435 1470.87 39.605 1484 34.3893 1491.97C34.1068 1492.39 34.4538 1493.06 34.8526 1492.76C41.6212 1487.6 47.2696 1479.6 48.8968 1469.39C50.1882 1461.27 41.3016 1459.94 40.9594 1451.57C40.9544 1451.32 40.8932 1451.07 40.7831 1450.86C40.6731 1450.65 40.5189 1450.48 40.3394 1450.39C40.1599 1450.29 39.9627 1450.26 39.7719 1450.31C39.581 1450.36 39.4047 1450.48 39.2644 1450.65C35.7679 1454.77 37.253 1450.28 37.3595 1445.62C37.4838 1440.13 36.8623 1434.72 36.2457 1429.32C34.9978 1418.48 31.3286 1408.93 26.6504 1400.01C26.3049 1399.36 25.4865 1399.97 25.8303 1400.65C25.9918 1400.97 26.108 1401.29 26.2646 1401.62C26.0673 1401.73 25.9077 1401.93 25.8164 1402.18C25.7252 1402.44 25.7089 1402.73 25.7706 1402.99C28.9992 1418.97 26.4502 1436.24 22.8649 1451.75C21.3653 1458.28 18.8292 1464.02 15.8154 1469.37C11.7345 1455.32 11.8507 1440.69 12.7272 1425.93C12.8128 1425.91 12.897 1425.88 12.9791 1425.85C14.6426 1424.87 16.1028 1423.38 17.2359 1421.51C14.6256 1432.97 12.2317 1445.98 13.4424 1457.98C13.4973 1458.49 14.143 1458.75 14.2172 1458.11C15.6329 1445.8 15.9623 1433.66 18.324 1421.48C18.4337 1420.9 18.0382 1420.6 17.7105 1420.68C18.3241 1419.52 18.8816 1418.3 19.3797 1417.05C22.1094 1410.33 20.5291 1409.69 21.7672 1418.13C21.9286 1419.19 23.1652 1419.39 23.5219 1418.44C26.2323 1411.19 25.0119 1403.51 25.4252 1395.68C25.4688 1394.89 24.5599 1394.77 24.4098 1395.49C23.7156 1398.83 23.6026 1401.74 23.5736 1405.24C23.5824 1408.25 23.4482 1411.26 23.1716 1414.25C22.8828 1411.97 22.4321 1409.74 21.8253 1407.57C21.7658 1407.32 21.6458 1407.1 21.4831 1406.94C21.3204 1406.78 21.1235 1406.7 20.9213 1406.7C20.7191 1406.7 20.5222 1406.78 20.3595 1406.94C20.1968 1407.1 20.0769 1407.32 20.0173 1407.57C19.6202 1409.46 19.1618 1411.33 18.642 1413.17C18.148 1417.58 16.269 1420.09 13.0049 1420.71C12.8806 1419.46 11.8442 1419.09 11.2599 1420.09C9.25493 1423.54 7.28067 1427 5.42909 1430.61C5.33869 1429.44 5.23215 1428.27 5.21116 1427.11C5.21116 1426.5 4.63809 1425.96 4.21031 1426.36C2.90963 1427.63 1.74503 1429.13 0.747681 1430.81V1433.84C2.30223 1430.22 3.91328 1428.26 3.64047 1435.26C3.58881 1436.44 4.91091 1436.89 5.33062 1435.86C6.9449 1431.88 8.75128 1428.41 10.8289 1424.82C11.7135 1423.29 11.2082 1421.76 11.6215 1425.11C11.6398 1425.19 11.6682 1425.27 11.7054 1425.34C9.715 1440.37 10.414 1457.05 14.8081 1471.12C10.5173 1478.36 5.38712 1484.92 0.747681 1491.74V1494.15C5.93759 1487.38 10.9306 1480.01 15.2584 1472.11Z" fill="#9541BA"/>
<path opacity="0.15" d="M11.8442 1485.22C24.342 1477.43 33.863 1456.76 33.7984 1438.75C33.7984 1437.96 32.875 1437.96 32.8637 1438.75C32.5683 1458.54 22.2095 1472.58 11.3422 1484.36C10.9531 1484.78 11.4455 1485.47 11.8442 1485.22Z" fill="#9541BA"/>
<path opacity="0.15" d="M29.0476 1480.79C31.5417 1480.03 33.7904 1477.71 35.7872 1475.68C38.4272 1473 40.8356 1469.94 42.9692 1466.57C43.061 1466.45 43.1129 1466.29 43.1133 1466.12C43.1138 1465.95 43.0628 1465.78 42.9716 1465.66C42.9264 1465.6 42.8728 1465.56 42.8137 1465.52C42.7545 1465.49 42.6911 1465.47 42.627 1465.47C42.4976 1465.47 42.3733 1465.54 42.2815 1465.66C40.1716 1467.94 38.1425 1470.33 36.0165 1472.59C33.6403 1475.12 30.7814 1476.92 28.5149 1479.58C28.0758 1480.09 28.544 1480.94 29.0476 1480.79Z" fill="#9541BA"/>
<path opacity="0.15" d="M302.421 912.11C301.936 912.046 301.872 913.042 302.361 913.11C306.021 913.619 310.605 914.067 315.559 914.148V912.759C311.174 912.896 306.786 912.679 302.421 912.11Z" fill="#9541BA"/>
<path opacity="0.15" d="M283.053 956.173C273.798 961.78 264.763 960.616 255.331 956.776C253.394 955.986 244.329 950.652 247.882 945.506C248.69 944.336 249.258 943.642 249.356 942.014C249.503 939.6 246.565 937.006 245.413 935.682C245.661 935.97 260.293 922.758 262.08 920.308C262.65 919.529 262.043 917.918 261.228 918.593C258.729 920.656 255.771 922.414 252.909 924.38C252.125 923.144 251.053 922.51 249.8 921.227C245.755 917.088 247.96 915.54 245.945 912.435C242.675 907.391 226.643 903.079 234.763 893.368C235.359 892.656 235.285 891.521 234.671 890.878C218.549 874.069 245.81 866.941 253.881 864.094C254.388 863.916 254.377 862.941 253.831 862.865C247.66 862.03 241.444 863.719 236.03 867.701C232.618 866.711 229.402 865.453 226.382 862.96C221.7 859.105 226.488 858.742 227.218 856.639C228.648 852.522 231.773 847.882 228.787 843.08C224.95 836.909 227.933 833.765 230.54 829.157C232.975 824.845 231.405 818.487 237.804 818.838C246.06 819.292 252.801 828.908 260.257 833.188C260.711 837.009 262.033 840.059 264.132 842.685C260.759 842.473 257.675 844.384 256.091 849.054C255.231 851.586 253.936 855.288 254.365 858.246C254.901 861.944 259.838 870.106 255.108 872.008C254.391 872.294 254.047 873.12 254.322 874.063C255.815 879.187 257.996 882.38 261.047 885.976C264.687 890.264 261.909 891.969 260.27 896.282C257.936 902.421 267.467 909.108 270.161 911.66C270 911.685 269.838 911.713 269.665 911.738C268.912 911.834 268.584 912.872 268.639 913.728C269.314 924.263 276.387 931.391 284.218 931.714C284.817 931.738 285.08 930.534 284.451 930.302C280.315 928.797 276.864 926.694 273.716 922.673C267.037 914.15 272.737 914.681 276.068 914.434C276.875 914.377 277.253 913.161 277.18 912.28C276.799 907.629 275.341 903.364 280.023 903.313C280.977 903.313 283.451 903.313 284.331 902.602C286.496 900.827 287.022 898.808 286.943 895.926C294.432 903.355 305.409 906.54 315.555 906.576V903.829C305.46 903.455 295.575 902.09 286.838 894.113C286.397 889.296 282.128 878.601 291.681 878.947C295.878 879.096 300.254 883.511 303.691 886.267C307.254 889.12 311.232 892.903 315.548 892.985V891.589C310.628 889.837 305.892 884.847 301.02 881.098C300.088 877.761 298.647 874.886 297.337 871.787C292.204 859.657 299.623 862.022 302.556 858.725C305.601 855.312 305.197 850.639 303.764 846.396C303.458 845.46 303.338 844.438 303.415 843.424C306.899 844.91 310.399 846.109 313.795 847.992C314.404 848.33 314.986 848.695 315.553 849.077V847.088C311.75 844.742 307.696 843.182 303.531 842.46C304.5 836.381 310.972 829.577 315.553 825.603V822.071C310.817 825.497 306.331 831.466 303.389 836.145C302.116 838.174 299.568 841.775 300.308 844.908C301.06 848.092 302.82 853.682 299.673 856.193C298.432 857.184 297.044 856.874 295.897 858.156C290.467 864.247 295.52 873.241 298.732 879.48C295.465 877.328 292.114 876.009 288.583 876.863C285.547 877.599 284.154 881.414 283.634 884.902C283.18 887.942 284.378 891.799 284.833 894.703C285.902 901.519 277.036 899.745 274.584 900.243C273.785 900.405 273.393 901.428 273.472 902.398C273.98 908.478 274.925 910.637 270.958 911.526C270.973 911.466 270.977 911.403 270.972 911.341C270.966 911.279 270.951 911.219 270.926 911.165C269.323 907.525 266.263 905.09 263.967 902.317C260.739 898.411 266.066 892.697 267.265 889.118C267.361 888.778 267.368 888.405 267.285 888.059C267.202 887.713 267.034 887.413 266.807 887.207C265.396 886.01 254.938 875.107 257.842 873.876C258.616 873.545 259.457 872.589 259.733 871.577C259.965 870.728 260.056 869.634 259.815 868.773C257.667 860.986 250.966 843.252 265.833 844.572C266.887 845.584 267.997 846.491 269.154 847.285C269.551 849.052 269.869 850.304 269.904 850.257C264.466 858.594 275.341 870.887 279.267 875.406C279.913 876.16 280.786 874.795 280.258 873.969C276.499 868.061 267.812 858.662 273.908 849.769C274.292 849.209 274.24 848.018 273.824 847.504C268.229 840.641 271.979 835.113 270.205 827.074C267.46 814.673 274.013 816.006 274.563 806.952C274.831 802.545 274.868 803.615 274.612 799.83C273.985 790.627 277.451 792.481 280.709 788.829C281.193 788.284 281.193 786.581 281.241 786.136C282.392 776.668 290.281 769.837 297.678 770.605C298.732 770.715 298.86 768.588 297.809 768.457C294.445 768.032 290.201 769.404 286.641 772.083C285.603 771.028 284.393 770.306 283.106 769.972C289.778 766.542 296.266 761.076 303.123 759.615C303.549 760.065 303.982 760.5 304.427 760.914C304.75 761.209 305.268 760.702 305.036 760.231C304.902 759.953 304.747 759.668 304.603 759.382C306.966 759.07 309.352 759.351 311.635 760.212C311.551 760.307 311.462 760.39 311.378 760.481C307.988 764.243 305.711 769.493 303.877 774.704C303.572 775.577 304.163 776.347 304.757 776.502C308.586 777.5 312.035 775.974 315.54 774.437V771.027C314.749 771.405 313.951 771.842 313.144 772.337C303.401 778.338 310.794 764.946 314.113 761.483C314.612 760.965 315.082 760.524 315.535 760.125V756.221C314.778 756.983 314.023 757.741 313.275 758.507C309.947 756.172 306.364 755.582 302.752 756.147C299.103 750.383 293.644 744.698 288.046 742.486C287.372 736.296 293.174 739.438 294.332 735.239C295.002 732.804 294.562 731.832 293.994 729.495C293.563 727.731 301.023 722.249 302.582 720.791C302.742 720.615 302.863 720.386 302.932 720.127C303.001 719.869 303.016 719.591 302.975 719.322C302.006 713.389 309.22 707.678 315.542 704.038V701C314.969 701.376 314.4 701.762 313.842 702.148C310.541 704.437 304.527 707.519 302.345 711.899C299.799 717.01 301.538 718.435 296.839 722.058C295.529 723.071 291.526 725.455 291.771 728.019C292.567 736.298 285.821 735.449 286.837 742.03C284.528 741.336 282.22 741.257 280.028 742.072C279.474 742.285 279.157 742.981 279.401 743.705C280.644 747.42 273.801 747.044 271.745 747.643C271.228 747.793 271.036 748.449 271.202 749.065C271.344 749.585 271.412 749.867 271.404 750.056C267.48 750.415 263.653 751.829 260.161 754.211C256.759 756.501 248.685 761.031 247.802 766.408C247.434 768.648 247.613 771.371 247.479 773.673C247.59 771.883 244.547 781.281 244.639 780.924C243.551 785.204 249.866 788.237 246.685 791.763C241.357 797.65 248.447 809.024 250.489 813.84C250.812 814.609 251.708 814.053 251.429 813.246C248.812 805.604 245.056 798.503 250.569 791.676C251.053 791.086 251.114 790.364 250.904 789.583C249.605 784.739 247.632 781.563 249.569 776.059C251.082 771.766 247.227 766.93 251.271 763.19C262.335 752.937 272.976 747.71 286.094 756.822C286.177 756.897 286.279 756.927 286.378 756.903C286.477 756.88 286.565 756.806 286.623 756.697C286.68 756.589 286.703 756.454 286.685 756.324C286.667 756.194 286.611 756.078 286.528 756.002C282.825 752.117 278.492 750.271 274.056 750.005C276.098 747.999 278.801 748.248 281.735 747.931C282.279 747.874 282.585 746.934 282.342 746.341C279.437 739.196 292.317 747.793 293.804 749.052C296.304 751.175 298.385 753.947 300.545 756.59C293.51 758.541 286.569 764.3 281.455 769.421C281.371 769.504 281.314 769.625 281.293 769.76C272.101 770.174 261.91 789.309 259.339 797.679C258.729 799.654 257.934 803.199 258.532 805.241C259.416 808.294 259.09 807.487 260.697 810.075C264.474 816.154 261.042 819.71 260.374 825.111C260.127 827.093 260.047 829.106 260.133 831.112C253.589 824.571 243.763 815.318 235.953 816.127C233.37 816.392 231.773 817.498 230.571 820.642C228.472 826.132 224.496 830.906 223.203 836.69C222.327 840.609 229.05 847.789 227.034 850.226C225.972 851.514 223.395 855.821 223.132 857.386C221.925 864.529 229.267 867.938 234.35 869.025C231.76 871.248 229.489 874.056 227.643 877.319C222.914 885.73 233.735 889.173 230.172 894.989C226.125 901.6 234.434 907.652 237.674 909.936C241.88 912.908 242.108 912.987 243.821 918.502C245.208 922.96 248.627 923.276 251.398 925.433C247.797 928.071 244.518 931.198 242.743 935.915C242.449 936.701 242.817 937.565 243.261 938.061C244.733 939.711 247.537 941.108 245.324 943.806C245.001 944.209 244.733 944.886 244.875 945.504C248.018 958.961 255.468 961.181 265.478 962.998C279.32 965.512 291.943 953.469 303.197 944.854C305.264 943.273 307.338 941.742 309.435 940.305C304.873 945.946 301.62 952.787 298.009 959.595C297.617 960.334 297.817 961.187 298.3 961.731C299.581 965.385 300.863 969.038 302.145 972.691C302.124 973.642 302.629 974.642 303.423 974.663C304.655 974.693 305.268 974.701 305.83 974.593C304.644 981.235 304.749 987.812 306.182 993.817C306.139 993.755 306.084 993.711 306.022 993.688C305.961 993.666 305.896 993.666 305.835 993.69C298.275 997.141 295.893 990.293 292.185 984.078C292.457 982.265 292.855 980.489 293.373 978.771C294.106 976.278 295.218 973.933 295.586 971.294C295.678 970.638 295.006 970.487 294.743 970.899C292.85 973.858 291.478 978.259 291.153 982.435C290.795 981.891 290.422 981.356 290.023 980.849C288.68 979.127 286.544 978.686 284.815 978.072C278.342 975.794 283.148 966.734 283.376 961.631C283.381 961.52 283.361 961.41 283.319 961.314C283.278 961.218 283.215 961.14 283.14 961.089C283.066 961.038 282.981 961.017 282.897 961.029C282.813 961.04 282.734 961.084 282.668 961.153C279.689 963.951 278.299 971.063 279.278 975.565C280.331 980.378 283.606 981.123 286.801 982.089C288.415 982.579 289.836 984.11 291.16 985.978C291.171 986.099 291.16 986.23 291.181 986.349C291.188 986.417 291.207 986.481 291.236 986.537C291.265 986.593 291.304 986.64 291.349 986.674C291.394 986.708 291.444 986.728 291.496 986.733C291.547 986.738 291.599 986.727 291.647 986.701C293.481 989.461 295.148 992.73 296.906 994.647C299.793 997.78 303.325 996.933 306.172 994.369C306.221 994.321 306.256 994.252 306.271 994.174C307.837 1000.47 310.863 1006.13 315.443 1010.52C315.482 1010.56 315.521 1010.59 315.559 1010.63V1007.16C314.277 1005.98 313.101 1004.61 312.053 1003.08C306.45 995.014 306.868 982.157 309.162 972.513C309.558 970.855 308.381 969.689 307.225 970.22C304.946 971.264 303.037 963.189 302.059 961.542C298.508 955.545 308.603 942.81 311.716 939.133C311.764 939.08 311.801 939.012 311.825 938.936C311.849 938.859 311.859 938.776 311.853 938.694C313.076 937.913 314.309 937.173 315.553 936.476V932.27C304.087 938.159 294.138 949.452 283.053 956.173ZM285.326 773.157C281.861 776.26 279.343 780.686 279.537 785.938C279.537 786.034 273.782 792.844 273.093 794.841C272.508 796.54 272.779 798.499 272.909 800.246C273.877 813.531 269.832 809.894 267.569 817.865C265.769 824.21 268.56 829.681 267.475 836.442C267.301 837.533 267.827 840.764 268.434 843.827C262.12 835.95 262.86 828.774 265.053 817.188C265.759 813.446 264.346 810.607 262.517 808.06C254.212 796.478 274.518 768.109 285.326 773.157Z" fill="#9541BA"/>
<path opacity="0.15" d="M309.753 751.926C310.022 751.897 313.333 751.701 315.564 752.179V747.995C314.904 747.988 314.245 748.029 313.588 748.118C314.241 747.467 314.899 746.844 315.564 746.248V743.796C313.435 745.494 311.324 747.405 309.055 749.139C307.911 750.007 308.478 752.075 309.753 751.926Z" fill="#9541BA"/>
<path opacity="0.15" d="M305.498 790.814C304.862 790.317 303.903 790.725 303.872 791.825C303.673 799.197 298.27 798.548 294.464 796.123C294.853 791.636 296.483 788.407 299.388 786.462C299.951 785.944 300.048 785.259 299.894 784.63C303.446 779.884 310.181 780.364 315.553 781.003V779.792C309.17 779.056 303.284 779.035 297.266 783.231C297.002 783.428 296.792 783.731 296.667 784.095C294.346 786.133 292.853 788.254 291.294 791.655C290.635 793.09 291.103 798 290.69 798.677C286.938 804.833 286.083 813.645 285.242 821.213C284.543 827.486 281.148 858.076 289.658 859.315C290.596 859.453 290.877 857.893 290.236 857.193C286.05 852.667 285.179 839.707 286.352 827.187C286.646 827.501 287.083 827.598 287.392 827.206C288.305 826.04 288.801 824.595 289.36 823.106C290.033 821.319 291.85 814.244 293.248 818.736C293.699 820.177 295.31 819.617 295.421 818.201C296.014 810.656 309.214 814.089 311.207 818.891C311.616 819.871 312.684 819.171 312.386 818.139C310.75 812.509 303.091 809.312 297.935 811.119C299.872 809.633 302.053 808.682 304.23 808.122C305.522 807.792 306.913 807.75 308.166 808.361C309.073 808.799 309.081 810.225 309.987 810.675C310.083 810.723 310.187 810.735 310.288 810.711C310.39 810.687 310.484 810.628 310.562 810.539C310.626 810.457 310.662 810.376 310.723 810.297C311.438 813.675 313.538 817.008 314.436 819.85C314.646 820.523 315.466 820.302 315.488 819.589C315.65 814.31 310.912 809.852 314.25 804.914C314.573 804.451 314.484 803.78 314.35 803.254C313.532 800.023 314.534 798.554 314.902 795.758C314.967 795.264 314.626 794.909 314.303 794.835C310.134 793.822 312.089 802.772 311.107 805.024C311.043 805.169 311.002 805.322 310.946 805.472C310.521 804.236 310.158 802.964 309.858 801.666C309.512 800.214 309.415 798.545 308.46 797.531C307.953 796.996 307.007 797.195 306.684 797.955C306.59 798.204 306.524 798.469 306.487 798.743C306.457 798.722 306.427 798.703 306.395 798.686C306.378 798.258 306.408 797.829 306.484 797.412C306.634 796.612 307.157 795.979 307.351 795.164C307.374 795.054 307.377 794.939 307.359 794.828C307.34 794.717 307.301 794.613 307.244 794.527C310.34 795.667 313.146 795.228 315.561 793.308V790.413C312.794 793.258 309.344 793.809 305.498 790.814ZM305.848 793.88C305.966 793.939 306.085 794.005 306.203 794.062C306.062 794.071 305.923 794.109 305.791 794.175C305.806 794.073 305.835 793.984 305.853 793.88H305.848ZM306.521 805.362C306.279 805.312 306.033 805.292 305.788 805.302C302.472 805.515 298.538 807.493 296.474 811.034C296.438 811.087 296.412 811.15 296.398 811.218C296.383 811.286 296.381 811.357 296.391 811.427C296.4 811.496 296.422 811.562 296.453 811.619C296.485 811.676 296.526 811.723 296.574 811.756C295.489 812.407 294.588 813.335 293.981 814.602C291.177 810.909 288.204 819.648 286.652 824.382C287.899 813.893 290.541 804.199 293.826 800.662C294.23 800.225 294.529 799.331 294.364 798.647C294.364 798.596 294.364 798.556 294.364 798.507C297.601 800.94 301.891 801.112 304.235 798.127C304.223 798.467 304.234 798.807 304.269 799.144C304.322 799.592 304.409 800.031 304.527 800.456C304.543 800.565 304.565 800.672 304.594 800.777H304.579C304.59 800.823 304.611 800.855 304.621 800.902C304.638 801.016 304.663 801.127 304.695 801.235C304.779 801.447 304.871 801.677 304.958 801.893C302.267 802.343 299.4 804.29 297.823 806.067C297.37 806.574 297.856 807.595 298.396 807.221C300.08 806.045 301.882 805.187 303.748 804.674C304.539 804.44 305.36 804.434 306.153 804.657C306.271 804.905 306.398 805.13 306.521 805.358V805.362Z" fill="#9541BA"/>
</svg>
