<svg width="1886" height="4117" viewBox="0 0 1886 4117" fill="none" xmlns="http://www.w3.org/2000/svg">
<path opacity="0.15" d="M1816.22 1998.2C1781.26 2006.68 1721.23 1991.4 1691.17 2019.84C1670.5 2039.38 1659.13 2064.06 1638.24 2084.08C1603.45 2117.45 1543.33 2108.07 1500.01 2107.33C1499.47 2107.29 1498.93 2107.47 1498.51 2107.83C1498.1 2108.19 1497.84 2108.71 1497.8 2109.26C1497.75 2109.82 1497.93 2110.37 1498.28 2110.79C1498.64 2111.22 1499.14 2111.48 1499.69 2111.52C1544.85 2118.3 1608.56 2128.75 1647.3 2094.95C1675.59 2070.3 1691.87 2033.46 1731.85 2023.17C1766.8 2014.17 1801.85 2020.76 1837.29 2009.92C1853.85 2004.86 1869.71 1996.24 1885.13 1987.47V1971.34C1863.02 1982.06 1840.59 1992.31 1816.22 1998.2Z" fill="#9541BA"/>
<path opacity="0.15" d="M1805.41 1917.81C1802.47 1917.51 1802.08 1922.2 1805.05 1922.52C1827.27 1924.92 1855.11 1927.03 1885.2 1927.41V1920.87C1858.57 1921.51 1831.92 1920.49 1805.41 1917.81Z" fill="#9541BA"/>
<path opacity="0.15" d="M1687.79 2125.37C1631.59 2151.78 1576.72 2146.3 1519.44 2128.21C1507.68 2124.49 1452.63 2099.36 1474.21 2075.13C1479.11 2069.62 1482.56 2066.35 1483.16 2058.68C1484.05 2047.31 1466.21 2035.09 1459.21 2028.85C1460.72 2030.21 1549.58 1967.97 1560.43 1956.43C1563.89 1952.76 1560.2 1945.17 1555.25 1948.35C1540.08 1958.07 1522.12 1966.35 1504.74 1975.61C1499.97 1969.79 1493.46 1966.8 1485.86 1960.76C1461.29 1941.26 1474.68 1933.97 1462.45 1919.34C1442.59 1895.58 1345.23 1875.27 1394.54 1829.53C1398.16 1826.18 1397.71 1820.83 1393.98 1817.8C1296.08 1738.62 1461.62 1705.04 1510.64 1691.63C1513.72 1690.79 1513.65 1686.2 1510.33 1685.84C1472.86 1681.91 1435.11 1689.87 1402.24 1708.62C1381.51 1703.96 1361.98 1698.03 1343.64 1686.29C1315.21 1668.13 1344.29 1666.42 1348.72 1656.51C1357.41 1637.12 1376.38 1615.26 1358.25 1592.65C1334.95 1563.58 1353.06 1548.77 1368.89 1527.06C1383.68 1506.75 1374.15 1476.8 1413.01 1478.45C1463.14 1480.59 1504.08 1525.89 1549.36 1546.05C1552.12 1564.05 1560.14 1578.42 1572.89 1590.79C1552.41 1589.79 1533.68 1598.79 1524.06 1620.78C1518.83 1632.71 1510.97 1650.15 1513.58 1664.08C1516.83 1681.5 1546.81 1719.95 1518.09 1728.91C1513.74 1730.26 1511.65 1734.15 1513.32 1738.59C1522.38 1762.73 1535.63 1777.77 1554.16 1794.71C1576.26 1814.91 1559.39 1822.94 1549.44 1843.26C1535.26 1872.17 1593.14 1903.67 1609.5 1915.69C1608.52 1915.81 1607.54 1915.94 1606.49 1916.06C1601.92 1916.51 1599.93 1921.4 1600.26 1925.43C1604.36 1975.06 1647.31 2008.64 1694.87 2010.16C1698.51 2010.27 1700.1 2004.6 1696.28 2003.51C1671.17 1996.42 1650.21 1986.51 1631.09 1967.57C1590.53 1927.42 1625.15 1929.92 1645.37 1928.76C1650.28 1928.49 1652.57 1922.76 1652.13 1918.61C1649.81 1896.7 1640.96 1876.61 1669.39 1876.37C1675.19 1876.37 1690.21 1876.37 1695.56 1873.02C1708.7 1864.66 1711.9 1855.16 1711.42 1841.58C1756.89 1876.57 1823.56 1891.57 1885.17 1891.74V1878.8C1823.87 1877.04 1763.84 1870.61 1710.78 1833.04C1708.1 1810.35 1682.17 1759.97 1740.19 1761.6C1765.68 1762.3 1792.25 1783.1 1813.13 1796.08C1834.76 1809.52 1858.92 1827.34 1885.13 1827.73V1821.15C1855.25 1812.9 1826.49 1789.39 1796.9 1771.73C1791.24 1756.01 1782.49 1742.47 1774.54 1727.87C1743.37 1670.73 1788.42 1681.87 1806.23 1666.34C1824.72 1650.26 1822.27 1628.25 1813.57 1608.27C1811.71 1603.86 1810.98 1599.04 1811.45 1594.27C1832.6 1601.27 1853.86 1606.92 1874.48 1615.78C1878.18 1617.37 1881.72 1619.09 1885.16 1620.89V1611.53C1862.07 1600.48 1837.44 1593.12 1812.15 1589.73C1818.04 1561.09 1857.34 1529.04 1885.16 1510.32V1493.68C1856.4 1509.82 1829.15 1537.94 1811.29 1559.98C1803.56 1569.54 1788.09 1586.5 1792.58 1601.26C1797.15 1616.26 1807.83 1642.58 1788.73 1654.41C1781.19 1659.08 1772.76 1657.62 1765.8 1663.66C1732.82 1692.35 1763.5 1734.72 1783.01 1764.11C1763.17 1753.97 1742.82 1747.76 1721.38 1751.78C1702.94 1755.25 1694.48 1773.22 1691.32 1789.65C1688.57 1803.97 1695.84 1822.14 1698.6 1835.82C1705.09 1867.92 1651.26 1859.56 1636.36 1861.91C1631.51 1862.67 1629.13 1867.49 1629.61 1872.06C1632.7 1900.7 1638.43 1910.87 1614.35 1915.06C1614.43 1914.78 1614.46 1914.48 1614.43 1914.19C1614.39 1913.9 1614.3 1913.62 1614.15 1913.36C1604.42 1896.21 1585.83 1884.74 1571.89 1871.68C1552.28 1853.29 1584.63 1826.37 1591.92 1809.51C1592.5 1807.9 1592.54 1806.15 1592.04 1804.52C1591.54 1802.89 1590.51 1801.48 1589.13 1800.51C1580.56 1794.87 1517.06 1743.51 1534.7 1737.71C1539.39 1736.15 1544.5 1731.65 1546.18 1726.88C1547.59 1722.88 1548.14 1717.73 1546.68 1713.67C1533.63 1676.99 1492.93 1593.46 1583.22 1599.68C1589.62 1604.44 1596.36 1608.71 1603.39 1612.46C1605.8 1620.77 1607.73 1626.67 1607.95 1626.45C1574.92 1665.72 1640.96 1723.63 1664.8 1744.92C1668.72 1748.47 1674.03 1742.04 1670.82 1738.15C1647.99 1710.32 1595.24 1666.04 1632.26 1624.15C1634.59 1621.51 1634.28 1615.9 1631.75 1613.49C1597.77 1581.16 1620.54 1555.12 1609.77 1517.25C1593.1 1458.83 1632.89 1465.11 1636.24 1422.46C1637.86 1401.7 1638.09 1406.74 1636.53 1388.91C1632.73 1345.57 1653.77 1354.3 1673.56 1337.1C1676.5 1334.53 1676.5 1326.51 1676.79 1324.41C1683.78 1279.81 1731.69 1247.63 1776.61 1251.25C1783.01 1251.77 1783.78 1241.75 1777.4 1241.13C1756.97 1239.13 1731.2 1245.59 1709.58 1258.21C1703.28 1253.24 1695.93 1249.84 1688.12 1248.27C1728.63 1232.11 1768.03 1206.36 1809.67 1199.48C1812.26 1201.6 1814.89 1203.65 1817.6 1205.6C1819.56 1206.99 1822.7 1204.6 1821.29 1202.38C1820.48 1201.07 1819.54 1199.73 1818.66 1198.38C1833.01 1196.91 1847.5 1198.24 1861.37 1202.29C1860.86 1202.74 1860.32 1203.13 1859.81 1203.56C1839.22 1221.28 1825.39 1246.01 1814.25 1270.56C1812.4 1274.67 1815.99 1278.3 1819.6 1279.03C1842.85 1283.73 1863.8 1276.54 1885.08 1269.3V1253.24C1880.28 1255.02 1875.43 1257.08 1870.53 1259.41C1811.36 1287.68 1856.26 1224.59 1876.41 1208.28C1879.44 1205.84 1882.3 1203.76 1885.05 1201.88V1183.49C1880.45 1187.08 1875.87 1190.65 1871.33 1194.26C1851.11 1183.26 1829.36 1180.48 1807.42 1183.14C1785.26 1155.99 1752.11 1129.21 1718.11 1118.8C1714.03 1089.64 1749.26 1104.44 1756.29 1084.66C1760.36 1073.19 1757.69 1068.61 1754.24 1057.6C1751.62 1049.29 1796.92 1023.47 1806.39 1016.6C1807.36 1015.77 1808.09 1014.69 1808.51 1013.47C1808.93 1012.26 1809.02 1010.95 1808.77 1009.68C1802.89 981.731 1846.7 954.832 1885.09 937.683V923.374C1881.61 925.143 1878.16 926.963 1874.77 928.783C1854.72 939.563 1818.2 954.082 1804.95 974.711C1789.49 998.79 1800.05 1005.5 1771.51 1022.57C1763.56 1027.34 1739.25 1038.57 1740.74 1050.65C1745.57 1089.65 1704.6 1085.65 1710.77 1116.65C1696.75 1113.38 1682.73 1113.01 1669.42 1116.85C1666.06 1117.85 1664.14 1121.13 1665.62 1124.54C1673.17 1142.03 1631.61 1140.26 1619.12 1143.08C1615.98 1143.79 1614.82 1146.88 1615.83 1149.78C1616.69 1152.23 1617.1 1153.56 1617.05 1154.45C1593.22 1156.15 1569.98 1162.81 1548.77 1174.02C1528.12 1184.81 1479.08 1206.15 1473.72 1231.48C1471.49 1242.03 1472.57 1254.86 1471.76 1265.7C1472.44 1257.27 1453.96 1301.54 1454.52 1299.86C1447.91 1320.02 1486.26 1334.31 1466.94 1350.92C1434.59 1378.64 1477.64 1432.22 1490.04 1454.91C1492 1458.53 1497.44 1455.91 1495.75 1452.11C1479.86 1416.11 1457.04 1382.66 1490.52 1350.51C1493.46 1347.73 1493.84 1344.33 1492.56 1340.65C1484.67 1317.83 1472.69 1302.87 1484.45 1276.94C1493.64 1256.72 1470.23 1233.94 1494.79 1216.32C1561.98 1168.02 1626.6 1143.4 1706.26 1186.32C1706.76 1186.68 1707.38 1186.82 1707.99 1186.71C1708.59 1186.6 1709.12 1186.25 1709.47 1185.74C1709.82 1185.23 1709.96 1184.59 1709.85 1183.98C1709.74 1183.36 1709.4 1182.82 1708.9 1182.46C1686.41 1164.16 1660.1 1155.46 1633.16 1154.21C1645.56 1144.76 1661.97 1145.93 1679.79 1144.44C1683.1 1144.17 1684.95 1139.74 1683.48 1136.95C1665.83 1103.3 1744.05 1143.79 1753.08 1149.72C1768.27 1159.72 1780.9 1172.78 1794.02 1185.23C1751.3 1194.42 1709.14 1221.55 1678.09 1245.67C1677.58 1246.06 1677.23 1246.63 1677.11 1247.27C1621.29 1249.22 1559.4 1339.36 1543.78 1378.78C1540.08 1388.08 1535.25 1404.78 1538.88 1414.4C1544.25 1428.78 1542.27 1424.98 1552.03 1437.17C1574.97 1465.81 1554.13 1482.56 1550.07 1508C1548.57 1517.34 1548.08 1526.82 1548.61 1536.27C1508.86 1505.46 1449.19 1461.87 1401.76 1465.68C1386.08 1466.93 1376.38 1472.14 1369.08 1486.95C1356.34 1512.81 1332.19 1535.3 1324.34 1562.55C1319.02 1581.01 1359.85 1614.82 1347.6 1626.3C1341.15 1632.37 1325.51 1652.66 1323.91 1660.03C1316.58 1693.68 1361.16 1709.74 1392.03 1714.86C1376.3 1725.33 1362.51 1738.56 1351.3 1753.93C1322.58 1793.55 1388.3 1809.77 1366.66 1837.17C1342.08 1868.3 1392.54 1896.81 1412.22 1907.57C1437.76 1921.57 1439.14 1921.94 1449.55 1947.92C1457.97 1968.92 1478.73 1970.41 1495.56 1980.57C1473.69 1993 1453.78 2007.73 1443 2029.95C1441.21 2033.65 1443.45 2037.72 1446.14 2040.06C1455.08 2047.83 1472.11 2054.41 1458.67 2067.12C1456.71 2069.02 1455.08 2072.21 1455.95 2075.12C1475.03 2138.5 1520.28 2148.96 1581.06 2157.52C1665.13 2169.36 1741.78 2112.63 1810.13 2072.06C1822.67 2064.61 1835.27 2057.4 1848.01 2050.63C1820.3 2077.2 1800.55 2109.42 1778.62 2141.49C1776.24 2144.97 1777.45 2148.99 1780.38 2151.55C1788.17 2168.77 1795.95 2185.97 1803.73 2203.18C1803.61 2207.66 1806.67 2212.37 1811.5 2212.47C1818.98 2212.61 1822.7 2212.65 1826.11 2212.14C1818.91 2243.43 1819.55 2274.41 1828.25 2302.7C1827.99 2302.41 1827.65 2302.2 1827.28 2302.09C1826.91 2301.98 1826.52 2301.99 1826.14 2302.1C1780.24 2318.36 1765.77 2286.1 1743.25 2256.82C1744.91 2248.28 1747.32 2239.91 1750.46 2231.82C1754.91 2220.08 1761.67 2209.03 1763.9 2196.6C1764.46 2193.51 1760.38 2192.8 1758.79 2194.74C1747.29 2208.68 1738.95 2229.41 1736.98 2249.08C1734.81 2246.52 1732.54 2244 1730.12 2241.61C1721.97 2233.5 1709 2231.42 1698.5 2228.53C1659.19 2217.8 1688.37 2175.12 1689.75 2151.08C1689.78 2150.56 1689.66 2150.04 1689.41 2149.59C1689.16 2149.14 1688.78 2148.77 1688.33 2148.53C1687.87 2148.29 1687.36 2148.19 1686.85 2148.25C1686.34 2148.3 1685.86 2148.5 1685.46 2148.83C1667.36 2162.01 1658.92 2195.51 1664.87 2216.72C1671.26 2239.39 1691.15 2242.9 1710.55 2247.45C1720.36 2249.76 1728.98 2256.97 1737.02 2265.77C1737.09 2266.34 1737.02 2266.96 1737.15 2267.52C1737.2 2267.84 1737.31 2268.14 1737.49 2268.4C1737.67 2268.67 1737.9 2268.89 1738.17 2269.05C1738.45 2269.21 1738.75 2269.3 1739.06 2269.33C1739.38 2269.35 1739.69 2269.3 1739.98 2269.18C1751.12 2282.18 1761.25 2297.58 1771.92 2306.61C1789.45 2321.37 1810.9 2317.38 1828.19 2305.3C1828.49 2305.07 1828.7 2304.74 1828.79 2304.38C1838.3 2334.04 1856.68 2360.68 1884.49 2381.37C1884.73 2381.55 1884.96 2381.7 1885.2 2381.87V2365.54C1877.41 2359.98 1870.27 2353.54 1863.91 2346.33C1829.88 2308.34 1832.42 2247.77 1846.35 2202.34C1848.75 2194.53 1841.6 2189.04 1834.58 2191.54C1820.74 2196.46 1809.16 2158.42 1803.21 2150.66C1781.65 2122.41 1842.96 2062.43 1861.86 2045.11C1862.15 2044.86 1862.38 2044.54 1862.52 2044.18C1862.67 2043.82 1862.73 2043.43 1862.69 2043.04C1870.11 2039.36 1877.6 2035.87 1885.16 2032.59V2012.78C1815.53 2040.52 1755.11 2093.72 1687.79 2125.37ZM1701.59 1263.27C1680.56 1277.89 1665.26 1298.74 1666.44 1323.48C1666.44 1323.93 1631.49 1356.01 1627.31 1365.42C1623.76 1373.41 1625.4 1382.64 1626.19 1390.87C1632.07 1453.45 1607.5 1436.32 1593.76 1473.87C1582.83 1503.76 1599.78 1529.53 1593.19 1561.38C1592.13 1566.52 1595.33 1581.74 1599.01 1596.17C1560.67 1559.06 1565.16 1525.26 1578.49 1470.68C1582.77 1453.05 1574.19 1439.68 1563.09 1427.68C1512.65 1373.12 1635.96 1239.49 1701.59 1263.27Z" fill="#9541BA"/>
<path opacity="0.15" d="M1849.94 1163.26C1851.57 1163.12 1871.68 1162.2 1885.23 1164.45V1144.74C1881.22 1144.71 1877.21 1144.91 1873.23 1145.32C1877.19 1142.26 1881.19 1139.32 1885.23 1136.51V1124.97C1872.3 1132.97 1859.47 1141.96 1845.7 1150.13C1838.75 1154.22 1842.19 1163.96 1849.94 1163.26Z" fill="#9541BA"/>
<path opacity="0.15" d="M1856.71 1583.95C1866.45 1587.87 1875.94 1592.25 1885.2 1597.08V1591.15C1876.38 1587.02 1867.42 1583.25 1858.14 1579.9C1855.57 1578.95 1854.18 1582.95 1856.71 1583.95Z" fill="#9541BA"/>
<path opacity="0.15" d="M1824.1 1346.45C1820.23 1344.11 1814.41 1346.03 1814.22 1351.21C1813.02 1385.93 1780.21 1382.87 1757.09 1371.46C1759.45 1350.32 1769.35 1335.11 1786.99 1325.95C1790.41 1323.51 1791 1320.28 1790.07 1317.32C1811.64 1294.96 1852.53 1297.22 1885.16 1300.23V1294.53C1846.4 1291.06 1810.66 1290.96 1774.11 1310.73C1772.5 1311.65 1771.23 1313.08 1770.47 1314.8C1756.37 1324.4 1747.31 1334.39 1737.84 1350.41C1733.84 1357.17 1736.68 1380.29 1734.17 1383.48C1711.39 1412.48 1706.19 1453.99 1701.08 1489.64C1696.84 1519.19 1676.22 1663.28 1727.91 1669.12C1733.6 1669.77 1735.31 1662.42 1731.42 1659.12C1706 1637.8 1700.7 1576.76 1707.83 1517.78C1709.61 1519.26 1712.27 1519.72 1714.14 1517.87C1719.69 1512.38 1722.7 1505.57 1726.09 1498.56C1730.18 1490.14 1741.22 1456.81 1749.71 1477.97C1752.44 1484.76 1762.23 1482.12 1762.9 1475.45C1766.5 1439.91 1846.66 1456.08 1858.77 1478.7C1861.25 1483.32 1867.74 1480.02 1865.93 1475.16C1855.99 1448.64 1809.48 1433.58 1778.17 1442.09C1789.93 1435.09 1803.18 1430.61 1816.4 1427.97C1824.24 1426.42 1832.69 1426.22 1840.3 1429.1C1845.81 1431.16 1845.86 1437.88 1851.36 1440C1851.94 1440.23 1852.57 1440.28 1853.19 1440.17C1853.8 1440.06 1854.38 1439.78 1854.85 1439.36C1855.24 1438.97 1855.46 1438.59 1855.83 1438.22C1860.17 1454.13 1872.92 1469.83 1878.38 1483.22C1879.65 1486.39 1884.63 1485.35 1884.77 1481.99C1885.75 1457.12 1856.98 1436.12 1877.25 1412.86C1879.21 1410.68 1878.67 1407.52 1877.86 1405.04C1872.89 1389.82 1878.97 1382.9 1881.21 1369.74C1881.6 1367.41 1879.53 1365.74 1877.57 1365.39C1852.25 1360.62 1864.12 1402.77 1858.16 1413.38C1857.77 1414.06 1857.52 1414.78 1857.18 1415.49C1854.6 1409.67 1852.4 1403.68 1850.57 1397.56C1848.48 1390.72 1847.89 1382.86 1842.08 1378.08C1839.01 1375.57 1833.26 1376.51 1831.3 1380.08C1830.73 1381.26 1830.33 1382.51 1830.1 1383.79C1829.92 1383.69 1829.74 1383.6 1829.55 1383.52C1829.44 1381.51 1829.62 1379.49 1830.09 1377.52C1831 1373.76 1834.17 1370.78 1835.35 1366.94C1835.49 1366.42 1835.51 1365.88 1835.4 1365.35C1835.28 1364.83 1835.04 1364.34 1834.7 1363.94C1853.5 1369.31 1870.54 1367.24 1885.21 1358.2V1344.56C1868.41 1357.96 1847.46 1360.56 1824.1 1346.45ZM1826.22 1360.89C1826.94 1361.17 1827.66 1361.48 1828.38 1361.75C1827.52 1361.79 1826.68 1361.97 1825.88 1362.28C1825.97 1361.8 1826.14 1361.38 1826.25 1360.89H1826.22ZM1830.31 1414.97C1828.84 1414.74 1827.35 1414.65 1825.86 1414.69C1805.72 1415.69 1781.83 1425.01 1769.3 1441.69C1769.08 1441.94 1768.92 1442.24 1768.83 1442.56C1768.75 1442.88 1768.73 1443.22 1768.79 1443.54C1768.85 1443.87 1768.98 1444.18 1769.17 1444.45C1769.37 1444.72 1769.62 1444.94 1769.9 1445.09C1763.32 1448.16 1757.85 1452.53 1754.16 1458.5C1737.13 1441.1 1719.07 1482.27 1709.65 1504.57C1717.22 1455.16 1733.27 1409.49 1753.22 1392.83C1755.67 1390.77 1757.48 1386.56 1756.48 1383.34C1756.48 1383.1 1756.48 1382.91 1756.48 1382.68C1776.14 1394.14 1802.19 1394.95 1816.43 1380.89C1816.35 1382.49 1816.42 1384.1 1816.63 1385.68C1816.96 1387.79 1817.48 1389.86 1818.2 1391.86C1818.3 1392.38 1818.43 1392.88 1818.61 1393.37H1818.52C1818.59 1393.59 1818.71 1393.74 1818.77 1393.96C1818.87 1394.5 1819.02 1395.03 1819.22 1395.53C1819.73 1396.53 1820.29 1397.61 1820.82 1398.63C1804.48 1400.75 1787.07 1409.92 1777.49 1418.29C1774.74 1420.68 1777.69 1425.49 1780.97 1423.73C1791.19 1418.19 1802.14 1414.15 1813.47 1411.73C1818.27 1410.63 1823.26 1410.6 1828.08 1411.65C1828.79 1412.82 1829.57 1413.88 1830.31 1414.95V1414.97Z" fill="#9541BA"/>
<path opacity="0.15" d="M38.1535 3741.09C25.9809 3733.44 13.4363 3726.44 0.568115 3720.09V3729.74C12.2339 3735.65 23.8801 3741.6 36.5359 3745.03C37.0191 3745.12 37.5203 3745.05 37.9548 3744.81C38.3894 3744.58 38.7307 3744.19 38.9209 3743.73C39.1111 3743.27 39.1386 3742.75 38.9988 3742.27C38.8589 3741.79 38.5603 3741.37 38.1535 3741.09Z" fill="#9541BA"/>
<path opacity="0.15" d="M49.2997 3514.1C50.1231 3514.38 50.8093 3514.65 51.5838 3514.94C33.9381 3532.23 19.0961 3553.13 0.538687 3569.05V3582.42C22.9977 3564.78 41.2218 3538.04 60.8772 3518.97C72.4057 3525.34 61.9163 3529.8 49.5055 3546.03C34.6047 3565.5 19.4196 3583.72 0.538687 3599.08V3614.08C32.9578 3593.49 57.0344 3555.97 81.8462 3525.38C84.4636 3522.19 84.2872 3517.59 80.5816 3515.27C76.6603 3512.84 72.5332 3510.77 68.4354 3508.65C67.9689 3507.51 67.1226 3506.57 66.0462 3506.01C64.9698 3505.45 63.7326 3505.29 62.5535 3505.57C58.9166 3503.87 55.1521 3502.41 51.3583 3500.93C51.4662 3500.87 51.5838 3500.93 51.672 3500.84C69.7197 3486.64 78.3857 3465.55 87.4732 3444.75C99.4233 3417.38 113.942 3395.65 130.686 3371.28C130.952 3370.93 131.096 3370.5 131.096 3370.06C131.096 3369.61 130.952 3369.18 130.686 3368.83C166.84 3346.21 231.756 3311.69 183.917 3374.31C180.417 3378.9 184.799 3386.5 190.455 3382.95C235.374 3354.33 230.207 3358.82 222.228 3379.31C220.737 3383.1 224.463 3387.09 228.041 3387.09C228.727 3387.09 229.364 3387.09 230.001 3387.09C153.292 3459.29 138.038 3582.03 45.9764 3638.81C30.8599 3640.77 15.7303 3642.58 0.587703 3644.24V3654.56C22.109 3654.98 43.6353 3654.05 65.0435 3651.76C82.6893 3662.54 96.9921 3677.42 112.344 3691.33C119.147 3697.5 127.48 3704.68 136.548 3709.74C130.166 3709.34 123.598 3709.68 117.775 3709.74C110.295 3709.74 110.481 3720.91 117.775 3721.44L171.094 3737.55C172.29 3738.22 173.667 3738.47 175.017 3738.28C176.367 3738.08 177.619 3737.44 178.583 3736.46C179.548 3735.47 180.173 3734.2 180.366 3732.82C180.559 3731.44 180.308 3730.04 179.652 3728.82L203.464 3745.58C208.454 3748.52 215.228 3742.41 211.709 3737.17C201.043 3721.4 267.381 3737.97 268.381 3738.29C285.85 3743.76 303.3 3748.17 321.034 3752.68C325.759 3753.89 331.435 3755.42 337.444 3756.96C337.37 3757.53 337.487 3758.12 337.778 3758.62C362.452 3791.77 384.96 3825.35 403.89 3862.07C401.929 3860.75 400.165 3859.27 398.145 3858.07C391.587 3853.53 383.98 3850.07 376.157 3847.07C376.72 3846.45 377.086 3845.67 377.208 3844.83C377.331 3843.99 377.203 3843.14 376.843 3842.37C340.277 3772.7 188.671 3775.38 135.087 3818.32C133.127 3819.84 135.754 3823.23 137.685 3821.75C192.465 3779.49 319.553 3790.76 366.599 3843.63C360.344 3841.51 354.07 3839.55 348.198 3837.63C341.189 3835.33 336.758 3844.63 341.336 3849.63C347.307 3856.39 353.852 3862.59 360.893 3868.17C372.185 3874.81 381.713 3884.16 388.646 3895.42C374.092 3884.59 360.346 3872.66 347.522 3859.75C342.689 3855.15 336.435 3860.92 338.875 3866.57C349.894 3892.18 366.217 3913.85 380.284 3937.85C390.33 3959.86 394.905 3984.06 393.607 4008.31C393.675 4013.04 390.166 4036.63 389.901 4051.66C358.639 3977.97 280.89 3928.9 213.64 3890.82C184.289 3861.71 150.145 3838.82 107.55 3828.42C106.965 3828.3 106.355 3828.4 105.843 3828.72C105.332 3829.03 104.958 3829.54 104.799 3830.12C104.64 3830.71 104.707 3831.34 104.987 3831.88C105.267 3832.42 105.739 3832.83 106.305 3833.02C118.106 3836.97 129.58 3841.87 140.616 3847.67C140.022 3848.03 139.586 3848.61 139.403 3849.28C139.22 3849.96 139.304 3850.69 139.636 3851.3C174.163 3917.36 209.856 4048.6 297.251 4060.66C299.8 4061.01 301.418 4057.87 299.045 4056.32C256.833 4028.51 227.815 4002.64 201.249 3957.92C180.525 3923.09 164.359 3885.54 144.939 3849.92C223.914 3893.23 265.685 3975.33 318.269 4049.66C321.553 4054.28 329.112 4049.98 325.896 4045.12C316.211 4030.52 306.564 4015.37 296.741 4000.18C333.17 4031.93 367.138 4064.9 380.284 4114.24C381.46 4118.59 387.421 4117.44 387.715 4113.24C391.411 4056.85 324.455 4013.09 284.037 3980.7C266.705 3954.38 248.343 3928.6 227.747 3905.7C300.378 3949.49 385.048 4010.59 391.832 4099.58C392.391 4106.89 403.743 4106.72 402.92 4099.58C401.889 4091.38 400.267 4083.27 398.067 4075.31C398.351 4075.25 398.645 4075.19 398.91 4075.12C401.528 4074.62 403.125 4071.9 403.214 4069.4C404.87 4021.51 410.988 3976.12 390.773 3931.68C381.862 3912.12 366.207 3894.85 355.208 3876.38C362.903 3889.27 380.245 3904.43 396.577 3916.45C400.684 3919.45 407.36 3915.45 406.998 3910.34C405.312 3889.7 394.028 3877.18 380.637 3865.57C393.921 3871.92 406.253 3880.16 417.262 3890.05C418.323 3891.07 419.705 3891.67 421.161 3891.74C422.617 3891.82 424.051 3891.36 425.206 3890.46C426.362 3889.55 427.164 3888.25 427.468 3886.8C427.773 3885.35 427.56 3883.83 426.869 3882.52C405.165 3837.52 378.706 3797.76 347.63 3759.39C371.795 3764.8 400.126 3767.9 415.674 3752.07C417.056 3750.63 418.337 3749.09 419.507 3747.47C422.585 3749.47 425.183 3751.04 426.271 3751.66C433.741 3756.06 440.387 3744.41 433.006 3739.91C430.682 3738.48 428.378 3737.04 426.045 3735.62C426.418 3734.88 426.888 3734.17 427.31 3733.49C429.878 3733.49 432.457 3733.49 435.025 3733.49C439.613 3733.49 439.927 3727.49 436.554 3725.84C438.31 3725.17 440.121 3724.67 441.966 3724.33C460.347 3721.08 469.414 3719.44 486.001 3710.39C518.636 3692.53 442.583 3641.06 522.273 3652.39C527.126 3653.09 530.675 3648.93 528.459 3644.17C513.646 3612.17 537.037 3584.03 531.89 3552.18C531.38 3549.03 527.655 3547.42 524.93 3548.18C491.923 3556.85 542.448 3506.65 552.026 3492.3C559.774 3481.04 565.158 3468.26 567.838 3454.78C575.298 3447.99 583.266 3441.8 591.67 3436.28C596.15 3433.41 596.189 3424.71 590.052 3423.69C554.526 3417.87 533.782 3435.77 549.036 3396.5C550.918 3391.63 545.311 3386.56 540.782 3388.05C524.93 3393.31 460.239 3408.34 412.919 3410.92C413.762 3410.26 414.478 3409.5 415.321 3408.87C419.085 3406.06 415.448 3399.59 411.635 3402.43C407.821 3405.27 404.723 3408.37 401.214 3411.29C372.108 3411.48 353.11 3405.37 363.55 3386.42C364.289 3385.13 364.587 3383.62 364.397 3382.13C364.207 3380.65 363.54 3379.27 362.501 3378.21C344.15 3361.13 238.677 3370 241.099 3364.79C242.844 3360.94 240.805 3355.57 236.021 3355.79C192.181 3357.79 200.612 3378.18 221.365 3331.36C223.051 3327.58 220.316 3322.87 215.905 3324.11C128.156 3348.78 46.8293 3404.32 3.17574 3487.16L0.509277 3486.66V3499.5C18.2138 3503.87 34.8008 3508.97 49.2997 3514.1ZM217.983 3712.21C208.229 3711.52 198.376 3710 192.73 3719.79C191.526 3721.67 190.848 3723.85 190.769 3726.09C187.975 3723.68 182.456 3720.18 171.928 3715.56C166.251 3713.06 160.507 3718.19 163.428 3724.24C161.79 3720.89 159.361 3718.02 156.36 3715.87C158.084 3715.96 159.811 3715.91 161.526 3715.71C164.271 3715.28 164.095 3711.48 162.213 3710.19C153.654 3704.27 143.39 3701.8 134.411 3696.27C124.539 3690.19 115.981 3681.88 107.491 3674.04C97.845 3665.16 88.0712 3656.26 76.6799 3650.47C78.4935 3650.27 80.2679 3649.98 82.0619 3649.76C127.578 3661.67 177.153 3665.76 227.149 3662.61C226.989 3662.76 226.872 3662.94 226.809 3663.15C226.746 3663.36 226.741 3663.59 226.794 3663.8C226.846 3664.01 226.954 3664.2 227.107 3664.36C227.259 3664.51 227.45 3664.62 227.659 3664.67C266.303 3675.19 296.722 3703.29 333.533 3718.55C355.766 3727.77 379.961 3731.44 404.116 3732.76C405.072 3734.51 406.244 3736.14 407.605 3737.59C377.167 3775.55 255.254 3714.86 217.983 3712.21ZM510.225 3611.55C501.657 3639.46 518.842 3640.23 471.669 3632.55C466.768 3631.75 462.905 3635.35 463.827 3640.55C468.15 3663.62 487.305 3703.44 449.838 3709.45C435.299 3711.79 421.526 3713.09 408.488 3720.38C406.9 3721.23 405.499 3722.4 404.37 3723.82C372.667 3721.67 342.375 3716.38 312.515 3701.49C284.487 3687.49 260.185 3669.88 229.482 3662.6C327.367 3656.03 426.183 3621.6 498.304 3564.71C498.726 3564.79 499.059 3565.06 499.5 3565C531.253 3560.63 516.254 3591.86 510.225 3611.55ZM494.697 3556.31C494.382 3556.91 494.208 3557.57 494.187 3558.24C371.01 3630.71 248 3661.31 110.344 3645.54C182.172 3633.54 253.47 3612.16 323.828 3598.54C378.97 3587.88 428.163 3569.97 476.081 3540.49C505.922 3522.09 528.224 3493.74 553.3 3468.49C538.36 3500.11 513.107 3527.65 494.697 3556.31ZM476.894 3419.81C485.188 3418.52 545.742 3391.75 516.293 3425.44C511.549 3430.84 516.293 3438 522.832 3436.91C551.33 3432.24 562.349 3433.23 563.878 3437.46C563.878 3437.55 563.741 3437.57 563.721 3437.66C563.388 3439.48 562.741 3441.2 562.28 3442.99C555.075 3453.22 528.871 3470.09 515.921 3483.76C467.826 3534.48 413.507 3562.36 346.796 3579.84C298.761 3592.45 250.059 3603.6 201.082 3613.34C244.765 3598.09 285.762 3572.94 323.024 3546.81C364.374 3517.81 416.35 3477.15 432.486 3425.62C446.789 3424.94 463.709 3421.87 476.894 3419.81ZM424.222 3425.81C397.832 3488.67 327.729 3546.74 255.607 3583.96C309.966 3537.52 344.14 3472.11 397.018 3424.42C405.704 3425.21 414.703 3425.71 424.222 3425.79V3425.81ZM332.16 3397.03C327.043 3400.41 328.416 3407.32 333.758 3409.44C350.939 3416.23 368.868 3420.85 387.146 3423.21C332.494 3475.21 297.732 3546.45 237.56 3592.8C204.768 3608.08 172.28 3618.91 144.194 3623.4C143.992 3623.43 143.8 3623.51 143.63 3623.62C143.46 3623.74 143.318 3623.89 143.214 3624.07C115.87 3628.81 88.4731 3633.04 61.0243 3636.76C98.737 3612.61 123.255 3575.47 145.224 3535.52C145.375 3535.88 145.61 3536.2 145.91 3536.45C146.21 3536.7 146.566 3536.88 146.946 3536.96C147.326 3537.04 147.72 3537.02 148.093 3536.91C148.465 3536.8 148.806 3536.6 149.086 3536.33C197.729 3490.24 261.274 3445.7 292.82 3384.44C317.24 3383.77 350.012 3385.25 332.16 3397.01V3397.03ZM243.236 3387.09C256.098 3387.09 268.93 3386.78 281.743 3385.91C261.019 3386.83 270.302 3385.36 286.713 3384.66C266.028 3408.79 247.598 3434.38 225.12 3457.21C200.239 3482.47 173.486 3505.8 147.988 3530.42C175.682 3479.18 200.219 3424.44 243.236 3387.07V3387.09ZM105.795 3385.67C80.9443 3416.62 74.8467 3468.61 48.9369 3497.28C48.656 3497.63 48.4842 3498.05 48.444 3498.5C48.4038 3498.95 48.497 3499.4 48.7115 3499.8C35.4603 3494.81 21.8524 3490.88 8.0087 3488.03C34.8498 3446.09 66.2395 3414.53 105.795 3385.67Z" fill="#9541BA"/>
<path opacity="0.15" d="M183.456 3777.09C186.338 3774.79 185.083 3769.99 182.329 3768.29C133.029 3737.8 65.426 3676.49 0.538818 3666.58V3682.2C19.0472 3683.89 37.9183 3689.73 58.9657 3700.33C96.5511 3719.26 129.647 3747.46 164.752 3770.6C179.692 3780.46 104.884 3803.14 117.883 3799.01C85.2186 3809.36 49.6135 3805.16 17.1552 3797.32C11.4561 3795.93 5.89407 3794 0.538818 3791.57V3802.68C10.3575 3807.3 20.5907 3810.93 31.0953 3813.53C85.3068 3826.92 140.469 3811.41 183.456 3777.09Z" fill="#9541BA"/>
<path opacity="0.15" d="M21.3215 3365.03C18.3806 3366.03 12.0967 3391.33 9.5577 3396.16C7.06129 3400.79 4.03726 3405.1 0.548584 3409V3426C17.5277 3408.73 28.9778 3387 31.2423 3359C31.5266 3355.39 27.919 3353.76 25.0075 3354.15C22.841 3354.47 20.7137 3355.1 18.5864 3355.54C95.3158 3319.96 178.035 3274.46 211.827 3196.03C213.375 3192.4 208.297 3189.16 206.484 3192.85C166.742 3273.5 79.915 3316.95 0.548584 3353.61V3373.78C7.26026 3370.37 14.2022 3367.44 21.3215 3365.03Z" fill="#9541BA"/>
<path opacity="0.15" d="M16.2925 3208.29C10.8812 3213.6 5.70509 3218.73 0.538818 3223.66V3248.11C12.881 3237.99 23.0175 3226.25 28.2426 3213.19C29.8601 3215.25 29.6542 3217.9 27.1544 3221.19C19.2006 3231.47 10.287 3240.95 0.538818 3249.48V3268.08C21.4 3251.08 39.0947 3231.56 51.2996 3211.81C54.0053 3207.47 51.1232 3202.81 47.0157 3201.11C32.1318 3195.13 16.4764 3191.39 0.538818 3190V3206.88C5.81565 3206.98 11.0795 3207.45 16.2925 3208.29Z" fill="#9541BA"/>
<path opacity="0.15" d="M55.6228 4047.07C56.5137 4047.6 57.5238 4047.88 58.5525 4047.88C59.5812 4047.88 60.5924 4047.61 61.4853 4047.09C62.3781 4046.57 63.1213 4045.81 63.6408 4044.91C64.1603 4044 64.4378 4042.97 64.4457 4041.93C64.0438 3992.59 77.8172 4006.65 104.482 4030.71C108.874 4034.66 114.638 4032.71 116.677 4027.45C129.225 3994.71 143.146 4022.88 161.772 4041.55C178.437 4058.19 194.632 4069.22 216.209 4078.54C220.042 4080.16 226.208 4079.35 226.992 4074.07C227.678 4069.45 275.586 4088.83 282.458 4090.58C283.592 4090.88 284.778 4090.92 285.926 4090.68C287.074 4090.45 288.155 4089.95 289.087 4089.23C290.019 4088.5 290.779 4087.57 291.308 4086.51C291.838 4085.44 292.124 4084.27 292.144 4083.07C292.144 4079.87 343.12 4099.67 353.188 4100.96C355.806 4101.29 359.168 4098.7 359.501 4096.04C359.678 4094.98 359.835 4093.92 359.992 4092.88C360.903 4086.15 353.433 4082.77 349.375 4088.31C352.718 4083.68 293.497 4062.5 284.497 4061.52C280.331 4061.05 276.802 4065.42 276.831 4069.34C258.408 4066.07 241.068 4058.18 226.365 4046.4C222.708 4044.06 216.189 4046.09 215.522 4050.9C213.993 4062.17 132.999 3995.25 121.343 3986.36C116.53 3982.7 111.295 3987.87 110.717 3992.56C106.795 4024.77 77.0428 3986.04 67.3082 3978.56C66.4547 3977.95 65.4515 3977.6 64.412 3977.54C63.3726 3977.48 62.3383 3977.73 61.4263 3978.24C39.9182 3954.06 24.2233 3935.36 14.3123 3901.8C11.3656 3891.24 9.23827 3880.47 7.95001 3869.57C26.2427 3906.11 47.4764 3942.63 77.8368 3970.18C80.4053 3972.53 85.1108 3969.4 82.8855 3966.18C58.4952 3931.42 29.1249 3900.57 9.4597 3862.42C9.23012 3861.97 8.83766 3861.62 8.36336 3861.45C7.88905 3861.28 7.36911 3861.3 6.91088 3861.51C4.97965 3844.73 3.84249 3827.85 1.37209 3810.97C1.34848 3810.7 1.26011 3810.45 1.11479 3810.22C0.969463 3809.99 0.771652 3809.81 0.538818 3809.67V3886.02C8.07746 3928.16 25.5761 3970.64 57.2404 3984.02C51.6329 4005.1 52.7603 3998.21 52.0741 4022.14C51.8094 4031.49 9.28325 3981.79 3.8719 3972.82C2.7478 3970.94 1.63677 3969.05 0.538818 3967.15V3989.33C14.626 4012.91 32.1638 4033.45 55.6228 4047.07Z" fill="#9541BA"/>
<path opacity="0.15" d="M88.6595 3225.4C91.5416 3227.17 96.5021 3224.5 94.9728 3220.68C94.5512 3219.68 94.3061 3218.61 93.8846 3217.58C154.792 3128.58 191.593 3025.74 167.301 2913.59C206.454 2986.29 217.846 3067.27 208.65 3150.58C208.023 3156.24 215.277 3157.89 218.689 3154.82C243.746 3132.29 228.492 3166.36 247.539 3178C315.691 3219.55 236.511 3281.4 204.837 3318.92C203.121 3320.92 205.229 3324.09 207.65 3322.68C248.755 3298.38 283.056 3260.69 292.938 3212.57C300.78 3174.31 246.814 3168.05 244.736 3128.64C244.706 3127.44 244.334 3126.27 243.666 3125.28C242.997 3124.29 242.061 3123.52 240.971 3123.06C239.881 3122.6 238.683 3122.48 237.524 3122.7C236.365 3122.92 235.295 3123.48 234.442 3124.31C213.209 3143.7 222.228 3122.55 222.875 3100.59C223.63 3074.75 219.855 3049.27 216.111 3023.85C208.533 2972.75 186.25 2927.78 157.84 2885.78C155.743 2882.69 150.772 2885.56 152.86 2888.78C153.841 2890.28 154.547 2891.78 155.498 2893.33C154.3 2893.84 153.33 2894.79 152.776 2895.99C152.222 2897.19 152.123 2898.55 152.498 2899.82C172.104 2975.06 156.625 3056.42 134.852 3129.5C125.745 3160.23 110.344 3187.28 92.0416 3212.5C67.2592 3146.32 67.965 3077.38 73.2881 3007.85C73.8076 3007.77 74.3193 3007.64 74.8174 3007.47C84.92 3002.87 93.7872 2995.85 100.668 2987.02C84.8167 3041.02 70.2786 3102.28 77.6309 3158.81C77.9643 3161.25 81.8855 3162.44 82.3365 3159.44C90.9339 3101.44 92.9337 3044.28 107.276 2986.88C107.942 2984.18 105.541 2982.75 103.551 2983.13C107.277 2977.65 110.662 2971.94 113.687 2966.03C130.264 2934.37 120.667 2931.37 128.186 2971.13C129.166 2976.13 136.675 2977.07 138.842 2972.56C155.301 2938.42 147.89 2902.26 150.4 2865.35C150.665 2861.66 145.145 2861.06 144.234 2864.49C140.018 2880.21 139.332 2893.92 139.156 2910.39C139.209 2924.58 138.394 2938.75 136.715 2952.83C134.961 2942.11 132.223 2931.59 128.539 2921.39C128.177 2920.19 127.449 2919.15 126.461 2918.4C125.473 2917.66 124.277 2917.26 123.049 2917.26C121.821 2917.26 120.625 2917.66 119.637 2918.4C118.649 2919.15 117.921 2920.19 117.559 2921.39C115.148 2930.29 112.364 2939.08 109.207 2947.76C106.207 2968.51 94.7963 2980.35 74.9743 2983.27C74.2194 2977.37 67.9258 2975.62 64.3771 2980.34C52.2015 2996.62 40.2122 3012.89 28.968 3029.89C28.419 3024.4 27.772 3018.89 27.6446 3013.41C27.6446 3010.54 24.1645 3007.98 21.5666 3009.87C13.6679 3015.88 6.59548 3022.94 0.538818 3030.87V3045.11C9.97927 3028.05 19.7628 3018.86 18.1061 3051.81C17.7924 3057.39 25.8212 3059.5 28.37 3054.65C38.1732 3035.89 49.1429 3019.55 61.7596 3002.65C67.1318 2995.44 64.0634 2988.21 66.573 3003.99C66.6845 3004.38 66.8567 3004.74 67.0827 3005.08C54.9954 3075.86 59.2402 3154.47 85.9244 3220.74C59.8676 3254.85 28.7131 3285.74 0.538818 3317.87V3329.2C32.056 3297.32 62.3772 3262.62 88.6595 3225.4Z" fill="#9541BA"/>
<path opacity="0.15" d="M141.528 1488.16C144.391 1486.4 141.528 1482.68 138.862 1483.39C101.031 1493.47 70.8374 1501.93 31.4188 1496.39C21.0176 1494.94 10.7537 1492.97 0.538818 1490.86V1498.25C48.5547 1509.08 97.4628 1515.24 141.528 1488.16Z" fill="#9541BA"/>
<path opacity="0.15" d="M120.981 1146.77C69.661 1173.77 33.2912 1222.48 0.538818 1272.69V1299.88C7.15596 1295.81 13.9299 1291.88 20.9294 1288.18C103.727 1274.04 208.229 1289.06 265.254 1227.49C245.549 1258.86 219.042 1281.32 187.721 1296.19C128.607 1312.87 60.348 1288.02 0.538818 1301.09V1315.09C34.9283 1310.19 73.8567 1314.91 111.168 1317.19C72.5235 1321.79 36.3204 1320.06 0.538818 1323.77V1334.5C64.4163 1330.5 131.352 1340.41 188.387 1313.23C212.032 1307.23 232.119 1294.58 246.079 1270.4C293.781 1220.9 316.27 1152.62 327.896 1082.58C328.71 1077.71 322.671 1073.84 318.828 1077.16C241.677 1144.03 141.852 1101.5 64.2888 1155.04C40.8194 1171.4 19.4175 1190.64 0.568228 1212.34V1226.75C32.0952 1188.83 71.7589 1159.21 120.981 1146.77ZM280.292 1198.01C279.965 1198.1 279.661 1198.25 279.4 1198.47C214.346 1270.02 129.99 1261.76 47.3392 1275.1C74.4057 1262.75 103.717 1252.02 134.989 1241.68C199.445 1220.39 262.793 1190.68 300.555 1135.41C294.203 1157.49 285.38 1184.48 280.292 1198.01ZM306.025 1102.42C249.608 1191.14 163.83 1215.96 72.9254 1248.18C127.686 1192.9 178.535 1150.82 254.715 1124.29C272.761 1119.51 290.05 1112.15 306.064 1102.42H306.025ZM201.7 1134.02C146.469 1158.62 101.315 1205.82 61.8184 1252.12C46.1334 1257.78 30.3993 1263.73 14.6358 1270.37C11.7438 1271.58 8.95974 1272.99 6.13643 1274.31C23.4782 1250.31 40.8789 1226.25 60.2107 1203.89C87.2871 1172.58 120.196 1154.51 156.762 1139.78C172.016 1137.52 186.966 1135.89 201.739 1134.02H201.7Z" fill="#9541BA"/>
<path opacity="0.15" d="M258.313 1549.3C263.852 1544.8 258.774 1536.2 252.264 1538.49C205.278 1555.08 163.81 1527.36 119.657 1531.8C150.449 1513.08 176.182 1485.71 197.798 1455.08C206.112 1450.32 213.929 1444.7 221.13 1438.32C222.728 1436.88 221.335 1433.95 219.169 1434.87C215.431 1436.49 211.745 1438.11 208.111 1439.71C220.027 1421.09 230.922 1401.81 240.746 1381.95C241.903 1380.5 243.02 1378.95 244.167 1377.48C247.559 1376.14 251.029 1374.66 254.421 1372.99C257.813 1371.32 255.794 1366.06 252.215 1367.42C251.686 1367.62 251.157 1367.73 250.627 1367.92C250.6 1367.61 250.509 1367.31 250.361 1367.03C250.214 1366.76 250.012 1366.52 249.77 1366.34C249.527 1366.15 249.249 1366.01 248.953 1365.94C248.657 1365.87 248.349 1365.86 248.049 1365.92C247.941 1362.29 242.599 1359.69 240.275 1363.32C238.217 1366.54 236.197 1369.74 234.148 1372.96C156.782 1392.3 78.4641 1352.48 0.538687 1376.77V1390.09C24.3604 1382.16 51.2897 1378.32 82.3952 1379.09C134.872 1380.37 179.584 1395.65 227.904 1382.78C227.266 1383.78 226.668 1384.78 226.041 1385.78C168.585 1434.7 103.56 1455.19 30.2325 1464.43C27.2915 1463.89 24.429 1463.32 21.5469 1462.74C67.8571 1426.23 114.099 1401.26 174.065 1392.74C174.482 1392.64 174.852 1392.39 175.119 1392.05C175.386 1391.7 175.534 1391.28 175.541 1390.84C175.548 1390.4 175.413 1389.97 175.156 1389.62C174.9 1389.26 174.537 1389.01 174.123 1388.88C115.598 1379.87 57.9657 1424.4 14.7729 1461.95C14.4615 1462.1 14.1944 1462.33 13.9984 1462.62C12.3809 1464.01 10.8222 1465.37 9.2439 1466.77C6.36177 1467.05 3.46003 1467.32 0.538687 1467.58V1476.95C12.773 1475.46 25.1152 1474.2 37.4378 1472.95C78.3955 1482.83 126.333 1482.62 167.565 1468.68C133.783 1508.34 93.2179 1538.93 32.8009 1552.15C22.18 1554.31 11.2889 1554.73 0.538687 1553.39V1566.15C34.8498 1569.09 68.8472 1556.22 99.5507 1542.51C100.315 1542.14 101.08 1541.72 101.874 1541.34C142.067 1542.89 179.133 1555.86 218.983 1558.71C219.365 1558.71 219.796 1558.71 220.198 1558.71C145.89 1595.08 74.8663 1583.63 0.509277 1568.59V1582.82C61.9359 1597.11 125.931 1606.57 181.525 1589.71C173.516 1594.98 165.644 1600.09 158.193 1604.33C107.599 1633.11 52.1916 1638.59 0.509277 1622.91V1637.28C10.6389 1640.43 20.9613 1642.88 31.4089 1644.63C116.138 1658.65 196.288 1599.58 258.313 1549.3ZM126.696 1468.43C106.109 1472.06 85.7969 1471.78 65.5239 1469.65C80.663 1467.84 95.6963 1465.2 110.56 1461.75C145.312 1453.35 178.368 1438.08 206.307 1416.14C198.171 1428.36 189.926 1440.14 181.329 1451.41C164.056 1458.66 146.626 1464.95 126.696 1468.43Z" fill="#9541BA"/>
<path opacity="0.15" d="M28.7915 292.84C33.3892 301.119 37.6144 309.709 41.7219 318.459C49.8585 366.587 23.988 410.805 0.548584 451.973V460.693C21.047 427.514 49.7115 388.356 54.2307 348.497C58.7794 360.497 62.9458 372.776 66.5337 385.226C63.9163 382.566 58.3775 384.316 59.1617 388.716C68.0826 439.174 51.1722 473.712 24.9683 515.59C15.9102 530.06 7.3912 544.409 0.548584 559.439V577.768C24.7624 521.15 79.9543 469.572 72.4156 407.595C78.895 434.263 83.2617 461.419 85.4734 488.802C85.5617 490.201 85.5323 491.561 85.6107 492.951C85.0623 493.079 84.5481 493.328 84.1043 493.68C83.6605 494.033 83.2979 494.48 83.0423 494.991C50.0546 557.889 17.5669 626.656 7.76372 698.203C7.26376 695.033 6.64616 691.893 5.95013 688.813C4.29666 677.074 2.50922 665.321 0.587797 653.555V951.302C1.95371 947.629 3.32615 943.963 4.70513 940.303C69.7884 848.057 143.371 773.1 234.835 726.752C290.222 711.372 354.433 744.331 407.066 763.13C455.671 780.49 498.236 781.439 548.81 771.84C641.441 754.241 730.571 683.844 755.755 589.847C757.657 590.687 759.628 591.367 761.539 592.247C767.029 594.737 772.068 586.338 766.902 582.868C764.235 581.058 761.422 579.468 758.667 577.788C759.735 572.558 760.755 567.308 761.431 561.949C762.02 557.259 755.432 555.279 753.589 559.699C751.913 563.789 749.962 567.698 748.168 571.698C671.438 530.39 569.162 531.61 486.354 540.699C378.52 552.489 291.458 622.456 227.884 708.242C141.577 753.271 67.7885 825.328 16.7434 908.774C70.0237 773.26 135.901 642.385 216.865 524.38C300.565 469.572 406.674 463.593 476.806 383.996C551.693 298.999 587.455 191.744 643.921 94.6478C647.538 88.428 640.705 79.2184 634.373 84.8682C588.964 125.457 532.233 112.557 479.855 132.166C436.447 148.386 390.225 167.925 353.11 197.964C367.54 131.406 368.089 64.929 414.733 9.6313C419.634 3.82154 411.713 -2.36821 406.233 0.911658C309.652 57.9093 216.934 118.907 172.79 227.902C122.235 352.807 215.65 499.501 139.46 614.006C139.111 614.521 138.94 615.138 138.972 615.762C139.004 616.386 139.237 616.982 139.636 617.456C122.569 648.455 106.56 680.134 91.2573 711.902C61.8478 773.02 34.1637 834.807 8.20486 897.265C12.1936 874.3 14.533 851.07 15.2043 827.758C48.6135 725.862 94.9041 623.086 101.678 515.19C105.09 460.933 92.071 409.575 74.69 358.937C56.0639 304.679 8.13624 248.511 0.587797 192.564C0.592489 192.467 0.592489 192.37 0.587797 192.274V238.662C8.44994 257.281 18.8511 275 28.7915 292.84ZM413.468 747.651C366.648 732.801 317.201 710.172 270.253 710.652C278.194 707.426 286.285 704.426 294.526 701.653C357.404 704.143 411.007 738.011 473.326 752.581C492.991 757.18 513.676 758.12 534.429 756.581C496.648 763.21 456.082 761.18 413.468 747.651ZM620.374 724.042C549.124 743.171 491.393 751.761 414.84 724.352C378.686 711.412 348.757 698.633 315.583 694.923C332.169 690.169 348.993 686.323 365.981 683.404C438.231 712.222 549.301 736.551 634.177 714.742C629.618 717.982 625.079 721.152 620.374 724.042ZM672.919 682.254C581.945 724.782 478.237 708.872 381.176 681.024C389.293 679.874 397.371 678.714 405.684 677.934C514.833 667.704 640.294 679.174 729.855 607.797C714.222 635.098 695.072 660.14 672.919 682.254ZM739.012 582.988C646.029 650.685 542.674 646.935 437.829 654.475C507.98 615.946 577.769 585.828 653.136 557.889C682.444 563.6 711.186 572 739.012 582.988ZM631.451 553.989C632.03 554.079 632.588 554.209 633.186 554.289C559.114 572.768 487.06 614.426 422.781 655.625C405.272 657.075 387.744 658.985 370.226 661.694C447.181 595.777 526.636 551.719 631.451 553.989ZM487.766 553.579C502.069 551.469 516.48 550.249 530.9 549.429C464.719 569.378 400.518 618.376 355.237 664.224C342.022 666.644 328.769 669.554 315.632 673.224C292.443 679.7 269.805 688.08 247.941 698.283C316.034 624.856 382.245 569.198 487.766 553.609V553.579ZM481.11 357.857C414.291 442.633 311.24 453.203 228.835 507.241C244.893 484.502 261.411 462.133 278.665 440.454C320.818 412.675 376.863 402.965 419.624 377.546C454.68 356.717 491.129 333.888 516.44 301.749C505.628 322.158 494.138 341.368 481.11 357.887V357.857ZM537.223 260.081C536.908 259.831 536.547 259.65 536.161 259.547C535.775 259.444 535.373 259.423 534.979 259.483C534.584 259.544 534.206 259.686 533.868 259.901C533.529 260.115 533.236 260.398 533.008 260.731C488.893 320.868 434.074 365.287 366.03 394.805C339.738 406.235 312.946 414.805 289.075 427.874C296.957 418.204 304.8 408.445 312.976 398.995C313.172 398.775 313.054 398.515 313.201 398.265C324.416 387.552 335.621 376.796 346.816 365.997C409.321 322.208 493.325 299.999 545.33 243.002C542.634 248.681 539.948 254.401 537.223 260.111V260.081ZM567.427 197.214C567.427 197.214 567.339 197.214 567.309 197.294C520.842 273.17 441.623 299.639 370.854 342.998C409.753 305.999 449.338 269.901 492.129 238.002C520.558 216.833 552.908 195.684 581.396 171.105C576.606 179.564 571.949 188.277 567.427 197.244V197.214ZM614.296 117.007C571.044 171.215 508.853 208.193 454.641 250.001C453.602 250.801 452.602 251.671 451.543 252.491C469.503 228.262 488.531 204.943 509.941 183.584C532.861 160.695 559.378 143.586 586.219 126.726C595.897 124.538 605.311 121.279 614.296 117.007ZM520.47 137.846C525.371 136.926 530.273 135.926 535.174 135.186C541.968 134.186 549.624 133.186 557.624 131.986C507.539 166.535 467.866 215.213 433.868 266.761C373.157 317.129 318.191 377.756 264.391 435.354C282.037 403.135 295.222 368.466 310.152 333.288C352.58 233.292 431.035 191.674 519.734 142.406C520.137 142.211 520.487 141.92 520.755 141.557C521.023 141.194 521.201 140.771 521.273 140.322C521.346 139.874 521.31 139.415 521.17 138.983C521.03 138.552 520.79 138.162 520.47 137.846ZM357.737 212.263C399.312 174.944 455.063 151.705 509.686 139.936C437.613 164.515 375.187 211.313 329.837 273.46C280.292 341.388 273.43 429.894 215.032 493.411C214.774 493.666 214.573 493.975 214.442 494.316C214.311 494.657 214.253 495.023 214.272 495.389C214.292 495.755 214.388 496.112 214.555 496.437C214.721 496.762 214.954 497.046 215.238 497.271C211.552 502.304 207.928 507.381 204.366 512.501C215.591 402.115 277.949 283.91 357.737 212.263ZM336.229 213.073C334.268 215.013 332.17 216.803 330.278 218.823C285.85 266.591 247.677 327.168 222.845 391.996C225.463 374.376 227.865 356.557 230.688 338.578C246.5 237.242 301.467 144.216 364.815 64.929C348.002 111.537 347.355 167.585 336.248 213.073H336.229ZM390.548 19.0109C388.205 21.7308 386.068 24.5907 383.98 27.5006C382.808 27.6205 381.705 28.1218 380.833 28.9305C384.267 25.8295 387.511 22.5167 390.548 19.0109ZM201.612 197.564C221.473 152.005 258.833 116.907 296.163 86.4381C321.651 65.669 355.57 51.6296 380.167 29.4405C315.23 99.0076 266.567 183.294 233.472 273C203.376 354.627 216.287 446.433 180.015 525.99C182.574 505.291 182.574 483.662 181.094 460.543C175.084 366.737 162.389 287.56 201.612 197.564ZM177.29 543.249C177.555 543.069 177.888 543.039 178.064 542.729C184.398 531.508 189.95 519.846 194.681 507.831C193.975 514.83 193.495 521.83 193.201 528.78C186.279 539.099 179.532 549.552 172.957 560.139C174.633 554.569 176.133 548.989 177.29 543.249ZM15.1455 789.119C14.4593 767.18 12.6849 745.121 10.2439 723.052C20.2432 645.385 60.3479 581.038 86.1891 508.671C86.8263 606.807 37.7908 695.403 15.1455 789.119Z" fill="#9541BA"/>
<path opacity="0.15" d="M128.196 1383.13C85.1598 1376.41 41.5847 1392.41 0.538818 1416.74V1434.68C38.5163 1411.43 78.7191 1392.93 128.127 1387.45C128.63 1387.38 129.089 1387.12 129.424 1386.73C129.759 1386.34 129.947 1385.84 129.956 1385.32C129.964 1384.81 129.791 1384.3 129.469 1383.9C129.147 1383.5 128.696 1383.23 128.196 1383.13Z" fill="#9541BA"/>
<path opacity="0.15" d="M98.2567 1032.97C110.109 1034.44 122.167 1033.36 130.548 1030.67C130.637 1032.28 130.686 1033.91 130.656 1035.53C103.207 1055.53 87.2183 1090.93 83.1402 1124.4C82.552 1129.27 88.0418 1132.81 91.9631 1129.71C117.981 1109.23 138.587 1077.21 137.646 1043.51C138.469 1042.95 139.312 1042.51 140.155 1041.93C145.704 1068.4 159.615 1089.93 188.475 1093.34C191.671 1093.73 195.524 1090.82 194.73 1087.16C190.808 1069.49 184.799 1054.84 174.486 1041.74C193.583 1044.42 211.973 1050.68 231.619 1048.24C232.656 1048.1 233.639 1047.68 234.472 1047.03C235.304 1046.39 235.957 1045.53 236.368 1044.55C236.778 1043.57 236.931 1042.49 236.812 1041.43C236.692 1040.37 236.305 1039.36 235.687 1038.5C220.669 1016.7 190.72 1009.07 163.536 1010.79C163.849 1003.32 163.359 995.847 162.075 988.491C182.299 972.262 201.092 954.282 216.973 932.783C217.388 932.172 217.552 931.419 217.43 930.687C217.307 929.954 216.907 929.299 216.316 928.864C217.136 928.797 217.933 928.56 218.659 928.166C219.384 927.772 220.023 927.229 220.534 926.573C221.045 925.916 221.419 925.159 221.631 924.349C221.843 923.539 221.889 922.693 221.767 921.864C221.679 920.694 221.541 919.444 221.434 918.224L225.472 918.604C225.414 918.974 225.374 919.334 225.306 919.694C225.188 920.611 225.303 921.544 225.639 922.404C225.496 922.53 225.361 922.667 225.237 922.814C212.493 943.613 187.22 999.591 228.511 1007.41C253.019 1012.04 256.49 991.071 253.46 970.062C261.862 977.682 271.245 984.095 281.35 989.121C285.272 991.031 289.33 987.311 289.017 983.281C287.477 963.182 278.762 946.073 265.587 931.973C297.192 929.853 329.013 932.173 357.296 914.854C360.737 912.734 359.854 906.404 356.09 905.184C323.494 894.685 281.586 890.685 246.765 898.755C248.902 894.275 251.118 889.845 253.333 885.455C253.382 887.455 255.598 889.515 257.646 888.455C286.605 873.866 314.044 847.857 309.701 812.578C309.074 807.578 303.672 805.659 299.8 808.328C271.116 828.038 255.451 854.507 241.579 883.785C244.108 863.856 244.736 844.217 239.05 823.638C237.922 819.568 231.982 818.178 228.992 820.828C211.219 836.577 206.729 856.826 206.444 878.246C198.033 862.506 186.662 848.707 171.094 835.907C170.211 835.211 169.164 834.763 168.058 834.609C166.952 834.455 165.825 834.599 164.791 835.027C162.507 836.027 160.232 836.907 157.929 837.867C156.65 838.412 155.578 839.363 154.872 840.579C154.165 841.795 153.862 843.211 154.007 844.617C156.478 874.046 173.516 894.055 196.475 906.754C171.222 906.254 146.557 908.424 122.52 919.394C122.382 919.454 122.343 919.584 122.196 919.674C114.659 917.556 106.672 917.789 99.2664 920.344C69.1903 930.103 85.7674 968.502 106.589 997.751C82.7285 984.971 56.7795 976.432 58.2303 1000.64C59.0636 1014.14 67.6316 1022.77 78.9346 1027.83C52.0936 1045.52 25.5074 1063.4 0.509277 1083.11V1097.7C31.2912 1073.8 65.1318 1053.85 98.2567 1032.97ZM97.2176 1109.97C102.531 1088.05 113.128 1065.74 129.284 1050.48C125.215 1072.86 113.079 1093.89 97.2176 1109.97ZM297.516 825.978C294.438 851.157 270.743 865.686 254.578 883.055C265.636 861.566 278.429 841.807 297.516 825.978ZM232.717 925.304C233.898 924.798 234.855 923.865 235.403 922.684C237.364 918.624 239.256 914.584 241.157 910.544C273.714 913.634 305.358 906.094 337.836 912.134C311.142 922.544 280.772 918.764 252.608 922.024C247.706 922.604 246.343 928.824 249.922 931.863C263.185 943.193 272.547 956.772 276.312 973.272C262.509 964.122 249.235 950.613 243.187 935.703C239.481 928.793 228.805 932.703 231.786 940.403C232.938 943.314 234.304 946.132 235.874 948.833C243.304 965.772 253.264 997.321 230.198 996.101C200.327 994.511 225.953 938.283 232.305 927.104C232.613 926.54 232.756 925.898 232.717 925.254V925.304ZM229.56 839.847C233.678 862.416 230.541 885.015 227.159 907.654C224.767 906.784 222.502 905.824 220.208 904.875C217.934 882.275 216.306 858.166 229.56 839.797V839.847ZM136.362 1031.97C136.254 1031.35 136.175 1030.74 136.028 1030.11C136.518 1030.45 137.067 1030.93 137.499 1031.2H137.558L136.362 1031.97ZM181.584 1080.48C160.938 1074.19 152.36 1054.69 149.047 1032.82C148.889 1031.99 148.562 1031.21 148.087 1030.52C147.612 1029.83 147.001 1029.25 146.292 1028.82C146.764 1028.07 147.029 1027.2 147.061 1026.3C147.092 1025.41 146.887 1024.53 146.469 1023.74C148.233 1023.74 149.968 1023.83 151.782 1023.83C152.164 1026.91 152.458 1029.98 153.047 1033.03C153.167 1033.53 153.41 1033.99 153.753 1034.36C154.097 1034.73 154.528 1035.01 155.007 1035.17C155.061 1036.77 155.697 1038.29 156.791 1039.44C169.967 1051.35 176.917 1064.38 181.584 1080.49V1080.48ZM217.659 1036.59C198.269 1035.86 179.427 1029.14 159.821 1028.97C160.55 1027.28 161.179 1025.54 161.703 1023.77C181.76 1023.71 202.592 1024.15 217.659 1036.6V1036.59ZM175.398 872.826C160.242 843.394 162.781 840.574 183.015 864.366C191.495 873.206 197.229 884.075 201.464 895.565C191.556 889.573 182.738 881.88 175.398 872.826ZM175.29 916.484C185.936 915.664 196.857 916.234 207.738 917.124C208.238 919.224 208.719 921.344 209.16 923.444C209.371 924.661 209.914 925.793 210.728 926.709C211.541 927.625 212.591 928.289 213.758 928.624C213.552 928.724 213.346 928.624 213.15 928.853C196.132 944.853 177.76 959.372 158.899 973.212C157.233 966.772 155.38 960.662 153.625 955.322C151.393 948.392 148.137 941.851 143.969 935.923C164.556 940.543 186.701 937.863 206.768 930.853C211.856 929.073 208.729 921.294 203.66 922.994C181.005 930.633 156.919 931.513 134.058 923.814C142.067 926.504 164.281 917.344 175.29 916.484ZM100.707 934.713C122.186 913.794 140.195 955.212 144.469 969.712C148.596 983.711 149.253 998.091 150.449 1012.43C146.007 1013.21 141.622 1014.3 137.322 1015.68C117.824 997.471 83.5911 951.373 100.707 934.713ZM67.563 1004.1C61.9359 992.021 79.4836 996.981 84.4832 998.661C100.168 1003.89 114.353 1013.74 127.764 1023.84C106.776 1030.35 78.121 1026.77 67.563 1004.1Z" fill="#9541BA"/>
<path opacity="0.15" d="M38.6143 971.392C35.0753 974.522 39.1437 980.021 43.0257 977.291C44.0857 976.575 45.2041 975.953 46.3686 975.432C48.3292 975.812 50.2899 975.972 52.0838 976.362C52.793 976.454 53.5095 976.261 54.0821 975.825C54.6547 975.388 55.0384 974.742 55.1522 974.022C55.3 973.431 55.3 972.812 55.1522 972.222C56.1861 971.864 57.2006 971.45 58.1912 970.982C63.2889 968.472 65.3475 963.432 66.72 958.192C67.2494 956.192 65.7397 953.722 63.8673 953.042C56.7208 950.303 49.0253 949.803 41.4768 949.123C40.1958 948.96 38.9026 949.308 37.867 950.094C36.8314 950.88 36.1334 952.044 35.9184 953.342C34.3891 959.932 34.7813 966.112 39.0456 971.092C38.8986 971.202 38.7417 971.292 38.6143 971.392ZM44.8001 959.392C48.2921 959.662 51.7632 960.163 55.1915 960.892C53.2941 963.029 50.9757 964.733 48.3881 965.892C47.7315 965.547 47.0993 965.156 46.496 964.722C44.8785 963.462 44.6236 961.442 44.8001 959.372V959.392Z" fill="#9541BA"/>
<path opacity="0.15" d="M50.6133 1143.27C51.0426 1143.32 51.4772 1143.26 51.8756 1143.09C52.2741 1142.92 52.6231 1142.65 52.8895 1142.3C53.1559 1141.95 53.3307 1141.54 53.3973 1141.11C53.4639 1140.67 53.4201 1140.23 53.27 1139.81C52.025 1135.89 47.6332 1134.97 44.0158 1134.55C44.683 1134.33 45.2668 1133.9 45.6903 1133.33C46.1138 1132.75 46.3572 1132.06 46.3882 1131.35C46.3882 1133.24 47.4861 1131.95 49.1527 1131.15C50.5379 1130.49 51.8224 1129.63 52.9661 1128.6C54.1175 1127.52 54.9646 1126.15 55.4182 1124.63C55.8719 1123.11 55.9154 1121.49 55.5443 1119.95C55.2012 1118.04 53.7307 1115.83 51.574 1115.78C47.2901 1115.68 42.9865 1116.14 38.7025 1116.4C32.5755 1116.75 29.7424 1130.4 29.6836 1135.49C29.5463 1146.46 44.3099 1143.09 50.6133 1143.27ZM42.2218 1125.97C42.81 1125.97 43.4178 1125.89 44.0256 1125.87C41.9964 1127.76 39.7122 1130.03 40.6141 1132.86C40.8056 1133.47 41.2151 1133.99 41.7611 1134.3C40.3592 1134.14 38.8201 1134 39.0652 1134.22C38.5064 1133.61 40.6533 1129.07 42.2218 1125.97Z" fill="#9541BA"/>
</svg>
