<svg width="75" height="40" viewBox="0 0 75 40" fill="none" xmlns="http://www.w3.org/2000/svg">
<g clip-path="url(#clip0_1365_11)">
<path d="M4.52542 32.864C3.7961 34.6944 2.99114 36.1158 2.33024 36.8779C1.66935 37.6399 1.45685 38.1498 0 38.1498V39.1785H10.9741V37.9931H10.1547C8.78613 37.9931 8.18826 37.6886 7.53997 37.2256C6.89168 36.7626 6.44148 35.7447 6.44148 34.8025C6.44148 34.5196 6.67378 33.8044 6.82505 33.1811C6.97219 32.5617 7.15254 31.9507 7.36529 31.3507L8.88697 27.0972H6.77463L4.52542 32.864Z" fill="#8243B4"/>
<path d="M36.5561 37.8021C35.4198 37.8021 34.9966 37.7643 34.5518 37.4184C34.107 37.0725 33.601 35.905 33.158 34.8025L30.1272 27.0972H24.2584L27.1919 34.1575C27.372 34.6205 27.5305 35.0583 27.6097 35.361C27.7013 35.733 27.7615 36.1121 27.7898 36.4942C27.7898 37.0346 27.2747 37.4832 26.8498 37.6976C26.4248 37.912 25.5892 37.9931 24.4619 37.9931L23.3994 37.9588V39.2199H37.2872V37.8075L36.5561 37.8021Z" fill="#8243B4"/>
<path d="M16.0325 8.60965L19.3009 15.6952H25.6433L19.472 0H17.3398L11.2207 15.6952H13.2898L16.0325 8.60965Z" fill="#8243B4"/>
<path d="M44.9572 30.0428C44.6727 31.3039 43.8263 34.3233 43.5616 34.9592C43.034 36.2329 42.6234 36.568 42.2002 36.9409C41.75 37.3427 41.0171 37.5355 40.1995 37.204C39.2865 36.8437 38.7877 36.5752 37.5847 35.3376L36.3872 36.6689C36.6148 36.9456 36.8734 37.1953 37.158 37.413C37.3795 37.5787 38.2745 38.2525 38.532 38.4362C39.1875 38.9028 40.5471 39.6271 41.4799 39.818C42.6774 40.0648 44.7213 40.0703 45.7928 39.7135C46.9957 39.3136 48.024 37.6688 48.6507 36.087C49.6267 33.6297 50.3596 29.8122 51.0728 27.0918H45.7226L44.9572 30.0428Z" fill="#8243B4"/>
<path d="M48.0058 10.6886C48.0058 8.00611 48.6433 5.68391 49.9867 4.50208C51.3301 3.32026 53.3794 2.72395 56.4696 2.72395H59.5724C60.6529 2.72395 61.2634 2.86267 61.6469 3.18334C62.0305 3.50402 62.2556 4.58856 62.2556 5.54879V15.6952H68.1461V5.86226C68.1461 4.93806 68.4972 4.00485 68.843 3.5959C68.9603 3.46468 69.0913 3.34631 69.2337 3.24279C70.0024 2.66996 70.9369 2.3638 71.8953 2.37084H73.0316V0.771057L53.8621 0.805287C49.9885 0.805287 47.2549 2.02674 44.9733 3.45538C42.6917 4.88401 41.5229 7.27648 41.5229 10.368C41.5229 12.4722 42.0974 14.2629 43.3238 15.6952H49.668C48.6433 14.5043 48.0058 12.8325 48.0058 10.6886Z" fill="#8243B4"/>
<path d="M71.8703 37.7444C70.7322 37.7444 69.0988 37.4436 68.7099 37.0688C68.1516 36.5284 68.1516 35.5015 68.1516 34.489V27.1026H62.1081L62.1333 34.6349C62.1333 35.6474 62.1747 36.5392 61.7858 36.9121C61.3968 37.285 61.2455 37.6327 60.1128 37.6327L56.4878 37.7949V39.2127L74.1465 39.2595V37.8651L71.8703 37.7444Z" fill="#8243B4"/>
<path d="M1.90723 23.0473L3.24162 19.0965H3.73504L5.07304 23.0419H4.63725L4.3077 21.9502H2.66537L2.32861 23.0419L1.90723 23.0473ZM2.72839 21.761H4.25368L3.48653 19.419L2.72839 21.761Z" fill="#8243B4"/>
<path d="M5.896 23.0473V19.0965H6.32639V20.8729H8.54678V19.0965H8.96997V23.0419H8.54678V21.0782H6.32639V23.0419L5.896 23.0473Z" fill="#8243B4"/>
<path d="M9.80518 23.0473L11.136 19.0965H11.6276L12.9656 23.0473H12.5352L12.2074 21.9556H10.5651L10.2284 23.0473H9.80518ZM10.6245 21.761H12.1498L11.3845 19.419L10.6245 21.761Z" fill="#8243B4"/>
<path d="M15.2095 23.0996C14.8823 23.1164 14.5553 23.0617 14.2514 22.9393C14.053 22.8541 13.891 22.7016 13.794 22.5087C13.7098 22.3213 13.6674 22.1178 13.6698 21.9124V20.2369C13.6651 20.0268 13.7107 19.8186 13.803 19.6298C13.9054 19.44 14.0711 19.2921 14.2712 19.2118C14.5698 19.0956 14.8894 19.0428 15.2095 19.0569C15.5056 19.0448 15.8011 19.0913 16.0792 19.1938C16.2676 19.2679 16.4247 19.4047 16.524 19.5811C16.6175 19.7657 16.6633 19.9707 16.6573 20.1775V20.3774H16.2503V20.1775C16.2549 20.0129 16.2255 19.8491 16.1639 19.6964C16.1019 19.5559 15.9885 19.4444 15.8469 19.3848C15.6428 19.3032 15.4236 19.2663 15.204 19.2767C14.9666 19.2652 14.7295 19.3052 14.5089 19.3938C14.3618 19.4568 14.244 19.5733 14.1794 19.7199C14.1206 19.8752 14.0919 20.0402 14.0948 20.2063V21.9502C14.0898 22.1213 14.1217 22.2915 14.1884 22.4492C14.2571 22.5937 14.3772 22.7074 14.5251 22.7681C14.7408 22.8538 14.9723 22.8925 15.204 22.8816C15.4265 22.8929 15.6487 22.8542 15.8541 22.7681C15.9931 22.707 16.1034 22.5947 16.1621 22.4546C16.2202 22.3048 16.2484 22.1451 16.2449 21.9844V21.7466H16.6573V21.9412C16.6613 22.1476 16.6182 22.3521 16.5312 22.5393C16.4392 22.7246 16.284 22.8709 16.0936 22.9519C15.8129 23.0638 15.5114 23.1142 15.2095 23.0996Z" fill="#8243B4"/>
<path d="M18.4637 23.0473V19.3163H17.2031V19.0965H20.1276V19.3109H18.8923V23.0419L18.4637 23.0473Z" fill="#8243B4"/>
<path d="M20.5293 23.0473L21.8583 19.1019H22.3517L23.6879 23.0473H23.2575L22.9298 21.9556H21.2874L20.9507 23.0473H20.5293ZM21.3505 21.761H22.8703L22.1032 19.419L21.3505 21.761Z" fill="#8243B4"/>
<path d="M25.9314 23.0996C25.6042 23.1166 25.2772 23.0619 24.9733 22.9392C24.7741 22.8553 24.6118 22.7025 24.5159 22.5087C24.4302 22.3217 24.3872 22.118 24.3899 21.9123V20.2369C24.3861 20.0269 24.4317 19.8189 24.5231 19.6298C24.6258 19.4395 24.7922 19.2915 24.9931 19.2118C25.2917 19.0954 25.6112 19.0426 25.9314 19.0569C26.2269 19.0449 26.5218 19.0915 26.7993 19.1938C26.988 19.2674 27.1452 19.4043 27.2441 19.5811C27.3366 19.7658 27.3806 19.971 27.372 20.1774V20.3774H26.965V20.1774C26.9693 20.0131 26.9405 19.8495 26.8804 19.6964C26.8175 19.5598 26.7057 19.4518 26.567 19.3938C26.3659 19.3099 26.1492 19.2699 25.9314 19.2767C25.6933 19.2652 25.4557 19.3052 25.2344 19.3938C25.0878 19.4569 24.9706 19.5735 24.9067 19.7198C24.8464 19.8748 24.8171 20.04 24.8203 20.2063V21.9502C24.8153 22.1213 24.8472 22.2915 24.9139 22.4492C24.9826 22.5937 25.1027 22.7074 25.2507 22.7681C25.4671 22.8531 25.6991 22.8912 25.9314 22.8798C26.1532 22.891 26.3748 22.8522 26.5796 22.7663C26.7187 22.7046 26.8293 22.5926 26.8894 22.4528C26.9461 22.3027 26.9736 22.1431 26.9704 21.9826V21.7448H27.372V21.9394C27.3757 22.1455 27.3333 22.3499 27.2477 22.5375C27.1543 22.7224 26.9988 22.8685 26.8083 22.95C26.53 23.0619 26.231 23.1129 25.9314 23.0996Z" fill="#8243B4"/>
<path d="M28.3413 23.0473V19.0965H28.7249V22.4564L30.8858 19.0965H31.246V23.0419H30.8624V19.6856L28.7015 23.0473H28.3413Z" fill="#8243B4"/>
<path d="M32.4146 23.0473V19.0965H32.7981V22.4564L34.9591 19.0965H35.3192V23.0419H34.9357V19.6856L32.7747 23.0473H32.4146Z" fill="#8243B4"/>
<path d="M37.5542 23.0473L38.8148 21.2458C38.543 21.1998 38.298 21.0547 38.1269 20.8386C37.9838 20.6394 37.9093 20.3992 37.9144 20.154C37.9132 19.9702 37.9638 19.7898 38.0602 19.6334C38.1801 19.455 38.3535 19.3194 38.5554 19.246C38.8689 19.1345 39.2009 19.0844 39.5333 19.0983H40.9181V23.0437H40.4805V21.3232H39.3496H39.1965L38.0314 23.0527L37.5542 23.0473ZM39.5657 21.1233H40.4805V19.3109H39.5495C39.2372 19.2924 38.9259 19.3596 38.6491 19.5055C38.542 19.5751 38.4559 19.6726 38.4 19.7875C38.3442 19.9024 38.3207 20.0304 38.3321 20.1576C38.3225 20.2911 38.3428 20.425 38.3914 20.5496C38.44 20.6743 38.5157 20.7865 38.6131 20.8782C38.8058 21.0422 39.1227 21.1233 39.5657 21.1233Z" fill="#8243B4"/>
<path d="M42.0757 23.0473V19.0965H42.4989V20.8729H44.7193V19.0965H45.1425V23.0419H44.7193V21.0782H42.4989V23.0419L42.0757 23.0473Z" fill="#8243B4"/>
<path d="M46.3149 23.0473V19.0965H46.7453V20.9521H47.2694L48.6614 19.0965H49.099L47.6439 21.0098L49.3421 23.0473H48.9117L47.2784 21.1089H46.7543V23.0473H46.3149Z" fill="#8243B4"/>
<path d="M51.4221 23.0996C51.0957 23.1146 50.7696 23.0625 50.4641 22.9464C50.2622 22.8668 50.0946 22.7189 49.9905 22.5285C49.8998 22.341 49.8542 22.135 49.8572 21.9268V20.2027C49.8528 19.9958 49.9011 19.7912 49.9977 19.6081C50.1073 19.4223 50.2768 19.2793 50.4785 19.2028C51.0919 19.0082 51.7505 19.0082 52.3639 19.2028C52.5656 19.2793 52.7352 19.4223 52.8448 19.6081C52.9413 19.7912 52.9896 19.9958 52.9852 20.2027V21.9304C52.9895 22.1379 52.9444 22.3435 52.8538 22.5303C52.7485 22.7194 52.5812 22.8664 52.3801 22.9464C52.0746 23.0624 51.7486 23.1145 51.4221 23.0996ZM51.4221 22.8816C51.6604 22.8928 51.8984 22.8542 52.1208 22.7681C52.2696 22.7101 52.3911 22.5982 52.4612 22.4546C52.5265 22.3067 52.5585 22.1461 52.5548 21.9844V20.163C52.5589 20.0019 52.5269 19.8418 52.4612 19.6946C52.3909 19.5544 52.2718 19.4448 52.1262 19.3866C51.6695 19.24 51.1784 19.24 50.7216 19.3866C50.5744 19.4443 50.4534 19.5538 50.3812 19.6946C50.3155 19.8418 50.2835 20.0019 50.2876 20.163V21.979C50.2839 22.1407 50.3159 22.3013 50.3812 22.4492C50.4523 22.592 50.5735 22.7036 50.7216 22.7627C50.9444 22.85 51.183 22.8899 51.4221 22.8798V22.8816Z" fill="#8243B4"/>
<path d="M54.0239 23.0473V19.0965H55.3295C55.5718 19.0915 55.8138 19.1169 56.0498 19.1722C56.2122 19.2092 56.3646 19.2811 56.4964 19.383C56.5975 19.4668 56.675 19.5754 56.7215 19.6982C56.7671 19.8203 56.7897 19.9498 56.7882 20.0802C56.7871 20.1936 56.7677 20.3062 56.7305 20.4135C56.6886 20.5358 56.6138 20.6442 56.5144 20.7269C56.3786 20.8301 56.2162 20.8926 56.0462 20.9071C56.2496 20.9348 56.4421 21.0156 56.6045 21.1413C56.7219 21.2357 56.8115 21.3603 56.8638 21.5016C56.9054 21.6235 56.9278 21.7511 56.9304 21.8799C56.9307 22.0239 56.9132 22.1673 56.8782 22.3069C56.8433 22.4417 56.7752 22.5656 56.6801 22.6672C56.5617 22.7876 56.415 22.8762 56.2533 22.9248C56.0132 22.9957 55.7634 23.028 55.5132 23.0203L54.0239 23.0473ZM54.4471 20.8296H55.5168C55.7024 20.8404 55.8878 20.8058 56.057 20.7287C56.1725 20.6707 56.2651 20.5755 56.32 20.4585C56.3699 20.3406 56.3951 20.2136 56.3938 20.0856C56.3959 19.9491 56.3663 19.8141 56.3073 19.691C56.2351 19.561 56.1169 19.4627 55.976 19.4154C55.7348 19.3379 55.4817 19.3043 55.2287 19.3163H54.4471V20.8296ZM54.4471 22.8365H55.4646C55.8824 22.8365 56.1615 22.7609 56.3055 22.6077C56.4649 22.4086 56.5416 22.1557 56.5198 21.9015C56.5222 21.7527 56.492 21.6052 56.4316 21.4692C56.3664 21.3345 56.2589 21.225 56.1255 21.1575C55.9389 21.0697 55.7335 21.0295 55.5276 21.0404H54.4471V22.8365Z" fill="#8243B4"/>
<path d="M59.2465 23.0996C58.9193 23.1166 58.5923 23.0619 58.2885 22.9392C58.0893 22.8553 57.927 22.7025 57.8311 22.5087C57.7469 22.3213 57.7045 22.1178 57.7068 21.9123V20.2369C57.7025 20.027 57.7475 19.819 57.8383 19.6298C57.9414 19.4398 58.1077 19.292 58.3083 19.2118C58.6069 19.0954 58.9264 19.0426 59.2465 19.0569C59.542 19.0447 59.8371 19.0913 60.1145 19.1938C60.3036 19.2674 60.4614 19.4043 60.5611 19.5811C60.6531 19.763 60.6989 19.9647 60.6944 20.1684V20.3684H60.291V20.1774C60.2956 20.0129 60.2661 19.8491 60.2045 19.6964C60.1417 19.5598 60.0299 19.4518 59.8912 19.3938C59.6873 19.3084 59.4674 19.2685 59.2465 19.2767C59.0091 19.265 58.7719 19.305 58.5514 19.3938C58.4043 19.4568 58.2865 19.5733 58.2219 19.7198C58.1616 19.8748 58.1322 20.04 58.1354 20.2063V21.9502C58.131 22.1215 58.1635 22.2917 58.2309 22.4492C58.2983 22.594 58.4179 22.7079 58.5658 22.7681C58.7823 22.8529 59.0143 22.891 59.2465 22.8798C59.469 22.8909 59.6911 22.8522 59.8966 22.7663C60.0356 22.7051 60.1459 22.5929 60.2045 22.4528C60.2627 22.303 60.2909 22.1433 60.2874 21.9826V21.7448H60.6944V21.9394C60.6975 22.1457 60.6544 22.35 60.5683 22.5375C60.4762 22.7228 60.3211 22.8691 60.1307 22.95C59.85 23.0625 59.5485 23.1134 59.2465 23.0996Z" fill="#8243B4"/>
<path d="M61.6597 23.0473V19.0965H62.0901V20.9521H62.6141L64.0061 19.0965H64.4437L62.9887 21.0098L64.6778 23.0419H64.2474L62.6141 21.1035H62.0901V23.0419L61.6597 23.0473Z" fill="#8243B4"/>
<path d="M66.7668 23.0996C66.4404 23.1146 66.1143 23.0625 65.8088 22.9464C65.6069 22.8668 65.4393 22.7189 65.3352 22.5285C65.2445 22.341 65.1989 22.135 65.2019 21.9268V20.2027C65.1975 19.9958 65.2459 19.7912 65.3424 19.6081C65.4524 19.4227 65.6218 19.2798 65.8232 19.2028C66.4366 19.0082 67.0952 19.0082 67.7087 19.2028C67.9103 19.2793 68.0799 19.4223 68.1895 19.6081C68.286 19.7912 68.3344 19.9958 68.3299 20.2027V21.9304C68.3342 22.1379 68.2891 22.3435 68.1985 22.5303C68.0932 22.7194 67.9259 22.8664 67.7249 22.9464C67.4193 23.0624 67.0933 23.1145 66.7668 23.0996ZM66.7668 22.8816C67.0057 22.8926 67.2442 22.854 67.4673 22.7681C67.6153 22.7094 67.736 22.5976 67.8059 22.4546C67.8719 22.3068 67.9045 22.1463 67.9013 21.9844V20.163C67.9049 20.0017 67.8723 19.8417 67.8059 19.6946C67.7357 19.5544 67.6165 19.4448 67.471 19.3866C67.0142 19.24 66.5231 19.24 66.0663 19.3866C65.9191 19.4443 65.7981 19.5538 65.726 19.6946C65.6602 19.8418 65.6282 20.0019 65.6323 20.163V21.979C65.6286 22.1407 65.6606 22.3013 65.726 22.4492C65.797 22.592 65.9182 22.7036 66.0663 22.7627C66.2892 22.85 66.5277 22.8899 66.7668 22.8798V22.8816Z" fill="#8243B4"/>
<path d="M69.3633 23.0473V19.0965H69.7451V22.4564L71.906 19.0965H72.2662V23.0419H71.8826V19.6856L69.7216 23.0473H69.3633ZM70.8255 18.8047C70.6078 18.8135 70.3913 18.7683 70.1953 18.6731C70.1201 18.634 70.0569 18.5754 70.0123 18.5035C69.9676 18.4315 69.9431 18.3489 69.9413 18.2642H70.2313C70.2295 18.3251 70.2456 18.3853 70.2776 18.4371C70.3096 18.489 70.3561 18.5303 70.4114 18.556C70.5413 18.615 70.683 18.6433 70.8255 18.6389C70.9681 18.643 71.1097 18.6146 71.2397 18.556C71.2957 18.5296 71.3434 18.4885 71.378 18.4371C71.4125 18.3857 71.4326 18.326 71.436 18.2642H71.7241C71.7221 18.3497 71.6967 18.433 71.6506 18.5051C71.6046 18.5772 71.5397 18.6353 71.463 18.6731C71.2643 18.7678 71.0455 18.813 70.8255 18.8047Z" fill="#8243B4"/>
</g>
<defs>
<clipPath id="clip0_1365_11">
<rect width="74.1463" height="40" fill="white"/>
</clipPath>
</defs>
</svg>
