<svg width="1931" height="1084" viewBox="0 0 1931 1084" fill="none" xmlns="http://www.w3.org/2000/svg">
<path d="M953.31 647.34C861.8 647.34 787.62 720 787.62 809.62C787.62 899.24 861.81 971.89 953.31 971.89C1044.81 971.89 1119 899.24 1119 809.62C1119 720 1044.82 647.34 953.31 647.34Z" fill="#9541BA"/>
<path d="M953.31 952.45C1033.85 952.45 1099.14 888.503 1099.14 809.62C1099.14 730.737 1033.85 666.79 953.31 666.79C872.771 666.79 807.48 730.737 807.48 809.62C807.48 888.503 872.771 952.45 953.31 952.45Z" stroke="white" stroke-width="2.62" stroke-miterlimit="10"/>
<path d="M860.03 840.973C858.483 840.973 857.71 840.178 857.71 838.588C857.71 838.029 857.796 837.6 857.968 837.299C864.8 827.717 869.376 820.369 871.696 815.256C876.251 805.115 878.528 794.502 878.528 783.416C878.829 782.428 879.409 781.633 880.269 781.031C881.128 780 882.073 779.484 883.104 779.484C884.136 779.484 884.952 779.785 885.554 780.387C886.198 780.988 886.843 781.568 887.487 782.127C891.183 783.975 898.573 784.898 909.659 784.898C916.577 784.898 922.528 783.18 927.513 779.742C928.974 778.754 930.026 778.26 930.671 778.26C932.175 778.26 932.927 779.055 932.927 780.645C932.927 782.922 930.091 785.285 924.419 787.734C920.638 789.41 917.565 790.312 915.202 790.441C912.882 790.527 911.077 790.57 909.788 790.57C897.241 790.57 888.798 789.689 884.458 787.928C883.728 802.107 879.108 815.707 870.601 828.727C875.413 826.406 882.288 825.246 891.226 825.246C900.206 825.246 908.413 828.49 915.847 834.979C923.28 841.424 926.997 849.996 926.997 860.695C926.997 871.438 923.667 880.504 917.007 887.895C909.358 896.316 898.595 900.527 884.716 900.527C874.489 900.527 865.552 897.777 857.903 892.277C849.138 885.961 844.755 877.389 844.755 866.561C844.755 862.092 845.979 859.857 848.429 859.857C849.331 859.857 850.083 860.352 850.685 861.34V863.145C850.685 873.113 853.907 880.783 860.353 886.154C866.798 891.525 874.876 894.211 884.587 894.211C901.044 894.211 912.001 888.066 917.458 875.777C919.392 871.395 920.358 866.689 920.358 861.662C920.358 852.682 917.437 845.355 911.593 839.684C905.792 833.969 898.681 831.111 890.259 831.111C884.587 831.111 879.86 831.756 876.079 833.045C872.341 834.334 867.786 836.719 862.415 840.199C861.642 840.715 860.847 840.973 860.03 840.973Z" fill="white"/>
<path d="M982.62 790.441C985.069 793.277 986.294 797.725 986.294 803.783C986.294 809.799 985.005 816.287 982.427 823.248C979.849 830.166 976.196 835.945 971.47 840.586C966.786 845.184 961.501 847.482 955.614 847.482C949.728 847.482 945.259 844.754 942.208 839.297C939.673 834.742 938.405 829.049 938.405 822.217C938.405 811.26 940.575 801.398 944.915 792.633C948.181 786.059 952.692 781.375 958.45 778.582C961.458 777.164 964.315 776.455 967.022 776.455C969.772 776.455 971.792 776.777 973.081 777.422C974.413 778.023 975.681 778.775 976.884 779.678C978.087 780.58 979.269 781.568 980.429 782.643C981.589 783.674 982.835 784.641 984.167 785.543C984.511 786.102 984.683 786.918 984.683 787.992C984.683 789.023 983.995 789.84 982.62 790.441ZM979.14 790.055C978.452 789.539 977.7 788.873 976.884 788.057C973.231 784.533 970.052 782.771 967.345 782.771C962.103 782.771 957.698 784.855 954.132 789.023C950.608 793.148 948.095 798.262 946.591 804.363C945.087 810.422 944.335 816.158 944.335 821.572C944.335 826.986 944.915 831.133 946.075 834.012C947.278 836.848 948.61 838.975 950.071 840.393C951.532 841.768 953.509 842.455 956.001 842.455C960.856 842.455 965.132 840.242 968.827 835.816C972.522 831.348 975.272 826.105 977.077 820.09C978.925 814.074 979.849 809.219 979.849 805.523C979.849 801.785 979.14 798.154 977.722 794.631C977.55 794.201 977.464 793.557 977.464 792.697C977.464 791.838 978.022 790.957 979.14 790.055Z" fill="white"/>
<path d="M1045.85 721.541C1046.67 720.811 1047.46 720.445 1048.23 720.445C1050 720.445 1050.88 721.154 1050.88 722.572C1050.88 723.303 1050.25 724.57 1049.01 726.375C1047.76 728.18 1046.06 731.896 1043.92 737.525C1041.81 743.154 1039.6 749.621 1037.28 756.926C1034.96 764.188 1032.27 771.793 1029.22 779.742C1019.85 804.449 1011.71 828.168 1004.79 850.898C1003.89 852.66 1002.67 853.541 1001.12 853.541C999.786 853.541 999.034 852.66 998.862 850.898C1004.36 832.508 1012.59 808.617 1023.55 779.227C1026.47 771.492 1028.4 766.25 1029.35 763.5C1036.74 742.188 1042.24 728.201 1045.85 721.541ZM997.509 737.848C997.509 732.949 998.819 729.168 1001.44 726.504C1004.06 723.797 1007.26 722.443 1011.04 722.443C1014.87 722.443 1017.96 723.646 1020.33 726.053C1022.73 728.416 1023.93 731.51 1023.93 735.334C1023.93 739.115 1022.75 742.188 1020.39 744.551C1018.07 746.871 1014.95 748.031 1011.04 748.031C1007.18 748.031 1003.95 747.021 1001.38 745.002C998.798 742.982 997.509 740.598 997.509 737.848ZM1038.44 840.457L1042.95 840.715C1044.41 840.715 1045.72 840.221 1046.88 839.232C1048.04 838.201 1048.62 836.547 1048.62 834.27C1048.62 831.949 1047.8 829.672 1046.17 827.438C1044.54 825.203 1042.65 824.086 1040.5 824.086C1038.39 824.086 1036.8 824.645 1035.73 825.762C1033.84 827.738 1032.89 829.414 1032.89 830.789C1032.89 833.324 1033.77 835.236 1035.54 836.525C1035.88 837.084 1036.05 837.771 1036.05 838.588C1036.05 839.361 1035.69 840.092 1034.96 840.779C1034.23 841.424 1033.17 841.746 1031.8 841.746C1030.42 841.746 1029.24 840.758 1028.25 838.781C1027.31 836.805 1026.83 834.914 1026.83 833.109C1026.83 829.328 1028.23 825.848 1031.02 822.668C1033.82 819.488 1037.17 817.898 1041.08 817.898C1045.03 817.898 1048.21 819.445 1050.62 822.539C1053.07 825.59 1054.29 828.77 1054.29 832.078C1054.29 837.578 1053 841.359 1050.42 843.422C1047.89 845.484 1044.65 846.516 1040.69 846.516C1038.76 846.516 1037.28 846.408 1036.25 846.193C1035.26 845.979 1034.76 845.42 1034.76 844.518C1034.76 843.572 1035.11 842.691 1035.79 841.875C1036.48 841.059 1037.36 840.586 1038.44 840.457ZM1017.75 735.656C1017.75 730.715 1015.41 728.244 1010.72 728.244C1008.53 728.244 1006.79 728.975 1005.5 730.436C1004.21 731.854 1003.57 733.658 1003.57 735.85C1003.57 737.998 1004.15 739.502 1005.31 740.361C1006.51 741.178 1008.19 741.586 1010.33 741.586C1015.28 741.586 1017.75 739.609 1017.75 735.656Z" fill="white"/>
<path d="M659.66 435.74C653.9 435.74 649.49 434.553 646.43 432.18C643.347 429.761 641.132 426.406 640.12 422.62C638.922 418.314 638.34 413.86 638.39 409.39V372.24C638.322 367.69 638.938 363.156 640.22 358.79C641.309 355.07 643.584 351.807 646.7 349.5C649.8 347.233 654.133 346.1 659.7 346.1C664.813 346.1 668.813 347.1 671.7 349.1C674.643 351.207 676.808 354.227 677.86 357.69C679.152 361.9 679.77 366.287 679.69 370.69V375.12H674V370.69C674.068 367.11 673.668 363.536 672.81 360.06C672.178 357.385 670.655 355.004 668.49 353.31C666.403 351.723 663.45 350.93 659.63 350.93C655.463 350.93 652.26 351.793 650.02 353.52C647.728 355.346 646.13 357.901 645.49 360.76C644.642 364.296 644.242 367.924 644.3 371.56V410.22C644.228 413.951 644.662 417.675 645.59 421.29C646.294 424.108 647.934 426.604 650.24 428.37C652.473 430.023 655.603 430.85 659.63 430.85C663.517 430.85 666.517 430.023 668.63 428.37C670.797 426.582 672.297 424.116 672.89 421.37C673.684 417.972 674.057 414.489 674 411V405.71H679.61V410C679.675 414.486 679.096 418.959 677.89 423.28C676.927 426.891 674.822 430.094 671.89 432.41C668.997 434.63 664.92 435.74 659.66 435.74Z" fill="#9541BA"/>
<path d="M691.091 434.55V372.13H696.821V400.32H702.001L717.661 372.13H723.601L707.181 402.26L724.251 434.55H718.311L702.001 404.1H696.821V434.55H691.091Z" fill="#9541BA"/>
<path d="M731.271 434.55V372.13H736.271V423.86L758.271 372.13H763V434.55H758V383.25L736.081 434.55H731.271Z" fill="#9541BA"/>
<path d="M770.58 449V430.56C772.347 429.59 773.876 428.241 775.06 426.61C776.529 424.477 777.625 422.11 778.3 419.61C779.371 415.839 780.166 411.996 780.68 408.11C781.347 403.39 781.94 397.54 782.46 390.56L783.86 372.09H808.59V430.3H814.1V449H809.57L809.13 434.53H775.65L775.11 449H770.58ZM777.06 430.32H803V376.45H788.61L787.21 391.68C786.63 398.087 786.073 403.503 785.54 407.93C785.007 412.357 784.41 416.023 783.75 418.93C783.268 421.409 782.394 423.796 781.16 426C780.144 427.741 778.741 429.226 777.06 430.34V430.32Z" fill="#9541BA"/>
<path d="M824.36 434.55V372.13H830.08V400.32H835.27L850.93 372.13H856.87L840.45 402.26L857.52 434.55H851.58L835.27 404.1H830.08V434.55H824.36Z" fill="#9541BA"/>
<path d="M875 435.52C872.686 435.575 870.402 434.979 868.41 433.8C866.531 432.638 865.016 430.972 864.04 428.99C862.963 426.791 862.425 424.368 862.47 421.92C862.409 419.547 862.747 417.181 863.47 414.92C864.25 412.795 865.529 410.888 867.2 409.36C869.544 407.235 872.136 405.402 874.92 403.9C878.253 402 882.587 399.787 887.92 397.26V392.83C888.002 389.285 887.731 385.741 887.11 382.25C886.57 379.73 885.67 377.967 884.41 376.96C882.924 375.883 881.113 375.35 879.28 375.45C877.657 375.441 876.047 375.733 874.53 376.31C872.927 376.972 871.607 378.175 870.8 379.71C869.8 381.4 869.35 383.91 869.35 387.22V388.84H863.73C863.73 382.84 864.937 378.393 867.35 375.5C869.763 372.607 873.813 371.15 879.5 371.13C884.753 371.13 888.42 372.797 890.5 376.13C892.58 379.463 893.627 384.83 893.64 392.23V423.65C893.64 424.23 893.64 425.33 893.64 426.95C893.64 428.57 893.71 430.13 893.75 431.65C893.75 432.622 893.803 433.594 893.91 434.56H888.91C888.77 433.05 888.59 431.47 888.37 429.81C888.15 428.15 888.01 426.97 887.94 426.25C886.985 428.864 885.297 431.148 883.08 432.83C880.765 434.608 877.919 435.556 875 435.52ZM876.41 430.77C878.111 430.797 879.789 430.369 881.27 429.53C882.737 428.676 884.048 427.581 885.15 426.29C886.295 424.999 887.254 423.556 888 422V401.5C884.187 403.5 881 405.23 878.44 406.69C876.309 407.854 874.299 409.227 872.44 410.79C871.044 411.976 869.951 413.477 869.25 415.17C868.547 417.049 868.207 419.044 868.25 421.05C868.25 424.8 869.11 427.35 870.84 428.72C872.408 430.025 874.379 430.75 876.42 430.77H876.41Z" fill="#9541BA"/>
<path d="M925.881 434.55V372.13H931.601V399.88H953.851V372.13H959.681V434.55H953.851V404.31H931.601V434.55H925.881Z" fill="#9541BA"/>
<path d="M982.36 435.52C980.049 435.577 977.768 434.98 975.78 433.8C973.897 432.645 972.379 430.981 971.4 429C970.323 426.801 969.785 424.378 969.83 421.93C969.774 419.558 970.112 417.192 970.83 414.93C971.611 412.805 972.89 410.898 974.56 409.37C976.906 407.248 979.498 405.415 982.28 403.91C985.614 402.01 989.947 399.797 995.28 397.27V392.84C995.363 389.295 995.091 385.751 994.47 382.26C993.93 379.74 993.03 377.977 991.77 376.97C990.284 375.893 988.473 375.36 986.64 375.46C985.017 375.451 983.407 375.743 981.89 376.32C980.287 376.982 978.967 378.185 978.16 379.72C977.16 381.41 976.71 383.92 976.71 387.23V388.85H971.09C971.09 382.85 972.297 378.403 974.71 375.51C977.124 372.617 981.174 371.16 986.86 371.14C992.11 371.14 995.79 372.79 997.86 376.14C999.93 379.49 1001 384.82 1001 392.24V423.66C1001 424.24 1001 425.34 1001.05 426.96C1001.1 428.58 1001.12 430.14 1001.16 431.66C1001.16 432.632 1001.21 433.604 1001.32 434.57H996.32C996.18 433.06 996 431.48 995.78 429.82C995.56 428.16 995.42 426.98 995.35 426.26C994.395 428.874 992.708 431.158 990.49 432.84C988.163 434.631 985.296 435.576 982.36 435.52ZM983.77 430.77C985.472 430.797 987.15 430.369 988.63 429.53C990.098 428.674 991.413 427.579 992.52 426.29C993.643 425.001 994.585 423.564 995.32 422.02V401.5C991.507 403.5 988.324 405.23 985.77 406.69C983.638 407.852 981.628 409.226 979.77 410.79C978.374 411.976 977.281 413.478 976.58 415.17C975.877 417.049 975.537 419.044 975.58 421.05C975.58 424.8 976.44 427.35 978.17 428.72C979.744 430.03 981.723 430.754 983.77 430.77Z" fill="#9541BA"/>
<path d="M1033.23 434.55V372.13H1064.87V434.55H1059.15V376.66H1039V434.55H1033.23Z" fill="#9541BA"/>
<path d="M1091.76 435.52C1088.79 435.601 1085.85 434.912 1083.23 433.52C1080.86 432.187 1079.04 429.773 1077.78 426.28C1076.52 422.787 1075.89 417.837 1075.89 411.43V394.81C1075.89 388.264 1076.54 383.293 1077.83 379.9C1079.12 376.507 1080.98 374.203 1083.39 372.99C1086.03 371.72 1088.94 371.093 1091.87 371.16C1095.76 371.16 1098.87 371.98 1101.05 373.64C1103.23 375.3 1104.87 377.94 1105.8 381.58C1106.86 386.311 1107.33 391.154 1107.21 396V401.94H1081.61V411.87C1081.5 415.786 1081.83 419.701 1082.61 423.54C1083.29 426.34 1084.39 428.33 1085.9 429.48C1087.6 430.684 1089.65 431.289 1091.73 431.2C1093.27 431.196 1094.81 430.943 1096.27 430.45C1097.95 429.799 1099.3 428.518 1100.05 426.88C1101.06 425.007 1101.56 422.094 1101.56 418.14V413.49H1107.18V417.6C1107.18 422.934 1106.08 427.267 1103.88 430.6C1101.68 433.934 1097.64 435.573 1091.76 435.52ZM1081.61 398.52H1101.61V393.66C1101.63 390.43 1101.43 387.202 1101 384C1100.77 381.693 1099.85 379.51 1098.35 377.74C1096.98 376.273 1094.82 375.537 1091.87 375.53C1089.85 375.457 1087.84 375.96 1086.09 376.98C1084.55 377.98 1083.41 379.76 1082.69 382.38C1081.85 386.12 1081.49 389.95 1081.61 393.78V398.52Z" fill="#9541BA"/>
<path d="M1118 455.07V372.13H1123.72V377.42C1125.09 375.78 1126.69 374.342 1128.47 373.15C1130.62 371.759 1133.15 371.061 1135.71 371.15C1138.19 371.043 1140.65 371.662 1142.78 372.93C1144.69 374.201 1146.19 376.001 1147.1 378.11C1148.24 380.702 1148.97 383.455 1149.26 386.27C1149.68 389.781 1149.88 393.314 1149.86 396.85V408.85C1149.95 413.781 1149.49 418.707 1148.51 423.54C1147.61 427.5 1146.1 430.5 1143.97 432.54C1141.85 434.54 1138.91 435.54 1135.17 435.54C1132.73 435.622 1130.33 434.921 1128.31 433.54C1126.61 432.371 1125.07 430.994 1123.72 429.44V455.14L1118 455.07ZM1134.52 431.07C1135.63 431.138 1136.74 430.964 1137.78 430.562C1138.81 430.16 1139.75 429.538 1140.52 428.74C1141.92 427.2 1142.87 424.79 1143.38 421.51C1143.93 417.374 1144.19 413.203 1144.13 409.03V396.83C1144.19 392.768 1143.95 388.708 1143.43 384.68C1142.96 381.55 1142.05 379.24 1140.68 377.77C1139.31 376.3 1137.26 375.55 1134.52 375.55C1132.27 375.534 1130.08 376.235 1128.26 377.55C1126.63 378.681 1125.11 379.967 1123.72 381.39V425.45C1125.05 426.984 1126.62 428.297 1128.37 429.34C1130.22 430.497 1132.35 431.108 1134.53 431.1L1134.52 431.07Z" fill="#9541BA"/>
<path d="M1160.67 434.55L1161.21 372.13H1165.64L1180.64 417.81L1195.64 372.13H1200.28L1200.72 434.55H1195.72L1195.5 386.71L1181.62 428H1179.78L1165.96 387L1165.74 434.63L1160.67 434.55Z" fill="#9541BA"/>
<path d="M1223 435.52C1220.69 435.575 1218.4 434.979 1216.41 433.8C1214.52 432.647 1212.99 430.983 1212 429C1210.92 426.801 1210.39 424.378 1210.43 421.93C1210.37 419.558 1210.71 417.192 1211.43 414.93C1212.21 412.805 1213.49 410.898 1215.16 409.37C1217.51 407.248 1220.1 405.415 1222.88 403.91C1226.21 402.01 1230.55 399.797 1235.88 397.27V392.84C1235.96 389.295 1235.69 385.751 1235.07 382.26C1234.53 379.74 1233.63 377.977 1232.37 376.97C1230.88 375.893 1229.07 375.36 1227.24 375.46C1225.62 375.451 1224.01 375.743 1222.49 376.32C1220.89 376.982 1219.57 378.185 1218.76 379.72C1217.76 381.41 1217.31 383.92 1217.31 387.23V388.85H1211.69C1211.69 382.85 1212.9 378.403 1215.31 375.51C1217.72 372.617 1221.77 371.16 1227.46 371.14C1232.71 371.14 1236.39 372.79 1238.46 376.14C1240.53 379.49 1241.6 384.82 1241.6 392.24V423.66C1241.6 424.24 1241.6 425.34 1241.6 426.96C1241.6 428.58 1241.67 430.14 1241.71 431.66C1241.71 432.632 1241.76 433.604 1241.87 434.57H1236.87C1236.73 433.06 1236.55 431.48 1236.33 429.82C1236.11 428.16 1235.97 426.98 1235.9 426.26C1234.95 428.874 1233.26 431.158 1231.04 432.84C1228.74 434.611 1225.91 435.555 1223 435.52ZM1224.41 430.77C1226.11 430.797 1227.79 430.369 1229.27 429.53C1230.74 428.676 1232.05 427.581 1233.15 426.29C1234.28 425.001 1235.22 423.564 1235.96 422.02V401.5C1232.14 403.5 1228.95 405.23 1226.4 406.69C1224.27 407.854 1222.26 409.227 1220.4 410.79C1219 411.976 1217.91 413.478 1217.21 415.17C1216.51 417.049 1216.17 419.044 1216.21 421.05C1216.21 424.8 1217.07 427.35 1218.8 428.72C1220.37 430.028 1222.35 430.752 1224.39 430.77H1224.41Z" fill="#9541BA"/>
<path d="M1253.44 434.55V372.13H1259.16V399.88H1281.41V372.13H1287.24V434.55H1281.41V404.31H1259.16V434.55H1253.44Z" fill="#9541BA"/>
<path d="M1314.13 435.52C1311.16 435.601 1308.22 434.912 1305.6 433.52C1303.23 432.187 1301.42 429.773 1300.15 426.28C1298.88 422.787 1298.25 417.837 1298.26 411.43V394.81C1298.26 388.264 1298.91 383.293 1300.2 379.9C1301.49 376.507 1303.35 374.203 1305.76 372.99C1308.4 371.72 1311.31 371.093 1314.24 371.16C1318.13 371.16 1321.24 371.98 1323.42 373.64C1325.6 375.3 1327.24 377.94 1328.17 381.58C1329.23 386.311 1329.7 391.154 1329.58 396V401.94H1304V411.87C1303.89 415.786 1304.22 419.701 1305 423.54C1305.68 426.34 1306.78 428.33 1308.29 429.48C1309.99 430.685 1312.04 431.291 1314.12 431.2C1315.66 431.196 1317.2 430.943 1318.66 430.45C1320.34 429.799 1321.69 428.518 1322.44 426.88C1323.45 425.007 1323.96 422.094 1323.95 418.14V413.49H1329.57V417.6C1329.57 422.934 1328.47 427.267 1326.27 430.6C1324.07 433.934 1320.02 435.573 1314.13 435.52ZM1303.98 398.52H1323.98V393.66C1324.01 390.427 1323.81 387.196 1323.39 383.99C1323.16 381.683 1322.24 379.5 1320.74 377.73C1319.37 376.264 1317.21 375.527 1314.26 375.52C1312.24 375.447 1310.23 375.95 1308.48 376.97C1306.93 377.95 1305.8 379.75 1305.08 382.37C1304.25 386.11 1303.88 389.94 1304 393.77L1303.98 398.52Z" fill="#9541BA"/>
<path d="M1340.38 434.55V372.13H1346.1V399.88H1368.35V372.13H1374.18V434.55H1368.35V404.31H1346.1V434.55H1340.38Z" fill="#9541BA"/>
<path d="M1395.35 434.55V376.55H1380.66V372.12H1415.22V376.55H1401V434.55H1395.35Z" fill="#9541BA"/>
<path d="M1421.81 434.55V372.13H1427.53V399.88H1449.78V372.13H1455.61V434.55H1449.78V404.31H1427.53V434.55H1421.81Z" fill="#9541BA"/>
<path d="M1467.82 434.55V372.13H1473.54V397.18H1478.54C1482.04 397.049 1485.53 397.62 1488.8 398.86C1491.15 399.791 1493.22 401.318 1494.8 403.29C1496.2 405.101 1497.18 407.202 1497.66 409.44C1498.17 411.691 1498.42 413.992 1498.42 416.3C1498.42 418.521 1498.15 420.735 1497.61 422.89C1497.08 425.039 1496.08 427.046 1494.69 428.77C1493.07 430.692 1490.96 432.148 1488.59 432.99C1485.26 434.137 1481.74 434.666 1478.22 434.55H1467.82ZM1473.54 430.66H1478.18C1482.43 430.66 1485.6 429.993 1487.69 428.66C1489.69 427.437 1491.18 425.539 1491.9 423.31C1492.63 421.004 1493 418.598 1492.98 416.18C1493 413.75 1492.67 411.331 1491.98 409C1491.28 406.707 1489.84 404.711 1487.88 403.33C1485.83 401.823 1482.68 401.067 1478.43 401.06H1473.57L1473.54 430.66ZM1506.7 434.55V372.13H1512.42V434.55H1506.7Z" fill="#9541BA"/>
<path d="M1524.73 434.55V372.13H1529.73V423.86L1551.73 372.13H1556.48V434.55H1551.48V383.25L1529.55 434.55H1524.73ZM1540.61 365.55C1537.45 365.702 1534.34 364.66 1531.91 362.63C1529.72 360.69 1528.55 357.667 1528.4 353.56H1532.4C1532.47 356.66 1533.3 358.82 1534.88 360.04C1536.55 361.236 1538.55 361.879 1540.61 361.879C1542.66 361.879 1544.66 361.236 1546.33 360.04C1547.91 358.82 1548.82 356.66 1549.03 353.56H1553.03C1552.88 357.673 1551.68 360.697 1549.41 362.63C1546.93 364.648 1543.8 365.684 1540.61 365.54V365.55Z" fill="#9541BA"/>
<path d="M917 564.15L917.54 501.73H922L937 547.41L952 501.73H956.65L957.08 564.15H952.08L951.87 516.31L938 557.56H936.17L922.34 516.56L922.13 564.19L917 564.15Z" fill="#9541BA"/>
<path d="M979.341 565.12C977.026 565.177 974.742 564.581 972.751 563.4C970.873 562.233 969.357 560.568 968.371 558.59C967.297 556.39 966.763 553.967 966.811 551.52C966.755 549.147 967.093 546.782 967.811 544.52C968.595 542.397 969.873 540.491 971.541 538.96C973.888 536.84 976.48 535.007 979.261 533.5C982.594 531.6 986.927 529.387 992.261 526.86V522.43C992.343 518.885 992.072 515.341 991.451 511.85C990.911 509.33 990.011 507.567 988.751 506.56C987.264 505.483 985.453 504.95 983.621 505.05C981.998 505.04 980.387 505.332 978.871 505.91C977.264 506.567 975.943 507.771 975.141 509.31C974.141 511 973.681 513.51 973.681 516.82V518.44H968.071C968.071 512.44 969.274 507.993 971.681 505.1C974.087 502.207 978.137 500.75 983.831 500.73C989.091 500.73 992.757 502.397 994.831 505.73C996.904 509.063 997.947 514.43 997.961 521.83V553.25C997.961 553.83 997.961 554.93 998.011 556.55C998.061 558.17 998.091 559.73 998.121 561.25C998.122 562.222 998.178 563.194 998.291 564.16H993.291C993.141 562.65 992.961 561.07 992.751 559.41C992.541 557.75 992.391 556.57 992.321 555.85C991.362 558.465 989.672 560.75 987.451 562.43C985.131 564.22 982.271 565.169 979.341 565.12ZM980.741 560.37C982.442 560.397 984.12 559.969 985.601 559.13C987.07 558.277 988.386 557.181 989.491 555.89C990.617 554.601 991.562 553.164 992.301 551.62V531.1C988.481 533.1 985.294 534.83 982.741 536.29C980.61 537.455 978.6 538.828 976.741 540.39C975.345 541.576 974.251 543.078 973.551 544.77C972.852 546.65 972.512 548.645 972.551 550.65C972.551 554.4 973.421 556.95 975.141 558.32C976.714 559.63 978.693 560.354 980.741 560.37Z" fill="#9541BA"/>
<path d="M1009.79 564.15V501.73H1015.52V529.92H1020.7L1036.36 501.73H1042.3L1025.89 531.86L1043 564.15H1037L1020.7 533.7H1015.52V564.15H1009.79Z" fill="#9541BA"/>
<path d="M1050 564.15V501.73H1055V553.46L1077 501.73H1081.75V564.15H1076.75V512.85L1054.83 564.15H1050Z" fill="#9541BA"/>
<path d="M1089.82 564.15L1102.46 536.83C1100.25 535.952 1098.33 534.451 1096.95 532.51C1095.65 530.632 1094.72 528.525 1094.2 526.3C1093.68 524.159 1093.4 521.964 1093.39 519.76C1093.39 517.581 1093.63 515.409 1094.09 513.28C1094.53 511.156 1095.46 509.162 1096.79 507.45C1098.33 505.57 1100.34 504.134 1102.62 503.29C1105.89 502.132 1109.35 501.603 1112.82 501.73H1123.3V564.15H1117.47V538.56C1115.53 538.56 1113.72 538.56 1112.07 538.5C1110.62 538.487 1109.18 538.36 1107.75 538.12L1096.09 564.12L1089.82 564.15ZM1113.82 534.67H1117.49V505.67H1112.63C1108.53 505.67 1105.5 506.33 1103.56 507.67C1101.7 508.884 1100.34 510.726 1099.72 512.86C1099.09 515.138 1098.78 517.495 1098.8 519.86C1098.8 524.9 1099.95 528.646 1102.26 531.1C1104.57 533.553 1108.41 534.743 1113.8 534.67H1113.82Z" fill="#9541BA"/>
<path d="M1129.78 564.15L1148.57 532.15L1130.64 501.7H1136.15L1153.32 531.61H1154.32V501.73H1159.18V531.64H1160.26L1177.26 501.73H1182.77L1164.95 532.18L1183.63 564.18H1178.23L1160.31 533.08H1159.23V564.18H1154.37V533.08H1153.29L1135.36 564.18L1129.78 564.15Z" fill="#9541BA"/>
<path d="M1210.56 564.15V501.73H1216.29V529.48H1238.53V501.73H1244.37V564.15H1238.53V533.91H1216.29V564.15H1210.56Z" fill="#9541BA"/>
<path d="M1267.05 565.12C1264.74 565.177 1262.45 564.581 1260.46 563.4C1258.58 562.233 1257.07 560.568 1256.08 558.59C1255.01 556.39 1254.47 553.967 1254.52 551.52C1254.46 549.147 1254.8 546.782 1255.52 544.52C1256.3 542.397 1257.58 540.491 1259.25 538.96C1261.6 536.84 1264.19 535.007 1266.97 533.5C1270.3 531.6 1274.64 529.387 1279.97 526.86V522.43C1280.05 518.885 1279.78 515.341 1279.16 511.85C1278.62 509.33 1277.72 507.567 1276.46 506.56C1274.97 505.483 1273.16 504.95 1271.33 505.05C1269.7 505.041 1268.09 505.333 1266.57 505.91C1264.97 506.57 1263.65 507.774 1262.85 509.31C1261.85 511 1261.39 513.51 1261.39 516.82V518.44H1255.78C1255.78 512.44 1256.98 507.993 1259.39 505.1C1261.8 502.207 1265.85 500.75 1271.54 500.73C1276.8 500.73 1280.47 502.397 1282.54 505.73C1284.61 509.063 1285.66 514.43 1285.67 521.83V553.25C1285.67 553.83 1285.67 554.93 1285.67 556.55C1285.67 558.17 1285.75 559.73 1285.78 561.25C1285.81 562.77 1285.87 563.73 1285.94 564.16H1280.94C1280.79 562.65 1280.61 561.07 1280.4 559.41C1280.19 557.75 1280.04 556.57 1279.96 555.85C1279.01 558.467 1277.32 560.752 1275.1 562.43C1272.8 564.208 1269.96 565.155 1267.05 565.12ZM1268.45 560.37C1270.15 560.397 1271.83 559.969 1273.31 559.13C1274.78 558.277 1276.1 557.181 1277.2 555.89C1278.33 554.601 1279.27 553.164 1280.01 551.62V531.1C1276.19 533.1 1273 534.83 1270.45 536.29C1268.32 537.455 1266.31 538.828 1264.45 540.39C1263.05 541.576 1261.96 543.078 1261.26 544.77C1260.56 546.65 1260.22 548.645 1260.26 550.65C1260.26 554.4 1261.13 556.95 1262.85 558.32C1264.42 559.63 1266.4 560.354 1268.45 560.37Z" fill="#9541BA"/>
<path d="M1317.91 564.15V501.73H1349.56V564.15H1343.83V506.26H1323.64V564.15H1317.91Z" fill="#9541BA"/>
<path d="M1376.45 565.12C1373.48 565.201 1370.54 564.512 1367.92 563.12C1365.54 561.787 1363.72 559.373 1362.46 555.88C1361.2 552.387 1360.57 547.427 1360.57 541V524.41C1360.57 517.863 1361.24 512.893 1362.57 509.5C1363.9 506.107 1365.76 503.803 1368.13 502.59C1370.77 501.319 1373.68 500.691 1376.61 500.76C1380.49 500.76 1383.55 501.58 1385.79 503.24C1388.03 504.9 1389.6 507.54 1390.54 511.18C1391.59 515.913 1392.06 520.754 1391.94 525.6V531.54H1366.3V541.47C1366.19 545.385 1366.53 549.3 1367.3 553.14C1367.99 555.94 1369.08 557.92 1370.6 559.08C1372.3 560.287 1374.35 560.892 1376.43 560.8C1377.97 560.795 1379.5 560.542 1380.96 560.05C1382.64 559.398 1383.99 558.117 1384.74 556.48C1385.75 554.607 1386.26 551.693 1386.26 547.74V543.09H1391.87V547.2C1391.87 552.52 1390.77 556.85 1388.58 560.2C1386.39 563.55 1382.35 565.12 1376.45 565.12ZM1366.3 528.12H1386.3V523.26C1386.33 520.026 1386.13 516.795 1385.7 513.59C1385.48 511.284 1384.55 509.101 1383.06 507.33C1381.69 505.85 1379.53 505.12 1376.58 505.12C1374.56 505.046 1372.55 505.549 1370.8 506.57C1369.25 507.55 1368.11 509.35 1367.4 511.97C1366.56 515.71 1366.2 519.54 1366.32 523.37L1366.3 528.12Z" fill="#9541BA"/>
<path d="M1402.69 584.67V501.73H1408.42V507C1409.79 505.355 1411.39 503.917 1413.17 502.73C1415.32 501.338 1417.84 500.64 1420.4 500.73C1422.88 500.624 1425.34 501.243 1427.48 502.51C1429.39 503.788 1430.89 505.586 1431.8 507.69C1432.93 510.285 1433.66 513.036 1433.96 515.85C1434.37 519.361 1434.57 522.894 1434.55 526.43V538.43C1434.64 543.361 1434.18 548.287 1433.2 553.12C1432.3 557.08 1430.79 560.08 1428.67 562.12C1426.54 564.12 1423.61 565.12 1419.86 565.12C1417.42 565.203 1415.02 564.502 1413.01 563.12C1411.32 561.948 1409.78 560.571 1408.42 559.02V584.72L1402.69 584.67ZM1419.22 560.67C1420.33 560.74 1421.44 560.568 1422.48 560.166C1423.51 559.763 1424.45 559.14 1425.22 558.34C1426.62 556.8 1427.58 554.34 1428.08 551.11C1428.64 546.974 1428.89 542.803 1428.84 538.63V526.43C1428.89 522.368 1428.66 518.308 1428.14 514.28C1427.67 511.15 1426.75 508.84 1425.38 507.37C1424.01 505.9 1421.96 505.15 1419.23 505.15C1416.98 505.132 1414.78 505.833 1412.96 507.15C1411.33 508.28 1409.81 509.566 1408.43 510.99V555.05C1409.76 556.584 1411.33 557.897 1413.07 558.94C1414.91 560.095 1417.05 560.705 1419.22 560.7V560.67Z" fill="#9541BA"/>
<path d="M1445.89 564.15V501.73H1459.61C1463.61 501.73 1466.66 502.45 1468.9 503.89C1471.03 505.217 1472.69 507.179 1473.65 509.5C1474.59 511.837 1475.06 514.333 1475.05 516.85C1475.03 519.546 1474.46 522.209 1473.38 524.68C1472.81 525.996 1471.98 527.18 1470.93 528.156C1469.88 529.132 1468.63 529.879 1467.28 530.35C1469.39 530.948 1471.28 532.171 1472.68 533.86C1473.99 535.502 1474.94 537.394 1475.48 539.42C1476.07 541.603 1476.37 543.858 1476.35 546.12C1476.4 549.294 1475.98 552.457 1475.11 555.51C1474.37 558.122 1472.72 560.382 1470.46 561.88C1468.19 563.4 1464.9 564.157 1460.58 564.15H1445.89ZM1451.51 528.73H1460.79C1462.02 528.753 1463.24 528.487 1464.35 527.952C1465.46 527.417 1466.42 526.628 1467.17 525.65C1468.82 523.603 1469.64 520.777 1469.65 517.17C1469.65 513.79 1468.8 511.143 1467.11 509.23C1465.42 507.33 1462.81 506.37 1459.28 506.37H1451.51V528.73ZM1451.51 559.73H1460C1462.88 559.73 1465.07 559.14 1466.59 557.95C1468.15 556.694 1469.26 554.973 1469.77 553.04C1470.41 550.719 1470.72 548.318 1470.69 545.91C1470.81 543.274 1470.37 540.643 1469.4 538.19C1468.68 536.516 1467.43 535.13 1465.83 534.25C1464.19 533.424 1462.37 533.016 1460.54 533.06H1451.47L1451.51 559.73Z" fill="#9541BA"/>
<path d="M1500.86 565.12C1496.76 565.12 1493.58 564.22 1491.31 562.42C1488.88 560.358 1487.2 557.543 1486.55 554.42C1485.57 550.135 1485.11 545.745 1485.2 541.35V524.52C1485.11 520.125 1485.57 515.735 1486.55 511.45C1487.2 508.327 1488.88 505.512 1491.31 503.45C1493.57 501.65 1496.75 500.75 1500.86 500.75C1504.97 500.75 1508.19 501.65 1510.53 503.45C1512.95 505.493 1514.62 508.283 1515.28 511.38C1516.27 515.685 1516.72 520.094 1516.63 524.51V541.35C1516.72 545.745 1516.26 550.135 1515.28 554.42C1514.63 557.542 1512.96 560.357 1510.53 562.42C1508.26 564.22 1505.04 565.12 1500.86 565.12ZM1500.86 560.8C1503.89 560.8 1506.13 560.027 1507.56 558.48C1509.14 556.605 1510.1 554.285 1510.31 551.84C1510.74 548.438 1510.94 545.01 1510.91 541.58V524.3C1510.95 520.854 1510.75 517.409 1510.31 513.99C1510.1 511.561 1509.14 509.259 1507.56 507.4C1506.12 505.853 1503.89 505.08 1500.86 505.08C1497.86 505.08 1495.62 505.85 1494.22 507.4C1492.68 509.276 1491.74 511.572 1491.52 513.99C1491.09 517.409 1490.89 520.854 1490.93 524.3V541.58C1490.9 545.009 1491.09 548.437 1491.52 551.84C1491.73 554.274 1492.67 556.588 1494.22 558.48C1495.62 560 1497.84 560.8 1500.86 560.8Z" fill="#9541BA"/>
<path d="M1542.44 565.12C1539.47 565.2 1536.53 564.511 1533.91 563.12C1531.53 561.787 1529.71 559.373 1528.46 555.88C1527.21 552.387 1526.58 547.427 1526.57 541V524.41C1526.57 517.863 1527.22 512.893 1528.51 509.5C1529.8 506.107 1531.66 503.803 1534.07 502.59C1536.71 501.319 1539.62 500.691 1542.55 500.76C1546.44 500.76 1549.55 501.58 1551.73 503.24C1553.91 504.9 1555.55 507.54 1556.48 511.18C1557.54 515.911 1558.01 520.754 1557.89 525.6V531.54H1532.29V541.47C1532.18 545.385 1532.51 549.301 1533.29 553.14C1533.96 555.94 1535.05 557.92 1536.58 559.08C1538.28 560.285 1540.33 560.89 1542.41 560.8C1543.95 560.795 1545.49 560.542 1546.95 560.05C1548.63 559.395 1549.98 558.115 1550.73 556.48C1551.74 554.607 1552.25 551.693 1552.24 547.74V543.09H1557.86V547.2C1557.86 552.52 1556.76 556.85 1554.56 560.2C1552.36 563.55 1548.35 565.12 1542.44 565.12ZM1532.29 528.12H1552.29V523.26C1552.32 520.027 1552.12 516.795 1551.7 513.59C1551.47 511.283 1550.55 509.1 1549.05 507.33C1547.68 505.85 1545.52 505.12 1542.57 505.12C1540.55 505.046 1538.54 505.549 1536.79 506.57C1535.24 507.55 1534.11 509.35 1533.39 511.97C1532.55 515.71 1532.19 519.54 1532.31 523.37L1532.29 528.12Z" fill="#9541BA"/>
<path d="M1168.66 693.75V631.33H1200.3V693.75H1194.58V635.86H1174.38V693.75H1168.66Z" fill="#9541BA"/>
<path d="M1227 694.72C1222.89 694.72 1219.7 693.82 1217.44 692.02C1215.01 689.958 1213.34 687.142 1212.69 684.02C1211.71 679.735 1211.25 675.346 1211.34 670.95V654.12C1211.25 649.725 1211.71 645.335 1212.69 641.05C1213.34 637.929 1215.01 635.113 1217.44 633.05C1219.71 631.25 1222.89 630.35 1227 630.35C1231.17 630.35 1234.4 631.25 1236.66 633.05C1239.08 635.095 1240.75 637.884 1241.42 640.98C1242.4 645.285 1242.86 649.695 1242.77 654.11V671C1242.84 675.373 1242.38 679.738 1241.4 684C1240.75 687.121 1239.07 689.935 1236.64 692C1234.38 693.82 1231.15 694.72 1227 694.72ZM1227 690.4C1230.02 690.4 1232.25 689.627 1233.69 688.08C1235.27 686.204 1236.24 683.885 1236.45 681.44C1236.87 678.037 1237.07 674.609 1237.04 671.18V653.9C1237.07 650.454 1236.88 647.01 1236.45 643.59C1236.23 641.162 1235.27 638.86 1233.69 637C1232.25 635.453 1230.02 634.68 1227 634.68C1223.98 634.68 1221.77 635.453 1220.36 637C1218.81 638.873 1217.87 641.171 1217.66 643.59C1217.23 647.009 1217.02 650.454 1217.06 653.9V671.18C1217.03 674.61 1217.23 678.038 1217.66 681.44C1217.86 683.877 1218.8 686.194 1220.36 688.08C1221.75 689.633 1223.96 690.407 1227 690.4Z" fill="#9541BA"/>
<path d="M1268.45 694.72C1263.78 694.72 1260.33 693.624 1258.08 691.43C1255.74 689.023 1254.21 685.947 1253.71 682.63C1253 678.566 1252.66 674.446 1252.71 670.32V655.63C1252.59 650.679 1253.06 645.731 1254.11 640.89C1255.05 637.177 1256.67 634.51 1258.98 632.89C1261.28 631.23 1264.45 630.41 1268.48 630.41C1272.8 630.41 1276.06 631.29 1278.25 633.05C1280.5 634.891 1282.04 637.447 1282.63 640.29C1283.38 643.674 1283.75 647.133 1283.71 650.6V653H1278.31V650.51C1278.43 647.223 1278.09 643.935 1277.31 640.74C1276.87 638.818 1275.73 637.126 1274.12 635.99C1272.41 635.023 1270.47 634.555 1268.51 634.64C1265.7 634.64 1263.58 635.307 1262.14 636.64C1260.7 637.98 1259.72 640.12 1259.22 643.07C1258.65 647.004 1258.4 650.977 1258.47 654.95V671.15C1258.47 677.924 1259.14 682.82 1260.47 685.84C1261.8 688.86 1264.52 690.37 1268.63 690.37C1271.43 690.37 1273.54 689.76 1274.94 688.54C1276.5 687.012 1277.48 684.984 1277.7 682.81C1278.18 679.499 1278.4 676.155 1278.35 672.81V670.43H1283.75V672.7C1283.78 676.467 1283.44 680.228 1282.75 683.93C1282.26 686.955 1280.78 689.732 1278.54 691.82C1276.35 693.754 1272.98 694.72 1268.45 694.72Z" fill="#9541BA"/>
<path d="M1309.06 694.72C1306.09 694.801 1303.15 694.112 1300.52 692.72C1298.15 691.386 1296.34 688.973 1295.07 685.48C1293.8 681.986 1293.17 677.036 1293.18 670.63V654C1293.18 647.453 1293.83 642.483 1295.12 639.09C1296.41 635.696 1298.27 633.393 1300.69 632.18C1303.33 630.909 1306.23 630.281 1309.16 630.35C1313.05 630.35 1316.11 631.17 1318.34 632.83C1320.57 634.49 1322.16 637.13 1323.1 640.77C1324.15 645.502 1324.62 650.344 1324.5 655.19V661.13H1298.91V671.06C1298.8 674.975 1299.14 678.89 1299.91 682.73C1300.58 685.53 1301.67 687.51 1303.2 688.67C1304.9 689.875 1306.96 690.48 1309.04 690.39C1310.58 690.385 1312.11 690.132 1313.57 689.64C1315.25 688.985 1316.6 687.705 1317.35 686.07C1318.36 684.203 1318.87 681.29 1318.86 677.33V672.68H1324.48V676.79C1324.48 682.123 1323.38 686.456 1321.19 689.79C1319 693.123 1314.95 694.766 1309.06 694.72ZM1298.91 657.72H1318.91V652.86C1318.95 649.626 1318.75 646.395 1318.32 643.19C1318.09 640.883 1317.17 638.7 1315.67 636.93C1314.31 635.45 1312.15 634.72 1309.19 634.72C1307.17 634.645 1305.17 635.148 1303.42 636.17C1301.87 637.17 1300.73 638.95 1300.02 641.57C1299.18 645.309 1298.82 649.139 1298.94 652.97L1298.91 657.72Z" fill="#9541BA"/>
<path d="M1383.79 708.22L1383.14 693.75H1335.14V631.33H1340.76V689.76H1356.09V631.33H1361.6V689.76H1377V631.33H1382.61V689.76H1388.12V708.22H1383.79Z" fill="#9541BA"/>
<path d="M1411.55 694.72C1408.58 694.801 1405.64 694.112 1403.02 692.72C1400.64 691.386 1398.82 688.973 1397.56 685.48C1396.3 681.986 1395.67 677.036 1395.67 670.63V654C1395.67 647.453 1396.32 642.483 1397.62 639.09C1398.92 635.697 1400.77 633.393 1403.18 632.18C1405.82 630.908 1408.73 630.281 1411.66 630.35C1415.54 630.35 1418.6 631.17 1420.84 632.83C1423.08 634.49 1424.65 637.13 1425.59 640.77C1426.64 645.502 1427.11 650.344 1426.99 655.19V661.13H1401.4V671.06C1401.29 674.975 1401.63 678.89 1402.4 682.73C1403.09 685.53 1404.18 687.51 1405.7 688.67C1407.4 689.876 1409.45 690.482 1411.53 690.39C1413.07 690.385 1414.6 690.132 1416.06 689.64C1417.74 688.988 1419.09 687.707 1419.84 686.07C1420.85 684.203 1421.36 681.29 1421.36 677.33V672.68H1427V676.79C1427 682.123 1425.9 686.456 1423.71 689.79C1421.52 693.123 1417.46 694.766 1411.55 694.72ZM1401.4 657.72H1421.4V652.86C1421.43 649.626 1421.23 646.394 1420.8 643.19C1420.57 640.884 1419.65 638.701 1418.16 636.93C1416.79 635.45 1414.63 634.72 1411.68 634.72C1409.65 634.645 1407.65 635.148 1405.9 636.17C1404.35 637.15 1403.21 638.95 1402.5 641.57C1401.66 645.31 1401.3 649.14 1401.42 652.97L1401.4 657.72Z" fill="#9541BA"/>
<path d="M1437.79 693.75V631.33H1443.52V659.08H1465.76V631.33H1471.6V693.75H1465.76V663.51H1443.52V693.75H1437.79Z" fill="#9541BA"/>
<path d="M1483.8 693.75V631.33H1488.8V683.06L1510.8 631.33H1515.55V693.75H1510.55V642.45L1488.63 693.75H1483.8Z" fill="#9541BA"/>
<path d="M1542.44 694.72C1539.47 694.8 1536.53 694.111 1533.91 692.72C1531.53 691.387 1529.71 688.973 1528.46 685.48C1527.21 681.987 1526.58 677.037 1526.57 670.63V654C1526.57 647.453 1527.22 642.483 1528.51 639.09C1529.8 635.697 1531.66 633.393 1534.07 632.18C1536.71 630.91 1539.62 630.283 1542.55 630.35C1546.44 630.35 1549.55 631.17 1551.73 632.83C1553.91 634.49 1555.55 637.13 1556.48 640.77C1557.54 645.501 1558.01 650.344 1557.89 655.19V661.13H1532.29V671.06C1532.18 674.976 1532.51 678.891 1533.29 682.73C1533.96 685.53 1535.05 687.51 1536.58 688.67C1538.28 689.875 1540.33 690.481 1542.41 690.39C1543.95 690.386 1545.49 690.133 1546.95 689.64C1548.63 688.985 1549.98 687.705 1550.73 686.07C1551.74 684.203 1552.25 681.29 1552.24 677.33V672.68H1557.86V676.79C1557.86 682.123 1556.76 686.457 1554.56 689.79C1552.36 693.123 1548.32 694.767 1542.44 694.72ZM1532.29 657.72H1552.29V652.86C1552.32 649.627 1552.12 646.396 1551.7 643.19C1551.47 640.883 1550.55 638.7 1549.05 636.93C1547.68 635.45 1545.52 634.72 1542.57 634.72C1540.55 634.647 1538.54 635.15 1536.79 636.17C1535.24 637.15 1534.11 638.95 1533.39 641.57C1532.55 645.31 1532.19 649.14 1532.31 652.97L1532.29 657.72Z" fill="#9541BA"/>
<path d="M1930.2 555.67C1930.51 549.705 1930.02 543.726 1928.75 537.89V573.3C1929.4 567.46 1929.86 561.57 1930.2 555.67Z" fill="#9541BA"/>
<path d="M1810.67 826.62C1812.32 824.38 1813.97 822.13 1815.6 819.85C1819.24 817.07 1823.01 814.57 1826.81 812.21C1854.37 802.5 1893.52 806.35 1916.23 804.1C1916.58 804.1 1916.91 803.962 1917.16 803.716C1917.4 803.47 1917.54 803.137 1917.54 802.79C1917.54 802.442 1917.4 802.109 1917.16 801.863C1916.91 801.618 1916.58 801.48 1916.23 801.48C1898.36 800.18 1868.34 798.6 1842.56 803.84C1869.25 791.65 1898.81 787.32 1928.77 783.9V775.24C1924.83 775.733 1920.9 776.21 1916.98 776.67C1890.29 779.86 1855.65 783.88 1829.98 798.67C1844.5 776.234 1857.11 752.621 1867.69 728.08C1887.57 718.63 1908.23 712.74 1928.76 706.96V701.82C1915.01 705.82 1901.2 709.68 1887.76 714.48C1888.49 713.32 1889.22 712.17 1889.96 711.03C1902.39 702.8 1915.65 695.76 1928.8 688.59V681.36C1917.22 688.47 1905.8 695.82 1894.8 703.72C1905.25 688.34 1916.15 674.82 1928.8 662.97V648.6C1907.39 665.82 1890.05 687.87 1881.61 713.7C1879.1 715.7 1876.61 717.64 1874.12 719.7C1872.92 720.21 1871.77 720.82 1870.59 721.35C1890.79 671.9 1901.48 619.26 1898.49 565.09C1898.41 563.45 1895.89 563.45 1895.95 565.09C1896.66 589.136 1894.82 613.189 1890.48 636.85C1888.48 625.28 1882.97 614.73 1876.88 603.33C1853.96 560.33 1868.13 513.7 1888.81 473.15C1895.21 460.61 1892.27 456.25 1894.67 470.97C1896.78 483.97 1904.15 497.3 1909.55 509.12C1930.85 555.72 1923.13 602.42 1894.99 644.63C1893.66 646.63 1896.63 648.84 1898.27 647.18C1918.27 626.69 1925.73 600.62 1928.8 573.26V537.89C1922.67 508.6 1900.39 482.68 1900.63 451.59C1900.63 447.75 1895.48 446.53 1893.56 449.69C1874.97 480.27 1861.06 511.37 1857.42 547.26C1853.24 588.52 1886.04 615.93 1886.5 655.07C1886.5 655.21 1886.62 655.28 1886.65 655.41C1882.35 673.318 1876.76 690.894 1869.93 708C1883.38 630.12 1807.64 585.2 1771.42 527.09C1771.12 526.591 1770.69 526.179 1770.18 525.893C1769.67 525.608 1769.09 525.457 1768.51 525.457C1767.93 525.457 1767.35 525.608 1766.84 525.893C1766.33 526.179 1765.91 526.591 1765.6 527.09C1716.21 606.4 1884.65 654.86 1860.66 726.02C1860.41 726.15 1860.16 726.24 1859.92 726.37C1859.62 726.509 1859.36 726.714 1859.16 726.968C1858.95 727.222 1858.8 727.519 1858.72 727.838C1858.65 728.157 1858.64 728.488 1858.71 728.809C1858.78 729.129 1858.92 729.43 1859.12 729.69C1858.68 730.69 1858.36 731.74 1857.83 732.78C1857.64 733.14 1857.56 733.551 1857.61 733.957C1857.66 734.363 1857.83 734.744 1858.1 735.05C1844.75 762.649 1828.84 788.939 1810.6 813.58C1808.7 776.05 1810.99 749.28 1789.77 716.67C1760.46 671.57 1725.61 629.81 1685.45 594.05C1683.13 591.99 1679.15 593.91 1680.08 597.15C1691.08 635.75 1711.29 668.03 1734.34 700.58C1759.68 736.37 1798.02 774.67 1804.17 819.48C1804.21 819.773 1804.31 820.053 1804.48 820.299C1804.64 820.545 1804.86 820.751 1805.11 820.9C1783.41 849.212 1759.43 875.694 1733.4 900.08C1733.58 899.5 1733.8 898.91 1733.96 898.33C1745.96 878.16 1747.96 853.33 1740.4 830.51C1728.65 794.89 1682.33 777.96 1685.1 736.34C1685.31 733.12 1679.96 732.42 1679.43 735.62C1674.88 763.16 1674.65 788.74 1682.13 815.73C1692 851.35 1715.33 877.73 1717.06 915.07C1698.51 931.53 1679.33 946.96 1659.89 961.24C1654.19 965.42 1648.4 969.33 1642.62 973.24C1685.81 911.97 1639.22 839.8 1625.02 774.97C1624.26 771.53 1619.15 771.73 1618.3 774.97C1608.55 812.28 1601.41 848.66 1603.77 887.35C1605.77 920.35 1629.09 947.15 1631.41 980.62C1602.77 998.865 1572.73 1014.82 1541.58 1028.33C1563.32 981.08 1577.43 916.41 1553.39 868.4C1552.27 866.16 1548.29 865.94 1547.22 868.4C1524.69 920 1510.79 979 1529 1033.68C1506.2 1043.23 1482.92 1051.92 1459.09 1059.95C1447.16 1063.99 1435.25 1067.82 1423.34 1071.44C1423.92 1070.09 1424.49 1068.73 1425.07 1067.36C1469.43 1042.36 1473.8 968.99 1484.94 925.73C1485.81 922.41 1481.94 920.73 1479.62 922.64C1437.45 955.75 1399.81 1009.64 1414.62 1064.25C1414.03 1064.6 1413.5 1065.02 1412.89 1065.37C1412.39 1065.66 1411.97 1066.08 1411.69 1066.58C1411.4 1067.09 1411.26 1067.66 1411.28 1068.24C1410.94 1068.43 1410.67 1068.73 1410.52 1069.1C1410.37 1069.46 1410.36 1069.87 1410.48 1070.24C1410.97 1071.73 1411.48 1073.24 1412.04 1074.76C1402.15 1077.68 1392.26 1080.45 1382.35 1083.08H1411.45L1414.77 1082.08L1415.16 1083.08H1429.92C1427.92 1082.71 1425.84 1082.39 1423.81 1082.14C1423.53 1082.09 1423.25 1082.11 1422.98 1082.2C1422.72 1082.29 1422.48 1082.44 1422.28 1082.64L1420.63 1080.32C1434.29 1076.19 1447.82 1071.94 1461.18 1067.67C1485.52 1059.89 1509.01 1051.24 1531.92 1041.67C1532.23 1042.07 1532.67 1042.35 1533.17 1042.46C1533.67 1042.56 1534.19 1042.48 1534.63 1042.23C1544.13 1056.23 1554.12 1069.99 1564.83 1083.03H1575.33C1564.33 1070.65 1553.68 1057.63 1542.68 1044.65C1567.04 1053.36 1588.51 1066.93 1608.24 1083.03H1620.53C1596.95 1062.85 1571.1 1046.1 1542.01 1037.66C1541.86 1037.64 1541.72 1037.64 1541.57 1037.66C1573.9 1023.81 1605.12 1007.48 1634.93 988.82L1637.81 989.39C1640.07 992.048 1642.59 994.476 1645.33 996.64C1662.59 1028.7 1691.42 1055.97 1723.55 1071.8C1731.02 1075.48 1738.55 1079.3 1746.27 1083.07H1763.8C1754.38 1078.76 1745.08 1074.22 1735.8 1069.79C1704.51 1054.79 1677.23 1033.11 1658.12 1004.79C1685.32 1018.48 1722.12 1021.01 1739.91 1048.79C1740.81 1050.2 1743.05 1048.93 1742.17 1047.48C1731.9 1030.27 1717.29 1021.48 1699.11 1013.62C1683.86 1007.05 1669.64 1000.99 1655.93 993.27C1720.37 1007.78 1785.57 1032.06 1828.6 1083.11H1838.16C1793.52 1025.25 1718.99 997.73 1647.47 986.33C1646.78 984.9 1646.06 983.49 1645.39 982.05C1657.77 973.93 1670.05 965.48 1682.12 956.3C1692 948.78 1701.76 940.906 1711.39 932.68C1728.77 940.54 1742.48 954.35 1760.62 960.54C1784.54 968.69 1809.14 973.54 1834.05 977.54C1855.48 980.97 1876.48 979.31 1897.34 974.1C1908.89 971.22 1918.9 964.23 1928.75 956.84V946.24C1923.83 949.86 1918.95 953.63 1913.75 957.37C1885.28 978.11 1845.99 972.47 1814.02 966.55C1793.79 962.8 1773.82 958.02 1754.81 950.04C1747.81 947.13 1741.9 943.04 1735.98 938.88C1760.07 947.11 1785.24 952.88 1810.6 948.88C1812.29 948.61 1811.76 946.11 1810.2 946.03C1781 944.56 1753.69 941.03 1726.26 932.4C1724.35 931.22 1722.38 930.12 1720.36 929.12C1755.95 917.42 1789.46 920.59 1827.01 925.19C1860.85 929.32 1894.71 932.99 1928.7 935.42V927.33C1890.31 924.5 1852.06 920.17 1813.82 915.68C1782.18 911.95 1751.47 911.03 1722.47 922.96C1753.16 895.738 1781.14 865.596 1806 832.96C1840.54 822.96 1876.42 826.8 1911.85 827.96C1917.45 828.16 1923.07 828.18 1928.7 828.08V819.91C1888.37 818.87 1847.85 816.84 1810.67 826.62ZM1868.94 710.55L1868.71 711.17C1868.71 710.98 1868.71 710.79 1868.71 710.59C1868.78 710.56 1868.87 710.58 1868.94 710.55ZM1790.61 605.76C1778.37 591.66 1766.73 575.35 1764.2 556.4C1763.63 552.13 1764.92 529.4 1770.68 538.45C1777.25 548.76 1785.15 558.23 1793 567.56C1808.56 585.98 1826.06 602.49 1840.69 621.72C1857.93 644.38 1862.46 668.45 1865.3 694.93C1852.47 660.53 1807.81 625.56 1790.61 605.76ZM1803.94 794.22C1797.39 774.67 1783.86 757.41 1771.37 740.84C1744.58 705.23 1717.27 668.55 1697.89 628.3C1675.6 582.06 1707.4 623.12 1717.09 633.3C1736.63 653.75 1753.68 676.58 1770.14 699.52C1784.63 719.69 1799.74 739.65 1802.98 764.99C1804.21 774.57 1804 784.41 1803.94 794.22ZM1416.33 1073.47L1415.49 1071.74C1415.97 1071.58 1416.36 1071.32 1416.82 1071.14C1417.06 1071.8 1417.27 1072.46 1417.52 1073.14L1416.33 1073.47ZM1418.97 1061.47C1414.12 1032.89 1420.7 1007.15 1435.53 980.74C1443.05 967.34 1453.38 955.74 1463.95 944.74C1469.41 939.06 1478.89 923.04 1475.81 936.37C1466.81 975.06 1460.34 1021.13 1432.15 1050.29C1439 1033.06 1444.87 1014.98 1444.98 997.29C1444.98 995.4 1441.87 994.9 1441.61 996.85C1438.68 1018.44 1429.02 1037.91 1423.09 1058.45C1421.76 1059.43 1420.39 1060.45 1419 1061.43L1418.97 1061.47ZM1538.36 1039.66L1537.96 1039.2C1538.21 1039.08 1538.46 1038.98 1538.72 1038.87C1538.57 1039.1 1538.45 1039.36 1538.36 1039.62V1039.66ZM1532.99 1029.19C1526.96 1001.42 1526.16 972.767 1530.61 944.7C1532.27 933.77 1535.34 923.09 1538.34 912.47C1540.12 906.14 1549.28 871.98 1554.83 892.05C1566.73 935.06 1551.91 990 1533 1029.15L1532.99 1029.19ZM1635.99 971.75C1635.88 969.01 1635.65 966.3 1635.28 963.63C1635.45 963.663 1635.63 963.66 1635.8 963.622C1635.97 963.584 1636.13 963.512 1636.27 963.41C1636.41 963.308 1636.53 963.178 1636.61 963.028C1636.7 962.878 1636.76 962.712 1636.78 962.54C1641.89 933.98 1631.95 904.37 1626.98 876.44C1626.68 874.67 1623.62 875.08 1623.84 876.87C1627.13 902.35 1630.84 927.35 1632.96 952.87C1629.47 940.1 1623.68 927.78 1618.42 915.11C1601.84 875.11 1612.17 829.27 1621.93 788.87C1619.13 800.5 1639.5 844.77 1645.74 864.68C1658 903.69 1656.55 937.28 1636 971.71L1635.99 971.75ZM1678.79 743.5C1678.68 745.634 1678.74 747.774 1678.96 749.9C1678.66 747.767 1678.59 745.608 1678.75 743.46L1678.79 743.5ZM1728.63 895.13C1726.57 898.456 1724.3 901.64 1721.81 904.66C1721.39 889.66 1717.06 876.32 1709.81 861.11C1700.92 842.48 1691.81 824.45 1686.32 804.46C1684.2 795.486 1682.92 786.332 1682.5 777.12C1681.98 770.48 1679.75 758.63 1678.98 750.12C1680.98 765.29 1693.58 779.3 1702.75 790.12C1726.18 817.66 1746.48 848.53 1735.32 881.29C1733.95 866.19 1726.9 851.22 1722.01 836.66C1721.92 836.311 1721.68 836.014 1721.37 835.835C1721.06 835.656 1720.68 835.609 1720.34 835.705C1719.99 835.8 1719.69 836.03 1719.51 836.344C1719.33 836.659 1719.29 837.031 1719.38 837.38C1721.82 847.69 1724.83 857.8 1727.5 868.04C1729.89 877.36 1729.56 886.08 1728.59 895.09L1728.63 895.13ZM1807.94 817.22C1807.94 817.22 1807.94 817.13 1807.94 817.08C1807.98 817.089 1808.03 817.089 1808.07 817.08L1807.94 817.22Z" fill="#9541BA"/>
<path d="M1678.75 743.46C1678.58 745.593 1678.64 747.739 1678.92 749.86C1678.7 747.734 1678.64 745.594 1678.75 743.46Z" fill="#9541BA"/>
<path d="M1371.75 979.42C1369.56 980.64 1362.18 1009.81 1359.92 1014.12C1353.6 1026.18 1344.98 1037.28 1336.51 1047.84C1329.37 1056.49 1321.76 1064.74 1313.72 1072.56C1318.52 1059.63 1322.26 1045.94 1325.72 1033.06C1326.25 1031.12 1323.26 1030.33 1322.72 1032.25C1317.98 1048.48 1308.39 1064.41 1305.12 1081.13L1303.23 1083.05H1315.64C1346.56 1053.49 1375.36 1013.48 1379.83 973.59C1380.13 970.89 1376.83 969.89 1374.92 970.78C1333.02 989.78 1296.52 1035.67 1291.73 1083.05H1298.06C1305.46 1039.81 1333.12 1000.82 1371.75 979.42Z" fill="#9541BA"/>
<path d="M1813.74 608.15C1811.85 606.08 1808.87 609.15 1810.74 611.15C1824.23 626.58 1837.31 642.15 1850.44 657.8C1851.44 658.98 1853.71 657.73 1853.11 656.25C1845.33 637.24 1827.25 623 1813.74 608.15Z" fill="#9541BA"/>
<path d="M1537.41 963.24C1535.96 981.92 1533.08 1001.24 1534.06 1019.92C1534.14 1021.18 1536.06 1021.56 1536.34 1020.21C1539.73 1001.62 1539.34 982.07 1540.34 963.21C1540.4 961.34 1537.55 961.39 1537.41 963.24Z" fill="#9541BA"/>
<path d="M1928.75 243.48V304.79C1930.18 284.378 1930.18 263.892 1928.75 243.48Z" fill="#9541BA"/>
<path d="M1907.44 134.56L1911.33 137.56C1917.44 143.42 1923.19 149.65 1928.75 156.07V129.78C1927.62 128.89 1926.5 128.02 1925.38 127.12L1928.75 128.24V116.24C1908.75 108.71 1889.68 98.47 1870.18 88.64C1866.76 84.7267 1863.17 80.9233 1859.41 77.23C1881.62 86.11 1904.18 92.72 1928.75 94.33V86.76C1909.75 87.07 1890.53 82.76 1871.85 76.69C1890.75 78.9699 1909.85 78.9699 1928.75 76.69V69.67C1900.69 72.67 1871.98 70.35 1844.53 63.96C1841.4 61.42 1838.19 58.96 1834.86 56.55C1861.8 64.32 1893.72 58.07 1919.51 52.48C1921.4 52.07 1920.66 49.31 1918.8 49.6C1912.38 50.6 1905.94 51.36 1899.48 52.07C1909.32 50.29 1919.07 47.98 1928.75 45.27V37.71C1900 46.26 1870.56 51.33 1839.93 50C1837.47 49.41 1834.99 48.81 1832.52 48.2C1865.94 37.02 1898.66 22.43 1928.75 7.2V0H1925.39C1901.84 10.83 1877.91 20.76 1853.39 29.51C1839.82 34.394 1826.01 38.5631 1812 42C1808.73 40.2 1805.4 38.42 1802 36.74C1801.57 36.589 1801.09 36.5931 1800.66 36.7514C1800.23 36.9097 1799.86 37.2126 1799.63 37.6089C1799.39 38.0052 1799.3 38.4706 1799.37 38.9263C1799.44 39.382 1799.66 39.8001 1800 40.11C1801.56 41.32 1803.07 42.51 1804.59 43.7C1801.25 44.46 1797.92 45.21 1794.59 45.87C1790.71 42.69 1786.8 39.59 1782.91 36.58C1781.15 35.2 1779.07 38.06 1780.56 39.58C1783.04 42.1 1785.47 44.58 1787.88 47.07C1733.58 56.67 1679.99 53.52 1623.94 37.28C1621.68 36.62 1620.26 38.51 1620.35 40.37C1603.72 26.5233 1586.77 13.0667 1569.49 0H1551.49C1599.11 41 1622.55 90.39 1633.98 154.52C1642.63 203.11 1646.23 251.75 1657.54 299.52C1625.48 251.42 1588.54 204.69 1573.7 148.83C1573.09 137.202 1571.59 125.638 1569.21 114.24C1569.18 114 1569.09 113.77 1568.97 113.563C1568.84 113.355 1568.68 113.174 1568.48 113.031C1568.29 112.888 1568.07 112.785 1567.83 112.728C1567.59 112.671 1567.35 112.662 1567.11 112.7C1562.31 72.58 1562.79 33.77 1542.44 0.03H1514.76C1521.61 4.39 1528.76 7.75 1536 9.15C1549.81 38.34 1553.26 69.38 1556.86 101.15C1545.93 172.05 1512.21 234.61 1529.14 308.01C1530.36 313.33 1537.38 311.81 1538.01 307.01C1543.01 269.27 1564.74 236.68 1571.27 199.01C1572.27 193.57 1572.77 188.01 1573.27 182.39C1593.98 236.44 1638.66 283.73 1666.87 332.72C1669.6 337.48 1677.87 334.61 1676.08 329.11C1642.35 224.32 1655.18 105.82 1585.08 23.88C1600.32 36.24 1615.39 48.8167 1630.3 61.61C1646.99 94.27 1661.73 123.15 1662.77 160.94C1663.42 183.94 1661.18 206 1667.23 228.44C1667.37 228.981 1667.63 229.483 1668 229.908C1668.36 230.333 1668.81 230.67 1669.33 230.892C1669.84 231.115 1670.4 231.218 1670.96 231.193C1671.51 231.169 1672.06 231.017 1672.55 230.75C1722 199.43 1687.18 122 1657.58 88C1657.25 87.685 1656.83 87.4845 1656.37 87.4279C1655.92 87.3713 1655.46 87.4617 1655.07 87.6857C1654.67 87.9097 1654.35 88.2556 1654.17 88.6722C1653.98 89.0889 1653.93 89.5543 1654.03 90C1666.13 128.43 1703.67 170.75 1681.13 212.28C1668.26 235.98 1669.59 200.13 1669.28 191.2C1668.7 174.48 1669.5 157.91 1667.98 141.2C1665.57 114.76 1653.12 91.61 1639.47 69.48C1652.84 81.02 1666.12 92.6367 1679.32 104.33C1706.55 149.18 1710 194.76 1718.67 245.88C1724.12 278.04 1736.61 306.03 1764.13 324.18C1767.58 326.46 1771.53 322.18 1769.69 318.74C1739.54 262.87 1740.83 196.49 1707.92 141.86C1707.57 141.183 1706.97 140.67 1706.25 140.436C1705.53 140.202 1704.74 140.264 1704.06 140.61C1699.5 130.92 1694.32 121.537 1688.54 112.52C1690.72 114.467 1692.9 116.403 1695.08 118.33C1695.05 118.746 1695.19 119.157 1695.45 119.48C1701.61 127.133 1708.26 134.378 1715.36 141.17C1747.36 200.7 1792.8 256.98 1844.23 300.32C1848.41 303.84 1854.54 299.62 1852 294.47C1834.78 259.71 1827.54 214.47 1802.54 183.8C1779.36 155.33 1746.64 150.72 1718.18 129.7C1717.97 129.54 1717.76 129.6 1717.55 129.57C1710.77 122.73 1703.89 115.933 1696.92 109.18C1744.49 138.5 1809.49 147.98 1859.14 158.44C1860.24 158.669 1861.39 158.471 1862.35 157.887C1863.31 157.302 1864.02 156.374 1864.32 155.29C1869.13 167.899 1872.9 180.883 1875.59 194.11C1885.69 243.31 1888.46 294.98 1919.99 336.2C1922.06 338.89 1925.68 336.39 1925.99 333.78C1927.17 324.14 1928.09 314.473 1928.74 304.78V243.48C1926.05 206.78 1918.16 171.39 1903.24 139.56C1912.24 152.05 1920.56 165.09 1928.74 178.28V165.4C1921.91 154.88 1914.89 144.53 1907.44 134.56ZM1557.56 216.34C1552.04 239.55 1541.37 260.51 1534.47 282.93C1529.47 227.19 1550.07 175.64 1559.29 120.83C1560.35 129.08 1561.61 137.34 1563.19 145.63C1562.67 169.24 1563.19 192.67 1557.56 216.34ZM1734.67 250.4C1738.44 265.324 1743.07 280.016 1748.55 294.4C1765.45 339.53 1733.38 271.86 1732.71 270.14C1722.44 243.7 1720.89 213.95 1716.9 185.81C1723.57 207 1729.2 228.41 1734.67 250.4ZM1788.48 179.4C1813.73 203.95 1821.69 244.64 1834.64 279.01C1798.64 245.33 1773.43 204.37 1743.38 166.36C1757.05 178.23 1770.65 190.18 1782.51 203.83C1784.4 206.02 1787.51 202.9 1785.67 200.72C1773.54 186.08 1759.93 172.65 1745.81 159.72C1745.83 159.468 1745.8 159.214 1745.71 158.976C1745.62 158.738 1745.49 158.521 1745.31 158.34C1740.31 152.94 1735.13 147.6 1729.97 142.24C1749.62 154.56 1771.43 162.83 1788.48 179.43V179.4ZM1902.55 115.67C1901.48 115.41 1900.38 115.1 1899.32 114.84C1899.07 114.772 1898.82 114.761 1898.56 114.807C1898.31 114.854 1898.08 114.958 1897.87 115.11C1893.43 112.27 1888.96 109.497 1884.45 106.79C1884.42 106.739 1884.39 106.692 1884.35 106.65C1890.33 109.87 1896.4 112.887 1902.55 115.7V115.67ZM1648.83 64.62C1650.03 65.36 1651.32 65.99 1652.55 66.7C1652.55 66.82 1652.55 66.94 1652.61 67.04C1653.31 68.14 1654.15 69.12 1654.88 70.19C1645.55 61.91 1636.11 53.73 1626.56 45.65C1636.4 51.4589 1646.84 56.1864 1657.69 59.75C1655.69 59.75 1653.69 59.75 1651.69 59.86C1651.15 59.8792 1650.64 60.0924 1650.25 60.4602C1649.86 60.828 1649.61 61.3253 1649.56 61.86C1649.24 61.8628 1648.92 61.9722 1648.67 62.1712C1648.41 62.3702 1648.23 62.6479 1648.14 62.9615C1648.06 63.2751 1648.08 63.6073 1648.21 63.907C1648.33 64.2066 1648.55 64.4572 1648.83 64.62ZM1755.44 124.62C1721.1 113.68 1695.53 95.35 1668.11 74.88C1698.83 89.45 1733.4 97.88 1764.23 111.32C1766.11 112.14 1767.8 109.43 1765.89 108.51C1730.96 91.5354 1694.95 76.8575 1658.11 64.57C1664.77 64.57 1671.42 64.67 1678.03 65.14C1687.7 67.0255 1697.49 68.202 1707.33 68.66C1723.08 71.1986 1738.64 74.7526 1753.93 79.3C1774.12 85.3 1792.74 94.86 1810.42 106.13C1816.32 109.88 1849.15 147.63 1850.88 148C1818.74 141.28 1786.76 134.62 1755.44 124.66V124.62ZM1741.44 68.08C1760.7 66.3395 1779.79 63.0149 1798.51 58.14C1825.51 86.73 1847.17 113.91 1861.75 148.72C1834.92 104.69 1790.25 79.82 1741.45 68.12L1741.44 68.08ZM1917.65 199.14C1924.28 227.4 1924.09 256.92 1923.25 285.74C1923.16 288.84 1925.65 335.08 1911.92 311.66C1903.15 296.72 1899.2 278.27 1895.1 261.56C1883.86 215.7 1880.39 170.27 1861.59 126.39C1849.78 98.81 1829.19 75.91 1806.59 56.02C1809.91 55.12 1813.22 54.16 1816.52 53.18C1819.77 55.8 1822.95 58.44 1826.08 61.06C1825.65 61.5116 1825.34 62.0645 1825.19 62.6672C1825.03 63.2699 1825.03 63.9027 1825.18 64.5067C1825.33 65.1107 1825.63 65.6662 1826.06 66.1214C1826.48 66.5766 1827.02 66.9167 1827.61 67.11C1830.29 67.99 1833 68.6 1835.7 69.37C1837.43 70.89 1839.17 72.37 1840.85 73.94C1840.76 74.1909 1840.71 74.4539 1840.7 74.72C1838.76 73.89 1836.82 73.04 1834.85 72.25C1832.88 71.46 1831.95 74.38 1833.5 75.43C1841.8 81.04 1850.59 86.78 1859.66 92.43C1860.78 93.62 1861.86 94.82 1862.95 96.01C1861.56 96.81 1860.72 98.6 1862.25 99.82C1866.25 103 1870.25 106.09 1874.25 109.19C1894.2 134.07 1909.06 162.53 1917.66 199.18L1917.65 199.14ZM1913.28 123.14C1913.27 123.515 1913.33 123.888 1913.48 124.233C1913.62 124.579 1913.84 124.888 1914.12 125.14C1915.34 126.36 1916.62 127.47 1917.84 128.65C1914.16 126.05 1910.43 123.54 1906.68 121.03L1913.28 123.14Z" fill="#9541BA"/>
<path d="M1599.75 154.69C1596.67 104.1 1585.21 40.62 1550.16 0H1543.64C1579.2 42.59 1580.32 102.55 1595.52 155.16C1596.17 157.41 1599.9 157.22 1599.75 154.69Z" fill="#9541BA"/>
<path d="M1512.55 47.49C1522.26 81.16 1509.48 113.65 1498.29 144.76C1494.71 154.76 1495.29 159.03 1495.15 169.28C1495.15 168.28 1471.5 133.28 1468.86 126.6C1454.4 89.78 1452.37 43.66 1445.54 0H1437.83C1440.99 17 1443.19 34.53 1445.25 52.22C1450.82 99.89 1457.25 155.98 1501.14 184C1504.35 186.05 1508.91 182.77 1507.8 179.06C1498.89 149.31 1522.1 113.84 1525.74 83.83C1529.03 56.75 1519.65 30.68 1507.67 7.03C1506.48 4.67667 1505.23 2.34333 1503.93 0.03H1491.64C1500.67 14.8604 1507.7 30.8184 1512.55 47.49Z" fill="#9541BA"/>
<path d="M1317.6 7.45C1316.19 4.99 1314.81 2.5 1313.44 0H1307.79C1309.68 3.25 1311.56 6.51 1313.47 9.75C1315 12.38 1319.12 10.09 1317.6 7.45Z" fill="#9541BA"/>
<path d="M1587 5.53C1586.62 5.27843 1586.16 5.16535 1585.71 5.20962C1585.25 5.25389 1584.83 5.45284 1584.5 5.77329C1584.17 6.09374 1583.97 6.51635 1583.91 6.97067C1583.86 7.42499 1583.97 7.88358 1584.21 8.27C1615.54 41 1673 26.34 1711.74 18.64C1743.28 12.38 1773.74 4.52 1805.87 1.56C1816.09 0.62 1826.31 0.2 1836.54 0H1729.81C1736.71 0.870234 1743.64 1.3909 1750.59 1.56C1697.86 15.18 1624.43 42.27 1587 5.53Z" fill="#9541BA"/>
<path d="M1367.66 114.93C1371.32 116.55 1376.84 112.93 1373.98 108.76C1350.75 74.83 1354.26 37.17 1351.74 0H1340C1340.25 2.66 1340.45 5.36 1340.6 8.13C1341.6 26.46 1341.78 44.49 1344.07 62.71C1346.36 80.93 1371.18 108.16 1345.73 93.87C1310.9 74.29 1289.12 38.24 1273.25 0H1265C1286.72 51.31 1315.56 92 1367.66 114.93Z" fill="#9541BA"/>
<path d="M1480.89 58.41C1478.74 38.4936 1474.29 18.8932 1467.63 0L1458.29 0C1465.19 18.82 1471.06 38.44 1476.81 58.86C1477.41 61 1481.15 60.83 1480.89 58.41Z" fill="#9541BA"/>
<path d="M1798.67 18.62C1749.75 32.4 1705.77 39.3 1654.87 37.16C1653.11 37.07 1652.65 39.85 1654.4 40.16C1705 50.48 1751.65 38 1799.58 22.36C1801.91 21.58 1801.06 17.93 1798.67 18.62Z" fill="#9541BA"/>
<path d="M343.461 1083.05H335.101C337.816 1083.94 340.745 1083.94 343.461 1083.05Z" fill="#9541BA"/>
<path d="M357.49 1061.56C358.77 1062.56 360.08 1063.42 361.34 1064.39C362.076 1065.03 363.033 1065.36 364.007 1065.3C364.98 1065.25 365.894 1064.81 366.55 1064.09C375.26 1053.36 379.17 1039.88 367.28 1029.94C365.403 1028.42 363.344 1027.14 361.15 1026.13C363.86 1020.01 362.79 1012.82 359.06 1007.23C354.95 1001.04 347.67 997.66 340.39 999.61C338.315 1000.23 336.381 1001.25 334.7 1002.61C333.892 999.593 332.72 996.685 331.21 993.95C323.53 980.13 308.21 979.35 296.21 988.01C295.921 988.216 295.707 988.512 295.602 988.852C295.497 989.192 295.507 989.557 295.63 989.89C295.04 989.89 294.44 989.73 293.85 989.73C291.9 989.73 291.46 992.57 293.11 993.37C300 996.7 306.03 999.46 311.38 1005.17C314.072 1008.2 316.367 1011.56 318.21 1015.17C318.47 1015.67 319.76 1018.17 320.87 1020.77C320.646 1020.83 320.435 1020.93 320.253 1021.07C320.07 1021.21 319.919 1021.39 319.81 1021.59C319.7 1021.8 319.635 1022.02 319.618 1022.25C319.601 1022.48 319.632 1022.71 319.71 1022.93C320.126 1023.85 320.389 1024.83 320.49 1025.84C318.64 1026.29 317.04 1027.4 315.09 1028.49C312.027 1030.29 308.571 1031.32 305.02 1031.49C300.02 1031.67 295.63 1028.36 292.9 1024.49C286.8 1015.78 288.39 1003.89 298.9 999.9C300.97 999.12 300.18 996.46 298.19 996.35C289.26 995.86 284.68 1001.77 283.19 1009.03C274.03 1019.03 268.53 1032.58 279.03 1043.72C283.44 1048.41 291.03 1050.72 297.25 1050.8C297.25 1050.8 297.31 1050.8 297.34 1050.8C296.696 1052.32 296.229 1053.91 295.95 1055.53C294.69 1063.34 298.83 1070.76 304.95 1075.4C311.07 1080.04 318.95 1082.29 326.58 1080.58C327.694 1080.33 328.772 1079.95 329.79 1079.43C330.04 1079.69 330.22 1080 330.48 1080.26C331.802 1081.54 333.385 1082.51 335.12 1083.12H343.48C346.009 1082.32 348.333 1080.97 350.29 1079.18C355.08 1074.71 357.49 1068.07 357.49 1061.56ZM358.16 1033.28C369.33 1038.61 368.66 1047.89 362.9 1056.54C360.374 1054.75 357.8 1053.02 355.18 1051.34C352.393 1045.97 348.041 1041.57 342.7 1038.73C347.653 1037.83 352.302 1035.71 356.23 1032.56C356.86 1032.83 357.54 1033 358.16 1033.28ZM335.51 1014.28C335.59 1013.72 335.51 1013.17 335.59 1012.63C337.068 1010.11 339.251 1008.07 341.87 1006.77C346.17 1004.94 350.56 1007.19 353.38 1011C354.723 1012.8 355.592 1014.9 355.904 1017.13C356.217 1019.35 355.965 1021.61 355.17 1023.71C353.08 1023.05 350.98 1022.46 348.9 1021.99C344.55 1020.99 338.33 1019.63 333.66 1021.13C334.504 1018.91 335.124 1016.62 335.51 1014.28ZM320.51 1005.7C315.65 998.7 307.76 992.44 299.18 990.46C310.18 983.46 321.79 986.87 327.28 999.08C328.545 1001.97 329.26 1005.07 329.39 1008.22C328.034 1010.13 326.903 1012.19 326.02 1014.36C324.352 1011.38 322.526 1008.49 320.55 1005.7H320.51ZM286.31 1040.47C275 1035.04 277.09 1023.57 282.62 1014.92C282.639 1019.11 283.6 1023.25 285.43 1027.02C288.87 1033.66 294.82 1038.65 302.33 1039.77C303.407 1039.92 304.495 1039.97 305.58 1039.92C304.69 1040.69 303.84 1041.5 303.03 1042.33C302.69 1042.4 302.35 1042.53 302.03 1042.58C296.711 1043.49 291.239 1042.76 286.35 1040.47H286.31ZM334.45 1075.67C337.292 1071.98 338.791 1067.44 338.7 1062.78C338.7 1057.66 337.06 1045.28 330.99 1044.03C330.434 1043.93 329.86 1044.01 329.351 1044.25C328.842 1044.5 328.425 1044.9 328.16 1045.4C326.5 1047.99 328.36 1052.23 329.1 1054.94C329.796 1057.33 330.255 1059.77 330.47 1062.25C330.62 1064.03 330.454 1065.82 329.98 1067.54C329.85 1067.94 329.686 1068.32 329.49 1068.69C328.95 1067.43 328.49 1066.15 328.03 1064.9C325.57 1057.59 325.03 1049.79 324.85 1042.13C324.79 1039.68 321.08 1039.98 321.06 1042.41C321.01 1051.52 321.06 1063.35 325.15 1072.49C324.243 1072.82 323.3 1073.04 322.34 1073.14C319.36 1073.27 316.387 1072.75 313.63 1071.61C307.98 1069.34 302.91 1064.83 302.35 1058.53C302.165 1055.7 302.771 1052.88 304.1 1050.37C310.35 1049.57 317.02 1047.37 319.54 1042.18C319.697 1041.88 319.781 1041.54 319.785 1041.2C319.789 1040.85 319.714 1040.51 319.564 1040.21C319.415 1039.9 319.196 1039.63 318.924 1039.42C318.653 1039.21 318.337 1039.07 318 1039C316.614 1038.87 315.215 1038.94 313.85 1039.22C314.35 1038.83 314.85 1038.47 315.35 1038.09C319.02 1036.86 322.27 1034.95 324.07 1032.38C324.726 1032.57 325.421 1032.58 326.08 1032.4C326.74 1032.23 327.338 1031.87 327.81 1031.38C328.957 1030.15 329.621 1028.54 329.68 1026.86C329.965 1026.67 330.235 1026.45 330.49 1026.22C333.86 1028.93 338.39 1028.22 342.49 1028.74C345.038 1029.06 347.559 1029.56 350.03 1030.26C345.36 1033.68 338.91 1034.95 333.11 1035.44C332.246 1035.35 331.374 1035.42 330.53 1035.62C327.96 1034.62 325.18 1037.83 327.66 1039.84C334.42 1045.33 341.59 1050.22 348.71 1055.19C348.84 1055.49 349.09 1055.72 349.21 1056.02C350.24 1058.82 350.513 1061.84 350.004 1064.78C349.495 1067.72 348.221 1070.48 346.31 1072.77C343.21 1076.64 338.65 1078.86 334.49 1075.67H334.45Z" fill="#9541BA"/>
<path d="M298.17 972.92C300.28 963.26 297.58 952.06 296.1 942.39C294.566 932.328 291.91 922.47 288.18 913C286.81 909.52 281.18 909.42 280.57 913.5C279.02 923.5 280.57 933.61 282.65 943.4C284.2 950.72 287.58 956.5 289.91 963.2C290.227 966.198 290.857 969.154 291.79 972.02C290.27 971.13 288.68 970.33 287.07 969.55C276.82 958.15 266.36 947 253.85 938C250.85 935.8 245.28 938.24 247.13 942.48C253.72 957.6 270.13 976.31 287.85 980.33C289.75 982.21 291.63 984.13 293.59 985.95C296.59 988.74 300.3 984.22 297.69 981.35L296.49 980.01C297.091 979.337 297.409 978.458 297.377 977.556C297.346 976.654 296.967 975.799 296.32 975.17L296.2 975.08C296.694 974.933 297.138 974.655 297.485 974.274C297.833 973.893 298.069 973.425 298.17 972.92Z" fill="#9541BA"/>
<path d="M270.73 982.32C269 982.01 267.24 981.8 265.5 981.54C257.539 972.454 247.181 965.793 235.61 962.32C233.77 961.76 231.82 963.32 231.47 965.08C230.15 971.72 230.96 977.02 233.2 981.16C218.47 983.29 204.53 988.87 193.35 999.83C190.7 1002.44 192.86 1006.27 195.82 1007.2C212.43 1012.4 235.37 1016.2 252.43 1010.91C255.29 1010.01 254.56 1006.27 252.07 1005.53C237.48 1001.12 221.77 1003.03 206.58 1000.53C216.86 993.31 229.11 990.05 241.7 989.38C249 993.19 258.9 993.82 268.08 991.9C268.6 992.58 269.14 993.23 269.64 993.9C271.26 996.14 274.78 993.82 273.22 991.51C272.99 991.17 272.74 990.85 272.51 990.51C275.52 988.48 274.6 983.05 270.73 982.32ZM243.43 980.25C240.86 978.04 239.23 974.73 238.69 970.34C245.64 972.367 252.073 975.866 257.55 980.6C252.856 980.184 248.139 980.067 243.43 980.25Z" fill="#9541BA"/>
<path d="M247.28 1020.27C247.7 1020.11 248.048 1019.8 248.264 1019.41C248.481 1019.01 248.551 1018.56 248.462 1018.11C248.374 1017.67 248.132 1017.28 247.781 1017C247.429 1016.72 246.99 1016.57 246.54 1016.58C223.76 1018.19 194.94 1025.84 190.96 1051.98C190.769 1053.05 190.999 1054.16 191.602 1055.07C192.206 1055.98 193.136 1056.62 194.2 1056.86C205.2 1060.31 215.63 1056.97 225.34 1051.65C219.686 1058.05 213.605 1064.07 207.14 1069.65C203.19 1073.1 208.22 1077.88 212.07 1077.08C215.46 1076.38 218.58 1075.02 222.07 1074.48C222.611 1074.43 223.114 1074.18 223.492 1073.79C223.869 1073.4 224.095 1072.89 224.13 1072.35C224.165 1071.81 224.006 1071.27 223.682 1070.83C223.358 1070.4 222.889 1070.09 222.36 1069.97C221.877 1069.82 221.386 1069.7 220.89 1069.6C231.28 1059.92 240.24 1048.81 247.5 1036.6C249.85 1032.6 244.57 1028.36 240.96 1030.8C229.09 1038.8 215.09 1051.04 199.96 1049.33C205.4 1029.35 229.88 1026.43 247.28 1020.27Z" fill="#9541BA"/>
<path d="M325.331 917.86C319.251 926.51 311.941 942.13 317.381 952.51C315.853 955.595 314.517 958.771 313.381 962.02C312.271 965.42 316.991 966.94 319.091 964.87C329.801 954.29 331.411 934.17 331.491 919.97C331.511 917.05 327.081 915.38 325.331 917.86Z" fill="#9541BA"/>
<path d="M370.121 927.22C348.251 930.68 329.181 948.32 322.981 969.53C322.836 970.255 322.932 971.007 323.256 971.672C323.579 972.337 324.111 972.877 324.771 973.21C331.291 976.42 333.081 972.49 337.571 968.36C339.961 966.16 336.391 962.07 333.851 964.08C333.621 964.26 333.201 964.67 332.701 965.14C334.455 962.024 336.399 959.019 338.521 956.14C339.591 960.99 347.521 961.72 351.991 960.29C363.711 956.56 372.331 943.9 374.691 932.39C375.221 929.83 373.001 926.77 370.121 927.22ZM342.371 951.36C348.131 944.81 355.061 939.54 363.471 937.18C359.221 945.38 351.631 952.64 342.371 951.36Z" fill="#9541BA"/>
<path d="M400.21 944.56C386.51 946.83 366.53 954.02 360.46 967.98C359.32 970.61 362.61 973.13 364.67 971.04C364.294 971.942 364.251 972.949 364.55 973.88C364.773 974.508 365.233 975.023 365.831 975.315C366.43 975.606 367.119 975.651 367.75 975.44C368.15 975.271 368.51 975.023 368.81 974.71C368.495 975.102 368.065 975.386 367.58 975.52C367.843 975.491 368.108 975.491 368.37 975.52C369.99 975.52 371.11 975.77 372.61 974.92C376.16 972.92 379.71 970.92 383.19 968.77C391.08 963.96 399.09 958.52 404.28 950.77C406.05 948.12 403.21 944.07 400.21 944.56ZM374.53 963.37C373.53 963.95 372 964.7 370.43 965.6C374.698 962.147 379.457 959.349 384.55 957.3C381.25 959.48 377.83 961.48 374.53 963.37Z" fill="#9541BA"/>
<path d="M416.921 977C412.721 979.84 408.541 982.71 404.381 985.61C412.671 976.45 417.051 964.81 413.831 952.61C413.161 950.01 409.901 949.91 408.241 951.48C395.401 963.68 385.861 978.15 380.651 995.16C380.041 997.16 382.581 998.16 383.941 997.04C384.205 997.423 384.6 997.696 385.051 997.81C386.048 998.054 387.084 998.105 388.101 997.96C387.577 998.498 387.095 999.077 386.661 999.69C386.453 1000.1 386.327 1000.55 386.293 1001.01C386.258 1001.46 386.314 1001.93 386.458 1002.36C386.602 1002.8 386.831 1003.2 387.132 1003.55C387.433 1003.9 387.799 1004.18 388.211 1004.39C388.533 1004.51 388.869 1004.58 389.211 1004.61L389.131 1004.69C392.711 1005.35 400.591 998.12 404.301 995.61C405.401 994.86 406.531 994.16 407.621 993.42C405.155 996.2 402.349 998.659 399.271 1000.74C396.524 1002.54 393.538 1003.94 390.401 1004.9C389.231 1005.27 388.011 1005.47 386.831 1005.78C386.231 1005.93 383.261 1008.23 384.561 1007.59C382.841 1008.44 382.041 1010.59 383.661 1012.05C389.881 1017.63 398.291 1012.28 404.301 1008.32C413.781 1002.06 420.961 992.51 423.491 981.41C423.659 980.579 423.577 979.717 423.255 978.933C422.932 978.15 422.385 977.479 421.681 977.007C420.977 976.534 420.149 976.282 419.302 976.28C418.454 976.279 417.626 976.53 416.921 977ZM394.431 983.83C392.571 985.63 390.321 987.17 388.331 988.9C393.571 978.65 399.411 968.9 407.631 960.8C406.781 969.82 401.181 977.31 394.431 983.84V983.83Z" fill="#9541BA"/>
<path d="M393.17 1056.36C389.489 1051.12 386.485 1045.43 384.23 1039.43C383.23 1036.67 379.23 1038.12 379.97 1040.89C381.164 1045.32 382.806 1049.61 384.87 1053.7C383.125 1053.28 381.36 1052.94 379.58 1052.7C375.49 1052.12 373.4 1057.62 377.18 1059.62C382.03 1062.18 387.7 1064.86 393.5 1067.81C397.3 1073.06 401.5 1078.07 405.67 1083.09H415.18C413.46 1081.13 411.724 1079.18 409.97 1077.25C412.621 1079.03 415.15 1080.98 417.54 1083.09H429C420.14 1071.16 406.58 1061.52 393.17 1056.36Z" fill="#9541BA"/>
<path d="M368.6 1082.76C368.6 1082.86 368.6 1082.95 368.6 1083.05H375.24C374.513 1082.52 373.641 1082.22 372.74 1082.2C372.07 1079.83 368.21 1080.09 368.6 1082.76Z" fill="#9541BA"/>
<path d="M368.351 1081.32C368.221 1077.43 362.431 1077.93 362.351 1081.74C362.351 1082.17 362.351 1082.61 362.351 1083.05H368.421C368.431 1082.47 368.381 1081.9 368.351 1081.32Z" fill="#9541BA"/>
<path d="M255.841 1079.49C259.501 1077.99 258.721 1071.49 254.391 1072.31C249.832 1073.24 245.417 1074.77 241.261 1076.86C243.181 1074.19 244.671 1071.86 245.091 1071.26C247.615 1067.77 249.878 1064.09 251.861 1060.26C253.051 1057.91 251.511 1054.26 248.541 1056.26C248.091 1056.57 247.776 1057.04 247.661 1057.57C247.501 1057.76 247.251 1058.26 247.021 1058.57C246.231 1059.57 245.301 1060.57 244.471 1061.51C242.201 1064.21 239.951 1066.93 237.661 1069.61C235.371 1072.29 233.221 1074.76 230.981 1077.32C230.023 1078.24 229.228 1079.31 228.631 1080.49C227.741 1082.81 227.961 1082.49 228.631 1081.89C228.494 1082.03 228.363 1082.17 228.241 1082.32C228.095 1082.53 228.002 1082.78 227.971 1083.03H247.901C250.531 1081.76 253.191 1080.58 255.841 1079.49Z" fill="#9541BA"/>
<path d="M266 1077.64C265.05 1079.32 264 1080.92 262.85 1082.53C262.425 1082.6 262.014 1082.74 261.63 1082.94L261.44 1083.05H268.57C269.16 1081.98 269.75 1080.9 270.25 1079.77C270.496 1079.21 270.517 1078.58 270.31 1078.01C270.103 1077.43 269.683 1076.96 269.138 1076.68C268.592 1076.41 267.962 1076.36 267.378 1076.54C266.795 1076.71 266.301 1077.11 266 1077.64Z" fill="#9541BA"/>
<path d="M18.53 756.6C21.87 756.6 22.09 751.41 18.9 750.82C13.5698 749.81 8.1713 749.202 2.75 749V757.24C7.58 756.8 12.8 756.59 18.53 756.6Z" fill="#9541BA"/>
<path d="M590.45 1067.88C625.98 1054.39 650.55 1019.36 670.87 989.17C688.78 962.58 710.11 925.01 695.56 892.74C682.56 864.02 618.23 929.56 630.28 861.4C631.96 851.93 633.89 842.06 634.85 832.5C635.302 832.786 635.83 832.929 636.365 832.911C636.9 832.893 637.418 832.715 637.85 832.4C658.08 819.4 663.74 802.81 661.15 785.83C681.65 792.58 679.29 807.02 685.62 825.41C693.36 847.91 713.54 864.95 723.72 886.41C762.9 969.19 667.04 1034.97 605.05 1063.19C604.626 1063.37 604.286 1063.71 604.1 1064.14C603.913 1064.56 603.893 1065.04 604.043 1065.47C604.193 1065.91 604.502 1066.28 604.91 1066.5C605.317 1066.72 605.792 1066.77 606.24 1066.66C676.91 1049 740 983.07 737.85 908C736.7 868.36 699.17 844.46 689.58 807.85C686.67 796.72 684.42 787.85 676.24 779.62C669.81 773.17 657.24 784.91 662.24 763.9C662.9 761.13 658.71 760.35 657.96 763.04C657.14 765.91 656.56 767.79 656.17 769.16C647.93 750.16 631.87 731.9 616.84 718.85C595.66 700.46 567.03 671.85 535.79 674.85C522.55 676.1 510.91 677.32 499.9 685.33C497.04 687.43 474.9 713.68 471.5 703.85C470.06 699.53 464 671 458.68 669C442.9 662.93 427.68 672 415.82 682C405.03 691.08 395.49 703.14 387.36 716.76C367.52 657.27 310 627.13 246.17 617.46C214.28 612.64 198.64 604.84 173.45 626.81C140.7 655.36 139.45 640.81 111.74 651.68C102.04 655.48 100.07 669.15 98.21 677.54C98.21 677.67 98.28 677.73 98.26 677.86C87.52 680.25 77.34 684.17 68.46 692.16C39.46 718.33 23.75 754.62 45.9 791.23C63.2 819.84 35.68 832.71 29.9 854.06C25.6 869.94 26.14 883.98 30.6 899.81C37.92 925.7 57.67 945.3 82.22 959.81C56.08 957.81 32.22 963.5 18.36 984.11C12.06 993.46 7.49 1003.02 2.75 1012.26V1037.72C6.77227 1032.07 10.1657 1026 12.87 1019.62C32.73 974 64.28 968 109 976.06C136 980.89 162.85 990.64 187.65 1002.26C190.83 1003.74 193.07 999.19 190.09 997.45C187.11 995.71 183.7 993.79 180.09 991.85C185.75 992.63 191.27 993.29 196.43 993.7C199.93 993.98 201.08 988.59 197.52 988.28C185.224 987.184 173.021 985.226 161 982.42C144.251 974.7 126.815 968.569 108.92 964.11C85.73 952.71 64.92 937.31 49.57 917.45C38.18 902.65 34.64 884.51 35.92 866.27C36.92 851.21 53.85 841.2 61.63 829.78C69.76 817.87 65.05 804.72 58.56 793.88C34.4 753.49 49.78 720.08 81.96 693.2C98.72 679.2 116.9 687.94 135.26 685.87C148.89 684.33 145.32 686.26 155.12 678.87C186.12 655.38 208.71 659.5 239.87 675.75C308.31 711.46 358.78 798.75 359.6 875.7C354.71 889.44 352.54 903.26 354.03 916.46C354.43 919.99 359.72 919.64 359.55 916.07C359.254 909.425 359.842 902.77 361.3 896.28C361.822 896.333 362.345 896.186 362.762 895.869C363.18 895.551 363.461 895.087 363.55 894.57C364.49 890.37 365.15 886.16 365.66 881.95C375.81 856.34 396.66 833.74 415.09 815.17C428.84 801.33 444.49 789.63 460.92 779.17C487.18 762.5 509.92 763.81 531.92 783.87C549.25 799.69 574.27 791.68 594.6 788.68C657 779.44 609.1 871.87 624.66 895.29C627.208 899.307 631.156 902.236 635.74 903.51C628.66 982.51 557.35 1024.79 486.46 1039.79C485.04 1040.09 485.56 1042.34 486.95 1042.23C562.17 1035.76 631.4 981.3 640.68 904.23C646.26 904.54 652.18 903.16 657.6 901.23C673.6 895.52 692.12 886.65 694.21 913.63C695.89 935.39 680.86 959.45 670.32 977.54C648.15 1015.54 618.7 1049.93 576.86 1065.82C540.59 1079.6 501.16 1069.94 462.98 1068.22C457.494 1065.21 452.27 1061.76 447.36 1057.88C448.12 1057.82 448.87 1057.8 449.64 1057.72C450.342 1057.65 451.015 1057.41 451.595 1057.01C452.175 1056.61 452.642 1056.06 452.952 1055.43C453.262 1054.8 453.404 1054.09 453.366 1053.39C453.327 1052.69 453.108 1052.01 452.73 1051.41C446.73 1041.66 437.63 1034.41 427.27 1029.75C439.65 1029.9 452.81 1026.67 458.46 1014.67C459.54 1012.4 458.34 1009.13 455.6 1008.78C434.54 1006.04 414.6 1011.02 394.12 1014.67C393.99 1014.61 393.83 1014.57 393.7 1014.51C393.119 1014.29 392.487 1014.25 391.884 1014.4C391.281 1014.54 390.733 1014.86 390.31 1015.31C388.99 1015.53 387.66 1015.78 386.31 1015.98C385.929 1016.02 385.562 1016.14 385.233 1016.33C384.903 1016.53 384.621 1016.79 384.405 1017.11C384.19 1017.42 384.046 1017.78 383.985 1018.16C383.923 1018.54 383.946 1018.92 384.05 1019.29C380.26 1017.96 376.42 1023.29 379.86 1026.69C396.02 1041.57 415.56 1055.8 437.71 1057.81C440.931 1061.56 444.5 1064.99 448.37 1068.06C444.46 1068.14 440.55 1068.31 436.68 1068.69C434.5 1068.9 434.07 1072.5 436.42 1072.69C443.62 1073.3 450.89 1074.01 458.19 1074.69C463.439 1077.72 468.855 1080.45 474.41 1082.87L474.61 1082.96H493C488.7 1080.81 484.36 1078.79 480.06 1076.77C517.42 1080.15 555.21 1081.25 590.45 1067.88ZM253.14 676.55C234.14 662.87 190.22 642.99 166.97 659.6C147.76 673.33 124.97 672.97 103.88 676.71C115.42 647.18 145.88 659.99 167.8 646.98C168.17 646.76 185.54 626.63 185.3 626.17C200.48 613.56 227.3 622.88 244.66 624.97C313.5 633.26 357.9 666.63 382.32 725.74C368.32 752.29 359.43 783.25 356.77 809.62C338 756 295.54 707.05 253.14 676.55ZM604.58 779C578.45 771.29 559.5 795.75 533.44 772.28C524.35 764.08 514.17 753.97 500.57 755.56C453.64 761.04 392.83 807.93 366.57 859.56C365.971 845.26 363.53 831.096 359.31 817.42C359.498 817.288 359.653 817.115 359.764 816.914C359.875 816.713 359.939 816.489 359.95 816.26C362.31 787.88 372.95 760.49 385.95 735.13C387.68 739.93 389.32 744.85 390.83 749.95C390.966 750.337 391.238 750.661 391.595 750.863C391.952 751.066 392.37 751.132 392.771 751.05C393.173 750.969 393.532 750.745 393.782 750.419C394.032 750.094 394.155 749.689 394.13 749.28C393.424 741.752 392.137 734.289 390.28 726.96C391.34 724.96 392.4 722.96 393.5 721.04C399.39 710.56 406.42 701.49 414.23 692.51C415.33 691.24 454.65 658.02 454.23 683.09C454.05 692.78 460.23 701.67 463.23 710.61C466.23 719.55 481.86 714.87 486.71 710.55C528.25 673.55 562.71 684.27 600.78 716.02C630.03 740.41 683.4 784.92 635.24 826.89C636.41 805.66 631.18 786.84 604.58 779ZM446.7 1015.91C437.95 1022.72 422.5 1021.99 409.44 1019.21C421.82 1017.23 434.12 1014.81 446.7 1015.91ZM396.3 1028.57C392.934 1026.43 389.755 1024 386.8 1021.32C388.43 1021.32 390.07 1021.23 391.69 1021.15C393.129 1022.6 394.824 1023.78 396.69 1024.62C396.228 1025.16 395.942 1025.83 395.872 1026.53C395.803 1027.24 395.952 1027.95 396.3 1028.57ZM438.1 1049.57C437.749 1049.24 437.304 1049.02 436.825 1048.94C436.347 1048.87 435.857 1048.94 435.42 1049.15C427.956 1047.95 420.754 1045.47 414.13 1041.83C414.05 1041.71 414.07 1041.58 413.97 1041.47C409.14 1036.66 403.45 1033.22 397.86 1029.63C397.963 1029.67 398.07 1029.71 398.18 1029.73C414.18 1031.03 430.78 1037.53 441.37 1049.8C440.27 1049.73 439.18 1049.64 438.1 1049.54V1049.57Z" fill="#9541BA"/>
<path d="M20.15 954.59C20.4406 954.564 20.7151 954.446 20.9325 954.251C21.1499 954.056 21.2984 953.797 21.3558 953.511C21.4132 953.225 21.3765 952.928 21.251 952.664C21.1256 952.401 20.9182 952.185 20.66 952.05C14.816 949.479 8.83728 947.225 2.75 945.3V951.86C8.42833 953.424 14.2655 954.34 20.15 954.59Z" fill="#9541BA"/>
<path d="M160.681 710C159.191 710.57 159.971 712.93 161.501 712.37C237.681 684.23 291.001 788.09 309.001 846.37C309.371 847.57 311.411 847.2 311.181 845.93C299.871 783.36 236.681 680.6 160.681 710Z" fill="#9541BA"/>
<path d="M77.85 1070.61C56.43 1074.18 28.07 1075.38 4 1083.05H30.27C47.27 1080.47 64.43 1078.53 78.36 1073.05C79.61 1072.54 79.32 1070.36 77.85 1070.61Z" fill="#9541BA"/>
<path d="M96.0004 1055.3C75.8401 1050.89 54.8334 1052.45 35.5404 1059.77C35.1487 1059.93 34.8319 1060.23 34.6555 1060.61C34.4791 1060.99 34.4568 1061.43 34.5931 1061.82C34.7294 1062.22 35.0139 1062.55 35.3877 1062.75C35.7614 1062.94 36.1956 1062.99 36.6004 1062.87C56.1204 1056.61 75.7404 1058.6 95.8304 1057.87C96.1595 1057.87 96.4771 1057.75 96.7183 1057.53C96.9594 1057.3 97.1058 1056.99 97.1276 1056.66C97.1493 1056.34 97.0447 1056.01 96.8351 1055.76C96.6256 1055.5 96.327 1055.34 96.0004 1055.3Z" fill="#9541BA"/>
<path d="M183.751 1072.6C173.981 1075.85 163.551 1078.85 153.811 1083.05H166.241C172.431 1080.66 178.661 1078.34 185.001 1076.24C187.361 1075.47 186.111 1071.82 183.751 1072.6Z" fill="#9541BA"/>
<path d="M116.371 802C115.641 800.69 113.761 802 114.441 803.28C135.841 842.881 165.378 877.506 201.111 904.88C201.233 904.99 201.377 905.074 201.532 905.128C201.687 905.183 201.852 905.206 202.016 905.197C202.181 905.187 202.342 905.146 202.49 905.074C202.638 905.003 202.771 904.903 202.881 904.78C202.99 904.657 203.075 904.514 203.129 904.359C203.183 904.203 203.207 904.039 203.197 903.874C203.188 903.71 203.146 903.549 203.075 903.401C203.003 903.252 202.903 903.12 202.781 903.01C172.371 870.67 138.361 841.15 116.371 802Z" fill="#9541BA"/>
<path d="M170.25 848.19C170.024 847.849 169.671 847.612 169.269 847.532C168.868 847.451 168.451 847.533 168.11 847.76C167.77 847.987 167.533 848.34 167.452 848.741C167.371 849.142 167.454 849.559 167.68 849.9C178.43 866.3 191.12 883.08 207.81 893.81C209.14 894.66 210.3 892.65 209.29 891.65C195.22 877.84 181.59 864.45 170.25 848.19Z" fill="#9541BA"/>
<path d="M522.401 891.71C479.691 907.71 447.321 948.03 425.151 986.25C424.251 987.8 426.711 989 427.621 987.5C452.371 946.21 484.681 920.87 523.621 894.28C523.89 894.08 524.082 893.792 524.163 893.467C524.245 893.141 524.211 892.797 524.067 892.494C523.923 892.19 523.678 891.946 523.374 891.804C523.07 891.661 522.726 891.627 522.401 891.71Z" fill="#9541BA"/>
<path d="M465.111 907.53C447.831 910.72 436.111 926.37 427.321 940.34C425.811 942.72 429.731 944.66 431.221 942.34C439.683 928.606 451.631 917.358 465.851 909.74C466.861 909.15 466.281 907.31 465.111 907.53Z" fill="#9541BA"/>
<path d="M552.001 723.46C544.831 725.75 539.751 735.52 535.631 741.31C532.111 746.25 527.691 751.46 526.111 757.43C525.871 758.33 526.941 758.85 527.641 758.43C532.811 755.43 536.391 749.75 540.051 745.23C544.621 739.55 552.631 732.67 554.141 725.31C554.189 725.03 554.165 724.741 554.069 724.473C553.973 724.205 553.809 723.966 553.594 723.78C553.379 723.593 553.119 723.466 552.839 723.41C552.56 723.354 552.271 723.371 552.001 723.46Z" fill="#9541BA"/>
<path d="M712 908.86C713.21 921.94 708.16 932.54 700.22 942.62C699.972 942.921 699.838 943.3 699.843 943.69C699.847 944.08 699.99 944.456 700.245 944.75C700.501 945.045 700.852 945.24 701.237 945.3C701.623 945.361 702.017 945.283 702.35 945.08C714.64 937.43 718.92 922.27 717.59 908.47C717.19 904.89 711.63 905.25 712 908.86Z" fill="#9541BA"/>
<path d="M323.47 679.07C329.324 685.608 334.438 692.771 338.72 700.43C343.23 708.43 345.53 717.3 349.81 725.35C350.73 727.06 353.33 725.94 353.22 724.19C352.05 706.28 338.7 687.89 326.98 675.19C324.67 672.64 321.23 676.59 323.47 679.07Z" fill="#9541BA"/>
<path d="M7.28 886.12C5.85 884.56 4.33 883.12 2.75 881.66V887.81L5.2 889.17C7.17 890.29 8.61 887.58 7.28 886.12Z" fill="#9541BA"/>
<path d="M35.92 951C27.02 942.66 14.92 938.17 2.75 934.64V940.34C13.36 944.25 23.75 948.5 34.33 953.34C34.64 953.513 35.0037 953.564 35.3492 953.482C35.6947 953.4 35.9971 953.192 36.1966 952.898C36.3962 952.605 36.4785 952.247 36.4273 951.895C36.3761 951.544 36.1951 951.225 35.92 951Z" fill="#9541BA"/>
<path d="M2.68036 18.8102C2.89036 18.8102 3.10036 18.7402 3.31036 18.7202V12.4102C2.30633 13.1938 1.36972 14.0601 0.510364 15.0002C-0.919636 16.6802 1.00036 19.0002 2.68036 18.8102Z" fill="#9541BA"/>
<path d="M337.051 18.41C345.931 12.3 354.591 6.3 363.001 0H347.001C341.461 3 338.001 2.49 335.941 0H324.131C325.34 6.21866 327.574 12.1933 330.741 17.68C332.161 20.07 335.191 19.72 337.051 18.41Z" fill="#9541BA"/>
<path d="M34.5305 324.6C34.8905 326.93 36.6905 329.06 38.9805 329.2C57.8405 330.47 116.251 270.85 117.251 275.35C118.011 278.65 121.731 280.97 124.471 278.35C149.541 254.64 135.011 246.19 144.581 286.12C145.341 289.35 149.161 290.9 151.201 287.86C191.711 227.47 214.001 151 201.191 76.84C218.311 67.09 234.631 55.43 249.561 44.27C253.771 41.13 258.561 37.44 263.561 33.35C236.561 76.35 216.131 126.35 244.441 171.35C245.961 173.75 248.871 172.92 250.441 171.19C251.581 169.88 252.551 168.39 253.611 167.02C224.721 228.62 196.921 299.5 213.511 365.89C214.291 368.96 218.811 368.38 218.161 365.14C202.001 284.34 244.871 202.41 277.571 132.62C279.571 128.39 273.221 125.86 271.231 130.01C270.761 130.95 270.311 131.93 269.851 132.88C273.851 119.27 276.161 104.93 278.351 91.46C279.351 84.91 280.451 78.12 281.461 71.24C285.891 105.91 306.461 124.24 328.541 149.36C306.971 186.86 297.211 235.86 301.251 273.72C301.671 277.83 305.571 279.28 308.791 278.23C345.441 266.23 375.791 234.3 397.711 196.95C397.561 199.19 397.321 201.38 397.331 203.66C397.711 240.13 429.541 254.51 439.911 286.02C440.911 289.02 445.511 289.75 447.021 286.85C462.591 256.91 466.561 224.85 466.671 192.3C481.881 225.63 509.771 253.44 542.421 274.3C544.751 275.78 548.331 275.88 549.911 272.99C587.641 203.99 555.781 145.05 502.411 108.78C538.411 120.11 588.411 92.11 622.101 111.78C625.541 113.78 629.701 110.85 628.191 106.52C608.101 48.84 515.191 3.44 474.561 61.52C478.442 41.2492 479.234 20.5078 476.911 0L466.801 0C471.591 39.75 463.471 80.33 443.891 119.11C439.891 109.77 434.841 101.64 428.641 92.81C410.771 67.3 403.451 46.81 407.641 14.39C408.287 9.53432 409.256 4.72704 410.541 0L400.541 0C398.44 7.95184 396.84 16.0277 395.751 24.18C392.001 53 403.911 72.69 416.631 92.84C396.361 91.37 378.471 97.61 363.161 108.91C379.361 74.34 385.781 31.91 360.511 6.06C359.964 5.5058 359.227 5.18004 358.449 5.14864C357.671 5.11725 356.91 5.38256 356.321 5.8909C355.731 6.39923 355.356 7.1126 355.273 7.88663C355.189 8.66066 355.403 9.43753 355.871 10.06C382.281 45.06 359.501 100.21 337.871 131.53C327.791 146.16 299.021 98.41 294.871 89.06C282.001 59.9 291.231 26.71 305.381 0H278.381C277.881 2.54 277.381 5.08 276.991 7.64C247.641 44.14 197.641 69.64 161.291 83.64C160.671 83.88 160.131 84.06 159.541 84.28C162.971 55.9 159.541 25.89 172.231 0.05H163.411C152.111 25.4 155.571 59.12 152.151 86.52C142.341 88.45 146.471 80.28 146.251 63.76C145.971 42.09 146.581 21.17 151.721 0.05H142.321C134.191 28.76 137.131 62.82 136.731 93.29C136.671 96.62 138.921 99.41 142.201 98.96C145.651 98.48 149.081 97.65 152.501 96.87C153.312 97.3466 154.273 97.4982 155.192 97.2941C156.111 97.09 156.918 96.5454 157.451 95.77C160.451 94.97 163.311 93.95 166.251 92.93C166.251 93.02 166.121 93.04 166.111 93.14C162.041 111.28 166.751 128.92 171.111 146.59C176.811 169.84 178.331 190.89 179.801 214.71C179.802 215.055 179.918 215.39 180.129 215.663C180.341 215.936 180.637 216.132 180.971 216.22C170.001 248.86 147.641 303.73 146.761 240C146.691 235.33 140.541 232.83 138.851 237.95C125.581 278.88 126.541 273.42 121.711 256.51C120.821 253.38 116.711 252.79 114.631 254.62C114.211 254.97 113.841 255.31 113.441 255.62C125.221 171.18 76.9305 86.57 105.001 3.85L108.481 0H93.0005C91.2206 1.83333 89.4506 3.67667 87.6906 5.53C72.1906 7.83 56.7605 5.85 41.1605 5.02C34.2405 4.65 25.9505 4.43 18.2105 5.91C20.6005 4.06 22.9305 2 25.1705 0H3.31055V12.26H3.50055L3.31055 12.42V18.73C10.9105 17.91 17.9705 14.38 25.6705 13.27C34.3605 12.02 43.3105 12.83 52.0105 13.38C61.8805 13.99 71.8306 14.54 81.2906 12.32C80.2906 13.38 79.4006 14.48 78.4305 15.53C52.2505 28.3 26.8905 45.58 3.31055 66.21V81.44C22.0425 63.5359 42.2248 47.2134 63.6505 32.64C42.4905 58 22.8605 85.23 3.31055 112.21V127.28C10.4239 117.9 17.6139 108.567 24.8805 99.28C16.5698 113.62 9.3591 128.569 3.31055 144V152.94C4.31055 150.51 5.31055 148.09 6.31055 145.7C5.00055 152.51 4.00055 159.38 3.31055 166.27V326C19.2305 312.74 32.0005 308.31 34.5305 324.6ZM385.001 195.65C379.511 205.01 343.211 246.31 323.651 257.98C326.981 229.93 329.241 206.73 343.771 179.57C360.251 148.79 388.671 119.62 422.911 116.48C410.561 143.25 399.921 170.15 385.001 195.65ZM473.831 65.65C474.831 67.29 477.071 68.1 478.531 66.07C513.601 17.09 591.271 53 616.231 99.8C574.911 85.55 523.611 120.05 488.541 89.63C505.161 84.23 522.161 84.54 540.771 87.18C544.211 87.68 544.771 81.99 541.341 81.44C520.611 78.13 501.281 77.19 482.221 83.1C481.961 82.78 481.681 82.57 481.401 82.25C478.591 78.81 474.581 81.89 475.131 85.58C472.741 86.58 470.351 87.72 467.961 88.94C467.871 88.94 467.761 88.85 467.661 88.79C470.071 81.15 472.211 73.42 473.841 65.6L473.831 65.65ZM483.151 97.1C481.231 96.1 479.271 95.1 477.321 94.19C478.141 93.78 478.951 93.48 479.771 93.09C480.891 94.44 482.001 95.85 483.161 97.05L483.151 97.1ZM468.861 100.55C469.451 100.84 470.051 101.17 470.641 101.48C467.841 140.07 478.841 176.91 506.001 203C508.261 205.17 510.951 201.06 508.751 198.89C493.221 183.68 484.301 167.23 480.151 145.07C477.631 131.68 478.081 117.91 476.441 104.44C528.581 132.67 572.081 178.98 549.361 247.44C539.001 278.75 494.001 220.64 484.551 207.29C472.631 190.47 467.171 172.29 465.551 153.53C465.471 151.97 465.381 150.42 465.291 148.87C464.411 133 466.061 116.81 468.871 100.5L468.861 100.55ZM432.001 119.18C434.479 124.152 436.562 129.311 438.231 134.61C439.491 138.61 445.431 139.29 447.461 135.69C450.361 130.54 453.021 125.24 455.551 119.87C453.134 138.161 454.606 156.757 459.871 174.44C460.571 208.6 458.161 242.39 443.981 273.55C431.621 246.5 407.701 231.19 407.251 196.3C407.131 187.07 409.171 178.12 412.091 169.3C415.871 160.95 419.261 152.52 422.221 144.11C425.958 135.995 429.223 127.671 432.001 119.18ZM421.731 100.92C423.424 103.627 425.067 106.38 426.661 109.18C426.241 109.439 425.877 109.779 425.591 110.18C425.359 109.883 425.066 109.639 424.731 109.467C424.396 109.294 424.027 109.196 423.651 109.18C386.781 108.3 359.921 134.24 339.591 165.18C324.911 187.56 305.981 230.86 314.331 260.99C312.411 260.53 311.331 258.77 311.231 255.42C310.351 188.4 353.471 102.77 421.681 100.92H421.731ZM286.601 12.17C287.501 10.79 288.371 9.4 289.251 8.03C290.171 6.91 291.021 5.77 291.881 4.63C289.787 8.88065 287.999 13.2751 286.531 17.78C286.571 15.91 286.611 14 286.601 12.17ZM273.851 32.62C269.791 77.19 271.301 123 247.461 162.5C248.771 160.33 240.651 141.31 239.901 136.99C238.441 128.6 239.421 120.12 240.471 111.78C242.471 95.87 249.111 80.47 255.591 66.19C260.995 54.6422 267.093 43.4318 273.851 32.62ZM169.311 93.93C169.32 93.5751 169.226 93.2251 169.04 92.923C168.853 92.621 168.582 92.3801 168.261 92.23C178.493 88.5474 188.406 84.0323 197.901 78.73C201.581 118.73 197.701 154.56 187.701 192.92C188.001 160.81 167.321 125.16 169.311 93.93ZM105.561 262.48C98.0005 269.08 90.4705 275.84 83.2705 283C95.1405 271.8 90.2706 277.48 80.9106 286.33C81.9106 260.63 80.9106 235.17 83.5506 209.33C86.5506 180.78 91.4806 152.46 95.1105 123.99C102.611 170.22 113.621 217.05 105.561 262.48ZM12.8505 130.85C25.1605 104.48 39.3605 81.05 53.9305 63.85C54.0316 63.7231 54.1058 63.577 54.1488 63.4206C54.1917 63.2642 54.2025 63.1007 54.1805 62.94C68.1872 45.9667 82.4605 29.2733 97.0005 12.86C85.9106 47.3 88.7105 83.11 94.3405 119.37C94.0746 119.225 93.7762 119.149 93.4731 119.149C93.1699 119.15 92.8719 119.227 92.6066 119.374C92.3413 119.521 92.1173 119.732 91.9554 119.988C91.7935 120.244 91.699 120.537 91.6805 120.84C84.3605 174.61 67.4805 235.05 77.3805 289.55C63.2205 302.49 43.0905 318.36 48.1805 301.85C49.6405 297.11 45.6005 293.49 41.4405 294.91C27.9989 299.508 15.1989 305.802 3.35055 313.64C11.4605 253.07 -1.17945 190.7 12.8505 130.85Z" fill="#9541BA"/>
<path d="M724.19 4.4C736.52 28.18 713.7 15.25 697.42 15.62C671.29 16.23 651.48 10.69 633.51 0H605.82C604.99 1.47 605.45 3.8 607.41 3.8C614.276 3.80567 621.039 5.47315 627.12 8.66C629.74 10.44 632.46 12.1 635.2 13.71C657.65 30.63 672.2 66.29 681.55 96.81C667.17 61.72 644.22 29.81 615.55 15.4C612.89 14.08 611.41 18.1 613.28 19.92C654.72 59.92 688.28 108.92 695.47 170.1C695.471 170.286 695.519 170.469 695.609 170.632C695.699 170.795 695.829 170.933 695.987 171.032C696.144 171.132 696.324 171.19 696.51 171.202C696.696 171.214 696.881 171.179 697.05 171.1C696.56 178.27 694.2 183.31 688.37 183.18C646.42 182.18 615.52 162.52 589.56 131.07C588.56 124.84 587.27 118.61 585.62 112.35C584.8 109.24 580.18 109.81 580.88 113.12C581.46 115.9 581.8 118.75 582.22 121.58C581.42 120.52 580.59 119.58 579.83 118.51C578.32 116.41 575.22 118.51 576.16 120.87C578.24 126.064 580.738 131.081 583.63 135.87C584.229 146.934 583.746 158.03 582.19 169C579.58 186.73 568.32 203.07 567.08 220.43C566.93 222.62 569.25 224.07 570.89 222.67C583.23 212.28 587.07 190.09 589.89 174.29C591.407 165.359 591.89 156.282 591.33 147.24C617 179.49 659.09 190.71 699 191.41C700.007 191.463 700.996 191.124 701.759 190.464C702.521 189.804 702.998 188.874 703.09 187.87C708.78 151.74 692.43 66.48 658.77 23.64C683.64 29.19 711.68 21.44 736.31 28.43C737.082 28.6695 737.906 28.682 738.685 28.4658C739.463 28.2497 740.163 27.8141 740.701 27.211C741.238 26.608 741.591 25.8629 741.717 25.0648C741.843 24.2667 741.736 23.4492 741.41 22.71C738.75 16.4 735.94 10.16 733 4C735.55 7 738.1 10.18 740.59 13.47C741.9 15.17 744.33 13.07 743.06 11.34C740.28 7.47333 737.39 3.69333 734.39 0H721.9C722.68 1.48 723.45 3 724.19 4.4Z" fill="#9541BA"/>
<path d="M581.001 35C580.391 34.72 579.771 34.51 579.171 34.22C579.512 34.0033 579.791 33.7009 579.98 33.3431C580.169 32.9852 580.261 32.5842 580.246 32.1799C580.232 31.7756 580.113 31.382 579.899 31.0382C579.686 30.6944 579.387 30.4123 579.031 30.22C560.001 21.33 541.391 11.55 524.361 0H506.211C512.255 5.17052 518.662 9.90257 525.381 14.16C515.938 10.4599 506.942 5.71009 498.561 0L479.841 0C508.841 28.11 551.661 36.1 588.521 49.34C589.278 49.6542 590.108 49.7487 590.917 49.6125C591.725 49.4763 592.479 49.115 593.091 48.57L594.571 47.08C596.231 45.45 596.481 43.62 595.891 41.39C592.271 27.71 588.531 13.73 584.381 0H574.161C579.841 19.88 583.551 36.19 581.001 35Z" fill="#9541BA"/>
<path d="M429.7 13.33C430.58 8.92 431.35 4.47 432 0H424.37C424.415 4.48444 424.726 8.96228 425.3 13.41C425.71 16.25 429.21 15.83 429.7 13.33Z" fill="#9541BA"/>
<path d="M364 258.35C361.46 257.44 359.68 260.97 361.78 262.77C381.26 279.33 392.16 297.29 401.69 321.96C407.44 336.86 420.13 393.24 395.69 356.81C393.28 353.16 387.53 355.95 388.28 360.3C391.023 376.73 392.514 393.344 392.74 410C392.93 417.26 398.12 420.21 389.27 411.63C389.024 411.44 388.746 411.295 388.45 411.2C362.56 360.72 323.35 313.71 276.55 285.94C275.97 243.15 282.26 199.41 282.55 157.34C282.55 154.6 278.89 154.06 278.55 156.88C273.41 198.33 270.68 241.71 272.78 284.42C270.24 284.79 268.53 289.01 271.23 290.61C271.96 291.03 272.6 291.56 273.33 291.99C278.77 378.88 304.99 462.11 371.8 519.83C314.59 494.39 270 449.56 236.55 392.73C234.28 388.87 229.21 391.55 228.62 395.22C224.28 422.16 217.43 393.01 200.68 395.51C140.86 404.45 158.92 325.17 160.18 285.45C160.26 283.32 157.53 282.45 156.76 284.54C143.76 320.82 141 361.98 157.6 397.17C170.8 425.17 205.74 401.38 225.38 424.97C228.11 428.22 232.86 426.72 233.5 422.4C237.04 399.4 241.57 417.24 251.44 431.3C263.06 447.86 277.2 461.87 291.3 475.85C319.66 503.93 353.88 520.64 390.3 532.36C392.99 533.21 394.6 528.87 391.87 527.93C390.6 527.48 389.44 526.93 388.17 526.44C388.642 525.506 388.775 524.438 388.548 523.416C388.32 522.395 387.744 521.485 386.92 520.84C340.14 483.84 311.33 424.99 290.1 368.12C281.1 344.22 277.62 319.42 276.71 294.23C322.32 322.93 354.1 366.42 383.42 412.65C383.15 412.963 382.906 413.298 382.69 413.65C378.833 421.772 376.857 430.659 376.91 439.65C361.13 397.8 341.13 352 310.38 320.44C309.04 319.08 306.16 320.35 307.29 322.44C329.29 363.16 354.8 399.92 373.1 443.19C373.96 445.19 376.1 444.88 377.1 443.62C377.458 448.951 378.125 454.257 379.1 459.51C384.05 487.82 391.1 484.77 368.1 463.75C365.22 461.13 360.29 464.39 361.1 468.33C367.28 498.12 388.57 516.95 404.32 541.33C405.88 543.78 409.44 541.33 408.38 538.71C403.53 526.71 397.52 517.8 389.95 507.39C383.265 498.505 377.127 489.221 371.57 479.59C377.574 485.362 384.117 490.546 391.11 495.07C394.65 497.61 399.24 493.79 397.62 489.44C394.893 482.633 392.44 475.707 390.26 468.66C382.34 454.14 383.58 440.883 393.98 428.89C397.18 432.2 401.73 430.06 401.63 425.29C401.25 408.82 400.78 392.51 399.5 376.1C402.39 379.25 405.33 382.35 407.98 385.73C409.34 387.51 412.58 387.34 413.24 384.83C423.39 345 403.78 272.61 364 258.35Z" fill="#9541BA"/>
<path d="M259.9 236.07C260.37 233.63 257.08 233.14 256.2 235.07C228.34 296.96 239.52 387.5 279.38 440.37C281.14 442.68 284.44 439.82 282.74 437.46C240.26 378.25 246.71 304.62 259.9 236.07Z" fill="#9541BA"/>
<path d="M204.001 301.74C196.691 311.74 193.681 325.56 191.001 337.74C187.384 353.898 185.431 370.384 185.171 386.94C185.111 390.1 189.041 390.53 189.651 387.48C192.241 374.21 194.271 360.82 196.961 347.56C199.961 332.7 206.281 318.49 208.611 303.56C208.689 302.994 208.575 302.417 208.287 301.924C207.999 301.43 207.553 301.047 207.021 300.837C206.489 300.627 205.903 300.602 205.355 300.766C204.807 300.93 204.33 301.273 204.001 301.74Z" fill="#9541BA"/>
<path d="M824.14 91.6C810.21 57.5 787.49 26.84 760.9 0H750C776.75 27.8 800.67 57.43 822 92.56C822.7 93.66 824.64 92.85 824.14 91.6Z" fill="#9541BA"/>
<path d="M832.51 63.91C847.7 88.45 855.51 118.1 867.51 144.36C879.37 170.21 896.51 177.36 864.16 158.49C811.25 127.67 784.22 80.62 760.33 26.29C756.46 17.53 752.33 8.62 747.8 0H739.2C756.51 29.05 767.89 62.19 785.61 92.14C810.47 134.14 852.11 160.14 893.97 182.64C896.79 184.15 900.85 180.64 898.56 177.78C861.94 132.78 854.56 71.88 814.56 29.37C805.69 20 796.18 9.75 786 0H780C800.121 19.0113 817.763 40.484 832.51 63.91Z" fill="#9541BA"/>
<path d="M835.581 28.0498C880.741 56.3598 926.271 83.6898 973.481 105.51C976.921 107.84 980.411 110.12 983.831 112.51C1026.76 157.08 1048.11 230.12 1120.52 228.09C1121.2 228.056 1121.86 227.826 1122.41 227.427C1122.96 227.029 1123.38 226.479 1123.63 225.844C1123.88 225.209 1123.93 224.516 1123.79 223.85C1123.65 223.183 1123.32 222.572 1122.84 222.09C1087.14 185.93 1050.17 149.32 1008.07 120.44C1026.39 127.612 1045.12 133.696 1064.16 138.66C1090.43 154.12 1115.9 170.94 1142.77 185.34C1165.12 197.34 1192.67 209.34 1218.16 201.09C1218.65 200.933 1219.1 200.651 1219.45 200.272C1219.8 199.893 1220.05 199.429 1220.17 198.926C1220.29 198.423 1220.28 197.897 1220.13 197.4C1219.99 196.903 1219.72 196.452 1219.35 196.09C1198.82 174.56 1173.69 161.19 1146.74 151.54C1148.81 151.62 1150.93 151.54 1153.02 151.62C1193.13 163.71 1235.63 175.23 1275.09 157.37C1277.34 156.37 1276.56 152.52 1274.25 152.13C1198.67 139.24 1121.35 129.89 1044.7 125.45C1032.87 121.61 1021.17 117.38 1009.61 112.76C1011.45 112.82 1013.29 112.78 1015.12 112.64C1023.64 114.119 1032.34 114.314 1040.92 113.22C1098.36 113.83 1147.69 78.8598 1195.26 45.2198C1197.63 43.5598 1196.74 39.5598 1193.61 39.6398C1162.06 40.5198 1132.91 42.0798 1103.61 54.4698C1071.27 68.1098 1051.46 99.8798 1021.54 106.76C1016.29 106.56 1011.02 106.29 1005.61 105.76C1004.75 105.68 1004.39 106.41 1004.44 107.11C1002.66 106.73 1000.88 106.41 999.121 105.92C998.99 105.89 998.855 105.89 998.725 105.919C998.594 105.948 998.472 106.006 998.366 106.088C998.261 106.171 998.175 106.275 998.115 106.395C998.056 106.515 998.023 106.646 998.021 106.78C995.536 106.282 993.082 105.641 990.671 104.86C953.511 88.6298 917.501 68.8598 881.821 47.8598C901.201 53.2898 921.361 56.2898 941.291 58.0298C970.811 60.6098 994.401 37.8998 1020.29 28.2398C1021.04 27.9973 1021.69 27.494 1022.1 26.8202C1022.52 26.1464 1022.68 25.3462 1022.56 24.5634C1022.44 23.7806 1022.05 23.0663 1021.45 22.5488C1020.85 22.0313 1020.08 21.7445 1019.29 21.7398C997.601 20.0198 975.291 17.9798 953.651 21.4298C929.201 25.3498 882.281 49.8098 859.731 31.4998C858.731 30.7198 857.261 31.7998 857.991 32.9298C858.351 33.4798 858.791 33.8298 859.161 34.3398C841.401 23.7198 823.741 12.8698 806.001 2.0498L802.601 0.0498047H789.801C805.094 9.13647 820.354 18.4698 835.581 28.0498ZM1209 147.86C1219.67 149.26 1230.31 150.766 1240.92 152.38C1288.33 159.38 1214.52 159.73 1212.36 159.48C1199.51 157.98 1186.98 154.85 1174.45 151.66C1181.61 151.45 1188.8 151.15 1196.09 150.52C1198.26 150.34 1198.24 147.02 1196.03 147.11C1181.72 147.677 1167.39 147.47 1153.1 146.49C1147.1 145.21 1141.1 144.08 1135.1 143.34C1134.89 143.303 1134.68 143.315 1134.48 143.375C1134.27 143.435 1134.09 143.542 1133.93 143.686C1133.78 143.831 1133.66 144.01 1133.59 144.208C1133.51 144.407 1133.49 144.62 1133.51 144.83C1129.1 144.33 1124.69 143.83 1120.32 143.19C1107.64 139.7 1094.77 136.67 1081.95 133.75C1124.18 139.11 1166.8 142.45 1209 147.86ZM1106.58 147.35C1119.63 151.21 1132.83 154.64 1145.74 158.64C1159.59 162.931 1172.93 168.708 1185.54 175.87C1194.38 180.87 1202.11 187.51 1209.54 194.37C1216.7 200.96 1200.98 198.09 1197.47 198.02C1153.6 197.24 1116.22 162.21 1077.62 141.95C1087.16 144.12 1096.82 145.88 1106.58 147.35ZM1072.46 132.52C1072.22 132.75 1072.03 133.025 1071.89 133.33C1069.22 132.64 1066.5 132.05 1063.83 131.33C1066.7 131.71 1069.58 132.13 1072.46 132.52ZM1116.86 55.6098C1136.2 47.6098 1158.41 47.2798 1179.02 46.2498C1179.19 46.2498 1148.4 70.8398 1143.38 74.0998C1122.1 87.9398 1100.81 96.8998 1078.66 101.93C1098.63 92.3668 1116.44 78.8309 1131 62.1498C1131.17 61.9265 1131.25 61.6472 1131.23 61.3667C1131.21 61.0862 1131.08 60.8247 1130.87 60.6333C1130.67 60.4419 1130.4 60.3344 1130.11 60.3319C1129.83 60.3294 1129.56 60.4321 1129.35 60.6198C1109.22 81.3098 1081.58 98.8198 1052.35 105.94C1047.21 106.4 1042 106.71 1036.73 106.83C1064.07 94.6398 1089.14 66.9998 1116.86 55.6098ZM1025.27 148.83C1035.73 160.16 1045.12 172.83 1057.8 181.77C1058.94 182.58 1060.47 180.88 1059.66 179.77C1053.43 171.26 1046.26 162.24 1038.46 153.46C1045.72 159.36 1052.92 165.35 1059.98 171.53C1074.42 184.21 1088.23 197.61 1101.98 211.04C1126.48 234.98 1082.47 214.78 1073.46 209.5C1041.36 190.73 1025.36 155.1 1002.46 126.5C1010.45 133.533 1018.07 140.987 1025.27 148.83ZM904.471 40.2798C939.131 30.1798 970.541 26.2098 1005.42 27.6098C990.691 34.8498 976.931 43.7798 961.151 49.1698C944.421 54.8998 925.241 52.0398 906.331 47.7098C924.401 48.0298 941.921 44.6598 952.881 32.2298C953.751 31.2298 952.381 30.0298 951.421 30.8798C936.721 43.6798 917.601 43.6898 898.421 41.9698C900.461 41.4298 902.481 40.8698 904.471 40.2798Z" fill="#9541BA"/>
</svg>
