<svg width="1926" height="1082" viewBox="0 0 1926 1082" fill="none" xmlns="http://www.w3.org/2000/svg">
<g clip-path="url(#clip0_1341_3)">
<path d="M308 1049C349.39 1026.52 364.71 974.45 375.07 932.21C375.99 928.43 370.96 926.48 368.89 929.64C353.96 952.49 326.83 954.64 309.13 971.36C316.32 953.05 318.48 932.75 317.77 912.46C319.806 907.628 321.347 902.603 322.37 897.46C322.479 897.195 322.478 896.897 322.367 896.633C322.256 896.368 322.045 896.159 321.78 896.05C321.515 895.941 321.217 895.942 320.953 896.053C320.688 896.164 320.479 896.375 320.37 896.64C319.28 898.58 318.21 900.51 317.16 902.41C316.191 890.482 314.562 878.617 312.28 866.87C312.28 865.87 312.28 864.87 312.28 863.82C313.28 862.1 314.28 860.32 315.28 858.45C315.495 858.08 315.554 857.64 315.444 857.226C315.334 856.813 315.065 856.46 314.695 856.245C314.325 856.03 313.885 855.971 313.471 856.081C313.058 856.191 312.705 856.46 312.49 856.83C312.33 857.09 312.14 857.31 311.97 857.57C311.858 857.447 311.721 857.349 311.568 857.282C311.416 857.215 311.251 857.18 311.085 857.18C310.919 857.18 310.754 857.215 310.602 857.282C310.449 857.349 310.312 857.447 310.2 857.57C308.96 856.06 305.78 856.75 305.97 859.07C306.13 861.14 306.31 863.18 306.49 865.23C279.08 899.71 231.49 908.97 205.79 946.15C184.51 977 180.16 1011.49 188.54 1047C185.793 1042.09 183.063 1037.17 180.35 1032.24C181.28 1032.11 182.14 1031.38 181.73 1030.33C170.29 1000.77 167.63 974.59 171.11 949.89C198.22 914.08 246.5 895.18 266.99 855.33C275.26 844.81 279.83 832.7 277.92 817.72C282.32 780.63 269.59 744.02 251.56 710.31C250.3 707.96 246.41 708.31 245.84 711.04C234.35 765.42 177 780.86 161 829.71C148.71 867.18 148.56 911.18 160.9 948.83C159.076 971.823 162.715 994.922 171.52 1016.24C153.38 982.97 136.12 949.31 121.29 914.6C117.097 904.8 113 894.907 109 884.92C107.37 868.7 108.43 851.18 113.27 831.35C118.68 809.21 127.48 787.86 135.55 766.35C140.72 763.333 145.229 759.307 148.81 754.51C149.38 755.17 149.94 755.85 150.46 756.51C145.16 774.24 149.86 794.68 159.11 810.29C159.416 810.805 159.866 811.22 160.405 811.482C160.944 811.745 161.547 811.844 162.142 811.767C162.736 811.69 163.295 811.442 163.749 811.051C164.204 810.661 164.535 810.146 164.7 809.57C169.25 792.11 167.64 771.57 156.13 757.57C156.3 757.06 156.51 756.57 156.7 756.06C167.83 765.46 180.95 769.92 194.61 761.7C196.13 760.79 196.84 758.25 195.29 756.97C187.76 750.77 180.29 746.55 171.54 744.44C180.71 739.16 190.75 735.65 198.48 728.01C198.884 727.601 199.174 727.093 199.323 726.538C199.472 725.982 199.474 725.397 199.329 724.841C199.183 724.284 198.896 723.775 198.495 723.363C198.094 722.951 197.592 722.65 197.04 722.49C183.34 718.27 167.82 725.09 156.59 734.95C154.262 731.665 151.579 728.647 148.59 725.95C152.02 712.25 154.25 698.29 154.07 683.8C154.052 683.4 153.877 683.024 153.583 682.753C153.289 682.481 152.9 682.336 152.5 682.35C152.832 682.048 153.099 681.681 153.284 681.272C153.469 680.862 153.568 680.419 153.574 679.97C153.581 679.521 153.495 679.076 153.322 678.661C153.149 678.246 152.893 677.872 152.57 677.56L151.23 676.12L153.1 674.93C153.2 675.1 153.3 675.27 153.39 675.44C153.635 675.852 153.978 676.195 154.39 676.44C154.38 676.543 154.38 676.647 154.39 676.75C155.7 689.89 163.18 722.2 183.68 711.65C195.86 705.37 190.44 695.3 182.2 687.38C188.359 687.798 194.547 687.371 200.59 686.11C202.92 685.61 203.45 682.66 201.99 681.05C194.66 673 185.24 668.64 174.86 667.05C187.86 655.54 202.46 645.83 209.03 628.95C209.82 626.95 207.35 624.5 205.32 625.24C187.71 631.73 168.2 644.12 155.75 659.24C155.2 656.61 154.75 653.98 154.22 651.37C154.396 651.59 154.622 651.765 154.879 651.879C155.137 651.994 155.418 652.045 155.699 652.028C155.98 652.012 156.253 651.928 156.495 651.784C156.737 651.639 156.941 651.439 157.09 651.2C164.85 635.27 168.19 614.98 154.68 601.43C154.252 601.016 153.724 600.721 153.147 600.574C152.57 600.427 151.965 600.434 151.391 600.592C150.818 600.751 150.295 601.056 149.876 601.479C149.457 601.901 149.155 602.425 149 603C143 621 145 637.56 148.59 654.68C143.12 645.35 136.92 636.78 127.68 629.94C125.84 628.58 122.81 629.94 122.38 632.12C119.86 644.79 124.57 654.91 131.52 664.12C122.258 660.127 112.286 658.045 102.2 658C101.592 658.004 100.995 658.167 100.469 658.472C99.9433 658.777 99.5058 659.214 99.2 659.74L97.2 663.25C96.822 663.911 96.6683 664.676 96.762 665.432C96.8558 666.187 97.1919 666.892 97.72 667.44C108.49 679.13 122.48 681.92 136.62 679.6C125.5 687.88 115.51 697.09 108.69 709.84C108.69 709.91 108.69 709.98 108.69 710.06C104.723 711.699 101.335 714.485 98.96 718.06C89.12 732.33 108.96 743.06 127.64 748.54C113.05 751.15 98.96 756.25 107.64 766.05C112.45 771.52 119.01 772.31 125.58 770.67C115.78 798.51 106.43 826.36 103.07 855.31C102.603 859.397 102.297 863.373 102.15 867.24C88.3 831.77 75.61 795.38 64.5 758.38C62.36 697.26 69.6 640.64 94.03 590.18C113.03 565.03 151.72 557.49 180.77 547.79C207.58 538.84 226.39 524.93 245.16 503.86C279.57 465.24 295.05 405.32 275.03 356.86C276.13 356.57 277.21 356.2 278.32 355.93C281.53 355.15 280.95 349.88 277.56 350.14C275.81 350.27 274.07 350.53 272.31 350.74C271.05 348.16 269.77 345.59 268.31 343.07C268.033 342.606 267.6 342.257 267.088 342.085C266.576 341.913 266.019 341.93 265.519 342.133C265.018 342.336 264.607 342.712 264.36 343.192C264.112 343.672 264.045 344.225 264.17 344.75C264.78 347.06 265.22 349.37 265.77 351.68C218.86 359.89 174.87 394.78 141.91 426.46C98.97 467.72 84.25 526.74 84.91 584.61C62.15 632.77 53.87 688.22 59.2 740.89C37.69 665.32 23.2 587.49 19.42 510.08C37.69 458.63 81.78 420.42 86 363C90.48 301.63 70.67 244 63.2 183.7C62.72 179.84 56.71 178.21 55.83 182.75C49.5 215.29 20.64 228.86 4.36 254.81C2.9 257.12 1.45 259.47 0 261.81V275.3C5.93262 265.738 12.5711 256.633 19.86 248.06C11.9024 260.003 5.24454 272.762 0 286.12L0 309.12C6.24 288.21 15.46 267.6 25 245.75C25.1115 245.533 25.1688 245.292 25.1668 245.048C25.1648 244.804 25.1037 244.564 24.9887 244.349C24.8737 244.133 24.7082 243.949 24.5064 243.812C24.3046 243.674 24.0725 243.588 23.83 243.56C25.66 241.56 27.46 239.44 29.33 237.49C31.93 234.76 34.93 231.77 38.02 228.58C27.66 260.12 26.48 294.16 28.71 327.52C19 369.36 15.1 413.6 10.73 456.22C8.35 440.41 4.19 424.89 0 409V434.3C5.71 454.74 10.52 475.38 8.43 497.52C8.40292 497.715 8.41779 497.913 8.47364 498.102C8.52948 498.29 8.625 498.465 8.75379 498.614C8.88257 498.762 9.04166 498.882 9.22037 498.964C9.39909 499.046 9.5933 499.089 9.79 499.09C9.85 502.47 9.95 505.847 10.09 509.22C6.41987 503.291 3.05222 497.18 0 490.91L0 509.36C1.58323 513.887 2.91854 518.497 4 523.17C2.74 521.037 1.40667 518.933 0 516.86V527.76C8.46 541.56 14.26 556.7 15.35 574.25C15.3679 574.587 15.4975 574.909 15.7184 575.164C15.9393 575.419 16.2389 575.594 16.57 575.66C19.38 594.6 22.86 613.45 26.68 632.11C34.0133 667.997 42.3467 703.59 51.68 738.89C45.8528 727.793 39.2253 717.135 31.85 707C21 675.89 11.86 643.31 0 612.12V638.42C5.84 656.05 11.64 673.7 19.09 690.51C13 683.17 6.62 676.06 0 669.08V681.08C9.37 691.74 18.33 702.71 26.68 714.08C18.3617 706.655 9.43726 699.938 0 694L0 702.22C14.76 710.8 28.6 720.9 40.59 734.55C47.9795 746.12 54.6327 758.144 60.51 770.55C70.94 806.55 82.66 842.27 96.22 877.43C98.67 883.78 101.35 890.03 103.97 896.3C109.18 925.49 123.72 949.37 141.02 974.66C150.56 992.893 160.423 1010.97 170.61 1028.9C150.54 1010.1 128.39 993.39 107.54 978.14C98.32 971.42 89.15 964.85 80.02 958.32C91.74 954.92 102.02 948.23 107.08 936.46C107.325 936.01 107.45 935.504 107.443 934.991C107.437 934.479 107.299 933.976 107.043 933.532C106.788 933.088 106.422 932.717 105.982 932.454C105.542 932.191 105.042 932.045 104.53 932.03C87.72 930.75 71.75 934.53 56.59 941.03C65.59 929.14 74.23 917.35 79.5 903.03C80.29 900.89 77.91 898.93 75.92 899.44C63.35 902.64 53.85 911.62 47.8 922.76C50.21 900.18 49.56 871.3 26.43 878.98C17.18 882.05 15.75 892.43 17.76 904.27C12.6554 900.051 6.53015 897.251 0 896.15L0 902.71C8.3 904.37 15.17 909.37 20.6 915.97C24.68 929.05 31.18 941.71 34.86 946.74C21.69 946.46 6.08 926.42 0 911V925.79C2.69624 929.645 5.70648 933.271 9 936.63C6.02 934.477 3.02 932.387 0 930.36V936.42C4.15 938.87 8.29 941.42 12.44 943.9C8.4262 942.018 4.26578 940.466 0 939.26L0 945.49C2.8134 946.284 5.58093 947.232 8.29 948.33C5.50947 948.29 2.73203 948.531 0 949.05L0 955.3C1.98058 954.859 3.98349 954.525 6 954.3C4.04319 955.666 2.55409 957.602 1.73476 959.843C0.915425 962.085 0.805535 964.524 1.42 966.83C2.7 972.65 9.68 974.04 14.64 973.54C20.37 972.95 25.72 970.38 30.64 966.96C25.2361 977.123 21.8281 988.226 20.6 999.67C20.45 1001.23 22.42 1001.67 23.41 1000.85C34.08 992.16 45.41 975.22 44.86 959.79C45.178 960.121 45.5731 960.369 46.01 960.51C46.26 960.58 46.49 960.68 46.75 960.76C51.86 974.53 57.99 987.18 74.92 988.83C77.05 989.04 78.08 986.78 77.84 985.04C76.33 974.13 70.17 966.46 61.84 961.17C64.18 961.08 66.52 960.91 68.84 960.63C113.21 992.63 155.62 1022.63 189.62 1062.2L201.06 1082H215.19C211.75 1076.39 208.01 1070.92 204.02 1065.62C239.39 1069 276.77 1066 308 1049ZM172.53 941.12C172.92 939.2 173.37 937.29 173.83 935.38C185.64 913.62 211.61 898.75 234.75 882.95C213.25 904 189.7 918.09 172.53 941.12ZM261 848.27C240.49 875.71 201.7 888.03 180.26 914.62C181.98 910.04 183.883 905.473 185.97 900.92C217.25 867.08 267.56 838.35 272.02 792.99C273.769 812.095 269.941 831.296 261 848.27ZM257 741.93C261.5 753.48 266.56 767.93 268.83 775.38C268.715 775.524 268.633 775.691 268.59 775.87C263.93 828.18 224.59 853.01 193.11 886.47C201.33 871.442 210.343 856.862 220.11 842.79C241.18 812.07 258.88 778.13 257.07 741.93H257ZM233.42 752.62C239.68 744.523 244.758 735.577 248.5 726.05C253.23 782.78 224.17 822.16 195.33 866.43C201 824.5 209.17 789.51 233.49 752.62H233.42ZM196.03 792.12C201.89 786.04 207.84 780.32 213.64 774.56C197.77 803.56 193.72 838.85 191.83 871.82C186.9 879.49 182.02 887.32 177.36 895.44C176.51 896.93 175.76 898.44 174.97 899.98C174.58 883.93 174.22 867.85 175.24 851.84C176.75 829.42 185.08 810.67 196.1 792.12H196.03ZM182.78 807.12C168.83 837.12 169.71 871.64 172.3 905.34C167.559 915.548 164.177 926.333 162.24 937.42C152.51 892.84 153.61 844.11 182.85 807.12H182.78ZM199.59 634.39C191.43 647.79 177.01 656.39 165.86 667.24C165.454 667.658 165.178 668.185 165.067 668.757C164.955 669.329 165.013 669.921 165.232 670.461C165.452 671.001 165.824 671.465 166.303 671.797C166.782 672.129 167.347 672.314 167.93 672.33C177.42 672.69 185.93 675.33 193.03 681.08C184.03 681.83 173.81 680.54 166.27 676.23C162.39 674.53 159.04 679.78 162.87 682.06C164.331 682.912 165.856 683.651 167.43 684.27C176.23 688.98 190.94 699.06 180.53 706.27C167.04 715.63 159.64 683.1 158.72 676.27C158.674 675.929 158.528 675.608 158.3 675.35C158.642 674.743 158.749 674.031 158.6 673.35C158.12 670.97 157.6 668.61 157.11 666.25C172.32 656.58 183.57 642.74 199.66 634.39H199.59ZM153.7 611.28C160.7 623.03 155.17 637.17 153.87 650C151.68 637.16 150.72 624.45 153.77 611.28H153.7ZM160.34 799.45C155.43 788.34 152.68 775.28 154.66 763.36C160.34 774.25 162 787.28 160.41 799.45H160.34ZM188.45 727.76C179.79 733.96 169.38 737.45 160.82 743.97C160.576 743.003 160.276 742.052 159.92 741.12C168.69 734.34 177.88 727.52 188.52 727.76H188.45ZM155.64 744.45C156.82 745.63 157.96 746.84 159.22 747.94C159.44 748.111 159.699 748.222 159.974 748.264C160.249 748.306 160.53 748.277 160.79 748.18C161.345 748.853 162.135 749.289 163 749.4C172.64 750.06 180 753.27 187.28 758.56C176.28 762.82 166.1 757.4 157.46 749.21C157.117 748.909 156.714 748.683 156.279 748.547C155.843 748.411 155.383 748.368 154.93 748.42C154.886 747.94 154.714 747.48 154.433 747.088C154.152 746.695 153.771 746.386 153.33 746.19C154.15 745.62 154.92 745.06 155.71 744.45H155.64ZM152 752.39C151.91 752.63 151.83 752.87 151.73 753.11C151.48 752.88 151.24 752.65 150.98 752.43C151.3 752.43 151.7 752.43 151.98 752.43L152 752.39ZM116.25 672.27C99.97 664.85 100.14 662.8 116.76 666.12C123.264 667.187 129.476 669.595 135 673.19C128.737 673.968 122.387 673.656 116.23 672.27H116.25ZM128.85 640C138.07 648.22 144.16 658.88 150.15 669.66C148.82 670.09 147.52 670.44 146.21 670.81C137.79 662 129.15 652.29 128.85 640ZM130.56 690.87C135.042 686.961 139.82 683.403 144.85 680.23C145.757 680.963 146.657 681.703 147.55 682.45C148.042 682.897 148.651 683.195 149.306 683.31C149.961 683.425 150.635 683.352 151.25 683.1C151.2 683.22 151.09 683.26 151.06 683.41C148.846 695.948 145.863 708.338 142.13 720.51C139.29 718.33 136.47 716.36 133.95 714.68C130.698 712.486 127.13 710.8 123.37 709.68C133.84 704.68 142.55 696.15 148.95 686.42C150.58 683.96 146.65 681.7 145.02 684.12C137.7 694.99 127.53 703.46 115.09 707.85C119.43 706.32 126.07 695 130.56 690.89V690.87ZM104.19 723.69C106.63 707.57 128.09 719.14 134.72 723.88C141.13 728.45 146.15 734.35 151.39 740.05C149.722 741.874 148.178 743.808 146.77 745.84C132.3 744.66 102.25 736.55 104.19 723.71V723.69ZM112.68 764.34C106.25 761.09 115.5 757.34 118.23 756.34C126.75 753.34 136.16 752.72 145.31 752.51C138.32 762.37 124.72 770.47 112.68 764.36V764.34ZM178.31 539C153.1 548.41 124.18 555.4 103.96 571.39C106.347 567.343 108.87 563.343 111.53 559.39C139.64 539.32 174.07 535.72 205.91 520.98C216.071 516.114 225.455 509.772 233.76 502.16C219.54 517.68 201.26 530.45 178.31 539ZM260.31 459.42C235.68 491.51 213.46 514.56 171.2 528.62C151.2 535.27 134.05 539.89 118.43 549.46C124.058 541.862 130.09 534.571 136.5 527.62C177.36 515.62 233.57 488.62 263.23 450.83C262.34 453.72 261.43 456.62 260.34 459.43L260.31 459.42ZM269.54 373.16C271.744 390.036 271.68 407.131 269.35 423.99C243.87 472.65 193.62 500.73 142.35 521.5C145.49 518.29 148.61 515.08 151.98 511.94C196 470.92 254.21 433.64 269.57 373.17L269.54 373.16ZM265.32 359.53C247.27 419.53 201.17 452.72 158.15 491.16C175.91 451.16 196.27 414.92 219.78 377.71C234.391 370.292 249.643 364.211 265.35 359.54L265.32 359.53ZM209.1 383.36C209.38 383.2 209.67 383.07 209.95 382.9C183.92 415.66 166.37 457.6 152 496.73C144.88 503.24 137.91 509.94 131.19 516.98C142.91 463.06 162.88 417.61 209.13 383.37L209.1 383.36ZM146.6 431.47C152.12 425.76 157.97 420.4 163.96 415.2C141.81 445.93 130.07 488.37 125.54 523.08C120.6 528.55 115.83 534.22 111.31 540.2C103.378 550.749 96.3119 561.922 90.18 573.61C95.57 519.5 106 473.57 146.63 431.48L146.6 431.47ZM8.46 531.4C8.52 531.24 8.65 531.12 8.63 530.92C7.68236 524.018 6.25219 517.192 4.35 510.49C6.35 513.7 8.44 516.84 10.6 519.9C11 526.62 11.5167 533.337 12.15 540.05C11 537.11 9.84 534.22 8.46 531.4ZM34.35 266.58C36.76 249.14 42.63 232.94 48.73 216.75C52.2121 212.566 55.2298 208.016 57.73 203.18C56.8 240.79 42 277.42 32.23 313.42C32.04 314.11 31.89 314.82 31.71 315.52C31.3707 299.164 32.2531 282.805 34.35 266.58ZM44.56 295.73C49.93 277.17 56.98 257.31 61.27 237.27C61.9367 242.47 62.78 247.74 63.8 253.08C63.8 253.08 63.8 253.08 63.8 253.15C68.62 301.04 42.95 338.92 26.52 381.15C31.2 352.34 36.49 323.67 44.56 295.73ZM19.69 424C21.0233 415.68 22.3567 407.347 23.69 399C36.36 359.38 65.49 321.69 69.28 280C69.99 283.33 70.71 286.67 71.41 290C71.1908 290.001 70.974 290.047 70.7727 290.133C70.5714 290.22 70.3897 290.347 70.2385 290.506C70.0872 290.664 69.9696 290.852 69.8925 291.057C69.8155 291.262 69.7806 291.481 69.79 291.7C70.48 332.1 61.29 369.43 41.49 404.86C33.84 418.53 25 431.17 19 444.76C19.24 437.98 19.42 431.19 19.85 424.42C19.84 424.26 19.7 424.19 19.69 424ZM18.61 453.58C27.73 427.58 48.88 404.63 59.06 379.45C67.42 358.8 75.72 336.84 76.12 314.66C78.12 326.96 79.48 339 79.26 350.41C78.19 409 37 448.09 19 498.77C18.46 483.7 18.26 468.63 18.61 453.61V453.58ZM21.49 947.3C22 947.62 22.49 947.93 23.07 948.24C22.37 948.33 21.67 948.41 20.96 948.53L20.64 948.31C20.8485 948.225 21.034 948.091 21.1816 947.921C21.3292 947.751 21.4349 947.549 21.49 947.33V947.3ZM6.49 965.43C4.94 961.14 11.26 957.69 14.19 956.28C15.936 955.526 17.7558 954.956 19.62 954.58C20.12 954.66 20.62 954.78 21.13 954.9C22.05 955.47 22.98 955.95 23.9 956.56C26.11 958.05 28.02 955.56 27.32 953.51C30.78 953.37 34.25 953.45 37.69 953.63C29.94 960.73 10.49 976.49 6.5 965.46L6.49 965.43ZM37.65 970.85C35.65 980.05 32.14 989.16 25.08 995.41C27.9348 984.096 32.5296 973.294 38.7 963.39C38.5013 965.905 38.154 968.406 37.66 970.88L37.65 970.85ZM42.37 936.51C41.615 939.4 41.0703 942.341 40.74 945.31C40.7001 945.314 40.6599 945.314 40.62 945.31C40.6386 944.999 40.6185 944.686 40.56 944.38C38.08 933.49 33.13 921.68 25.75 912.38C23.25 903.15 22.5 894.04 25.39 887.49C28.28 880.94 37.83 883.67 40.48 888.63C43.74 894.73 43.48 903.23 43.74 909.93C43.9367 918.821 43.4822 927.715 42.38 936.54L42.37 936.51ZM71.47 907.34C65.47 920.89 56.31 932.34 47.19 944.1C49.82 928.81 57.27 913.91 71.48 907.37L71.47 907.34ZM71 982C61.75 979.48 57.58 971.8 53.86 963.5C62 967.34 68.36 973.15 71 982ZM50 955C49.36 953.69 48.7 952.42 48 951.17C48.26 951.17 48.54 951.17 48.78 951.09C65 943 81.63 937.52 99.7 937.83C89.73 953.68 67.83 956.59 50 955ZM349.76 989.26C332.27 1030.26 295.58 1054.97 251.86 1057.97C241.48 1058.69 230.16 1057.38 219.22 1057.62C263.55 1036.68 325.22 1016.76 355.06 975.2C353.31 980.15 351.58 985 349.75 989.28L349.76 989.26ZM308.64 893.05C309.14 900.98 309.45 908.78 309.42 916.45C304.31 925.34 298.81 933.86 291.31 942.05C283.58 950.51 274.67 957.22 265.17 963.13C271.138 957.265 276.792 951.09 282.11 944.63C294.488 929.506 303.526 911.935 308.63 893.07L308.64 893.05ZM242.64 918.92C265.84 901.83 290.28 893.31 307.01 871.6C307.06 872.23 307.12 872.84 307.17 873.47C298.35 913.6 276.88 944.17 248.1 972.74C246.66 973.48 245.22 974.22 243.77 974.94C251.85 943.84 263.69 917.68 286.9 893.89C287.009 893.809 287.101 893.707 287.17 893.59C287.24 893.473 287.286 893.343 287.305 893.209C287.325 893.074 287.318 892.937 287.284 892.805C287.251 892.673 287.191 892.549 287.11 892.44C287.029 892.331 286.927 892.239 286.81 892.17C286.693 892.1 286.563 892.054 286.428 892.035C286.294 892.015 286.157 892.022 286.025 892.056C285.893 892.089 285.769 892.149 285.66 892.23C257.33 908.09 246.97 946.41 240.58 976.89C240.495 977.057 240.453 977.243 240.46 977.43C240.22 978.57 239.99 979.67 239.77 980.8C237.363 983.06 234.91 985.313 232.41 987.56C225.283 993.839 218.6 1000.61 212.41 1007.81C224.41 971.29 234.97 936.3 265.24 907.11C265.433 906.908 265.547 906.644 265.563 906.365C265.579 906.086 265.496 905.81 265.328 905.587C265.16 905.364 264.918 905.207 264.646 905.146C264.373 905.084 264.088 905.121 263.84 905.25C225.37 926.62 211.48 981.39 200.91 1024.88C196.821 1032.78 194.356 1041.43 193.66 1050.3C187.22 995.72 195 954 242.64 918.94V918.92ZM197.64 1057.52C197.51 1057.36 197.38 1057.19 197.24 1057.03C199.98 1038.54 208.56 1023.19 219.78 1009.29C252.08 994.01 290.3 981.39 304.22 945.46C304.88 943.75 302.42 943.13 301.49 944.33C288.39 961.33 278.08 975.07 259.14 985.96C247.82 992.47 235.95 997.63 224.48 1003.67C233.54 993.33 243.83 983.67 254.02 973.96C275.02 964.4 295.79 948.2 309.09 928.41C307.5 956.64 299.97 983.29 278.09 1009.21C258.13 1033 215.08 1033.77 197.66 1057.54L197.64 1057.52ZM266.09 1027.63C283.41 1017.63 294.61 999.71 303.91 982.63C304.12 982.22 304.31 981.78 304.53 981.35C322.53 968.5 342.85 961.57 361.08 949.35C361.26 949.23 361.43 949.06 361.61 948.93C331 1010.11 267.75 1022.27 212.1 1058C212.1 1058 212.1 1058.08 212.02 1058.12C208.438 1058.45 204.897 1059.14 201.45 1060.17C216.68 1044.33 248.31 1038 266.11 1027.65L266.09 1027.63Z" fill="#9541BA"/>
<path d="M35.08 1070.5C23.25 1069.5 9.8 1070.09 0 1076.63V1079.35C9.93 1072.7 23.2 1074.14 35.31 1072.22C36.35 1072.05 36 1070.58 35.08 1070.5Z" fill="#9541BA"/>
<path d="M4.41 938.57C2.92993 938.627 1.44854 938.499 0 938.19L0 943.19C2.52727 942.3 5.13182 941.647 7.78 941.24C7.97216 941.201 8.15532 941.126 8.32 941.02C5.5 943.35 2.91 946.1 0 948.2V951.7C2.56002 950.151 4.9123 948.283 7 946.14C5.30177 952.117 4.83567 958.377 5.63 964.54C5.6913 964.754 5.80667 964.949 5.96505 965.106C6.12342 965.263 6.31947 965.376 6.53437 965.436C6.74926 965.495 6.97578 965.498 7.19217 965.444C7.40855 965.391 7.60754 965.282 7.77 965.13C13.77 958.2 13.67 949.69 11.48 941.48C11.8 941.96 12.68 941.9 12.75 941.28C18.39 947 22.5 954 29.5 958.42C29.8256 958.606 30.2115 958.657 30.5744 958.562C30.9373 958.467 31.2482 958.232 31.44 957.91C37 947 27.65 938.21 17.37 936.47C25.48 931.96 30.13 922.07 34.75 914.47C34.8966 914.205 34.9534 913.9 34.912 913.6C34.8706 913.3 34.7332 913.022 34.5203 912.807C34.3075 912.592 34.0306 912.451 33.7313 912.407C33.432 912.362 33.1263 912.416 32.86 912.56C26.6738 915.934 21.1808 920.446 16.67 925.86C19.59 917.98 21.45 909.86 20.6 901.12C20.5934 900.831 20.5128 900.548 20.3659 900.299C20.219 900.05 20.0107 899.843 19.7609 899.698C19.5111 899.552 19.2281 899.473 18.9391 899.469C18.6501 899.464 18.3646 899.533 18.11 899.67C7.21 905.51 4.4 921.06 7.76 933.14C5.94 931.84 4.06 930.61 2.2 929.34C1.46 928.84 0.72 928.34 0 927.78V931.9C2.06 933.19 4.19 934.4 6.18 935.75C4.09158 935.333 2.02831 934.799 0 934.15L0 937.49C1.46 937.89 2.93 938.27 4.41 938.57ZM29.63 955C23.91 950.77 20.08 944.74 15.21 939.67C23.53 940.75 33.26 945.9 29.63 955ZM29.71 918C25.78 925.3 21.29 932.6 13.65 936.16C13.36 936.16 13.07 936.16 12.78 936.16C17.2365 929.1 22.9794 922.94 29.71 918ZM17.4 904.1C17.73 913.62 14.93 922.33 11.23 930.94C9.75 921 9.15 910.28 17.4 904.1ZM7.86 960.66C7.73383 955.284 8.54599 949.927 10.26 944.83C11 950.33 10.64 956 7.86 960.66ZM8.86 939.54C8.94 939.59 9.01 939.61 9.08 939.65C9.01 939.86 8.92 940.07 8.85 940.28C8.91166 940.037 8.90821 939.781 8.84 939.54H8.86ZM8.73 940.61C8.72602 940.643 8.72602 940.677 8.73 940.71L8.55 940.86C8.61469 940.784 8.66854 940.7 8.71 940.61H8.73Z" fill="#9541BA"/>
<path d="M3.67 1068C3.96 1067.7 4.27 1067.44 4.56 1067.16C18.82 1063.64 34.39 1062.64 46.34 1073.02C46.75 1073.39 47.53 1072.91 47.16 1072.41C39.95 1062.61 23.02 1058.32 10.56 1062.23C15.2078 1059 20.4065 1056.65 25.9 1055.29C25.8761 1055.37 25.8691 1055.46 25.8796 1055.54C25.89 1055.63 25.9177 1055.71 25.9608 1055.78C26.0039 1055.85 26.0616 1055.92 26.1303 1055.97C26.1989 1056.02 26.2771 1056.05 26.36 1056.07C37.36 1059.07 47.36 1063.23 55.36 1071.61C55.98 1072.25 56.93 1071.31 56.36 1070.61C49.28 1062.61 39.43 1054.77 28.22 1054.72C33.292 1053.72 38.4768 1053.42 43.63 1053.83C43.6992 1053.93 43.7908 1054.01 43.897 1054.06C44.0032 1054.11 44.1209 1054.14 44.24 1054.14C45.24 1054.14 46.04 1054.14 46.92 1054.14C51.2198 1054.68 55.4653 1055.59 59.61 1056.86C60.2 1057.17 60.78 1057.37 61.39 1057.75C66.86 1061.13 71.54 1066.98 74.3 1072.9C55.6655 1070.47 36.7295 1073.64 19.9 1082H24.68C40.0296 1075.66 56.7945 1073.54 73.24 1075.85C70.05 1077.75 67 1079.85 63.98 1082H68.16C70.84 1079.87 73.35 1077.89 75.66 1076.27C81.5078 1077.21 87.2582 1078.68 92.84 1080.66C91.6963 1081.04 90.5802 1081.5 89.5 1082.03H106.6C94.7331 1066.95 77.8373 1056.65 59 1053C55 1050.93 50.73 1050.11 46.44 1051.51C33.4675 1051.03 20.5629 1053.6 8.76 1059C5.41342 1060.61 2.43224 1062.89 0 1065.7L0 1071.9C1.22 1070.56 2.43 1069.23 3.67 1068ZM98 1079.26C90.9939 1076.39 83.6678 1074.38 76.18 1073.26C74.1438 1068.26 71.2162 1063.68 67.54 1059.73C78.7816 1064.36 89.099 1070.98 98 1079.26Z" fill="#9541BA"/>
<path d="M56.9301 884.66C56.7683 884.361 56.51 884.127 56.1976 883.994C55.8852 883.862 55.5371 883.839 55.2101 883.93C52.9143 884.782 50.7419 885.935 48.7501 887.36C48.3933 887.573 48.1327 887.915 48.0227 888.316C47.9128 888.717 47.962 889.144 48.1601 889.51C49.0401 891.45 50.3301 892.92 52.3801 893.32C52.359 893.372 52.3423 893.425 52.3301 893.48C52.2637 893.775 52.3142 894.084 52.4711 894.343C52.6279 894.602 52.8789 894.79 53.1713 894.867C53.4638 894.945 53.7749 894.906 54.0394 894.759C54.304 894.613 54.5013 894.369 54.5901 894.08C54.7204 893.693 54.8844 893.318 55.0801 892.96C55.6501 892.66 56.1901 892.31 56.7101 892.06C56.9077 891.944 57.0526 891.757 57.1142 891.537C57.1758 891.316 57.1492 891.081 57.0401 890.88C56.962 890.703 56.8418 890.549 56.6901 890.43C56.8844 890.137 57.0613 889.833 57.2201 889.52C58.0001 887.89 57.5901 886.23 56.9301 884.66ZM53.7401 890.17C53.5053 890.211 53.2682 890.238 53.0301 890.25C52.7213 890.227 52.4241 890.123 52.1692 889.947C51.9143 889.771 51.7109 889.53 51.5801 889.25C52.5214 888.633 53.5 888.076 54.5101 887.58C54.4383 888.488 54.1759 889.37 53.7401 890.17Z" fill="#9541BA"/>
<path d="M85.84 931.22C86.0606 930.783 86.222 930.319 86.32 929.84C86.4077 929.346 86.3612 928.838 86.1853 928.368C86.0094 927.898 85.7105 927.484 85.32 927.17C85.0889 926.933 84.7855 926.78 84.4578 926.735C84.1301 926.689 83.7966 926.755 83.51 926.92C82.4 927.73 81.39 928.69 80.35 929.6C78.86 930.9 80.79 934.87 81.75 936.14C83.83 938.9 86.93 935.14 88.57 933.96C88.6878 933.886 88.7849 933.784 88.8522 933.662C88.9195 933.54 88.9548 933.404 88.9548 933.265C88.9548 933.126 88.9195 932.989 88.8522 932.868C88.7849 932.746 88.6878 932.643 88.57 932.57C87.5 931.84 86.2 932.48 85.2 933.08C85.3264 932.894 85.394 932.674 85.394 932.45C85.394 932.225 85.3264 932.006 85.2 931.82C85.53 932.3 85.57 931.75 85.84 931.22ZM83.84 933.97C83.59 933.97 83.26 932.38 83.05 931.29L83.49 930.91C83.34 931.78 83.2 932.8 83.98 933.33C84.1425 933.445 84.3435 933.491 84.54 933.46C84.18 933.7 83.76 934 83.86 934L83.84 933.97Z" fill="#9541BA"/>
<path d="M1801.74 775.11C1801.46 775.457 1801.32 775.9 1801.36 776.345C1801.4 776.791 1801.61 777.203 1801.95 777.496C1802.29 777.788 1802.73 777.938 1803.17 777.912C1803.62 777.887 1804.04 777.689 1804.34 777.36C1834.34 745.59 1880.19 762.16 1920 758.88V749.77C1878.29 753.38 1831.13 738.78 1801.74 775.11Z" fill="#9541BA"/>
<path d="M1821.77 746.91C1821.46 747.132 1821.23 747.447 1821.11 747.81C1821 748.174 1821 748.565 1821.12 748.926C1821.25 749.286 1821.48 749.598 1821.8 749.813C1822.11 750.028 1822.49 750.136 1822.87 750.12C1857.64 745.4 1887.39 740.35 1920 747.12V738.77C1887.22 731.32 1850.53 730.54 1821.77 746.91Z" fill="#9541BA"/>
<path d="M1920 430.79V516C1928.54 488.67 1927.14 459.82 1920 430.79Z" fill="#9541BA"/>
<path d="M1920 317.7C1900.17 237.04 1842.62 155.24 1812.7 93.5801C1809.7 87.3101 1807.07 80.9101 1804.7 74.4301C1802 50.6301 1798 27.0001 1791.39 3.80007C1790.51 0.700069 1786.08 1.97007 1786.08 4.90007C1786.22 21.9479 1788.5 38.9106 1792.87 55.3901C1792.45 55.327 1792.02 55.3587 1791.61 55.4828C1791.2 55.607 1790.83 55.8205 1790.51 56.1078C1790.2 56.3951 1789.95 56.749 1789.79 57.1438C1789.63 57.5386 1789.56 57.9643 1789.58 58.3901C1790.58 91.7001 1796.38 124.27 1805.11 156.14C1806.23 176.55 1807.33 196.96 1809.22 217.28C1812.77 255.43 1821.9 292.58 1834.38 328.72C1849 371 1888.12 404.75 1898.81 448C1898.63 448.561 1898.6 449.16 1898.72 449.736C1898.85 450.312 1899.12 450.845 1899.52 451.28C1900.43 455.536 1901.04 459.85 1901.36 464.19C1893.79 478.73 1886.09 493.19 1878.28 507.57C1858.38 544.177 1837.74 580.567 1816.35 616.74C1815.35 617.61 1814.4 618.51 1813.43 619.35C1812.87 619.776 1812.48 620.383 1812.33 621.066C1812.17 621.75 1812.26 622.466 1812.58 623.09C1810.58 626.46 1808.58 629.83 1806.58 633.22C1825.9 562.31 1819.73 485.22 1791.94 417.22C1771.3 366.7 1729.63 282.22 1664.44 285.79C1663.72 285.846 1663.02 286.065 1662.4 286.432C1661.78 286.799 1661.25 287.304 1660.85 287.907C1660.46 288.51 1660.2 289.197 1660.11 289.913C1660.02 290.629 1660.1 291.357 1660.33 292.04C1664.73 303.556 1666.66 315.87 1665.98 328.18C1665.74 328.377 1665.54 328.621 1665.4 328.899C1665.25 329.176 1665.17 329.48 1665.15 329.791C1665.13 330.102 1665.18 330.414 1665.29 330.707C1665.4 330.999 1665.56 331.266 1665.78 331.49C1663.68 357.23 1652.21 380.92 1648.78 409.07C1645.93 432.58 1657.15 462.87 1668.57 482.39C1684.87 510.28 1702.57 532.09 1727.23 552.49C1747.23 568.95 1767.89 584.67 1780.23 604.71C1737.43 559.76 1627.67 554.32 1592.98 508.41C1592.39 507.598 1591.51 507.046 1590.53 506.873C1589.54 506.7 1588.53 506.92 1587.7 507.484C1586.87 508.049 1586.3 508.915 1586.1 509.897C1585.9 510.879 1586.1 511.899 1586.64 512.74C1587.64 514.42 1588.86 515.89 1589.95 517.51C1590.18 518.013 1590.49 518.474 1590.87 518.87C1615.87 555.53 1654.56 578.2 1690.73 602.94C1721.58 624.07 1745.64 640.76 1778.91 650.32C1778 660.502 1776.57 670.631 1774.64 680.67C1774.49 681.196 1774.56 681.759 1774.82 682.237C1775.09 682.716 1775.53 683.072 1776.05 683.23C1775.96 683.37 1775.9 683.49 1775.8 683.62C1770.39 687.276 1765.42 691.548 1761 696.35C1758.49 699.07 1760.74 702.35 1763.56 702.82C1727.82 759 1690 814 1650 867.27C1675.56 797.35 1678.67 719.44 1674.2 645.96C1673.96 641.96 1667.67 640.29 1666.15 644.37C1651.45 683.76 1639.74 722.75 1634.56 764.64C1630.31 799.13 1631.89 832.86 1626.69 866.24C1618.43 804.17 1558.99 724.24 1562.22 677.3C1562.45 673.95 1557.59 671.45 1556.09 675.21C1543.09 708.48 1539.16 742.65 1547.09 777.99C1556.78 821.42 1598.55 879.18 1592.09 926.76C1590.27 928.39 1588.46 930.02 1586.44 931.59C1583.44 933.95 1585.65 939.68 1589.44 938.22C1587.86 943.149 1585.65 947.855 1582.87 952.22C1562.14 977.12 1540.8 1001.45 1518.87 1025.22C1499.78 1044.36 1480.4 1063.29 1460.71 1082.02H1481.21C1491.79 1072.32 1502.24 1062.46 1512.57 1052.43C1512.98 1052.35 1513.36 1052.17 1513.68 1051.9C1518.84 1046.41 1524.6 1041.51 1530.83 1037.28C1541.45 1032.17 1552.01 1026.9 1562.59 1021.65C1577.3 1016.83 1593.08 1014.23 1609.33 1012.99C1609.74 1013.19 1610.2 1013.28 1610.65 1013.27C1611.11 1013.25 1611.56 1013.13 1611.96 1012.91C1612.11 1012.86 1612.26 1012.79 1612.4 1012.72C1651.31 1010.16 1692.46 1014.89 1727 1014.79C1780.47 1014.63 1842.89 1003.79 1890.66 979.04C1900.84 973.923 1910.64 968.099 1920 961.61V950C1870 994.82 1772.79 1004.49 1716.2 1004.75C1691.85 1004.86 1662.84 1002.4 1633.82 1002.55C1636.68 1001.21 1639.54 999.83 1642.37 998.55C1687.55 987.89 1734.21 984.01 1778.17 969.33C1781.17 968.33 1780.23 963.47 1777.01 963.77C1747.12 966.46 1716.39 972.16 1686.16 979.77C1762.05 949.28 1839.11 928.51 1920 910.59V900.19C1900.19 902.63 1879.79 907.05 1877.41 907.52C1790.52 924.24 1698.52 953.32 1621.48 998.81C1616.8 1000.41 1612.16 1002.01 1607.55 1003.67C1603.77 1003.93 1600.04 1004.35 1596.32 1004.8C1664.18 970.16 1731.26 933.3 1797.44 896.18C1834.73 875.24 1892 844 1920 801.88V781.19C1913.62 793.33 1903.2 804.04 1894.35 813.37C1852.47 857.58 1793.35 887.16 1739.83 914.69C1681.41 944.76 1624.72 978.04 1567.52 1010.39C1560.16 1012.47 1553.01 1015.22 1546.15 1018.6C1548.26 1016.42 1550.28 1014.2 1552.36 1012.03C1632.21 964.17 1716.67 916.74 1790.58 860.1C1791.04 859.784 1791.36 859.298 1791.47 858.747C1791.57 858.197 1791.45 857.628 1791.14 857.165C1790.82 856.702 1790.33 856.384 1789.78 856.28C1789.23 856.176 1788.66 856.294 1788.2 856.61C1713.29 901.03 1635.52 946.86 1565.03 998.61C1568.25 995.21 1571.47 991.82 1574.64 988.37C1638.18 932.15 1699.24 882.52 1774.64 840.16C1811.64 819.35 1849.46 799.82 1886.89 779.75C1887.51 779.42 1909.48 766.07 1919.99 763.39V750.16C1833.49 797.8 1728.8 841.49 1646.24 905.16C1701.27 836.846 1751.41 764.737 1796.3 689.37C1797.71 687.02 1793.92 685.24 1792.51 687.5C1745.63 763.27 1693.22 832.76 1636.76 898.4C1638.64 894.56 1640.43 890.687 1642.12 886.78C1689.87 824.57 1734.46 759.78 1776.38 693.53C1779.84 690.83 1783.52 688.431 1787.38 686.36C1787.99 686.638 1788.67 686.697 1789.32 686.525C1789.96 686.354 1790.53 685.963 1790.92 685.42C1791.3 684.91 1791.73 684.49 1792.14 684C1818.14 672.53 1846.04 677.55 1875.81 669.71C1890.78 665.672 1905.52 660.873 1920 655.33V648.58C1900.25 655.49 1879.9 660.571 1859.22 663.76C1839.15 666.76 1820.67 667.22 1803.6 671.47C1807.65 667.47 1811.79 663.66 1816.06 660.21C1828.23 654.37 1841.95 650.67 1853.72 646.83C1868.72 641.93 1892.43 637.21 1902.34 623.66C1902.77 622.993 1902.97 622.199 1902.89 621.408C1902.81 620.617 1902.46 619.877 1901.9 619.31C1907.9 617.57 1913.9 615.93 1920 614.31V606.13C1882.12 617.4 1844.84 629.33 1813.59 653.72C1806.48 657.218 1800.11 662.041 1794.81 667.93C1795.49 666.27 1796.14 664.62 1796.81 662.93C1811.96 646.05 1823.9 627.8 1838.68 611.23C1852.62 601.391 1865.79 590.517 1878.1 578.7C1891.4 570.7 1905.67 564.14 1920.03 557.89V547.48L1918.8 548.01C1912.55 550.71 1906.49 553.63 1900.49 556.67C1902.75 554.36 1905 552.03 1907.26 549.74C1911.48 547.67 1915.74 545.66 1920.03 543.67V517C1906.35 529.29 1893.03 542.22 1880.03 555.1C1894.93 535.433 1908.3 514.652 1920.03 492.94V461.16C1901.69 499.79 1881.34 537.76 1857.17 574.82C1848.58 582.364 1840.91 590.885 1834.3 600.21C1833.54 600.95 1832.78 601.68 1832.01 602.4C1853.28 566.353 1873.94 530.13 1894.01 493.73C1896.74 488.73 1899.32 483.73 1902.01 478.68C1903.37 480.26 1906.32 480.26 1906.55 477.68C1906.79 474.74 1906.97 471.93 1907.07 469.21C1911.43 461.05 1915.73 452.863 1919.98 444.65V427.74C1917.18 433.327 1914.36 438.9 1911.52 444.46C1911.52 442.56 1911.52 440.64 1911.52 438.74C1914.88 431.974 1917.7 424.952 1919.96 417.74L1920 317.7ZM1796.9 69.1301C1797.35 70.5601 1797.84 71.9801 1798.33 73.4001C1798.73 75.6301 1799.04 77.5501 1799.21 78.9801C1800.02 85.8301 1800.54 92.7101 1801.15 99.5801C1799.43 89.5801 1798 79.4101 1796.9 69.1301ZM1598.31 903.79C1596.49 893.808 1593.68 884.033 1589.92 874.61C1581.36 852.26 1569 831.98 1561.19 809.2C1545.75 764.15 1557.93 726.03 1555.19 684.2C1559.57 751.06 1641.63 841.54 1608.63 905.47C1613.11 866.39 1593.72 823.04 1571.96 793.3C1570.21 790.92 1566.5 793.43 1568.16 795.89C1590.61 828.89 1600.89 865.89 1598.31 903.79ZM1599.09 941.01C1608.09 930.01 1616.99 919.08 1625.76 907.92C1626.09 908.542 1626.59 909.058 1627.2 909.41C1617.94 920.023 1608.57 930.553 1599.09 941V941.01ZM1630.45 892.7C1628.71 894.92 1626.97 897.18 1625.22 899.4C1627.22 894.29 1628.96 889.08 1630.55 883.85C1646.99 839.5 1648.14 790.09 1656.64 743.99C1657.22 740.74 1652.27 739.75 1651.64 742.99C1649.25 754.86 1647.08 766.7 1644.93 778.54C1646.93 750.68 1649.5 722.92 1656.93 696.47C1668.61 654.72 1666.36 654.93 1667.26 678.73C1668.26 706.1 1666.73 733.47 1664.26 760.73C1660.09 806.78 1647.29 850 1630.45 892.7ZM1887.8 623.65C1873.97 629.79 1860.23 635.51 1845.95 640.81C1859.4 633.932 1873.4 628.192 1887.8 623.65ZM1753.47 561.81C1718.06 531.3 1689.47 505.35 1668.93 461.48C1647.77 416.22 1667.4 381.22 1675.18 340.15C1738.38 398.29 1773.94 496.88 1779.79 587.8C1772.3 578.77 1763.24 570.23 1753.47 561.81ZM1779.54 642.32C1730.07 627.73 1689.8 594.12 1647.41 564.22C1637.81 557.297 1628.57 549.881 1619.74 542C1618.65 541 1617.74 539.91 1616.66 538.91C1619.48 540.49 1622.29 541.99 1625.07 543.46C1669.34 566.73 1748.07 576.62 1777.9 619.08C1775.22 618.23 1772.53 617.36 1769.9 616.52C1748.9 609.52 1728.02 604.71 1710.19 590.77C1707.59 588.77 1704.28 592.51 1706.83 594.63C1720.13 605.63 1735.31 612.36 1751.46 618.21C1761.01 621.68 1770.59 626.08 1780.18 630.21C1780.06 634.27 1779.84 638.32 1779.54 642.32ZM1788.98 676.32C1788.13 676.7 1787.3 677.09 1786.46 677.49C1787.1 676.49 1787.71 675.49 1788.35 674.42C1788.32 674.754 1788.37 675.09 1788.5 675.4C1788.62 675.71 1788.82 675.985 1789.08 676.2C1789.08 676.2 1789 676.24 1789 676.29L1788.98 676.32ZM1789.67 659.84C1789.67 660.28 1789.61 660.73 1789.6 661.19C1786.93 665.53 1784.24 669.863 1781.53 674.19C1783.65 666.89 1785.53 659.63 1786.86 652.45C1787.73 652.65 1788.66 652.82 1789.53 653.02C1789.66 655.11 1789.7 657.23 1789.67 659.46C1789.67 659.53 1789.67 659.61 1789.67 659.72C1789.67 659.83 1789.67 659.77 1789.67 659.81V659.84ZM1788.16 644.63C1788.23 644.23 1788.28 643.86 1788.35 643.46C1788.44 643.89 1788.48 644.32 1788.54 644.73L1788.16 644.63ZM1799 628.32C1797.87 619.896 1795.19 611.756 1791.07 604.32C1790.56 556.93 1776.76 511.08 1758.3 463.68C1741.3 419.92 1719.09 358.44 1676.53 332.1C1676.97 329.1 1677.34 326 1677.53 322.9C1678.06 316.983 1677.31 311.022 1675.33 305.42C1666.22 281.28 1717.85 317.95 1723.66 323.6C1750.28 349.66 1768.41 386.78 1783.33 420.24C1812.38 485.41 1817.98 560.69 1800.85 629.95C1800.23 629.43 1799.68 628.78 1799 628.32ZM1902.84 436.32C1900.45 429.206 1897.34 422.351 1893.57 415.86C1869.51 373.43 1842.82 338.86 1829.12 290.69C1818.83 254.52 1814.85 217.41 1812.26 180.1C1819.07 201.36 1827 222.33 1835.55 242.98C1860.55 303.29 1900.27 361.53 1905.55 427.46C1904.75 430.44 1903.82 433.39 1902.84 436.32ZM1909.3 411.5C1903.43 372.56 1887.04 335.69 1870.08 299.5C1845.34 246.59 1823.7 194.91 1809.81 140.11C1808.94 125.11 1808 110.17 1806.74 95.2601C1820.25 126.92 1838.54 157.04 1855.74 186.95C1893.21 252.09 1923.71 335.08 1909.3 411.5Z" fill="#9541BA"/>
<path d="M652.86 312.61C642.02 294.71 621.16 278 600.3 271.51C595.68 263.51 589.56 255.97 582.1 257.36C579.42 257.86 578.66 262.04 581.81 262.5C585.37 262.99 588.64 265.83 591.61 269.64C591.327 269.72 591.072 269.876 590.87 270.09C590.669 270.304 590.529 270.568 590.465 270.855C590.402 271.142 590.417 271.441 590.509 271.72C590.602 271.999 590.768 272.248 590.99 272.44C592.5 273.58 594.07 274.6 595.65 275.6C596.99 277.88 598.23 280.23 599.4 282.6C597.7 281.03 596.02 279.45 594.4 277.88C592.78 276.31 590.4 278.97 592.02 280.71C595.68 284.45 599.53 288.19 603.55 291.8C604.89 295.04 606.07 297.9 606.94 299.8C607.27 300.51 607.52 301.24 607.85 301.93C598.69 290.19 588.52 279.16 578.46 268.1C578.205 267.829 577.894 267.617 577.549 267.478C577.203 267.34 576.832 267.279 576.46 267.3C576.329 265.76 576.119 264.228 575.83 262.71C575.16 259.76 570.83 261.32 571.44 264.2C576.09 286.36 562.51 314.27 574.75 335.13C577.21 339.33 591.92 357.13 598.39 348.05C604.26 339.8 598.04 325.26 595.39 316.86C591.88 305.52 585.79 293.74 582.15 281.93C597.88 299.19 613.27 316.93 622.8 338.46C624.5 342.32 630.63 340.33 629.01 336.38C624.07 324.49 619.44 312.47 614.35 300.64C624.97 308.64 636.69 315.02 649.52 317.51C650.135 317.611 650.766 317.534 651.338 317.289C651.911 317.044 652.402 316.64 652.753 316.125C653.104 315.61 653.3 315.006 653.319 314.383C653.338 313.76 653.179 313.145 652.86 312.61ZM591.65 327.88C591.85 328.59 596.51 345.11 590.89 342.57C579.06 337.23 576.99 323.7 576.56 312.29C576.25 304.41 576.95 296.55 577.36 288.71C581.76 301.89 588.11 314.93 591.65 327.88ZM610.38 292C609.38 289.86 608.48 287.73 607.38 285.66C606.78 284.46 606.03 282.85 605.23 281.13C609.23 283.23 613.23 285.27 617.12 287.52C626.867 293.144 635.453 300.573 642.42 309.41C630.82 306.12 620.12 299.63 610.38 292Z" fill="#9541BA"/>
<path d="M499.8 310.06C522.9 328.51 562.58 299.5 570.9 276.92C572 273.98 567.6 271.79 566.46 274.77C559.63 292.58 526.77 318.92 506.64 307.42C521.37 294.23 542.01 290.57 559.32 281.6C562.93 279.7 559.32 274.44 555.71 276.28C539.13 284.79 515.8 289.2 500.71 275.9C516.78 260.41 540.06 269.48 560.07 267.97C560.463 267.93 560.832 267.765 561.122 267.497C561.412 267.23 561.607 266.875 561.679 266.487C561.75 266.099 561.693 265.698 561.516 265.345C561.34 264.992 561.053 264.706 560.7 264.53C540.7 254.98 508.08 256.2 493.23 273.88C492.676 274.575 492.407 275.454 492.477 276.34C492.548 277.226 492.953 278.051 493.61 278.65C501.27 286.96 511.24 290.33 521.69 290.78C513.61 294.52 505.91 299.01 499.46 305.78C498.943 306.395 498.69 307.189 498.753 307.989C498.817 308.79 499.193 309.534 499.8 310.06Z" fill="#9541BA"/>
<path d="M540.91 230.41C541.133 230.134 541.29 229.811 541.372 229.466C541.453 229.121 541.456 228.762 541.38 228.416C541.304 228.069 541.152 227.744 540.934 227.465C540.716 227.185 540.438 226.958 540.12 226.8C533.48 223.49 522.12 226.93 515.12 228.42C505.5 230.42 498.21 234.25 492.88 242.66C491.93 244.16 492.68 246.34 493.88 247.4C509.71 261.4 532.88 250.59 545.77 237.84C547.11 236.49 545.39 233.96 543.65 234.7C531.41 239.89 515.34 251.37 502.35 243.55C507.58 238.23 514.59 236.71 522.35 235.61C528.58 234.77 536.65 235.58 540.91 230.41Z" fill="#9541BA"/>
<path d="M695.83 308.83C700.28 288.31 678.47 263.83 657.43 266.31C656.465 266.411 655.574 266.875 654.939 267.609C654.304 268.342 653.972 269.29 654.01 270.26C654.015 270.794 654.182 271.314 654.49 271.75C654.316 271.853 654.166 271.99 654.048 272.154C653.93 272.318 653.847 272.504 653.805 272.701C653.762 272.899 653.762 273.103 653.802 273.3C653.843 273.498 653.924 273.685 654.04 273.85C659.73 282.48 665.88 291.35 673.3 298.71C667.09 295.32 659.24 292.31 652.99 294.92C652.681 295.036 652.412 295.239 652.216 295.506C652.02 295.772 651.906 296.089 651.888 296.419C651.87 296.749 651.949 297.077 652.114 297.363C652.28 297.65 652.525 297.881 652.82 298.03C658.02 300.97 664.41 301.13 669.92 303.66C675.804 306.384 680.779 310.744 684.25 316.22C670.25 311.96 657.86 303.49 646.97 293.72C645.32 292.27 643.22 294.79 644.79 296.29C657.46 308.48 672.27 319.39 689.46 323.78C689.957 323.873 690.47 323.834 690.948 323.668C691.426 323.501 691.852 323.212 692.183 322.83C692.515 322.448 692.741 321.986 692.839 321.489C692.936 320.993 692.902 320.479 692.74 320C691.09 315.877 688.794 312.042 685.94 308.64C687.536 309.621 689.189 310.506 690.89 311.29C691.37 311.52 691.896 311.637 692.428 311.632C692.96 311.628 693.484 311.503 693.961 311.266C694.437 311.028 694.853 310.686 695.177 310.264C695.501 309.842 695.724 309.351 695.83 308.83ZM657.76 273.69C657.82 273.69 657.89 273.69 657.96 273.69C673.04 272.69 688.66 287.51 689.13 302.79C676.17 296.39 666.24 285.34 657.76 273.69Z" fill="#9541BA"/>
<path d="M726.69 263.37C725.34 258.98 723.99 254.66 722.49 250.57C721.49 247.78 717.21 249.21 718.18 252.03C725.92 274.6 729.02 302.03 748.45 318.14C748.949 318.549 749.555 318.805 750.197 318.877C750.838 318.948 751.486 318.831 752.062 318.541C752.639 318.251 753.118 317.799 753.443 317.242C753.767 316.684 753.923 316.044 753.89 315.4C753.8 295.87 742.35 279.29 730.89 264.25C730.428 263.603 729.74 263.154 728.962 262.991C728.184 262.828 727.373 262.963 726.69 263.37ZM746.05 306.44C738.83 297.85 734.35 287.1 730.71 276.06C737.13 285.75 743.46 295.24 746.05 306.44Z" fill="#9541BA"/>
<path d="M782.19 213C781.33 212.14 780.41 211.26 779.53 210.42C777.36 208.29 774.53 211.8 776.53 213.95C792.02 230.42 810.08 249.95 834.71 247.08C836.63 246.86 838.71 245.08 838.34 242.95C834.13 220.89 803.4 202.12 782.19 213ZM787.9 218.39C804.27 218.39 823.61 222.39 829.48 239.39C813.62 239.34 799.73 229.28 787.9 218.43V218.39Z" fill="#9541BA"/>
<path d="M770.94 236.64C770.54 233.43 766.01 233.01 765.31 236.25C761.7 253.05 779.9 268.25 794.9 270.31C795.341 270.384 795.792 270.358 796.222 270.234C796.651 270.111 797.047 269.893 797.382 269.597C797.716 269.301 797.98 268.934 798.155 268.523C798.329 268.111 798.41 267.666 798.39 267.22C797.01 251.39 782.24 240.7 773.33 228.83C773.1 228.539 772.769 228.346 772.403 228.289C772.036 228.233 771.662 228.316 771.355 228.524C771.047 228.731 770.83 229.047 770.746 229.408C770.661 229.769 770.717 230.148 770.9 230.47C777.79 240.84 789.04 250.9 791.82 263.47C779.77 259.74 772.56 249.27 770.94 236.64Z" fill="#9541BA"/>
<path d="M776.19 3.43992C776.482 3.2247 776.739 2.96485 776.95 2.66992H748.39C756.4 8.70992 767.62 9.80992 776.19 3.43992Z" fill="#9541BA"/>
<path d="M541 46.7701C538.17 85.2801 540.12 173.84 582.31 195.58C558.93 184.73 534.04 177.18 508.65 185.7C508.208 185.858 507.808 186.115 507.48 186.45C507.153 186.786 506.906 187.193 506.76 187.638C506.613 188.084 506.57 188.557 506.634 189.022C506.699 189.487 506.868 189.931 507.13 190.32C523.13 214.32 560.58 213.12 587.13 205.12C586.409 205.766 585.629 206.342 584.8 206.84C577.947 211.18 571.337 215.82 564.97 220.76C557.1 226.9 550.45 234.12 548.44 244.05C546.05 255.73 558.07 262.28 566.91 257.62C577.6 251.97 585.69 235.3 590.57 221.49C599.57 247.49 611.82 274.21 634.36 290.63C636.36 292.09 639.95 291.54 640.22 288.63C642.12 268.27 633.74 249.32 621.69 232.94C634.69 239.31 648.94 243.3 663.06 246.42C666.49 247.18 668.13 243.42 666.73 240.8C663.74 235.055 659.885 229.804 655.3 225.23C668.71 223.71 679.62 216.49 688.91 207.23C684.56 229.38 685.17 252.9 704.58 267.91C706.93 269.73 709.58 268.91 711.08 266.54C711.17 266.4 711.2 266.26 711.3 266.11C711.3 266.22 711.3 266.33 711.3 266.43C715.09 273.43 717.14 285.3 709.93 291C703.37 296.18 706.38 287.14 707.64 284C707.876 283.507 707.98 282.961 707.942 282.416C707.903 281.871 707.723 281.345 707.42 280.89C707.21 280.532 706.92 280.228 706.573 280.001C706.227 279.773 705.832 279.63 705.42 279.58C704.748 279.474 704.06 279.582 703.452 279.886C702.844 280.191 702.347 280.679 702.03 281.28C699.57 285.33 697.73 291.43 700.6 295.78C703.06 299.42 708.03 299.09 711.43 297.31C713.529 296.128 715.344 294.501 716.748 292.544C718.152 290.587 719.112 288.347 719.56 285.98C721.2 278.21 717.45 271.38 713.42 264.98C713.29 264.738 713.071 264.557 712.81 264.475C712.548 264.393 712.265 264.416 712.02 264.54C720.25 249.82 716.46 232.22 713.96 215.49C725.96 232.21 738.84 248.49 758.02 257.23C758.692 257.543 759.441 257.652 760.175 257.545C760.909 257.438 761.596 257.119 762.151 256.628C762.706 256.136 763.106 255.493 763.301 254.778C763.496 254.062 763.479 253.306 763.25 252.6C758.839 239.556 752.687 227.167 744.96 215.77C753.179 219.359 761.865 221.763 770.76 222.91C773.97 223.29 775.93 220.73 775.29 217.7C770.94 197.48 751.42 181.13 730.49 175.14C731.64 171.57 730.84 167.01 726.79 161.75C725.717 160.421 724.449 159.261 723.03 158.31C727.471 155.811 731.462 152.586 734.84 148.77C732.71 174.17 769.84 195.95 790.56 202.27C793.03 203.04 795.16 200.12 794.37 197.9C790.958 188.594 786.655 179.639 781.52 171.16C797.43 183.89 815.52 192.97 832.11 191.09C834.48 190.84 836.77 188.29 835.64 185.78C826.9 166.4 812.06 151.56 794.35 141.2C801.981 141.055 809.541 139.705 816.75 137.2C817.752 136.855 818.576 136.126 819.041 135.173C819.506 134.221 819.574 133.123 819.23 132.12C817.429 127.053 814.506 122.459 810.68 118.68C819.03 123.39 827.88 126.9 837.51 126.61C837.972 126.582 838.424 126.463 838.84 126.258C839.255 126.054 839.626 125.769 839.931 125.42C840.235 125.071 840.467 124.665 840.613 124.226C840.758 123.786 840.815 123.322 840.78 122.86C840.67 122.06 840.43 121.36 840.28 120.56C843.615 120.529 846.925 121.14 850.03 122.36C853.72 124.01 856.29 128.2 853.72 132.03C852.5 133.84 849.72 134.51 847.81 135.14C838.81 138.05 828.81 137.5 819.48 137.74C817.15 137.81 817.48 141.22 819.71 141.29L827.65 141.53C825.78 142.206 824.1 143.32 822.75 144.78C822.519 144.655 822.265 144.577 822.004 144.551C821.743 144.524 821.479 144.549 821.227 144.624C820.976 144.699 820.741 144.823 820.537 144.989C820.334 145.155 820.165 145.359 820.04 145.59C819.915 145.821 819.837 146.075 819.81 146.336C819.784 146.597 819.808 146.861 819.884 147.113C819.959 147.365 820.083 147.599 820.249 147.803C820.414 148.006 820.619 148.175 820.85 148.3C821.018 148.454 821.195 148.597 821.38 148.73C821.44 149.012 821.561 149.278 821.733 149.51C821.906 149.741 822.126 149.932 822.38 150.07C822.683 150.199 822.998 150.299 823.32 150.37C834.47 159.62 848.8 167.2 863.43 165.17C864.005 165.118 864.56 164.939 865.057 164.645C865.553 164.351 865.977 163.949 866.298 163.47C866.62 162.99 866.83 162.445 866.913 161.874C866.996 161.304 866.951 160.721 866.78 160.17C864.1 150.34 857.96 143.29 848.29 140.56C852.69 139.71 857.16 138.02 858.85 134.31C861.71 128.14 859.96 121.45 853.85 117.96C849.85 115.64 843.53 113.63 838.41 114.63C836.424 109.888 833.076 105.84 828.79 103C823 99.1801 812.69 96.0901 806.98 101.2C806.723 101.376 806.516 101.617 806.382 101.898C806.247 102.179 806.188 102.491 806.211 102.801C806.234 103.112 806.339 103.411 806.514 103.669C806.69 103.927 806.929 104.134 807.21 104.27C811.59 106.34 816.51 105.76 821.14 107.27C823.888 108.217 826.37 109.807 828.381 111.906C830.392 114.005 831.872 116.554 832.7 119.34C819.04 118.34 806.65 110.25 795.18 103.25C793.01 101.91 790.68 105.51 792.76 106.95C794.65 108.24 796.54 109.58 798.48 110.88C786.48 106.33 771.92 107.77 760.15 114.61C763.71 110.8 765.4 105.09 765.15 99.1501C764.98 95.1501 763.24 90.1501 759.47 88.1501C756.12 86.3201 751.47 86.8201 750.29 90.8301C747.91 77.3601 741.8 63.5601 736.03 53.8301C759.55 78.6901 796.52 111.31 812.85 92.1201C819.77 83.9801 815.58 74.7001 806.41 65.9601L807.85 66.8701C808.203 67.5271 808.772 68.0427 809.46 68.3301C810 68.5301 810.62 68.7701 811.29 68.9901C830.58 81.5301 852.13 98.6501 875.39 94.5401C877.26 94.2101 879.39 92.6801 878.95 90.4501C876.15 74.7901 864.77 67.6901 851.11 64.3601C851.288 63.464 851.385 62.5537 851.4 61.6401C851.4 52.9301 846.4 47.3501 839.4 43.8201C842.118 42.0842 844.491 39.8601 846.4 37.2601C846.748 36.7767 846.92 36.1891 846.89 35.5943C846.859 34.9995 846.626 34.4329 846.23 33.988C845.834 33.5431 845.299 33.2464 844.711 33.1468C844.124 33.0472 843.52 33.1507 843 33.4401C838.552 36.3517 833.714 38.6176 828.63 40.1701C820.702 38.5414 812.577 38.1033 804.52 38.8701C802.52 39.0601 801.38 41.0701 801.43 42.8701C799.25 41.7101 796.92 40.7501 794.6 39.7501C807.92 38.0601 818.3 33.9701 819.51 25.5401C819.779 23.8379 819.748 22.1019 819.42 20.4101C821.642 19.9139 823.905 19.6194 826.18 19.5301C832.09 19.2801 837.35 20.8401 843 22.2701C844.4 22.6301 845.54 20.5001 844.26 19.6401C839.214 16.4178 833.419 14.5605 827.44 14.2501C823.839 13.946 820.213 14.1513 816.67 14.8601C811.42 8.46014 800.23 6.54014 792.33 7.31014C775 9.00014 754.85 16.7301 739.37 26.6401C740.55 18.6091 739.865 10.4143 737.37 2.69014H732.57C733.973 8.68681 734.348 14.8779 733.68 21.0001C728.772 17.3983 725.478 12.0103 724.51 6.00014C724.475 5.88217 724.448 5.76187 724.43 5.64014C724.261 4.64961 724.197 3.64404 724.24 2.64014H716.31C718.85 9.87014 719.11 18.3601 720.73 25.4601C721.87 30.5901 727.5 33.7201 730.51 28.3901C730.662 28.1183 730.755 27.8174 730.782 27.5072C730.81 27.197 730.772 26.8845 730.67 26.5901C732.031 27.556 733.481 28.3898 735 29.0801C735.225 29.1454 735.456 29.189 735.69 29.2101C735.5 29.3501 735.29 29.4901 735.07 29.6301C734.07 29.6801 733.07 29.6301 732.07 29.7101C727.92 30.0001 727.42 36.3901 731.63 37.0701C732.69 37.2301 734.12 37.4701 735.72 37.6801C735.754 38.7595 736.153 39.7955 736.85 40.6201C748.58 53.1901 769.85 62.5501 790 65.0501C792.93 67.3001 795.84 69.6201 798.61 72.0501C804.54 77.3301 812.43 90.4801 797.52 88.3601C781.62 86.1301 765.76 70.0001 754.08 60.0001C743.437 50.9173 733.28 41.2807 723.65 31.1301C720.798 27.435 717.449 24.1508 713.7 21.3701C711.23 17.9701 708.94 14.4801 706.86 11.0901C705.176 8.44992 703.743 5.65772 702.58 2.75014H694.84C696.008 6.41208 697.585 9.9309 699.54 13.2401C691.323 9.74988 682.763 7.13219 674 5.43014C673.453 5.32918 672.89 5.37228 672.365 5.55521C671.84 5.73814 671.372 6.05458 671.007 6.47338C670.642 6.89218 670.392 7.3989 670.282 7.94366C670.172 8.48841 670.206 9.05241 670.38 9.58014C675.9 27.4101 701.5 44.1501 720.16 38.7401C720.59 39.1001 721.03 39.4701 721.38 39.7401C722.098 40.2802 722.983 40.5494 723.88 40.5001C726.09 43.0501 728.76 46.0301 731.63 49.1301C730.969 49.1176 730.323 49.3235 729.791 49.7159C729.26 50.1083 728.873 50.6652 728.69 51.3001C724.69 65.3001 725.4 79.1301 727.79 92.9701C722.446 84.061 716.068 75.8139 708.79 68.4001C708.494 68.167 708.154 67.9968 707.79 67.9001C708.16 67.5301 708.61 67.2501 708.97 66.8401C710.46 65.1801 707.97 63.2501 706.41 64.6501C696.71 73.3701 680.56 72.9401 669.56 66.2501C682.5 56.9901 698.36 61.6401 713.43 60.8601C713.989 60.809 714.518 60.5814 714.94 60.2101C717.59 60.9801 720.23 61.7701 722.94 62.4301C726.64 63.4301 727.6 57.7101 724.02 56.6801C700.38 49.6801 676.13 39.1201 651.22 38.6801C629.68 38.3001 609.22 43.1501 588.44 47.0401C581.88 44.9201 575.28 42.8701 568.7 40.8601C594.38 28.8001 620.36 17.6201 644.64 2.77014H632.72C610.51 16.8901 586.07 27.4001 562.4 39.0801C507.2 22.7601 450.25 11.0001 392.37 2.91014L291.65 3.00014C376.33 10.9301 458.35 28.0001 541 46.7701ZM535.22 201.62C515.11 198.08 521.78 187.16 539.67 189.02C553.14 190.4 566.13 196.02 578.38 201.44C578.38 201.44 578.38 201.44 578.44 201.44C564.166 204.181 549.506 204.242 535.21 201.62H535.22ZM567.87 246.62C560.717 256.48 558.383 252.417 560.87 234.43C564.847 230.131 569.246 226.241 574 222.82C577.46 220.14 581.12 217.67 584.8 215.3C580.7 226.493 574.994 237.03 567.86 246.58L567.87 246.62ZM857.68 158C848.08 158.16 838.6 154.52 830.28 149.49C833.873 148.285 837.615 147.582 841.4 147.4C849.16 147.21 854.54 151.69 857.68 158ZM847 71.1401C857.55 73.3101 866.66 77.7901 870.18 87.1401C856.34 87.8601 842.44 81.2001 829.32 73.5501C836.1 74.4801 842.83 74.1901 847 71.1401ZM830.1 47.7701C834.622 49.2387 838.655 51.9193 841.76 55.5201C844.15 58.3301 844.26 60.9001 843.03 62.8601C835.346 61.8966 827.614 61.3625 819.87 61.2601C820.276 60.3838 820.408 59.4054 820.25 58.4527C820.091 57.5 819.648 56.6174 818.98 55.9201C815.674 52.536 811.99 49.543 808 47.0001C815.3 48.8501 823 49.4001 830.1 47.7701ZM774.1 19.7701C782.91 16.6701 792.4 14.1901 801.84 15.1901C813.38 16.4101 811.34 25.1901 802.99 27.8601C793.6 30.8601 782.48 32.1901 771.17 32.5001C764.362 31.1089 757.465 30.1934 750.53 29.7601C758.205 26.0037 766.084 22.6786 774.13 19.8001L774.1 19.7701ZM758.3 46.2601C760.96 47.4401 763.59 48.7101 766.14 50.0801C763.44 49.0001 760.88 47.6401 758.33 46.2901L758.3 46.2601ZM795.27 57.1001C785.288 50.4741 774.664 44.8692 763.56 40.3701C765.96 40.5101 768.37 40.6201 770.83 40.6701C784.22 43.7401 797.1 48.9001 806.93 56.7501C803.064 57.2517 799.159 57.3689 795.27 57.1001ZM678.84 13.1001C689.06 15.6601 699.48 19.4701 708.04 25.5901C710.71 28.9801 713.36 32.0101 715.72 34.4801C701.72 33.7101 685.73 25.5701 678.84 13.1401V13.1001ZM576.84 182.26C578.05 182.66 579.57 181.4 578.97 180.1C576.09 174.19 572.66 169.58 572.2 163.71C577.577 170.189 580.816 178.175 581.47 186.57C579.866 185.224 578.331 183.799 576.87 182.3L576.84 182.26ZM584.51 196.52C585.772 197.058 587.064 197.522 588.38 197.91C588.426 198.104 588.456 198.301 588.47 198.5C587.19 197.86 585.87 197.22 584.54 196.56L584.51 196.52ZM595.51 196.52C595.33 196.6 595.14 196.61 594.97 196.67C594.97 196.67 594.97 196.61 594.97 196.59C594.97 196.363 594.922 196.138 594.83 195.93C592.64 184.53 602.59 180.14 625.19 182.98C633.517 187.6 636.207 195.08 633.26 205.42C630.74 206.558 628.063 207.313 625.32 207.66C616.445 205.132 607.219 204.054 598 204.47C597.49 203.47 597.13 202.6 596.72 201.71C596.891 201.629 597.068 201.562 597.25 201.51C600.28 200.24 598.67 195.36 595.57 196.59L595.51 196.52ZM629.32 261.52C631.966 267.579 633.223 274.153 633 280.76C612.54 265.86 602.5 235.38 594.88 211.76C595.025 211.85 595.179 211.923 595.34 211.98C595.5 212.04 595.76 212.05 595.94 212.11C595.773 212.716 595.771 213.355 595.935 213.962C596.098 214.569 596.421 215.12 596.87 215.56C605.081 223.563 612.471 232.367 618.93 241.84C623.059 248.065 626.559 254.684 629.38 261.6L629.32 261.52ZM655.79 237.17C637.29 232.69 618.91 226.09 604.7 213.17C608.936 213.484 613.185 213.571 617.43 213.43C632.75 216.6 646.42 224.3 655.85 237.25L655.79 237.17ZM658 217.17C664.94 204.85 677.77 197.3 691 191.94C682 203.1 672 213.9 658 217.17ZM712.59 154.83C709.407 154.667 706.22 155.039 703.16 155.93C699.06 155.521 695.083 154.3 691.46 152.34C696.23 148.92 701.16 145.29 706.3 141.9C713.475 143.123 720.725 143.858 728 144.1C728.522 144.089 729.023 143.89 729.41 143.54C725.046 148.892 719.187 152.823 712.58 154.83H712.59ZM730 142.89C730.231 142.51 730.371 142.081 730.408 141.638C730.446 141.195 730.38 140.749 730.216 140.335C730.053 139.921 729.795 139.551 729.465 139.254C729.134 138.956 728.739 138.739 728.31 138.62C724.31 137.79 720.47 136.72 716.56 135.77C718.865 134.583 721.235 133.528 723.66 132.61C727.983 132.609 732.299 132.275 736.57 131.61C734.94 135.669 732.727 139.469 730 142.89ZM667 100C688.31 102.33 709.89 111.65 727.86 123.75C724.498 124.595 721.216 125.729 718.05 127.14C697.63 125.24 676.91 117.54 667 100ZM785.12 193.34C762.84 184.88 728.21 162.34 742.12 138.06C742.863 136.67 743.531 135.242 744.12 133.78C744.63 134.07 745.12 134.37 745.86 134.72C746.135 134.849 746.439 134.904 746.742 134.882C747.045 134.859 747.337 134.758 747.59 134.59C749.47 137.37 751.65 140.26 753.98 143.21C765.5 159.25 777.1 175.23 785.15 193.33L785.12 193.34ZM825.02 183.1C801.2 181.6 774.33 157.48 758.42 137.1C758.34 136.96 758.21 136.81 758.1 136.65C762.86 137.837 767.677 138.837 772.55 139.65C794.44 147.82 813.55 162.3 825.05 183.09L825.02 183.1ZM809.89 130.78C798.89 133.9 787.26 133.96 775.69 132.29C769.23 129.87 762.589 127.96 755.83 126.58C772.53 114.82 799.11 109.77 809.92 130.77L809.89 130.78ZM750.57 92.7801C750.678 92.9627 750.825 93.1197 751 93.2401C752.55 94.1501 754.84 93.6901 756.16 94.6001C757.87 95.8301 758.03 98.7701 758.16 100.6C758.51 106.6 754.95 114.26 748.96 116.14C748.75 116.2 748.69 116.38 748.53 116.49C751.54 109.56 751.87 101.28 750.6 92.7601L750.57 92.7801ZM749.57 119.4C751.34 119.309 753.083 118.927 754.73 118.27C753.4 119.299 752.134 120.407 750.94 121.59C750.385 122.143 750.068 122.89 750.057 123.673C750.046 124.456 750.341 125.212 750.88 125.78L750.26 125.7C749.742 125.029 748.989 124.579 748.154 124.438C747.318 124.297 746.459 124.476 745.75 124.94C745.738 124.947 745.724 124.951 745.71 124.951C745.696 124.951 745.682 124.947 745.67 124.94C745.67 124.94 745.67 124.87 745.6 124.83C745.292 124.268 744.812 123.819 744.23 123.55C745.698 121.797 746.938 119.865 747.92 117.8C747.922 118.017 747.969 118.232 748.056 118.43C748.144 118.629 748.272 118.807 748.431 118.955C748.59 119.103 748.777 119.217 748.982 119.29C749.186 119.363 749.403 119.394 749.62 119.38L749.57 119.4ZM727.94 106.5C729.61 109.5 731.28 112.5 732.94 115.56C734.84 119.11 739.78 116.06 738.85 112.63C734.24 95.0301 729.77 77.3501 732.72 59.4601C742.64 77.2801 753.91 108.46 738.02 122.02C733.6 118.9 728.977 115.953 724.15 113.18C723.473 110.631 722.604 108.138 721.55 105.72C722.18 106.32 722.78 106.85 723.38 107.46C724.89 109 727 108 727.94 106.5ZM722.29 96.8701C719.708 94.2511 716.959 91.8026 714.06 89.5401C712.815 86.6994 711.812 83.759 711.06 80.7501C715.162 85.8641 718.914 91.2497 722.29 96.8701ZM703.52 71.5101C703.518 75.4276 703.961 79.3326 704.84 83.1501C700.764 80.6137 696.524 78.3488 692.15 76.3701C696.224 75.517 700.088 73.8652 703.52 71.5101ZM642.57 43.7901C658.92 43.1201 674.57 47.3501 690.06 52.3101C679.19 53.3101 668.59 57.0201 661.24 64.1801C660.776 64.6739 660.512 65.3227 660.5 66.0001C648.6 63.2101 636.41 61.1901 624.5 59.3901C615.26 55.9901 605.87 52.9801 596.5 49.8401C611.8 47.2401 627 44.4401 642.57 43.7901ZM570.74 53.5901C588.073 57.5901 605.46 61.5901 622.9 65.5901C623.381 65.7104 623.885 65.6976 624.359 65.5532C624.832 65.4087 625.258 65.138 625.59 64.7701C655.04 70.4501 684.59 77.5801 708.72 94.8801C710.954 99.9827 713.73 104.83 717 109.34C699.71 100.51 680.66 94.4401 661.85 93.6601C661.41 93.6898 660.983 93.8204 660.601 94.042C660.22 94.2635 659.895 94.5699 659.651 94.9375C659.407 95.305 659.251 95.7238 659.196 96.1613C659.14 96.5988 659.186 97.0433 659.33 97.4601C667.86 116.73 688.24 127.96 709.53 131.46C708.53 132.09 707.43 132.69 706.39 133.32C653.15 118.9 607.3 93.4601 567.27 54.0001C568.42 53.8901 569.59 53.7001 570.74 53.5901ZM696.39 139.93C691.65 143.28 687.04 146.66 682.6 149.71C681.906 150.242 681.427 151.005 681.25 151.86C679.13 152.05 676.98 152.17 674.77 152.16C672.051 149.253 669.054 146.621 665.82 144.3C659.421 139.616 652.06 136.415 644.27 134.93C643.728 134.83 643.169 134.872 642.649 135.054C642.129 135.236 641.666 135.551 641.305 135.968C640.944 136.384 640.698 136.888 640.592 137.428C640.486 137.969 640.523 138.528 640.7 139.05C645.27 152.4 656.46 156.29 668.56 156.65C670.453 159.09 672.838 161.103 675.56 162.56C675.933 162.736 676.346 162.812 676.757 162.78C677.168 162.748 677.564 162.61 677.906 162.379C678.248 162.148 678.524 161.832 678.707 161.463C678.89 161.093 678.974 160.682 678.95 160.27C678.732 158.919 678.289 157.615 677.64 156.41C679.41 156.25 681.17 156.04 682.91 155.81C686.22 158.05 689.82 159.83 693.61 161.1C690.61 163.96 689.13 167.53 690.34 171.43C679.98 167.09 669.25 163.17 658.34 161.17C658.556 160.835 658.63 160.429 658.548 160.04C658.466 159.65 658.233 159.309 657.9 159.09C616.37 129.38 589.7 92.7501 560.64 53.1701C593.39 93.0001 644.3 128.23 696.39 139.93ZM663.26 151.14C658.15 149.96 653.57 147.66 650.26 143.57C654.213 145.054 657.96 147.036 661.41 149.47C662.065 149.983 662.683 150.541 663.26 151.14ZM687.34 177.8C669.54 180.37 648.95 176.09 633.34 167.45C651.59 163.82 670.09 170.3 687.34 177.8ZM545.34 47.8001L547.57 48.3001C547.666 48.5936 547.824 48.863 548.033 49.0903C548.241 49.3176 548.497 49.4975 548.781 49.6179C549.065 49.7382 549.372 49.7963 549.681 49.788C549.989 49.7798 550.292 49.7055 550.57 49.5701C550.85 49.4301 551.11 49.3001 551.41 49.1801C551.539 49.1847 551.666 49.2048 551.79 49.2401C576.6 91.0801 606.05 140.24 651.31 160.17C642.25 159.27 633.11 159.86 624.09 163.17C622.02 163.93 620.89 167.17 623.04 168.66C643.67 182.66 670.24 187.59 694.04 180.66C695.78 181.44 697.53 182.22 699.2 182.99C699.734 183.217 700.314 183.314 700.893 183.272C701.472 183.231 702.033 183.052 702.529 182.751C703.025 182.45 703.443 182.036 703.747 181.542C704.052 181.048 704.234 180.489 704.28 179.91C711.28 184.22 719.89 184.22 725.42 181.03C742.61 185.39 759.01 198.17 765.49 213.81C753.418 211.367 741.982 206.455 731.9 199.38C726.758 193.883 721.098 188.893 715 184.48C710.89 181.48 706.76 186.66 710 190.31C715.027 195.902 720.647 200.932 726.76 205.31C737.553 217.046 746.204 230.585 752.32 245.31C735.09 234.17 722.69 216.06 711.74 199.04C709.49 195.54 704.74 197.84 704.68 201.46C704.33 218.81 713.19 241.11 705.88 257.81C688.88 240.41 695.2 213.18 701.44 191.81C701.618 191.206 701.63 190.565 701.476 189.955C701.321 189.344 701.004 188.786 700.56 188.34L701.32 188.05C701.711 187.899 702.037 187.614 702.237 187.246C702.438 186.877 702.502 186.45 702.416 186.039C702.331 185.628 702.103 185.261 701.772 185.003C701.441 184.745 701.029 184.613 700.61 184.63C679.24 186.75 656.75 198.63 648.67 219.43C644.448 216.174 639.86 213.422 635 211.23C647 208.06 653.93 201.23 641.63 187.72C631.44 176.53 618.53 170.35 607.8 169.82C594.52 162.89 579.38 151.95 574.21 140.17C570.21 131.1 582.01 136.58 584.5 138.58C588.195 141.71 591.523 145.249 594.42 149.13C597.85 153.4 600.5 160.2 605.48 162.77C605.723 162.883 605.988 162.939 606.256 162.935C606.524 162.93 606.787 162.866 607.026 162.746C607.266 162.626 607.475 162.453 607.638 162.241C607.802 162.029 607.915 161.782 607.97 161.52C610.42 153.46 596.73 141.63 591.61 136.7C586.03 131.34 576.16 124.5 569.91 132.39C560.63 144.09 582.57 160.65 599.73 170.58C591.86 172.83 586.73 179.52 587.46 191.08C587.33 191 587.18 190.95 587.06 190.86C588.29 177.13 582.23 163.66 571.94 154.4C570.14 152.79 567.64 154.03 567.04 156.12C565.848 160.556 565.882 165.232 567.14 169.65C546.15 135.91 543.83 82.2901 545.35 47.7801L545.34 47.8001Z" fill="#9541BA"/>
<path d="M256.48 75.4401C287.83 90.5501 319.62 104.06 351.71 117.61C370.92 125.67 388.64 136.25 407.26 144.86L405.75 144.43C332.16 122.24 261 104.15 195.28 62.5201C174 49.0001 153 35.2701 131.17 23.8901C116.61 14.1701 101.23 6.20008 84.3298 3.10008H55.8198C58.6398 3.55008 61.4398 4.04008 64.2198 4.60008C121.68 87.2501 199.15 151.36 296.73 179.83C300.93 181.07 302.25 175.59 299.95 173.05C259.09 127.81 217 90.0001 169.82 52.9401C190.24 66.0001 210.32 79.7201 231 91.7501C294.3 128.58 371.58 140.33 440.33 162.75C442.92 163.61 445.28 160.4 444.33 158.07C421.28 96.4701 352.86 62.3601 293.49 44.5001C250.81 31.6701 207.49 22.5001 163.89 13.3901C151.89 10.8601 139.69 6.84008 127.45 3.08008H92.0698C148.08 19.6601 205.86 51.0001 256.48 75.4401ZM173.4 63.9401C213.27 94.9401 247.95 126.68 281.8 164.35C278.17 160.35 243.51 152.02 236.46 148.74C211.21 136.96 188.19 120.6 166.07 103.79C130.7 76.8801 100.88 43.1101 74.9098 7.08008C75.7498 7.31008 76.6398 7.51008 77.4898 7.78008C119 33.4301 147.1 76.7101 191.11 97.6401C191.601 97.8606 192.155 97.8978 192.671 97.7448C193.187 97.5918 193.631 97.2588 193.923 96.8063C194.214 96.3538 194.334 95.8117 194.26 95.2784C194.186 94.7452 193.924 94.2562 193.52 93.9001C165.52 68.9001 136.46 38.6201 103.78 16.8101C111.63 20.0701 119.3 23.7001 126.88 27.6201C143.42 39.0001 158.86 52.6201 173.4 63.9401ZM267.7 45.6801C299.685 54.3411 330.67 66.3474 360.14 81.5001C371.32 87.2901 435.78 139.08 423.63 146.29C356.75 115.53 290.51 83.0001 223.41 52.5201C201 42.3401 176.77 29.7801 151.92 18.8201C155.39 19.7401 158.92 20.6101 162.38 21.3801C197.63 29.1601 232.88 36.0001 267.7 45.6801Z" fill="#9541BA"/>
<path d="M743.38 459.22V328.81H807V459.22H798.31V335.57H752.07V459.22H743.38Z" fill="#9541BA"/>
<path d="M862.35 460.67C857.925 460.788 853.545 459.754 849.64 457.67C846.093 455.67 843.38 452.073 841.5 446.88C839.62 441.687 838.683 434.31 838.69 424.75V400C838.69 390.24 839.657 382.833 841.59 377.78C843.523 372.727 846.287 369.293 849.88 367.48C853.817 365.58 858.149 364.641 862.52 364.74C868.307 364.74 872.867 365.977 876.2 368.45C879.533 370.923 881.893 374.867 883.28 380.28C884.68 385.7 885.38 392.863 885.38 401.77V410.63H847.22V425.44C847.22 432.847 847.73 438.643 848.75 442.83C849.75 447.01 851.41 449.97 853.66 451.68C856.188 453.486 859.247 454.394 862.35 454.26C864.653 454.251 866.939 453.869 869.12 453.13C871.373 452.383 873.25 450.613 874.75 447.82C876.25 445.027 877.003 440.693 877.01 434.82V427.9H885.38V434.01C885.38 441.963 883.743 448.403 880.47 453.33C877.197 458.257 871.157 460.703 862.35 460.67ZM847.22 405.45H877V398.2C877.047 393.382 876.75 388.566 876.11 383.79C875.517 379.79 874.203 376.677 872.17 374.45C870.137 372.223 866.917 371.123 862.51 371.15C859.488 371.043 856.498 371.799 853.89 373.33C851.583 374.783 849.893 377.467 848.82 381.38C847.747 385.293 847.21 390.96 847.21 398.38L847.22 405.45Z" fill="#9541BA"/>
<path d="M913.71 489.81V366.16H922.25V374.05C924.291 371.6 926.676 369.458 929.33 367.69C932.535 365.61 936.301 364.563 940.12 364.69C943.817 364.535 947.479 365.46 950.66 367.35C953.51 369.249 955.747 371.934 957.1 375.08C958.788 378.941 959.874 383.039 960.32 387.23C960.941 392.467 961.238 397.737 961.21 403.01V420.9C961.344 428.251 960.673 435.595 959.21 442.8C957.877 448.7 955.62 453.153 952.44 456.16C949.26 459.167 944.887 460.67 939.32 460.67C935.674 460.769 932.092 459.696 929.1 457.61C926.574 455.863 924.276 453.807 922.26 451.49V489.81H913.71ZM938.35 454.07C942.21 454.07 945.187 452.917 947.28 450.61C949.373 448.303 950.797 444.707 951.55 439.82C952.385 433.656 952.762 427.439 952.68 421.22V403C952.78 396.947 952.446 390.895 951.68 384.89C950.98 380.223 949.61 376.787 947.57 374.58C945.57 372.39 942.47 371.28 938.4 371.28C935.047 371.262 931.775 372.312 929.06 374.28C926.625 375.961 924.361 377.877 922.3 380V445.7C924.286 447.984 926.622 449.938 929.22 451.49C931.96 453.191 935.125 454.085 938.35 454.07Z" fill="#9541BA"/>
<path d="M990.35 459.22V366.16H1010.79C1016.7 366.16 1021.32 367.233 1024.64 369.38C1027.82 371.355 1030.3 374.284 1031.72 377.75C1033.13 381.228 1033.84 384.948 1033.82 388.7C1033.79 392.72 1032.94 396.691 1031.32 400.37C1030.47 402.332 1029.23 404.097 1027.66 405.554C1026.1 407.01 1024.25 408.125 1022.23 408.83C1025.36 409.726 1028.15 411.549 1030.23 414.06C1032.18 416.508 1033.6 419.33 1034.41 422.35C1035.29 425.61 1035.72 428.974 1035.7 432.35C1035.77 437.082 1035.15 441.799 1033.85 446.35C1032.75 450.242 1030.3 453.611 1026.93 455.85C1023.54 458.103 1018.62 459.23 1012.19 459.23L990.35 459.22ZM998.72 406.41H1012.57C1014.4 406.445 1016.22 406.047 1017.86 405.25C1019.51 404.452 1020.95 403.277 1022.06 401.82C1024.53 398.76 1025.76 394.55 1025.77 389.19C1025.77 384.143 1024.51 380.197 1021.98 377.35C1019.45 374.503 1015.56 373.083 1010.31 373.09H998.72V406.41ZM998.72 452.62H1011.44C1015.73 452.62 1019 451.733 1021.26 449.96C1023.58 448.088 1025.25 445.524 1026.01 442.64C1026.97 439.18 1027.43 435.6 1027.38 432.01C1027.38 427.083 1026.74 423.247 1025.45 420.5C1024.38 418.003 1022.51 415.934 1020.13 414.62C1017.68 413.395 1014.98 412.787 1012.24 412.85H998.72V452.62Z" fill="#9541BA"/>
<path d="M1084.53 460.67C1078.41 460.67 1073.66 459.337 1070.28 456.67C1066.9 454.003 1064.54 450.033 1063.2 444.76C1061.74 438.373 1061.07 431.83 1061.2 425.28V400.13C1061.07 393.579 1061.74 387.037 1063.2 380.65C1064.53 375.39 1066.89 371.42 1070.28 368.74C1073.67 366.06 1078.42 364.727 1084.53 364.74C1090.76 364.74 1095.57 366.073 1098.94 368.74C1102.31 371.407 1104.68 375.35 1106.03 380.57C1107.5 386.983 1108.17 393.552 1108.03 400.13V425.25C1108.16 431.8 1107.49 438.343 1106.03 444.73C1104.7 449.99 1102.33 453.96 1098.94 456.64C1095.55 459.32 1090.74 460.663 1084.53 460.67ZM1084.53 454.23C1089.04 454.23 1092.38 453.077 1094.53 450.77C1096.68 448.463 1098.05 445.163 1098.64 440.87C1099.28 435.796 1099.58 430.684 1099.53 425.57V399.81C1099.58 394.672 1099.28 389.537 1098.64 384.44C1098.05 380.2 1096.68 376.923 1094.53 374.61C1092.38 372.297 1089.04 371.143 1084.53 371.15C1080.02 371.15 1076.72 372.303 1074.63 374.61C1072.54 376.92 1071.19 380.2 1070.63 384.44C1069.98 389.537 1069.68 394.672 1069.74 399.81V425.57C1069.69 430.684 1069.99 435.796 1070.63 440.87C1071.21 445.16 1072.56 448.46 1074.63 450.77C1076.7 453.08 1080 454.23 1084.53 454.23Z" fill="#9541BA"/>
<path d="M1158.75 460.67C1154.32 460.788 1149.94 459.754 1146.03 457.67C1142.49 455.67 1139.78 452.073 1137.9 446.88C1136.02 441.687 1135.08 434.31 1135.09 424.75V400C1135.09 390.24 1136.05 382.833 1137.98 377.78C1139.91 372.727 1142.67 369.293 1146.28 367.48C1150.21 365.58 1154.54 364.641 1158.91 364.74C1164.71 364.74 1169.27 365.977 1172.6 368.45C1175.93 370.923 1178.29 374.867 1179.68 380.28C1181.08 385.7 1181.78 392.863 1181.78 401.77V410.63H1143.62V425.44C1143.62 432.847 1144.13 438.643 1145.15 442.83C1146.15 447.01 1147.8 449.97 1150.06 451.68C1152.59 453.486 1155.65 454.394 1158.75 454.26C1161.05 454.252 1163.33 453.87 1165.51 453.13C1167.77 452.383 1169.65 450.613 1171.15 447.82C1172.65 445.027 1173.4 440.693 1173.4 434.82V427.9H1181.78V434.01C1181.78 441.963 1180.14 448.403 1176.87 453.33C1173.6 458.257 1167.56 460.703 1158.75 460.67ZM1143.62 405.45H1173.4V398.2C1173.45 393.382 1173.16 388.566 1172.52 383.79C1171.93 379.79 1170.6 376.677 1168.52 374.45C1166.44 372.223 1163.22 371.123 1158.86 371.15C1155.84 371.044 1152.85 371.8 1150.25 373.33C1147.94 374.783 1146.25 377.467 1145.18 381.38C1144.11 385.293 1143.57 390.96 1143.57 398.38L1143.62 405.45Z" fill="#9541BA"/>
<path d="M622.06 652.42V559.36H669.24V652.42H660.7V566.12H630.6V652.42H622.06Z" fill="#9541BA"/>
<path d="M721.24 653.87C715.12 653.87 710.37 652.536 706.99 649.87C703.61 647.203 701.25 643.233 699.91 637.96C698.445 631.573 697.773 625.031 697.91 618.48V593.33C697.774 586.779 698.446 580.236 699.91 573.85C701.243 568.603 703.603 564.633 706.99 561.94C710.377 559.247 715.127 557.913 721.24 557.94C727.46 557.94 732.263 559.273 735.65 561.94C739.037 564.607 741.397 568.55 742.73 573.77C744.197 580.183 744.869 586.752 744.73 593.33V618.45C744.861 625 744.189 631.542 742.73 637.93C741.397 643.19 739.037 647.16 735.65 649.84C732.263 652.52 727.46 653.863 721.24 653.87ZM721.24 647.43C725.747 647.43 729.08 646.276 731.24 643.97C733.39 641.66 734.75 638.36 735.35 634.07C735.98 628.995 736.274 623.884 736.23 618.77V593C736.279 587.863 735.985 582.728 735.35 577.63C734.75 573.39 733.35 570.11 731.24 567.81C729.13 565.51 725.77 564.34 721.24 564.34C716.71 564.34 713.43 565.5 711.34 567.81C709.25 570.12 707.9 573.39 707.34 577.63C706.7 582.727 706.406 587.863 706.46 593V618.76C706.41 623.874 706.704 628.985 707.34 634.06C707.927 638.347 709.26 641.647 711.34 643.96C713.42 646.273 716.72 647.43 721.24 647.43Z" fill="#9541BA"/>
<path d="M795.3 653.87C788.32 653.87 783.166 652.233 779.84 648.96C776.352 645.373 774.073 640.786 773.32 635.84C772.25 629.78 771.738 623.634 771.79 617.48V595.59C771.79 586.47 772.486 579.137 773.88 573.59C775.273 568.043 777.69 564.043 781.13 561.59C784.556 559.117 789.28 557.88 795.3 557.88C801.74 557.88 806.596 559.213 809.87 561.88C813.212 564.626 815.513 568.434 816.39 572.67C817.511 577.702 818.051 582.845 818 588V591.7H810V588C810 581.673 809.49 576.817 808.47 573.43C807.47 570.05 805.86 567.69 803.72 566.35C801.172 564.913 798.272 564.22 795.35 564.35C791.163 564.35 787.996 565.35 785.85 567.35C783.703 569.35 782.253 572.543 781.5 576.93C780.648 582.793 780.27 588.716 780.37 594.64V618.79C780.37 628.877 781.37 636.177 783.37 640.69C785.37 645.203 789.423 647.457 795.53 647.45C799.71 647.45 802.85 646.537 804.95 644.71C807.05 642.883 808.416 640.04 809.05 636.18C809.785 631.215 810.12 626.199 810.05 621.18V617.63H818.05V621C818.105 626.614 817.62 632.219 816.6 637.74C815.866 642.244 813.657 646.377 810.32 649.49C807.066 652.41 802.06 653.87 795.3 653.87Z" fill="#9541BA"/>
<path d="M868.07 653.87C863.642 653.989 859.258 652.955 855.35 650.87C851.81 648.87 849.1 645.273 847.22 640.08C845.34 634.887 844.4 627.527 844.4 618V593.2C844.4 583.44 845.367 576.037 847.3 570.99C849.233 565.943 851.997 562.507 855.59 560.68C859.528 558.781 863.859 557.842 868.23 557.94C874.03 557.94 878.593 559.177 881.92 561.65C885.247 564.123 887.607 568.057 889 573.45C890.393 578.87 891.09 586.033 891.09 594.94V603.8H852.94V618.61C852.94 626.017 853.447 631.813 854.46 636C855.46 640.18 857.12 643.14 859.38 644.85C861.908 646.656 864.966 647.564 868.07 647.43C870.369 647.421 872.652 647.039 874.83 646.3C877.083 645.553 878.963 643.783 880.47 640.99C881.977 638.197 882.727 633.863 882.72 627.99V621H891.09V627.11C891.09 635.063 889.453 641.503 886.18 646.43C882.907 651.357 876.87 653.837 868.07 653.87ZM852.94 598.65H882.72V591.4C882.767 586.582 882.47 581.766 881.83 576.99C881.237 572.99 879.923 569.877 877.89 567.65C875.89 565.46 872.63 564.35 868.23 564.35C865.211 564.242 862.224 564.998 859.62 566.53C857.307 567.983 855.613 570.667 854.54 574.58C853.467 578.493 852.933 584.16 852.94 591.58V598.65Z" fill="#9541BA"/>
<path d="M991.72 674L990.72 652.42H919.27V559.36H927.64V646.46H950.5V559.36H958.71V646.46H981.57V559.36H990V646.46H998.21V674H991.72Z" fill="#9541BA"/>
<path d="M1045.33 653.87C1040.9 653.989 1036.52 652.955 1032.61 650.87C1029.07 648.87 1026.36 645.273 1024.48 640.08C1022.6 634.887 1021.66 627.527 1021.66 618V593.2C1021.66 583.44 1022.63 576.037 1024.56 570.99C1026.49 565.943 1029.26 562.507 1032.85 560.68C1036.79 558.781 1041.12 557.842 1045.49 557.94C1051.29 557.94 1055.85 559.177 1059.17 561.65C1062.49 564.123 1064.85 568.067 1066.26 573.48C1067.65 578.9 1068.35 586.063 1068.35 594.97V603.83H1030.19V618.64C1030.19 626.047 1030.7 631.843 1031.72 636.03C1032.72 640.21 1034.38 643.17 1036.63 644.88C1039.16 646.682 1042.22 647.59 1045.33 647.46C1047.63 647.451 1049.91 647.069 1052.09 646.33C1054.34 645.583 1056.22 643.813 1057.73 641.02C1059.24 638.227 1059.99 633.893 1059.98 628.02V621H1068.35V627.11C1068.35 635.063 1066.71 641.503 1063.44 646.43C1060.17 651.357 1054.13 653.837 1045.33 653.87ZM1030.19 598.65H1060V591.4C1060.05 586.582 1059.75 581.766 1059.11 576.99C1058.52 572.99 1057.21 569.877 1055.17 567.65C1053.17 565.46 1049.91 564.35 1045.51 564.35C1042.49 564.242 1039.5 564.998 1036.9 566.53C1034.59 567.983 1032.89 570.667 1031.82 574.58C1030.75 578.493 1030.21 584.16 1030.21 591.58L1030.19 598.65Z" fill="#9541BA"/>
<path d="M1096.69 652.42V559.36H1105.22V600.74H1138.39V559.36H1147.08V652.42H1138.39V607.34H1105.22V652.42H1096.69Z" fill="#9541BA"/>
<path d="M1177.51 652.42V559.36H1184.91V636.48L1217.76 559.36H1224.84V652.42H1217.44V576L1184.75 652.47L1177.51 652.42Z" fill="#9541BA"/>
<path d="M1277.17 653.87C1272.74 653.988 1268.36 652.955 1264.45 650.87C1260.91 648.87 1258.2 645.273 1256.32 640.08C1254.44 634.886 1253.5 627.526 1253.5 618V593.2C1253.5 583.44 1254.47 576.036 1256.4 570.99C1258.33 565.943 1261.1 562.506 1264.69 560.68C1268.63 558.78 1272.96 557.841 1277.33 557.94C1283.12 557.94 1287.68 559.176 1291.01 561.65C1294.34 564.123 1296.71 568.066 1298.1 573.48C1299.49 578.9 1300.19 586.063 1300.19 594.97V603.83H1262V618.64C1262 626.046 1262.51 631.843 1263.53 636.03C1264.53 640.21 1266.19 643.17 1268.44 644.88C1270.97 646.682 1274.03 647.59 1277.14 647.46C1279.44 647.45 1281.72 647.068 1283.9 646.33C1286.15 645.583 1288.03 643.813 1289.53 641.02C1291.03 638.226 1291.78 633.893 1291.79 628.02V621H1300.16V627.11C1300.16 635.063 1298.52 641.503 1295.25 646.43C1291.98 651.356 1285.95 653.836 1277.17 653.87ZM1262 598.65H1291.79V591.4C1291.84 586.581 1291.54 581.766 1290.9 576.99C1290.31 572.99 1288.99 569.876 1286.96 567.65C1284.96 565.46 1281.7 564.35 1277.3 564.35C1274.28 564.243 1271.29 564.999 1268.68 566.53C1266.38 567.98 1264.68 570.66 1263.61 574.58C1262.54 578.5 1262 584.16 1262 591.58V598.65Z" fill="#9541BA"/>
<path d="M1438.69 858.28C1438.69 947.9 1364.5 1020.55 1273 1020.55C1181.5 1020.55 1107.31 947.9 1107.31 858.28C1107.31 768.66 1181.49 696 1273 696C1364.51 696 1438.69 768.65 1438.69 858.28Z" fill="#9541BA"/>
<path d="M1418.83 858.28C1418.83 937.16 1353.54 1001.11 1273 1001.11C1192.46 1001.11 1127.17 937.11 1127.17 858.28C1127.17 779.45 1192.45 715.45 1273 715.45C1353.55 715.45 1418.83 779.4 1418.83 858.28Z" stroke="white" stroke-width="2.62" stroke-miterlimit="10"/>
<path d="M1175.22 895.85C1174.07 895.85 1173.49 895.256 1173.49 894.068C1173.49 893.068 1174.04 892.303 1175.13 891.771C1176.22 891.24 1177.58 890.975 1179.21 890.975C1180.83 890.975 1182.86 891.131 1185.3 891.443C1187.77 891.756 1190.41 891.912 1193.22 891.912C1196.07 891.912 1199.29 891.428 1202.88 890.459H1203.44C1204.04 890.459 1204.47 890.615 1204.75 890.928C1205.04 891.209 1205.18 891.537 1205.18 891.912C1205.18 894.912 1198.8 896.412 1186.05 896.412C1183.08 896.412 1181.13 896.193 1180.19 895.756L1177.52 895.662L1175.69 895.943C1175.57 895.943 1175.5 895.912 1175.5 895.85H1175.22ZM1205.27 920.74C1205.27 918.99 1205.65 918.115 1206.4 918.115C1210.65 918.115 1213.68 918.037 1215.49 917.881C1217.3 917.725 1218.72 917.615 1219.75 917.553C1220.72 908.24 1221.57 901.959 1222.29 898.709C1223 895.428 1223.82 892.271 1224.72 889.24C1221.97 893.396 1218.71 897.271 1214.93 900.865C1214.36 901.24 1213.83 901.428 1213.33 901.428C1212.18 901.428 1211.6 900.85 1211.6 899.693C1211.6 899.225 1211.79 898.678 1212.16 898.053C1215.44 894.709 1217.54 892.428 1218.44 891.209C1219.38 889.99 1220.27 888.803 1221.11 887.646C1221.99 886.49 1222.86 885.053 1223.74 883.334C1224.61 881.615 1225.46 879.99 1226.27 878.459C1227.08 876.896 1227.88 875.584 1228.66 874.521C1229.47 873.459 1230.29 872.928 1231.1 872.928C1231.91 872.928 1232.32 873.428 1232.32 874.428C1232.32 874.584 1232.32 874.74 1232.32 874.896C1232.32 875.053 1232.29 875.225 1232.22 875.412L1231.94 876.35H1232.04L1231.85 876.678C1227.82 891.896 1225.22 905.459 1224.07 917.365C1226.88 917.24 1229.52 917.178 1231.99 917.178H1236.02C1236.3 917.178 1236.74 917.209 1237.33 917.271C1237.96 917.303 1238.6 917.334 1239.25 917.365C1240.32 917.646 1240.85 918.287 1240.85 919.287C1240.85 920.256 1240.27 921.053 1239.11 921.678C1238.74 921.865 1238.36 921.959 1237.99 921.959L1231.38 921.49L1208.6 921.865C1207.94 922.24 1207.4 922.428 1206.96 922.428C1205.83 922.428 1205.27 921.865 1205.27 920.74ZM1255.19 917.834C1254.07 917.834 1253.5 917.256 1253.5 916.1C1253.5 915.693 1253.57 915.381 1253.69 915.162C1258.66 908.193 1261.99 902.85 1263.68 899.131C1266.99 891.756 1268.65 884.037 1268.65 875.975C1268.86 875.256 1269.29 874.678 1269.91 874.24C1270.54 873.49 1271.22 873.115 1271.97 873.115C1272.72 873.115 1273.32 873.334 1273.75 873.771C1274.22 874.209 1274.69 874.631 1275.16 875.037C1277.85 876.381 1283.22 877.053 1291.29 877.053C1296.32 877.053 1300.65 875.803 1304.27 873.303C1305.33 872.584 1306.1 872.225 1306.57 872.225C1307.66 872.225 1308.21 872.803 1308.21 873.959C1308.21 875.615 1306.15 877.334 1302.02 879.115C1299.27 880.334 1297.04 880.99 1295.32 881.084C1293.63 881.146 1292.32 881.178 1291.38 881.178C1282.25 881.178 1276.11 880.537 1272.96 879.256C1272.43 889.568 1269.07 899.459 1262.88 908.928C1266.38 907.24 1271.38 906.396 1277.88 906.396C1284.41 906.396 1290.38 908.756 1295.79 913.475C1301.19 918.162 1303.9 924.396 1303.9 932.178C1303.9 939.99 1301.47 946.584 1296.63 951.959C1291.07 958.084 1283.24 961.146 1273.15 961.146C1265.71 961.146 1259.21 959.146 1253.65 955.146C1247.27 950.553 1244.08 944.318 1244.08 936.443C1244.08 933.193 1244.97 931.568 1246.75 931.568C1247.41 931.568 1247.96 931.928 1248.4 932.646V933.959C1248.4 941.209 1250.74 946.787 1255.43 950.693C1260.11 954.6 1265.99 956.553 1273.05 956.553C1285.02 956.553 1292.99 952.084 1296.96 943.146C1298.36 939.959 1299.07 936.537 1299.07 932.881C1299.07 926.35 1296.94 921.021 1292.69 916.896C1288.47 912.74 1283.3 910.662 1277.18 910.662C1273.05 910.662 1269.61 911.131 1266.86 912.068C1264.15 913.006 1260.83 914.74 1256.93 917.271C1256.36 917.646 1255.79 917.834 1255.19 917.834ZM1346.65 830.975C1347.24 830.443 1347.82 830.178 1348.38 830.178C1349.66 830.178 1350.3 830.693 1350.3 831.725C1350.3 832.256 1349.85 833.178 1348.94 834.49C1348.04 835.803 1346.8 838.506 1345.24 842.6C1343.71 846.693 1342.1 851.396 1340.41 856.709C1338.72 861.99 1336.77 867.521 1334.55 873.303C1327.74 891.271 1321.82 908.521 1316.79 925.053C1316.13 926.334 1315.24 926.975 1314.11 926.975C1313.15 926.975 1312.6 926.334 1312.47 925.053C1316.47 911.678 1322.46 894.303 1330.43 872.928C1332.55 867.303 1333.96 863.49 1334.65 861.49C1340.02 845.99 1344.02 835.818 1346.65 830.975ZM1311.49 842.834C1311.49 839.271 1312.44 836.521 1314.35 834.584C1316.25 832.615 1318.58 831.631 1321.33 831.631C1324.11 831.631 1326.36 832.506 1328.08 834.256C1329.83 835.975 1330.71 838.225 1330.71 841.006C1330.71 843.756 1329.85 845.99 1328.13 847.709C1326.44 849.396 1324.18 850.24 1321.33 850.24C1318.52 850.24 1316.18 849.506 1314.3 848.037C1312.43 846.568 1311.49 844.834 1311.49 842.834ZM1341.25 917.459L1344.54 917.646C1345.6 917.646 1346.55 917.287 1347.4 916.568C1348.24 915.818 1348.66 914.615 1348.66 912.959C1348.66 911.271 1348.07 909.615 1346.88 907.99C1345.69 906.365 1344.32 905.553 1342.75 905.553C1341.22 905.553 1340.07 905.959 1339.29 906.771C1337.91 908.209 1337.22 909.428 1337.22 910.428C1337.22 912.271 1337.86 913.662 1339.15 914.6C1339.4 915.006 1339.52 915.506 1339.52 916.1C1339.52 916.662 1339.25 917.193 1338.72 917.693C1338.19 918.162 1337.43 918.396 1336.43 918.396C1335.43 918.396 1334.57 917.678 1333.85 916.24C1333.16 914.803 1332.82 913.428 1332.82 912.115C1332.82 909.365 1333.83 906.834 1335.86 904.521C1337.9 902.209 1340.33 901.053 1343.18 901.053C1346.05 901.053 1348.36 902.178 1350.11 904.428C1351.9 906.646 1352.79 908.959 1352.79 911.365C1352.79 915.365 1351.85 918.115 1349.97 919.615C1348.13 921.115 1345.77 921.865 1342.9 921.865C1341.49 921.865 1340.41 921.787 1339.66 921.631C1338.94 921.475 1338.58 921.068 1338.58 920.412C1338.58 919.725 1338.83 919.084 1339.33 918.49C1339.83 917.896 1340.47 917.553 1341.25 917.459ZM1326.21 841.24C1326.21 837.646 1324.5 835.85 1321.1 835.85C1319.5 835.85 1318.24 836.381 1317.3 837.443C1316.36 838.475 1315.9 839.787 1315.9 841.381C1315.9 842.943 1316.32 844.037 1317.16 844.662C1318.04 845.256 1319.25 845.553 1320.82 845.553C1324.41 845.553 1326.21 844.115 1326.21 841.24Z" fill="white"/>
<path d="M809.43 1074.59C795.36 1047.75 766.56 1024.84 742.95 1007.02C733.87 1000.18 722.95 992.67 711.44 987.9C776.75 1001.05 834.71 1029.7 867.03 1082H881.52C827.07 937.81 538.38 957.77 428.16 996.34C424.56 997.59 424.09 1001.68 426.47 1004.34C453.85 1034.42 488.65 1060.58 526.03 1082.04H549.2C540.78 1077.5 532.46 1072.88 524.31 1068.22C501.78 1055.37 480.7 1040.32 460.46 1024.16C442.46 1009.84 430.59 1004.59 455.75 998.16C485.783 990.629 516.328 985.311 547.14 982.25C584.5 987.43 618.7 1000.97 654.14 1012.99C599.63 999.83 543.28 995.83 485.26 1005.28C484.659 1005.34 484.102 1005.62 483.705 1006.08C483.308 1006.53 483.102 1007.12 483.129 1007.73C483.156 1008.33 483.414 1008.9 483.85 1009.32C484.286 1009.73 484.866 1009.97 485.47 1009.97C564.47 1012.23 635.23 1020.36 706.18 1042.67C643.81 1053.24 583.57 1064.42 519.46 1060.73C517.46 1060.63 517.14 1064.07 519.15 1064.29C584.91 1071.58 654.39 1066.81 717.75 1046.46C734.39 1052.05 751.09 1058.46 767.93 1065.75C740.45 1071.59 713.67 1077.49 686.93 1082.06H737C749.914 1078.36 762.63 1074 775.1 1069C778.17 1070.4 781.24 1071.7 784.33 1073.16C790.49 1076.05 796.61 1079.02 802.69 1082.06H822.86C818.413 1079.52 813.937 1077.03 809.43 1074.59ZM661.11 1014.64C661.354 1014.44 661.549 1014.19 661.679 1013.91C661.808 1013.62 661.868 1013.31 661.855 1012.99C661.841 1012.68 661.754 1012.38 661.6 1012.1C661.446 1011.83 661.23 1011.59 660.97 1011.42C631.89 996.07 599.89 985.95 567.37 980.42C582.86 979.32 598.64 978.75 614.53 978.8C614.636 979.055 614.813 979.273 615.04 979.43C644.34 995.43 673.94 1013.01 704.4 1027.75C690.1 1022.8 675.68 1018.36 661.11 1014.64ZM740.73 1041.64C740.875 1041.26 740.88 1040.85 740.747 1040.47C740.613 1040.09 740.348 1039.77 740 1039.57C703.4 1015.57 661.63 997.66 622 978.86C642.808 979.146 663.58 980.659 684.21 983.39C681.369 983.712 678.572 984.346 675.87 985.28C673.87 985.99 674.28 989.45 676.57 989.12C725.51 982.31 762.48 1034.39 795.31 1067.12C777.37 1057.89 759.177 1049.41 740.73 1041.66V1041.64Z" fill="#9541BA"/>
<path d="M946.45 1078.66C946.45 1078.55 946.63 1078.51 946.66 1078.37C947.19 1076.12 947.56 1073.92 947.98 1071.69C949.16 1075.1 950.29 1078.55 951.39 1082H956C953.93 1075.44 951.79 1068.91 949.51 1062.42C963.9 950 842.52 880 745.62 862.14C742.21 861.52 739.91 864.47 740.62 867.65C764.29 975 887.29 997 938.69 1082H948.11C947.57 1080.88 947 1079.76 946.45 1078.66ZM767.2 910.19C765.61 907.71 763.97 905.28 762.45 902.72C731.22 849.86 802.64 885.45 824.38 894.78C889.38 922.59 924.38 969.68 937.17 1031.01C931.653 1018.48 925.246 1006.36 918 994.74C889 948.59 838.13 911.08 791.28 884.9C785.94 881.9 781.61 890.39 786.96 893.31C805.601 903.608 823.399 915.361 840.19 928.46C814.32 918.56 788.36 909.36 764.19 895.2C761.26 893.48 758.93 898.11 761.8 899.86C790.007 917.026 820.546 930.027 852.47 938.46C863.253 947.538 873.513 957.22 883.2 967.46C843.43 950.77 805.74 934.12 768.82 910.46C768.589 910.294 768.322 910.184 768.042 910.137C767.761 910.09 767.473 910.108 767.2 910.19ZM803.2 952.08C791.624 942.257 781.384 930.961 772.74 918.48C808.65 942.81 847.3 968.6 890.68 975.7C902.676 989.111 913.594 1003.45 923.33 1018.58C930.05 1029.27 935.832 1040.53 940.61 1052.22C941.35 1058.41 941.9 1064.73 942.26 1071.16C911.39 1019.22 849 990.34 803.19 952.08H803.2Z" fill="#9541BA"/>
<path d="M1216.11 32.76C1209.91 22.9659 1204.52 12.6779 1200 2H1189.57C1196.89 19.4939 1206.38 35.9943 1217.83 51.11C1220.4 54.49 1225.55 51.49 1225.6 47.9C1225.81 32.5477 1224.83 17.2024 1222.68 2H1213C1214.65 12.1816 1215.69 22.4535 1216.11 32.76Z" fill="#9541BA"/>
<path d="M1593.71 137.07C1583.03 130.18 1586.58 131.54 1574.45 130.07C1572.61 129.84 1572.05 132.63 1573.53 133.45C1593.23 144.36 1568.17 130.3 1563.4 128.91C1540.07 122.09 1518.02 111.35 1496.32 100.58C1486.9 95.9 1477.6 90.99 1468.32 86.01C1488.94 90.22 1510.21 90.39 1530.85 85.32C1533.64 84.63 1534.76 81.87 1534.32 79.32C1529.95 53.21 1509.32 38.32 1484.39 27.96C1502.74 28.09 1520.94 24.87 1538.68 15.96C1542 14.29 1541.35 9.90998 1538.68 8.04998C1535.68 5.92998 1532.68 3.97998 1529.68 2.14998H1512.5L1514.5 2.96998C1543.94 15.5 1494.5 18.03 1490.62 18.24C1462.06 19.68 1432.47 9.99998 1404.92 1.99998H1393.12C1391 4.49998 1390.73 8.61998 1394.33 10.18C1394.78 10.38 1395.24 10.53 1395.69 10.71L1395.96 10.78C1431.96 25.97 1471.41 31.01 1505.17 51.53C1537.08 70.93 1510.17 80.21 1490.37 79.95C1469.2 79.67 1447.25 69.69 1428.85 60.5C1408.46 50.32 1391.04 35.16 1373.19 21.03C1382.81 24.03 1392.55 26.71 1402.55 28.79C1405.33 29.36 1406.47 25.3 1403.7 24.51C1383.75 18.7748 1364.35 11.2406 1345.76 1.99998H1317.65C1330.49 21.68 1346.65 39.28 1362.11 56.82C1383.26 80.82 1414.43 111.06 1418.28 144.98C1378.37 121.09 1348.49 80.41 1326.42 37.62C1322.07 25.35 1316.82 12.81 1309.89 2.09998V1.99998H1296.8C1311.94 39.47 1333.59 73.7 1334.18 116C1335.11 126.833 1332.86 127.5 1327.44 118C1320.44 112.18 1314.76 104.6 1309.63 97.18C1301.68 85.7 1296.98 72.29 1293.19 58.98C1287.94 40.6 1286.54 21.17 1287.7 1.97998H1281.28C1277.83 51.98 1290.95 102.66 1333.84 133.63C1336.22 135.34 1339.39 133.5 1340.16 131.06C1345.92 112.99 1343.09 93.71 1338.26 75.39C1359.57 109.44 1386.75 139.51 1421.15 157.86C1421.9 158.263 1422.74 158.47 1423.59 158.459C1424.44 158.448 1425.27 158.221 1426.01 157.798C1426.75 157.376 1427.36 156.772 1427.8 156.045C1428.24 155.317 1428.49 154.489 1428.52 153.64C1428.97 142.417 1427.17 131.218 1423.23 120.7C1424.83 122.21 1426.34 123.8 1427.97 125.29C1432.25 129.23 1441.23 125.55 1438.69 119.14C1429.53 95.88 1415.82 74.36 1399.38 54.78C1411.1 63.4585 1423.82 70.7034 1437.26 76.36C1486.2 104.18 1535.26 130.7 1590.75 144.17C1591.64 144.351 1592.57 144.217 1593.37 143.792C1594.17 143.366 1594.8 142.675 1595.15 141.837C1595.5 140.999 1595.55 140.065 1595.28 139.196C1595.02 138.326 1594.46 137.575 1593.71 137.07ZM1405.53 84C1394.99 72.2 1384.87 60 1374.85 47.76C1386.1 58.9314 1396.37 71.0567 1405.53 84Z" fill="#9541BA"/>
<path d="M1393.12 2.00001H1404.92C1402.78 1.39001 1400.65 0.780007 1398.53 0.190007C1397.55 -0.0723021 1396.51 -0.0405588 1395.55 0.281283C1394.59 0.603125 1393.74 1.20085 1393.12 2.00001Z" fill="#9541BA"/>
<path d="M1539.62 88.9999C1537.24 87.8499 1535.17 91.1999 1537.5 92.5899C1558.56 105.1 1606.57 127.47 1629.36 108.44C1629.61 108.199 1629.79 107.887 1629.86 107.546C1629.93 107.204 1629.9 106.848 1629.77 106.524C1629.64 106.201 1629.41 105.924 1629.12 105.731C1628.83 105.537 1628.49 105.436 1628.14 105.44C1614.44 105.65 1602.5 107.93 1588.64 105.68C1571.59 102.93 1555.08 96.4399 1539.62 88.9999Z" fill="#9541BA"/>
<path d="M1419.65 201.53C1412.4 192.11 1399.65 186.35 1390.93 178.07C1380.6 168.358 1373.7 155.552 1371.27 141.58C1370.45 137.06 1363.68 138.98 1364.43 143.44C1366.82 157.91 1373.26 169.91 1382.86 180.89C1390.99 190.17 1405.05 203.01 1417.45 205.29C1417.93 205.408 1418.43 205.37 1418.88 205.179C1419.33 204.989 1419.71 204.657 1419.96 204.234C1420.21 203.81 1420.31 203.318 1420.25 202.831C1420.2 202.343 1419.99 201.887 1419.65 201.53Z" fill="#9541BA"/>
</g>
<defs>
<clipPath id="clip0_1341_3">
<rect width="1925.89" height="1082" fill="white"/>
</clipPath>
</defs>
</svg>
